G75*
%MOIN*%
%OFA0B0*%
%FSLAX25Y25*%
%IPPOS*%
%LPD*%
%AMOC8*
5,1,8,0,0,1.08239X$1,22.5*
%
%ADD10C,0.00800*%
%ADD11R,0.03556X0.04343*%
%ADD12R,0.06312X0.07099*%
%ADD13C,0.01614*%
%ADD14R,0.10643X0.02769*%
%ADD15R,0.10643X0.08674*%
%ADD16R,0.02170X0.06300*%
%ADD17R,0.03950X0.03950*%
%ADD18C,0.04737*%
D10*
X0008114Y0006500D02*
X0008114Y0066500D01*
X0098114Y0066500D01*
X0098114Y0006500D01*
X0008114Y0006500D01*
D11*
X0026555Y0014500D03*
X0031673Y0014500D03*
X0050555Y0057500D03*
X0055673Y0057500D03*
X0055673Y0062500D03*
X0050555Y0062500D03*
X0025673Y0062500D03*
X0020555Y0062500D03*
D12*
X0042602Y0012500D03*
X0053626Y0012500D03*
D13*
X0076736Y0026839D02*
X0076738Y0026913D01*
X0076744Y0026987D01*
X0076754Y0027060D01*
X0076768Y0027133D01*
X0076785Y0027205D01*
X0076807Y0027275D01*
X0076832Y0027345D01*
X0076861Y0027413D01*
X0076894Y0027479D01*
X0076930Y0027544D01*
X0076970Y0027606D01*
X0077012Y0027667D01*
X0077058Y0027725D01*
X0077107Y0027780D01*
X0077159Y0027833D01*
X0077214Y0027883D01*
X0077271Y0027929D01*
X0077331Y0027973D01*
X0077393Y0028013D01*
X0077457Y0028050D01*
X0077523Y0028084D01*
X0077591Y0028114D01*
X0077660Y0028140D01*
X0077731Y0028163D01*
X0077802Y0028181D01*
X0077875Y0028196D01*
X0077948Y0028207D01*
X0078022Y0028214D01*
X0078096Y0028217D01*
X0078169Y0028216D01*
X0078243Y0028211D01*
X0078317Y0028202D01*
X0078390Y0028189D01*
X0078462Y0028172D01*
X0078533Y0028152D01*
X0078603Y0028127D01*
X0078671Y0028099D01*
X0078738Y0028068D01*
X0078803Y0028032D01*
X0078866Y0027994D01*
X0078927Y0027952D01*
X0078986Y0027906D01*
X0079042Y0027858D01*
X0079095Y0027807D01*
X0079145Y0027753D01*
X0079193Y0027696D01*
X0079237Y0027637D01*
X0079279Y0027575D01*
X0079317Y0027512D01*
X0079351Y0027446D01*
X0079382Y0027379D01*
X0079409Y0027310D01*
X0079432Y0027240D01*
X0079452Y0027169D01*
X0079468Y0027096D01*
X0079480Y0027023D01*
X0079488Y0026950D01*
X0079492Y0026876D01*
X0079492Y0026802D01*
X0079488Y0026728D01*
X0079480Y0026655D01*
X0079468Y0026582D01*
X0079452Y0026509D01*
X0079432Y0026438D01*
X0079409Y0026368D01*
X0079382Y0026299D01*
X0079351Y0026232D01*
X0079317Y0026166D01*
X0079279Y0026103D01*
X0079237Y0026041D01*
X0079193Y0025982D01*
X0079145Y0025925D01*
X0079095Y0025871D01*
X0079042Y0025820D01*
X0078986Y0025772D01*
X0078927Y0025726D01*
X0078866Y0025684D01*
X0078803Y0025646D01*
X0078738Y0025610D01*
X0078671Y0025579D01*
X0078603Y0025551D01*
X0078533Y0025526D01*
X0078462Y0025506D01*
X0078390Y0025489D01*
X0078317Y0025476D01*
X0078243Y0025467D01*
X0078169Y0025462D01*
X0078096Y0025461D01*
X0078022Y0025464D01*
X0077948Y0025471D01*
X0077875Y0025482D01*
X0077802Y0025497D01*
X0077731Y0025515D01*
X0077660Y0025538D01*
X0077591Y0025564D01*
X0077523Y0025594D01*
X0077457Y0025628D01*
X0077393Y0025665D01*
X0077331Y0025705D01*
X0077271Y0025749D01*
X0077214Y0025795D01*
X0077159Y0025845D01*
X0077107Y0025898D01*
X0077058Y0025953D01*
X0077012Y0026011D01*
X0076970Y0026072D01*
X0076930Y0026134D01*
X0076894Y0026199D01*
X0076861Y0026265D01*
X0076832Y0026333D01*
X0076807Y0026403D01*
X0076785Y0026473D01*
X0076768Y0026545D01*
X0076754Y0026618D01*
X0076744Y0026691D01*
X0076738Y0026765D01*
X0076736Y0026839D01*
X0076736Y0044161D02*
X0076738Y0044235D01*
X0076744Y0044309D01*
X0076754Y0044382D01*
X0076768Y0044455D01*
X0076785Y0044527D01*
X0076807Y0044597D01*
X0076832Y0044667D01*
X0076861Y0044735D01*
X0076894Y0044801D01*
X0076930Y0044866D01*
X0076970Y0044928D01*
X0077012Y0044989D01*
X0077058Y0045047D01*
X0077107Y0045102D01*
X0077159Y0045155D01*
X0077214Y0045205D01*
X0077271Y0045251D01*
X0077331Y0045295D01*
X0077393Y0045335D01*
X0077457Y0045372D01*
X0077523Y0045406D01*
X0077591Y0045436D01*
X0077660Y0045462D01*
X0077731Y0045485D01*
X0077802Y0045503D01*
X0077875Y0045518D01*
X0077948Y0045529D01*
X0078022Y0045536D01*
X0078096Y0045539D01*
X0078169Y0045538D01*
X0078243Y0045533D01*
X0078317Y0045524D01*
X0078390Y0045511D01*
X0078462Y0045494D01*
X0078533Y0045474D01*
X0078603Y0045449D01*
X0078671Y0045421D01*
X0078738Y0045390D01*
X0078803Y0045354D01*
X0078866Y0045316D01*
X0078927Y0045274D01*
X0078986Y0045228D01*
X0079042Y0045180D01*
X0079095Y0045129D01*
X0079145Y0045075D01*
X0079193Y0045018D01*
X0079237Y0044959D01*
X0079279Y0044897D01*
X0079317Y0044834D01*
X0079351Y0044768D01*
X0079382Y0044701D01*
X0079409Y0044632D01*
X0079432Y0044562D01*
X0079452Y0044491D01*
X0079468Y0044418D01*
X0079480Y0044345D01*
X0079488Y0044272D01*
X0079492Y0044198D01*
X0079492Y0044124D01*
X0079488Y0044050D01*
X0079480Y0043977D01*
X0079468Y0043904D01*
X0079452Y0043831D01*
X0079432Y0043760D01*
X0079409Y0043690D01*
X0079382Y0043621D01*
X0079351Y0043554D01*
X0079317Y0043488D01*
X0079279Y0043425D01*
X0079237Y0043363D01*
X0079193Y0043304D01*
X0079145Y0043247D01*
X0079095Y0043193D01*
X0079042Y0043142D01*
X0078986Y0043094D01*
X0078927Y0043048D01*
X0078866Y0043006D01*
X0078803Y0042968D01*
X0078738Y0042932D01*
X0078671Y0042901D01*
X0078603Y0042873D01*
X0078533Y0042848D01*
X0078462Y0042828D01*
X0078390Y0042811D01*
X0078317Y0042798D01*
X0078243Y0042789D01*
X0078169Y0042784D01*
X0078096Y0042783D01*
X0078022Y0042786D01*
X0077948Y0042793D01*
X0077875Y0042804D01*
X0077802Y0042819D01*
X0077731Y0042837D01*
X0077660Y0042860D01*
X0077591Y0042886D01*
X0077523Y0042916D01*
X0077457Y0042950D01*
X0077393Y0042987D01*
X0077331Y0043027D01*
X0077271Y0043071D01*
X0077214Y0043117D01*
X0077159Y0043167D01*
X0077107Y0043220D01*
X0077058Y0043275D01*
X0077012Y0043333D01*
X0076970Y0043394D01*
X0076930Y0043456D01*
X0076894Y0043521D01*
X0076861Y0043587D01*
X0076832Y0043655D01*
X0076807Y0043725D01*
X0076785Y0043795D01*
X0076768Y0043867D01*
X0076754Y0043940D01*
X0076744Y0044013D01*
X0076738Y0044087D01*
X0076736Y0044161D01*
D14*
X0068272Y0041799D03*
X0068272Y0038650D03*
X0068272Y0035500D03*
X0068272Y0032350D03*
X0068272Y0029201D03*
D15*
X0068272Y0017783D03*
X0089925Y0017783D03*
X0089925Y0053217D03*
X0068272Y0053217D03*
D16*
X0054748Y0049894D03*
X0052189Y0049894D03*
X0049630Y0049894D03*
X0047071Y0049894D03*
X0044512Y0049894D03*
X0041953Y0049894D03*
X0039394Y0049894D03*
X0036835Y0049894D03*
X0034276Y0049894D03*
X0031717Y0049894D03*
X0029157Y0049894D03*
X0026598Y0049894D03*
X0024039Y0049894D03*
X0021480Y0049894D03*
X0021480Y0021106D03*
X0024039Y0021106D03*
X0026598Y0021106D03*
X0029157Y0021106D03*
X0031717Y0021106D03*
X0034276Y0021106D03*
X0036835Y0021106D03*
X0039394Y0021106D03*
X0041953Y0021106D03*
X0044512Y0021106D03*
X0047071Y0021106D03*
X0049630Y0021106D03*
X0052189Y0021106D03*
X0054748Y0021106D03*
D17*
X0046067Y0062500D03*
X0040161Y0062500D03*
X0036067Y0062500D03*
X0030161Y0062500D03*
D18*
X0080914Y0057400D03*
X0022114Y0009900D03*
M02*
