G75*
%MOIN*%
%OFA0B0*%
%FSLAX25Y25*%
%IPPOS*%
%LPD*%
%AMOC8*
5,1,8,0,0,1.08239X$1,22.5*
%
%ADD10C,0.00800*%
%ADD11R,0.02756X0.03543*%
%ADD12R,0.05512X0.06299*%
%ADD13R,0.09843X0.01969*%
%ADD14R,0.09843X0.07874*%
%ADD15R,0.01370X0.05500*%
%ADD16R,0.03150X0.03150*%
D10*
X0008114Y0006500D02*
X0008114Y0066500D01*
X0098114Y0066500D01*
X0098114Y0006500D01*
X0008114Y0006500D01*
D11*
X0026555Y0014500D03*
X0031673Y0014500D03*
X0050555Y0057500D03*
X0055673Y0057500D03*
X0055673Y0062500D03*
X0050555Y0062500D03*
X0025673Y0062500D03*
X0020555Y0062500D03*
D12*
X0042602Y0012500D03*
X0053626Y0012500D03*
D13*
X0068272Y0029201D03*
X0068272Y0032350D03*
X0068272Y0035500D03*
X0068272Y0038650D03*
X0068272Y0041799D03*
D14*
X0068272Y0053217D03*
X0089925Y0053217D03*
X0089925Y0017783D03*
X0068272Y0017783D03*
D15*
X0054748Y0021106D03*
X0052189Y0021106D03*
X0049630Y0021106D03*
X0047071Y0021106D03*
X0044512Y0021106D03*
X0041953Y0021106D03*
X0039394Y0021106D03*
X0036835Y0021106D03*
X0034276Y0021106D03*
X0031717Y0021106D03*
X0029157Y0021106D03*
X0026598Y0021106D03*
X0024039Y0021106D03*
X0021480Y0021106D03*
X0021480Y0049894D03*
X0024039Y0049894D03*
X0026598Y0049894D03*
X0029157Y0049894D03*
X0031717Y0049894D03*
X0034276Y0049894D03*
X0036835Y0049894D03*
X0039394Y0049894D03*
X0041953Y0049894D03*
X0044512Y0049894D03*
X0047071Y0049894D03*
X0049630Y0049894D03*
X0052189Y0049894D03*
X0054748Y0049894D03*
D16*
X0046067Y0062500D03*
X0040161Y0062500D03*
X0036067Y0062500D03*
X0030161Y0062500D03*
M02*
