G75*
%MOIN*%
%OFA0B0*%
%FSLAX25Y25*%
%IPPOS*%
%LPD*%
%AMOC8*
5,1,8,0,0,1.08239X$1,22.5*
%
%ADD10C,0.00800*%
%ADD11C,0.00600*%
%ADD12C,0.00100*%
%ADD13C,0.00500*%
%ADD14C,0.00300*%
D10*
X0008114Y0006500D02*
X0008114Y0066500D01*
X0098114Y0066500D01*
X0098114Y0006500D01*
X0008114Y0006500D01*
D11*
X0064114Y0030500D02*
X0064114Y0040500D01*
X0064116Y0040560D01*
X0064121Y0040621D01*
X0064130Y0040680D01*
X0064143Y0040739D01*
X0064159Y0040798D01*
X0064179Y0040855D01*
X0064202Y0040910D01*
X0064229Y0040965D01*
X0064258Y0041017D01*
X0064291Y0041068D01*
X0064327Y0041117D01*
X0064365Y0041163D01*
X0064407Y0041207D01*
X0064451Y0041249D01*
X0064497Y0041287D01*
X0064546Y0041323D01*
X0064597Y0041356D01*
X0064649Y0041385D01*
X0064704Y0041412D01*
X0064759Y0041435D01*
X0064816Y0041455D01*
X0064875Y0041471D01*
X0064934Y0041484D01*
X0064993Y0041493D01*
X0065054Y0041498D01*
X0065114Y0041500D01*
X0071114Y0041500D01*
X0071174Y0041498D01*
X0071235Y0041493D01*
X0071294Y0041484D01*
X0071353Y0041471D01*
X0071412Y0041455D01*
X0071469Y0041435D01*
X0071524Y0041412D01*
X0071579Y0041385D01*
X0071631Y0041356D01*
X0071682Y0041323D01*
X0071731Y0041287D01*
X0071777Y0041249D01*
X0071821Y0041207D01*
X0071863Y0041163D01*
X0071901Y0041117D01*
X0071937Y0041068D01*
X0071970Y0041017D01*
X0071999Y0040965D01*
X0072026Y0040910D01*
X0072049Y0040855D01*
X0072069Y0040798D01*
X0072085Y0040739D01*
X0072098Y0040680D01*
X0072107Y0040621D01*
X0072112Y0040560D01*
X0072114Y0040500D01*
X0072114Y0030500D01*
X0072112Y0030440D01*
X0072107Y0030379D01*
X0072098Y0030320D01*
X0072085Y0030261D01*
X0072069Y0030202D01*
X0072049Y0030145D01*
X0072026Y0030090D01*
X0071999Y0030035D01*
X0071970Y0029983D01*
X0071937Y0029932D01*
X0071901Y0029883D01*
X0071863Y0029837D01*
X0071821Y0029793D01*
X0071777Y0029751D01*
X0071731Y0029713D01*
X0071682Y0029677D01*
X0071631Y0029644D01*
X0071579Y0029615D01*
X0071524Y0029588D01*
X0071469Y0029565D01*
X0071412Y0029545D01*
X0071353Y0029529D01*
X0071294Y0029516D01*
X0071235Y0029507D01*
X0071174Y0029502D01*
X0071114Y0029500D01*
X0065114Y0029500D01*
X0065054Y0029502D01*
X0064993Y0029507D01*
X0064934Y0029516D01*
X0064875Y0029529D01*
X0064816Y0029545D01*
X0064759Y0029565D01*
X0064704Y0029588D01*
X0064649Y0029615D01*
X0064597Y0029644D01*
X0064546Y0029677D01*
X0064497Y0029713D01*
X0064451Y0029751D01*
X0064407Y0029793D01*
X0064365Y0029837D01*
X0064327Y0029883D01*
X0064291Y0029932D01*
X0064258Y0029983D01*
X0064229Y0030035D01*
X0064202Y0030090D01*
X0064179Y0030145D01*
X0064159Y0030202D01*
X0064143Y0030261D01*
X0064130Y0030320D01*
X0064121Y0030379D01*
X0064116Y0030440D01*
X0064114Y0030500D01*
X0067548Y0027776D02*
X0069817Y0027776D01*
X0067548Y0027776D02*
X0066414Y0026642D01*
X0067548Y0025508D01*
X0069817Y0025508D01*
X0069250Y0024093D02*
X0068683Y0024093D01*
X0068116Y0023526D01*
X0067548Y0024093D01*
X0066981Y0024093D01*
X0066414Y0023526D01*
X0066414Y0022392D01*
X0066981Y0021825D01*
X0066981Y0020550D02*
X0066414Y0020550D01*
X0066414Y0019983D01*
X0066981Y0019983D01*
X0066981Y0020550D01*
X0069250Y0021825D02*
X0069817Y0022392D01*
X0069817Y0023526D01*
X0069250Y0024093D01*
X0068116Y0023526D02*
X0068116Y0022959D01*
X0068683Y0018569D02*
X0068116Y0018001D01*
X0067548Y0018569D01*
X0066981Y0018569D01*
X0066414Y0018001D01*
X0066414Y0016867D01*
X0066981Y0016300D01*
X0068116Y0017434D02*
X0068116Y0018001D01*
X0068683Y0018569D02*
X0069250Y0018569D01*
X0069817Y0018001D01*
X0069817Y0016867D01*
X0069250Y0016300D01*
X0069317Y0043300D02*
X0067616Y0043300D01*
X0068183Y0044434D01*
X0068183Y0045001D01*
X0067616Y0045569D01*
X0066481Y0045569D01*
X0065914Y0045001D01*
X0065914Y0043867D01*
X0066481Y0043300D01*
X0069317Y0043300D02*
X0069317Y0045569D01*
X0069317Y0046983D02*
X0067048Y0046983D01*
X0065914Y0048117D01*
X0067048Y0049252D01*
X0069317Y0049252D01*
D12*
X0062815Y0040078D02*
X0062565Y0040078D01*
X0061564Y0039077D01*
X0061564Y0040078D01*
X0062815Y0040078D02*
X0063065Y0039827D01*
X0063065Y0039327D01*
X0062815Y0039077D01*
X0063065Y0038604D02*
X0063065Y0038104D01*
X0063065Y0038354D02*
X0061814Y0038354D01*
X0061564Y0038104D01*
X0061564Y0037854D01*
X0061814Y0037603D01*
X0061814Y0037131D02*
X0061564Y0036881D01*
X0061564Y0036380D01*
X0061814Y0036130D01*
X0062315Y0036380D02*
X0062565Y0036130D01*
X0062815Y0036130D01*
X0063065Y0036380D01*
X0063065Y0036881D01*
X0062815Y0037131D01*
X0062315Y0036881D02*
X0062065Y0037131D01*
X0061814Y0037131D01*
X0062315Y0036881D02*
X0062315Y0036380D01*
X0073600Y0034772D02*
X0073691Y0035103D01*
X0073844Y0035410D01*
X0074065Y0035716D01*
X0074324Y0035990D01*
X0074562Y0036160D01*
X0074834Y0036265D01*
X0075124Y0036299D01*
X0075414Y0036260D01*
X0075684Y0036150D01*
X0076377Y0035683D01*
X0076984Y0035110D01*
X0077161Y0034959D01*
X0077371Y0034859D01*
X0077600Y0034816D01*
X0077832Y0034834D01*
X0078051Y0034912D01*
X0078243Y0035043D01*
X0078394Y0035220D01*
X0078514Y0035442D01*
X0078595Y0035681D01*
X0078634Y0035930D01*
X0078620Y0036221D01*
X0078535Y0036500D01*
X0078384Y0036750D01*
X0078245Y0036882D01*
X0078074Y0036970D01*
X0077899Y0037009D01*
X0077719Y0037009D01*
X0077544Y0036970D01*
X0077477Y0036934D01*
X0077424Y0036880D01*
X0077184Y0036550D01*
X0077151Y0036488D01*
X0077137Y0036419D01*
X0077144Y0036350D01*
X0077114Y0036540D01*
X0077085Y0036910D01*
X0077114Y0037280D01*
X0077187Y0037555D01*
X0083542Y0037555D01*
X0083652Y0037654D02*
X0077235Y0037654D01*
X0077284Y0037752D02*
X0083763Y0037752D01*
X0083874Y0037851D02*
X0077344Y0037851D01*
X0077313Y0037810D02*
X0077488Y0038035D01*
X0077704Y0038220D01*
X0077992Y0038378D01*
X0078307Y0038472D01*
X0078634Y0038500D01*
X0084604Y0038500D01*
X0082444Y0036580D01*
X0082131Y0036238D01*
X0081894Y0035840D01*
X0081841Y0035693D01*
X0081814Y0035540D01*
X0081814Y0034640D01*
X0081765Y0034103D01*
X0081620Y0033584D01*
X0081384Y0033100D01*
X0081062Y0032644D01*
X0080680Y0032238D01*
X0080244Y0031890D01*
X0079582Y0031517D01*
X0078864Y0031270D01*
X0078113Y0031156D01*
X0077354Y0031180D01*
X0076945Y0031261D01*
X0076552Y0031402D01*
X0076184Y0031600D01*
X0075737Y0031956D01*
X0075374Y0032400D01*
X0075724Y0032400D01*
X0075781Y0032407D01*
X0075834Y0032430D01*
X0075979Y0032547D01*
X0076084Y0032700D01*
X0076114Y0032780D01*
X0076138Y0033005D01*
X0076097Y0033228D01*
X0075994Y0033430D01*
X0075734Y0033790D01*
X0075591Y0033957D01*
X0075424Y0034100D01*
X0075237Y0034215D01*
X0075034Y0034300D01*
X0074905Y0034325D01*
X0074774Y0034320D01*
X0074557Y0034254D01*
X0074365Y0034135D01*
X0074211Y0033970D01*
X0074104Y0033770D01*
X0074047Y0033568D01*
X0074024Y0033360D01*
X0074024Y0033120D01*
X0074014Y0033130D01*
X0073881Y0033301D01*
X0073794Y0033500D01*
X0073734Y0033640D01*
X0073694Y0033730D01*
X0073608Y0034075D01*
X0073574Y0034430D01*
X0073600Y0034772D01*
X0073607Y0034797D02*
X0081814Y0034797D01*
X0081814Y0034895D02*
X0078004Y0034895D01*
X0078171Y0034994D02*
X0081814Y0034994D01*
X0081814Y0035092D02*
X0078285Y0035092D01*
X0078369Y0035191D02*
X0081814Y0035191D01*
X0081814Y0035289D02*
X0078432Y0035289D01*
X0078485Y0035388D02*
X0081814Y0035388D01*
X0081814Y0035486D02*
X0078529Y0035486D01*
X0078562Y0035585D02*
X0081822Y0035585D01*
X0081839Y0035683D02*
X0078595Y0035683D01*
X0078611Y0035782D02*
X0081873Y0035782D01*
X0081918Y0035880D02*
X0078626Y0035880D01*
X0078632Y0035979D02*
X0081977Y0035979D01*
X0082035Y0036077D02*
X0078627Y0036077D01*
X0078622Y0036176D02*
X0082094Y0036176D01*
X0082164Y0036274D02*
X0078603Y0036274D01*
X0078573Y0036373D02*
X0082255Y0036373D01*
X0082345Y0036472D02*
X0078543Y0036472D01*
X0078492Y0036570D02*
X0082435Y0036570D01*
X0082544Y0036669D02*
X0078433Y0036669D01*
X0078366Y0036767D02*
X0082655Y0036767D01*
X0082766Y0036866D02*
X0078262Y0036866D01*
X0078085Y0036964D02*
X0082876Y0036964D01*
X0082987Y0037063D02*
X0077097Y0037063D01*
X0077105Y0037161D02*
X0083098Y0037161D01*
X0083209Y0037260D02*
X0077113Y0037260D01*
X0077135Y0037358D02*
X0083320Y0037358D01*
X0083431Y0037457D02*
X0077161Y0037457D01*
X0077187Y0037555D02*
X0077313Y0037810D01*
X0077421Y0037949D02*
X0083985Y0037949D01*
X0084096Y0038048D02*
X0077503Y0038048D01*
X0077618Y0038146D02*
X0084207Y0038146D01*
X0084318Y0038245D02*
X0077750Y0038245D01*
X0077930Y0038343D02*
X0084428Y0038343D01*
X0084539Y0038442D02*
X0078206Y0038442D01*
X0077533Y0036964D02*
X0077089Y0036964D01*
X0077089Y0036866D02*
X0077414Y0036866D01*
X0077342Y0036767D02*
X0077096Y0036767D01*
X0077104Y0036669D02*
X0077271Y0036669D01*
X0077199Y0036570D02*
X0077112Y0036570D01*
X0077125Y0036472D02*
X0077148Y0036472D01*
X0077140Y0036373D02*
X0077142Y0036373D01*
X0076480Y0035585D02*
X0073970Y0035585D01*
X0073899Y0035486D02*
X0076585Y0035486D01*
X0076689Y0035388D02*
X0073833Y0035388D01*
X0073784Y0035289D02*
X0076794Y0035289D01*
X0076898Y0035191D02*
X0073735Y0035191D01*
X0073688Y0035092D02*
X0077005Y0035092D01*
X0077120Y0034994D02*
X0073661Y0034994D01*
X0073634Y0034895D02*
X0077295Y0034895D01*
X0076375Y0035683D02*
X0074041Y0035683D01*
X0074127Y0035782D02*
X0076229Y0035782D01*
X0076083Y0035880D02*
X0074221Y0035880D01*
X0074314Y0035979D02*
X0075937Y0035979D01*
X0075791Y0036077D02*
X0074447Y0036077D01*
X0074604Y0036176D02*
X0075619Y0036176D01*
X0075305Y0036274D02*
X0074916Y0036274D01*
X0075011Y0034304D02*
X0081784Y0034304D01*
X0081775Y0034206D02*
X0075252Y0034206D01*
X0075412Y0034107D02*
X0081766Y0034107D01*
X0081739Y0034009D02*
X0075530Y0034009D01*
X0075631Y0033910D02*
X0081712Y0033910D01*
X0081684Y0033812D02*
X0075715Y0033812D01*
X0075790Y0033713D02*
X0081657Y0033713D01*
X0081629Y0033615D02*
X0075861Y0033615D01*
X0075932Y0033516D02*
X0081587Y0033516D01*
X0081539Y0033418D02*
X0076000Y0033418D01*
X0076051Y0033319D02*
X0081491Y0033319D01*
X0081443Y0033221D02*
X0076099Y0033221D01*
X0076117Y0033122D02*
X0081395Y0033122D01*
X0081331Y0033024D02*
X0076135Y0033024D01*
X0076130Y0032925D02*
X0081261Y0032925D01*
X0081191Y0032827D02*
X0076119Y0032827D01*
X0076095Y0032728D02*
X0081122Y0032728D01*
X0081049Y0032630D02*
X0076036Y0032630D01*
X0075960Y0032531D02*
X0080956Y0032531D01*
X0080863Y0032433D02*
X0075838Y0032433D01*
X0075508Y0032236D02*
X0080677Y0032236D01*
X0080770Y0032334D02*
X0075428Y0032334D01*
X0075589Y0032137D02*
X0080554Y0032137D01*
X0080430Y0032039D02*
X0075669Y0032039D01*
X0075757Y0031940D02*
X0080307Y0031940D01*
X0080158Y0031841D02*
X0075881Y0031841D01*
X0076004Y0031743D02*
X0079984Y0031743D01*
X0079809Y0031644D02*
X0076128Y0031644D01*
X0076284Y0031546D02*
X0079634Y0031546D01*
X0079380Y0031447D02*
X0076468Y0031447D01*
X0076701Y0031349D02*
X0079094Y0031349D01*
X0078736Y0031250D02*
X0077000Y0031250D01*
X0074024Y0033120D02*
X0074024Y0033120D01*
X0074022Y0033122D02*
X0074024Y0033122D01*
X0074024Y0033221D02*
X0073944Y0033221D01*
X0073873Y0033319D02*
X0074024Y0033319D01*
X0074030Y0033418D02*
X0073830Y0033418D01*
X0073787Y0033516D02*
X0074042Y0033516D01*
X0074061Y0033615D02*
X0073745Y0033615D01*
X0073702Y0033713D02*
X0074088Y0033713D01*
X0074127Y0033812D02*
X0073674Y0033812D01*
X0073649Y0033910D02*
X0074179Y0033910D01*
X0074247Y0034009D02*
X0073624Y0034009D01*
X0073605Y0034107D02*
X0074339Y0034107D01*
X0074479Y0034206D02*
X0073595Y0034206D01*
X0073586Y0034304D02*
X0074723Y0034304D01*
X0073577Y0034403D02*
X0081793Y0034403D01*
X0081802Y0034501D02*
X0073579Y0034501D01*
X0073587Y0034600D02*
X0081811Y0034600D01*
X0081814Y0034698D02*
X0073594Y0034698D01*
X0083844Y0033040D02*
X0088464Y0033040D01*
X0086224Y0030800D01*
X0086224Y0028960D01*
X0088444Y0031230D01*
X0092374Y0028610D01*
X0092364Y0030610D01*
X0089594Y0032290D01*
X0089564Y0032310D01*
X0090254Y0033020D01*
X0092404Y0033020D01*
X0092404Y0034650D01*
X0092384Y0034670D01*
X0084774Y0034670D01*
X0083844Y0033040D01*
X0083891Y0033122D02*
X0092404Y0033122D01*
X0092404Y0033024D02*
X0088448Y0033024D01*
X0088349Y0032925D02*
X0090162Y0032925D01*
X0090066Y0032827D02*
X0088251Y0032827D01*
X0088152Y0032728D02*
X0089971Y0032728D01*
X0089875Y0032630D02*
X0088054Y0032630D01*
X0087955Y0032531D02*
X0089779Y0032531D01*
X0089683Y0032433D02*
X0087857Y0032433D01*
X0087758Y0032334D02*
X0089588Y0032334D01*
X0089684Y0032236D02*
X0087660Y0032236D01*
X0087561Y0032137D02*
X0089847Y0032137D01*
X0090009Y0032039D02*
X0087463Y0032039D01*
X0087364Y0031940D02*
X0090171Y0031940D01*
X0090334Y0031841D02*
X0087266Y0031841D01*
X0087167Y0031743D02*
X0090496Y0031743D01*
X0090659Y0031644D02*
X0087068Y0031644D01*
X0086970Y0031546D02*
X0090821Y0031546D01*
X0090983Y0031447D02*
X0086871Y0031447D01*
X0086773Y0031349D02*
X0091146Y0031349D01*
X0091308Y0031250D02*
X0086674Y0031250D01*
X0086576Y0031152D02*
X0088368Y0031152D01*
X0088271Y0031053D02*
X0086477Y0031053D01*
X0086379Y0030955D02*
X0088175Y0030955D01*
X0088079Y0030856D02*
X0086280Y0030856D01*
X0086224Y0030758D02*
X0087982Y0030758D01*
X0087886Y0030659D02*
X0086224Y0030659D01*
X0086224Y0030561D02*
X0087790Y0030561D01*
X0087693Y0030462D02*
X0086224Y0030462D01*
X0086224Y0030364D02*
X0087597Y0030364D01*
X0087501Y0030265D02*
X0086224Y0030265D01*
X0086224Y0030167D02*
X0087404Y0030167D01*
X0087308Y0030068D02*
X0086224Y0030068D01*
X0086224Y0029970D02*
X0087212Y0029970D01*
X0087115Y0029871D02*
X0086224Y0029871D01*
X0086224Y0029773D02*
X0087019Y0029773D01*
X0086923Y0029674D02*
X0086224Y0029674D01*
X0086224Y0029576D02*
X0086826Y0029576D01*
X0086730Y0029477D02*
X0086224Y0029477D01*
X0086224Y0029379D02*
X0086634Y0029379D01*
X0086537Y0029280D02*
X0086224Y0029280D01*
X0086224Y0029182D02*
X0086441Y0029182D01*
X0086345Y0029083D02*
X0086224Y0029083D01*
X0086224Y0028985D02*
X0086248Y0028985D01*
X0086706Y0028492D02*
X0087268Y0028492D01*
X0087268Y0028394D02*
X0086608Y0028394D01*
X0086509Y0028295D02*
X0087269Y0028295D01*
X0087270Y0028197D02*
X0086411Y0028197D01*
X0086312Y0028098D02*
X0087270Y0028098D01*
X0087271Y0028000D02*
X0086214Y0028000D01*
X0086214Y0027460D01*
X0086034Y0027460D01*
X0085194Y0027390D01*
X0084971Y0027332D01*
X0084762Y0027234D01*
X0084574Y0027100D01*
X0084295Y0026808D01*
X0084078Y0026466D01*
X0083933Y0026089D01*
X0083864Y0025690D01*
X0083864Y0025080D01*
X0083894Y0024560D01*
X0083894Y0024550D01*
X0085084Y0024550D01*
X0085084Y0024580D01*
X0085074Y0024690D01*
X0085040Y0025055D01*
X0085074Y0025420D01*
X0085116Y0025543D01*
X0085192Y0025650D01*
X0085294Y0025730D01*
X0085473Y0025804D01*
X0085664Y0025830D01*
X0086214Y0025830D01*
X0086214Y0024660D01*
X0087264Y0024660D01*
X0087264Y0025840D01*
X0092394Y0025840D01*
X0092394Y0027480D01*
X0087274Y0027480D01*
X0087264Y0029050D01*
X0086214Y0028000D01*
X0086214Y0027901D02*
X0087271Y0027901D01*
X0087272Y0027803D02*
X0086214Y0027803D01*
X0086214Y0027704D02*
X0087273Y0027704D01*
X0087273Y0027605D02*
X0086214Y0027605D01*
X0086214Y0027507D02*
X0087274Y0027507D01*
X0087267Y0028591D02*
X0086805Y0028591D01*
X0086903Y0028689D02*
X0087266Y0028689D01*
X0087266Y0028788D02*
X0087002Y0028788D01*
X0087100Y0028886D02*
X0087265Y0028886D01*
X0087265Y0028985D02*
X0087199Y0028985D01*
X0085415Y0027408D02*
X0092394Y0027408D01*
X0092394Y0027310D02*
X0084924Y0027310D01*
X0084730Y0027211D02*
X0092394Y0027211D01*
X0092394Y0027113D02*
X0084592Y0027113D01*
X0084492Y0027014D02*
X0092394Y0027014D01*
X0092394Y0026916D02*
X0084398Y0026916D01*
X0084304Y0026817D02*
X0092394Y0026817D01*
X0092394Y0026719D02*
X0084239Y0026719D01*
X0084176Y0026620D02*
X0092394Y0026620D01*
X0092394Y0026522D02*
X0084114Y0026522D01*
X0084062Y0026423D02*
X0092394Y0026423D01*
X0092394Y0026325D02*
X0084024Y0026325D01*
X0083986Y0026226D02*
X0092394Y0026226D01*
X0092394Y0026128D02*
X0083948Y0026128D01*
X0083923Y0026029D02*
X0092394Y0026029D01*
X0092394Y0025931D02*
X0083906Y0025931D01*
X0083889Y0025832D02*
X0087264Y0025832D01*
X0087264Y0025734D02*
X0086214Y0025734D01*
X0086214Y0025635D02*
X0087264Y0025635D01*
X0087264Y0025537D02*
X0086214Y0025537D01*
X0086214Y0025438D02*
X0087264Y0025438D01*
X0087264Y0025340D02*
X0086214Y0025340D01*
X0086214Y0025241D02*
X0087264Y0025241D01*
X0087264Y0025143D02*
X0086214Y0025143D01*
X0086214Y0025044D02*
X0087264Y0025044D01*
X0087264Y0024946D02*
X0086214Y0024946D01*
X0086214Y0024847D02*
X0087264Y0024847D01*
X0087264Y0024749D02*
X0086214Y0024749D01*
X0086194Y0024080D02*
X0086194Y0022450D01*
X0090134Y0022450D01*
X0090471Y0022390D01*
X0090784Y0022250D01*
X0090936Y0022136D01*
X0091061Y0021994D01*
X0091154Y0021830D01*
X0091245Y0021549D01*
X0091278Y0021256D01*
X0091250Y0020962D01*
X0091164Y0020680D01*
X0091045Y0020469D01*
X0090881Y0020291D01*
X0090681Y0020156D01*
X0090454Y0020070D01*
X0089973Y0019980D01*
X0089484Y0019950D01*
X0086214Y0019950D01*
X0086214Y0018290D01*
X0092364Y0018290D01*
X0092364Y0019870D01*
X0091424Y0019870D01*
X0091424Y0019880D01*
X0091776Y0020158D01*
X0092085Y0020484D01*
X0092344Y0020850D01*
X0092392Y0020947D01*
X0092424Y0021050D01*
X0092512Y0021632D01*
X0092524Y0022220D01*
X0092466Y0022627D01*
X0092331Y0023015D01*
X0092124Y0023370D01*
X0092034Y0023470D01*
X0091686Y0023730D01*
X0091296Y0023922D01*
X0090877Y0024040D01*
X0090444Y0024080D01*
X0086194Y0024080D01*
X0086194Y0024059D02*
X0090671Y0024059D01*
X0091159Y0023961D02*
X0086194Y0023961D01*
X0086194Y0023862D02*
X0091418Y0023862D01*
X0091618Y0023764D02*
X0086194Y0023764D01*
X0086194Y0023665D02*
X0091773Y0023665D01*
X0091905Y0023567D02*
X0086194Y0023567D01*
X0086194Y0023468D02*
X0092036Y0023468D01*
X0092124Y0023370D02*
X0086194Y0023370D01*
X0086194Y0023271D02*
X0092182Y0023271D01*
X0092239Y0023172D02*
X0086194Y0023172D01*
X0086194Y0023074D02*
X0092297Y0023074D01*
X0092345Y0022975D02*
X0086194Y0022975D01*
X0086194Y0022877D02*
X0092379Y0022877D01*
X0092413Y0022778D02*
X0086194Y0022778D01*
X0086194Y0022680D02*
X0092448Y0022680D01*
X0092473Y0022581D02*
X0086194Y0022581D01*
X0086194Y0022483D02*
X0092487Y0022483D01*
X0092501Y0022384D02*
X0090483Y0022384D01*
X0090704Y0022286D02*
X0092515Y0022286D01*
X0092523Y0022187D02*
X0090868Y0022187D01*
X0090978Y0022089D02*
X0092521Y0022089D01*
X0092519Y0021990D02*
X0091063Y0021990D01*
X0091119Y0021892D02*
X0092517Y0021892D01*
X0092515Y0021793D02*
X0091166Y0021793D01*
X0091198Y0021695D02*
X0092513Y0021695D01*
X0092507Y0021596D02*
X0091230Y0021596D01*
X0091251Y0021498D02*
X0092492Y0021498D01*
X0092477Y0021399D02*
X0091262Y0021399D01*
X0091273Y0021301D02*
X0092462Y0021301D01*
X0092447Y0021202D02*
X0091273Y0021202D01*
X0091264Y0021104D02*
X0092432Y0021104D01*
X0092410Y0021005D02*
X0091254Y0021005D01*
X0091234Y0020907D02*
X0092372Y0020907D01*
X0092314Y0020808D02*
X0091203Y0020808D01*
X0091173Y0020710D02*
X0092245Y0020710D01*
X0092175Y0020611D02*
X0091125Y0020611D01*
X0091070Y0020513D02*
X0092105Y0020513D01*
X0092019Y0020414D02*
X0090995Y0020414D01*
X0090904Y0020316D02*
X0091925Y0020316D01*
X0091832Y0020217D02*
X0090771Y0020217D01*
X0090582Y0020119D02*
X0091726Y0020119D01*
X0091601Y0020020D02*
X0090187Y0020020D01*
X0091477Y0019922D02*
X0086214Y0019922D01*
X0086214Y0019823D02*
X0092364Y0019823D01*
X0092364Y0019725D02*
X0086214Y0019725D01*
X0086214Y0019626D02*
X0092364Y0019626D01*
X0092364Y0019528D02*
X0086214Y0019528D01*
X0086214Y0019429D02*
X0092364Y0019429D01*
X0092364Y0019331D02*
X0086214Y0019331D01*
X0086214Y0019232D02*
X0092364Y0019232D01*
X0092364Y0019134D02*
X0086214Y0019134D01*
X0086214Y0019035D02*
X0092364Y0019035D01*
X0092364Y0018937D02*
X0086214Y0018937D01*
X0086214Y0018838D02*
X0092364Y0018838D01*
X0092364Y0018739D02*
X0086214Y0018739D01*
X0086214Y0018641D02*
X0092364Y0018641D01*
X0092364Y0018542D02*
X0086214Y0018542D01*
X0086214Y0018444D02*
X0092364Y0018444D01*
X0092364Y0018345D02*
X0086214Y0018345D01*
X0086204Y0017310D02*
X0092394Y0017310D01*
X0092394Y0015650D01*
X0088704Y0015650D01*
X0088389Y0015618D01*
X0088084Y0015530D01*
X0087807Y0015381D01*
X0087574Y0015170D01*
X0087444Y0014981D01*
X0087359Y0014767D01*
X0087324Y0014540D01*
X0087304Y0014100D01*
X0087311Y0013968D01*
X0087344Y0013840D01*
X0087434Y0013659D01*
X0087563Y0013503D01*
X0087724Y0013380D01*
X0087985Y0013254D01*
X0088265Y0013176D01*
X0088554Y0013150D01*
X0092354Y0013150D01*
X0092354Y0011540D01*
X0088204Y0011540D01*
X0087760Y0011576D01*
X0087324Y0011670D01*
X0087046Y0011776D01*
X0086791Y0011928D01*
X0086564Y0012120D01*
X0086321Y0012429D01*
X0086155Y0012785D01*
X0086074Y0013170D01*
X0086054Y0013960D01*
X0086115Y0014374D01*
X0086261Y0014766D01*
X0086484Y0015120D01*
X0086648Y0015302D01*
X0086834Y0015460D01*
X0086984Y0015570D01*
X0087044Y0015620D01*
X0087066Y0015652D01*
X0087074Y0015690D01*
X0087074Y0015720D01*
X0086204Y0015720D01*
X0086204Y0017310D01*
X0086204Y0015720D01*
X0087074Y0015720D01*
X0087074Y0015690D01*
X0087073Y0015686D02*
X0092394Y0015686D01*
X0092394Y0015650D02*
X0092394Y0017310D01*
X0086204Y0017310D01*
X0086204Y0017262D02*
X0092394Y0017262D01*
X0092394Y0017163D02*
X0086204Y0017163D01*
X0086204Y0017065D02*
X0092394Y0017065D01*
X0092394Y0016966D02*
X0086204Y0016966D01*
X0086204Y0016868D02*
X0092394Y0016868D01*
X0092394Y0016769D02*
X0086204Y0016769D01*
X0086204Y0016671D02*
X0092394Y0016671D01*
X0092394Y0016572D02*
X0086204Y0016572D01*
X0086204Y0016474D02*
X0092394Y0016474D01*
X0092394Y0016375D02*
X0086204Y0016375D01*
X0086204Y0016277D02*
X0092394Y0016277D01*
X0092394Y0016178D02*
X0086204Y0016178D01*
X0086204Y0016080D02*
X0092394Y0016080D01*
X0092394Y0015981D02*
X0086204Y0015981D01*
X0086204Y0015883D02*
X0092394Y0015883D01*
X0092394Y0015784D02*
X0086204Y0015784D01*
X0086984Y0015570D02*
X0087015Y0015594D01*
X0087044Y0015620D01*
X0087005Y0015587D02*
X0088283Y0015587D01*
X0088007Y0015489D02*
X0086873Y0015489D01*
X0086752Y0015390D02*
X0087823Y0015390D01*
X0087708Y0015292D02*
X0086639Y0015292D01*
X0086550Y0015193D02*
X0087599Y0015193D01*
X0087522Y0015095D02*
X0086468Y0015095D01*
X0086406Y0014996D02*
X0087455Y0014996D01*
X0087411Y0014898D02*
X0086344Y0014898D01*
X0086281Y0014799D02*
X0087372Y0014799D01*
X0087349Y0014701D02*
X0086236Y0014701D01*
X0086200Y0014602D02*
X0087334Y0014602D01*
X0087322Y0014503D02*
X0086163Y0014503D01*
X0086127Y0014405D02*
X0087318Y0014405D01*
X0087314Y0014306D02*
X0086105Y0014306D01*
X0086091Y0014208D02*
X0087309Y0014208D01*
X0087305Y0014109D02*
X0086076Y0014109D01*
X0086062Y0014011D02*
X0087309Y0014011D01*
X0087326Y0013912D02*
X0086056Y0013912D01*
X0086058Y0013814D02*
X0087357Y0013814D01*
X0087406Y0013715D02*
X0086060Y0013715D01*
X0086063Y0013617D02*
X0087469Y0013617D01*
X0087551Y0013518D02*
X0086065Y0013518D01*
X0086068Y0013420D02*
X0087672Y0013420D01*
X0086073Y0013170D02*
X0086082Y0013092D01*
X0086095Y0013014D01*
X0086111Y0012937D01*
X0086131Y0012861D01*
X0086154Y0012785D01*
X0086181Y0012711D01*
X0086211Y0012638D01*
X0086244Y0012567D01*
X0086281Y0012497D01*
X0086320Y0012429D01*
X0086363Y0012363D01*
X0086409Y0012299D01*
X0086458Y0012237D01*
X0086509Y0012177D01*
X0086563Y0012120D01*
X0086549Y0012139D02*
X0092354Y0012139D01*
X0092354Y0012041D02*
X0086658Y0012041D01*
X0086773Y0011942D02*
X0092354Y0011942D01*
X0092354Y0011844D02*
X0086932Y0011844D01*
X0087127Y0011745D02*
X0092354Y0011745D01*
X0092354Y0011647D02*
X0087432Y0011647D01*
X0088104Y0011548D02*
X0092354Y0011548D01*
X0092354Y0011540D02*
X0092354Y0013150D01*
X0088554Y0013150D01*
X0088096Y0013223D02*
X0086073Y0013223D01*
X0086070Y0013321D02*
X0087845Y0013321D01*
X0087324Y0011670D02*
X0087247Y0011694D01*
X0087170Y0011722D01*
X0087095Y0011753D01*
X0087022Y0011788D01*
X0086950Y0011826D01*
X0086881Y0011868D01*
X0086813Y0011912D01*
X0086747Y0011960D01*
X0086684Y0012010D01*
X0086623Y0012064D01*
X0086564Y0012120D01*
X0086472Y0012238D02*
X0092354Y0012238D01*
X0092354Y0012336D02*
X0086394Y0012336D01*
X0086318Y0012435D02*
X0092354Y0012435D01*
X0092354Y0012533D02*
X0086272Y0012533D01*
X0086226Y0012632D02*
X0092354Y0012632D01*
X0092354Y0012730D02*
X0086180Y0012730D01*
X0086146Y0012829D02*
X0092354Y0012829D01*
X0092354Y0012927D02*
X0086125Y0012927D01*
X0086104Y0013026D02*
X0092354Y0013026D01*
X0092354Y0013124D02*
X0086084Y0013124D01*
X0086484Y0015120D02*
X0086536Y0015183D01*
X0086591Y0015244D01*
X0086648Y0015302D01*
X0086708Y0015357D01*
X0086770Y0015410D01*
X0086834Y0015460D01*
X0087044Y0015620D02*
X0087054Y0015632D01*
X0087063Y0015645D01*
X0087069Y0015659D01*
X0087073Y0015674D01*
X0087074Y0015690D01*
X0087324Y0011670D02*
X0087431Y0011641D01*
X0087540Y0011616D01*
X0087649Y0011594D01*
X0087759Y0011576D01*
X0087870Y0011561D01*
X0087981Y0011551D01*
X0088092Y0011544D01*
X0088204Y0011540D01*
X0092354Y0011540D01*
X0086074Y0013170D02*
X0086063Y0013302D01*
X0086056Y0013433D01*
X0086051Y0013565D01*
X0086049Y0013697D01*
X0086050Y0013828D01*
X0086054Y0013960D01*
X0087304Y0014100D02*
X0087303Y0014056D01*
X0087305Y0014012D01*
X0087311Y0013968D01*
X0087319Y0013924D01*
X0087330Y0013882D01*
X0087343Y0013840D01*
X0086055Y0013959D02*
X0086060Y0014043D01*
X0086069Y0014126D01*
X0086081Y0014209D01*
X0086097Y0014292D01*
X0086116Y0014373D01*
X0086138Y0014454D01*
X0086164Y0014534D01*
X0086193Y0014613D01*
X0086226Y0014690D01*
X0086261Y0014766D01*
X0086300Y0014840D01*
X0086342Y0014913D01*
X0086386Y0014984D01*
X0086434Y0015053D01*
X0086485Y0015120D01*
X0087325Y0014540D02*
X0087330Y0014602D01*
X0087338Y0014665D01*
X0087350Y0014726D01*
X0087366Y0014787D01*
X0087386Y0014846D01*
X0087409Y0014905D01*
X0087435Y0014961D01*
X0087465Y0015017D01*
X0087499Y0015070D01*
X0087535Y0015121D01*
X0087575Y0015169D01*
X0087724Y0013380D02*
X0087793Y0013341D01*
X0087864Y0013305D01*
X0087936Y0013273D01*
X0088010Y0013244D01*
X0088085Y0013220D01*
X0088162Y0013198D01*
X0088239Y0013181D01*
X0088317Y0013167D01*
X0088396Y0013158D01*
X0088475Y0013152D01*
X0088554Y0013150D01*
X0088084Y0015530D02*
X0088159Y0015557D01*
X0088235Y0015580D01*
X0088311Y0015601D01*
X0088389Y0015618D01*
X0088467Y0015631D01*
X0088546Y0015641D01*
X0088625Y0015647D01*
X0088704Y0015650D01*
X0088974Y0015650D02*
X0092394Y0015650D01*
X0088084Y0015530D02*
X0088020Y0015503D01*
X0087957Y0015472D01*
X0087895Y0015438D01*
X0087836Y0015401D01*
X0087779Y0015361D01*
X0087724Y0015317D01*
X0087671Y0015271D01*
X0087621Y0015222D01*
X0087574Y0015170D01*
X0087344Y0013840D02*
X0087365Y0013789D01*
X0087388Y0013739D01*
X0087415Y0013690D01*
X0087445Y0013644D01*
X0087477Y0013599D01*
X0087512Y0013556D01*
X0087550Y0013516D01*
X0087590Y0013478D01*
X0087633Y0013443D01*
X0087677Y0013410D01*
X0087724Y0013380D01*
X0088704Y0015650D02*
X0088839Y0015651D01*
X0088974Y0015650D01*
X0085084Y0024552D02*
X0083894Y0024552D01*
X0083889Y0024650D02*
X0085078Y0024650D01*
X0085069Y0024749D02*
X0083883Y0024749D01*
X0083878Y0024847D02*
X0085059Y0024847D01*
X0085050Y0024946D02*
X0083872Y0024946D01*
X0083866Y0025044D02*
X0085041Y0025044D01*
X0085048Y0025143D02*
X0083864Y0025143D01*
X0083864Y0025241D02*
X0085057Y0025241D01*
X0085067Y0025340D02*
X0083864Y0025340D01*
X0083864Y0025438D02*
X0085080Y0025438D01*
X0085114Y0025537D02*
X0083864Y0025537D01*
X0083864Y0025635D02*
X0085181Y0025635D01*
X0085303Y0025734D02*
X0083872Y0025734D01*
X0090186Y0030068D02*
X0092367Y0030068D01*
X0092367Y0029970D02*
X0090334Y0029970D01*
X0090482Y0029871D02*
X0092368Y0029871D01*
X0092368Y0029773D02*
X0090630Y0029773D01*
X0090777Y0029674D02*
X0092369Y0029674D01*
X0092369Y0029576D02*
X0090925Y0029576D01*
X0091073Y0029477D02*
X0092370Y0029477D01*
X0092370Y0029379D02*
X0091221Y0029379D01*
X0091369Y0029280D02*
X0092371Y0029280D01*
X0092371Y0029182D02*
X0091516Y0029182D01*
X0091664Y0029083D02*
X0092372Y0029083D01*
X0092372Y0028985D02*
X0091812Y0028985D01*
X0091960Y0028886D02*
X0092373Y0028886D01*
X0092373Y0028788D02*
X0092107Y0028788D01*
X0092255Y0028689D02*
X0092374Y0028689D01*
X0092366Y0030167D02*
X0090039Y0030167D01*
X0089891Y0030265D02*
X0092366Y0030265D01*
X0092365Y0030364D02*
X0089743Y0030364D01*
X0089595Y0030462D02*
X0092365Y0030462D01*
X0092364Y0030561D02*
X0089448Y0030561D01*
X0089300Y0030659D02*
X0092283Y0030659D01*
X0092120Y0030758D02*
X0089152Y0030758D01*
X0089004Y0030856D02*
X0091958Y0030856D01*
X0091795Y0030955D02*
X0088857Y0030955D01*
X0088709Y0031053D02*
X0091633Y0031053D01*
X0091471Y0031152D02*
X0088561Y0031152D01*
X0092404Y0033221D02*
X0083947Y0033221D01*
X0084003Y0033319D02*
X0092404Y0033319D01*
X0092404Y0033418D02*
X0084059Y0033418D01*
X0084116Y0033516D02*
X0092404Y0033516D01*
X0092404Y0033615D02*
X0084172Y0033615D01*
X0084228Y0033713D02*
X0092404Y0033713D01*
X0092404Y0033812D02*
X0084284Y0033812D01*
X0084341Y0033910D02*
X0092404Y0033910D01*
X0092404Y0034009D02*
X0084397Y0034009D01*
X0084453Y0034107D02*
X0092404Y0034107D01*
X0092404Y0034206D02*
X0084509Y0034206D01*
X0084565Y0034304D02*
X0092404Y0034304D01*
X0092404Y0034403D02*
X0084622Y0034403D01*
X0084678Y0034501D02*
X0092404Y0034501D01*
X0092404Y0034600D02*
X0084734Y0034600D01*
X0086094Y0035410D02*
X0087614Y0035410D01*
X0087614Y0035420D01*
X0087604Y0035480D01*
X0087554Y0035720D01*
X0087554Y0036330D01*
X0087592Y0036551D01*
X0087666Y0036763D01*
X0087774Y0036960D01*
X0088001Y0037230D01*
X0088283Y0037444D01*
X0088604Y0037590D01*
X0088935Y0037671D01*
X0089274Y0037700D01*
X0092354Y0037700D01*
X0092354Y0039340D01*
X0086494Y0039330D01*
X0086224Y0037810D01*
X0087354Y0037810D01*
X0087374Y0037770D01*
X0087354Y0037710D01*
X0087234Y0037630D01*
X0086824Y0037360D01*
X0086673Y0037235D01*
X0086554Y0037080D01*
X0086324Y0036730D01*
X0086185Y0036489D01*
X0086097Y0036226D01*
X0086064Y0035950D01*
X0086094Y0035410D01*
X0086090Y0035486D02*
X0087603Y0035486D01*
X0087582Y0035585D02*
X0086084Y0035585D01*
X0086079Y0035683D02*
X0087562Y0035683D01*
X0087554Y0035782D02*
X0086073Y0035782D01*
X0086068Y0035880D02*
X0087554Y0035880D01*
X0087554Y0035979D02*
X0086068Y0035979D01*
X0086080Y0036077D02*
X0087554Y0036077D01*
X0087554Y0036176D02*
X0086091Y0036176D01*
X0086114Y0036274D02*
X0087554Y0036274D01*
X0087562Y0036373D02*
X0086146Y0036373D01*
X0086179Y0036472D02*
X0087578Y0036472D01*
X0087598Y0036570D02*
X0086232Y0036570D01*
X0086289Y0036669D02*
X0087633Y0036669D01*
X0087668Y0036767D02*
X0086348Y0036767D01*
X0086413Y0036866D02*
X0087722Y0036866D01*
X0087778Y0036964D02*
X0086478Y0036964D01*
X0086543Y0037063D02*
X0087860Y0037063D01*
X0087943Y0037161D02*
X0086616Y0037161D01*
X0086703Y0037260D02*
X0088040Y0037260D01*
X0088170Y0037358D02*
X0086822Y0037358D01*
X0086971Y0037457D02*
X0088311Y0037457D01*
X0088527Y0037555D02*
X0087121Y0037555D01*
X0087270Y0037654D02*
X0088865Y0037654D01*
X0087368Y0037752D02*
X0092354Y0037752D01*
X0092354Y0037851D02*
X0086231Y0037851D01*
X0086249Y0037949D02*
X0092354Y0037949D01*
X0092354Y0038048D02*
X0086266Y0038048D01*
X0086284Y0038146D02*
X0092354Y0038146D01*
X0092354Y0038245D02*
X0086301Y0038245D01*
X0086319Y0038343D02*
X0092354Y0038343D01*
X0092354Y0038442D02*
X0086336Y0038442D01*
X0086354Y0038540D02*
X0092354Y0038540D01*
X0092354Y0038639D02*
X0086371Y0038639D01*
X0086389Y0038737D02*
X0092354Y0038737D01*
X0092354Y0038836D02*
X0086406Y0038836D01*
X0086424Y0038934D02*
X0092354Y0038934D01*
X0092354Y0039033D02*
X0086441Y0039033D01*
X0086459Y0039131D02*
X0092354Y0039131D01*
X0092354Y0039230D02*
X0086476Y0039230D01*
X0086494Y0039328D02*
X0092354Y0039328D01*
X0092354Y0040200D02*
X0092274Y0040230D01*
X0091757Y0040369D01*
X0091224Y0040410D01*
X0089514Y0040400D01*
X0089514Y0042010D01*
X0089844Y0042010D01*
X0090278Y0042038D01*
X0090704Y0042120D01*
X0090774Y0042140D01*
X0090879Y0042185D01*
X0091899Y0042185D01*
X0091815Y0042087D02*
X0090532Y0042087D01*
X0090879Y0042185D02*
X0090974Y0042250D01*
X0091264Y0042550D01*
X0091342Y0042673D01*
X0091394Y0042810D01*
X0091454Y0043230D01*
X0091434Y0043840D01*
X0091394Y0044032D01*
X0091309Y0044208D01*
X0091184Y0044360D01*
X0091077Y0044442D01*
X0090955Y0044500D01*
X0090824Y0044530D01*
X0090583Y0044534D01*
X0090347Y0044490D01*
X0090124Y0044400D01*
X0089998Y0044313D01*
X0089894Y0044200D01*
X0089778Y0044005D01*
X0089697Y0043793D01*
X0089654Y0043570D01*
X0089594Y0043000D01*
X0089527Y0042610D01*
X0089414Y0042230D01*
X0089372Y0042149D01*
X0089311Y0042080D01*
X0089234Y0042030D01*
X0089234Y0042010D01*
X0089474Y0042010D01*
X0089474Y0040410D01*
X0087574Y0040410D01*
X0087285Y0040446D01*
X0087013Y0040551D01*
X0086774Y0040719D01*
X0086584Y0040940D01*
X0086311Y0041453D01*
X0086144Y0042010D01*
X0086054Y0042694D01*
X0086050Y0043385D01*
X0086134Y0044070D01*
X0086266Y0044554D01*
X0086474Y0045010D01*
X0086700Y0045332D01*
X0086987Y0045601D01*
X0087324Y0045805D01*
X0087694Y0045937D01*
X0088084Y0045990D01*
X0088074Y0046000D01*
X0088074Y0044330D01*
X0088054Y0044330D01*
X0087836Y0044304D01*
X0087630Y0044228D01*
X0087448Y0044105D01*
X0087300Y0043943D01*
X0087194Y0043750D01*
X0087126Y0043519D01*
X0087104Y0043280D01*
X0087124Y0042740D01*
X0087149Y0042587D01*
X0087203Y0042442D01*
X0087284Y0042310D01*
X0087383Y0042203D01*
X0087501Y0042119D01*
X0087634Y0042060D01*
X0087849Y0042014D01*
X0088069Y0042014D01*
X0088284Y0042060D01*
X0088332Y0042081D01*
X0088374Y0042110D01*
X0088484Y0042230D01*
X0088586Y0042407D01*
X0088654Y0042600D01*
X0088744Y0043120D01*
X0088834Y0043990D01*
X0088944Y0044595D01*
X0089134Y0045180D01*
X0089278Y0045454D01*
X0089474Y0045694D01*
X0089714Y0045890D01*
X0090054Y0046059D01*
X0090424Y0046140D01*
X0090842Y0046141D01*
X0091253Y0046067D01*
X0091644Y0045920D01*
X0091834Y0045805D01*
X0092000Y0045657D01*
X0092134Y0045480D01*
X0092373Y0044980D01*
X0092494Y0044440D01*
X0092509Y0043797D01*
X0092414Y0043160D01*
X0092276Y0042752D01*
X0092063Y0042378D01*
X0091784Y0042050D01*
X0091770Y0042029D01*
X0091767Y0042004D01*
X0091774Y0041979D01*
X0091791Y0041960D01*
X0091814Y0041950D01*
X0092224Y0041860D01*
X0092334Y0041830D01*
X0092348Y0041821D01*
X0092356Y0041807D01*
X0092354Y0041790D01*
X0092354Y0040200D01*
X0092354Y0040215D02*
X0092314Y0040215D01*
X0092354Y0040313D02*
X0091964Y0040313D01*
X0092354Y0040412D02*
X0089514Y0040412D01*
X0089474Y0040412D02*
X0087557Y0040412D01*
X0087117Y0040510D02*
X0089474Y0040510D01*
X0089514Y0040510D02*
X0092354Y0040510D01*
X0092354Y0040609D02*
X0089514Y0040609D01*
X0089474Y0040609D02*
X0086930Y0040609D01*
X0086791Y0040708D02*
X0089474Y0040708D01*
X0089514Y0040708D02*
X0092354Y0040708D01*
X0092354Y0040806D02*
X0089514Y0040806D01*
X0089474Y0040806D02*
X0086700Y0040806D01*
X0086615Y0040905D02*
X0089474Y0040905D01*
X0089514Y0040905D02*
X0092354Y0040905D01*
X0092354Y0041003D02*
X0089514Y0041003D01*
X0089474Y0041003D02*
X0086551Y0041003D01*
X0086498Y0041102D02*
X0089474Y0041102D01*
X0089514Y0041102D02*
X0092354Y0041102D01*
X0092354Y0041200D02*
X0089514Y0041200D01*
X0089474Y0041200D02*
X0086446Y0041200D01*
X0086394Y0041299D02*
X0089474Y0041299D01*
X0089514Y0041299D02*
X0092354Y0041299D01*
X0092354Y0041397D02*
X0089514Y0041397D01*
X0089474Y0041397D02*
X0086341Y0041397D01*
X0086299Y0041496D02*
X0089474Y0041496D01*
X0089514Y0041496D02*
X0092354Y0041496D01*
X0092354Y0041594D02*
X0089514Y0041594D01*
X0089474Y0041594D02*
X0086269Y0041594D01*
X0086239Y0041693D02*
X0089474Y0041693D01*
X0089514Y0041693D02*
X0092354Y0041693D01*
X0092354Y0041791D02*
X0089514Y0041791D01*
X0089474Y0041791D02*
X0086210Y0041791D01*
X0086180Y0041890D02*
X0089474Y0041890D01*
X0089514Y0041890D02*
X0092089Y0041890D01*
X0091771Y0041988D02*
X0089514Y0041988D01*
X0089474Y0041988D02*
X0086151Y0041988D01*
X0086134Y0042087D02*
X0087574Y0042087D01*
X0087408Y0042185D02*
X0086121Y0042185D01*
X0086108Y0042284D02*
X0087308Y0042284D01*
X0087240Y0042382D02*
X0086095Y0042382D01*
X0086082Y0042481D02*
X0087189Y0042481D01*
X0087152Y0042579D02*
X0086069Y0042579D01*
X0086056Y0042678D02*
X0087134Y0042678D01*
X0087123Y0042776D02*
X0086053Y0042776D01*
X0086053Y0042875D02*
X0087119Y0042875D01*
X0087116Y0042973D02*
X0086052Y0042973D01*
X0086052Y0043072D02*
X0087112Y0043072D01*
X0087108Y0043170D02*
X0086051Y0043170D01*
X0086051Y0043269D02*
X0087105Y0043269D01*
X0087112Y0043367D02*
X0086050Y0043367D01*
X0086060Y0043466D02*
X0087121Y0043466D01*
X0087139Y0043564D02*
X0086072Y0043564D01*
X0086084Y0043663D02*
X0087168Y0043663D01*
X0087200Y0043761D02*
X0086096Y0043761D01*
X0086109Y0043860D02*
X0087254Y0043860D01*
X0087314Y0043958D02*
X0086121Y0043958D01*
X0086133Y0044057D02*
X0087404Y0044057D01*
X0087523Y0044155D02*
X0086157Y0044155D01*
X0086184Y0044254D02*
X0087701Y0044254D01*
X0088074Y0044352D02*
X0086211Y0044352D01*
X0086238Y0044451D02*
X0088074Y0044451D01*
X0088074Y0044549D02*
X0086265Y0044549D01*
X0086309Y0044648D02*
X0088074Y0044648D01*
X0088074Y0044746D02*
X0086354Y0044746D01*
X0086399Y0044845D02*
X0088074Y0044845D01*
X0088074Y0044943D02*
X0086444Y0044943D01*
X0086497Y0045042D02*
X0088074Y0045042D01*
X0088074Y0045141D02*
X0086566Y0045141D01*
X0086635Y0045239D02*
X0088074Y0045239D01*
X0088074Y0045338D02*
X0086706Y0045338D01*
X0086812Y0045436D02*
X0088074Y0045436D01*
X0088074Y0045535D02*
X0086917Y0045535D01*
X0087041Y0045633D02*
X0088074Y0045633D01*
X0088074Y0045732D02*
X0087202Y0045732D01*
X0087393Y0045830D02*
X0088074Y0045830D01*
X0088074Y0045929D02*
X0087671Y0045929D01*
X0087925Y0047012D02*
X0090812Y0047012D01*
X0090636Y0046937D02*
X0091148Y0047156D01*
X0091614Y0047460D01*
X0091892Y0047719D01*
X0092123Y0048021D01*
X0092298Y0048358D01*
X0092414Y0048720D01*
X0092489Y0049197D01*
X0092495Y0049681D01*
X0092434Y0050160D01*
X0092330Y0050492D01*
X0092158Y0050795D01*
X0091926Y0051055D01*
X0091644Y0051260D01*
X0090474Y0051260D01*
X0090444Y0051230D01*
X0090464Y0051230D01*
X0090502Y0051222D01*
X0090534Y0051200D01*
X0090564Y0051180D01*
X0090791Y0051059D01*
X0090985Y0050889D01*
X0091134Y0050680D01*
X0091252Y0050404D01*
X0091314Y0050110D01*
X0091317Y0049741D01*
X0091244Y0049380D01*
X0091106Y0049078D01*
X0090895Y0048821D01*
X0090625Y0048628D01*
X0090314Y0048510D01*
X0089539Y0048389D01*
X0088754Y0048390D01*
X0088362Y0048467D01*
X0087998Y0048631D01*
X0087679Y0048872D01*
X0087424Y0049180D01*
X0087317Y0049386D01*
X0087253Y0049609D01*
X0087234Y0049840D01*
X0087254Y0050270D01*
X0087286Y0050426D01*
X0087354Y0050570D01*
X0087580Y0050858D01*
X0087854Y0051100D01*
X0088141Y0051268D01*
X0088455Y0051376D01*
X0088784Y0051420D01*
X0089794Y0051410D01*
X0090104Y0051360D01*
X0090374Y0051270D01*
X0090389Y0051268D01*
X0090403Y0051274D01*
X0090412Y0051285D01*
X0090414Y0051300D01*
X0090414Y0051350D01*
X0096044Y0051350D01*
X0094574Y0052980D01*
X0086474Y0052980D01*
X0086184Y0051450D01*
X0086974Y0051460D01*
X0087004Y0051430D01*
X0087014Y0051410D01*
X0086914Y0051320D01*
X0086534Y0050970D01*
X0086416Y0050835D01*
X0086324Y0050680D01*
X0086114Y0050160D01*
X0086074Y0049970D01*
X0086064Y0049190D01*
X0086136Y0048763D01*
X0086294Y0048360D01*
X0086507Y0048005D01*
X0086764Y0047680D01*
X0087115Y0047368D01*
X0087524Y0047140D01*
X0088356Y0046875D01*
X0089222Y0046763D01*
X0090094Y0046810D01*
X0090636Y0046937D01*
X0090537Y0046914D02*
X0088234Y0046914D01*
X0088819Y0046815D02*
X0090117Y0046815D01*
X0090358Y0046126D02*
X0090928Y0046126D01*
X0091359Y0046027D02*
X0089990Y0046027D01*
X0089791Y0045929D02*
X0091621Y0045929D01*
X0091793Y0045830D02*
X0089641Y0045830D01*
X0089520Y0045732D02*
X0091916Y0045732D01*
X0092018Y0045633D02*
X0089424Y0045633D01*
X0089344Y0045535D02*
X0092093Y0045535D01*
X0092155Y0045436D02*
X0089269Y0045436D01*
X0089217Y0045338D02*
X0092202Y0045338D01*
X0092249Y0045239D02*
X0089165Y0045239D01*
X0089121Y0045141D02*
X0092296Y0045141D01*
X0092343Y0045042D02*
X0089089Y0045042D01*
X0089057Y0044943D02*
X0092381Y0044943D01*
X0092403Y0044845D02*
X0089025Y0044845D01*
X0088993Y0044746D02*
X0092425Y0044746D01*
X0092447Y0044648D02*
X0088961Y0044648D01*
X0088935Y0044549D02*
X0092470Y0044549D01*
X0092492Y0044451D02*
X0091058Y0044451D01*
X0091190Y0044352D02*
X0092496Y0044352D01*
X0092498Y0044254D02*
X0091271Y0044254D01*
X0091334Y0044155D02*
X0092501Y0044155D01*
X0092503Y0044057D02*
X0091382Y0044057D01*
X0091409Y0043958D02*
X0092505Y0043958D01*
X0092508Y0043860D02*
X0091430Y0043860D01*
X0091437Y0043761D02*
X0092504Y0043761D01*
X0092489Y0043663D02*
X0091440Y0043663D01*
X0091443Y0043564D02*
X0092474Y0043564D01*
X0092460Y0043466D02*
X0091447Y0043466D01*
X0091450Y0043367D02*
X0092445Y0043367D01*
X0092430Y0043269D02*
X0091453Y0043269D01*
X0091446Y0043170D02*
X0092416Y0043170D01*
X0092384Y0043072D02*
X0091432Y0043072D01*
X0091418Y0042973D02*
X0092351Y0042973D01*
X0092317Y0042875D02*
X0091403Y0042875D01*
X0091381Y0042776D02*
X0092284Y0042776D01*
X0092233Y0042678D02*
X0091344Y0042678D01*
X0091283Y0042579D02*
X0092177Y0042579D01*
X0092121Y0042481D02*
X0091197Y0042481D01*
X0091102Y0042382D02*
X0092066Y0042382D01*
X0091983Y0042284D02*
X0091007Y0042284D01*
X0089518Y0042579D02*
X0088647Y0042579D01*
X0088668Y0042678D02*
X0089539Y0042678D01*
X0089556Y0042776D02*
X0088685Y0042776D01*
X0088702Y0042875D02*
X0089573Y0042875D01*
X0089590Y0042973D02*
X0088719Y0042973D01*
X0088736Y0043072D02*
X0089602Y0043072D01*
X0089612Y0043170D02*
X0088749Y0043170D01*
X0088759Y0043269D02*
X0089623Y0043269D01*
X0089633Y0043367D02*
X0088770Y0043367D01*
X0088780Y0043466D02*
X0089643Y0043466D01*
X0089654Y0043564D02*
X0088790Y0043564D01*
X0088800Y0043663D02*
X0089672Y0043663D01*
X0089691Y0043761D02*
X0088811Y0043761D01*
X0088821Y0043860D02*
X0089722Y0043860D01*
X0089760Y0043958D02*
X0088831Y0043958D01*
X0088846Y0044057D02*
X0089809Y0044057D01*
X0089867Y0044155D02*
X0088864Y0044155D01*
X0088882Y0044254D02*
X0089943Y0044254D01*
X0090055Y0044352D02*
X0088900Y0044352D01*
X0088918Y0044451D02*
X0090250Y0044451D01*
X0089489Y0042481D02*
X0088612Y0042481D01*
X0088572Y0042382D02*
X0089460Y0042382D01*
X0089430Y0042284D02*
X0088515Y0042284D01*
X0088443Y0042185D02*
X0089391Y0042185D01*
X0089316Y0042087D02*
X0088340Y0042087D01*
X0087616Y0047111D02*
X0091042Y0047111D01*
X0091230Y0047209D02*
X0087400Y0047209D01*
X0087223Y0047308D02*
X0091381Y0047308D01*
X0091532Y0047406D02*
X0087072Y0047406D01*
X0086961Y0047505D02*
X0091662Y0047505D01*
X0091768Y0047603D02*
X0086850Y0047603D01*
X0086747Y0047702D02*
X0091874Y0047702D01*
X0091954Y0047800D02*
X0086669Y0047800D01*
X0086591Y0047899D02*
X0092029Y0047899D01*
X0092104Y0047997D02*
X0086513Y0047997D01*
X0086452Y0048096D02*
X0092162Y0048096D01*
X0092213Y0048194D02*
X0086393Y0048194D01*
X0086334Y0048293D02*
X0092264Y0048293D01*
X0092309Y0048391D02*
X0089555Y0048391D01*
X0090186Y0048490D02*
X0092340Y0048490D01*
X0092372Y0048588D02*
X0090521Y0048588D01*
X0090707Y0048687D02*
X0092404Y0048687D01*
X0092424Y0048785D02*
X0090845Y0048785D01*
X0090946Y0048884D02*
X0092440Y0048884D01*
X0092455Y0048982D02*
X0091027Y0048982D01*
X0091107Y0049081D02*
X0092470Y0049081D01*
X0092486Y0049179D02*
X0091152Y0049179D01*
X0091197Y0049278D02*
X0092490Y0049278D01*
X0092491Y0049377D02*
X0091243Y0049377D01*
X0091263Y0049475D02*
X0092492Y0049475D01*
X0092494Y0049574D02*
X0091283Y0049574D01*
X0091303Y0049672D02*
X0092495Y0049672D01*
X0092484Y0049771D02*
X0091316Y0049771D01*
X0091316Y0049869D02*
X0092471Y0049869D01*
X0092459Y0049968D02*
X0091315Y0049968D01*
X0091314Y0050066D02*
X0092446Y0050066D01*
X0092433Y0050165D02*
X0091303Y0050165D01*
X0091282Y0050263D02*
X0092402Y0050263D01*
X0092371Y0050362D02*
X0091261Y0050362D01*
X0091228Y0050460D02*
X0092340Y0050460D01*
X0092293Y0050559D02*
X0091186Y0050559D01*
X0091144Y0050657D02*
X0092237Y0050657D01*
X0092181Y0050756D02*
X0091080Y0050756D01*
X0091010Y0050854D02*
X0092106Y0050854D01*
X0092017Y0050953D02*
X0090913Y0050953D01*
X0090801Y0051051D02*
X0091929Y0051051D01*
X0091796Y0051150D02*
X0090621Y0051150D01*
X0090462Y0051248D02*
X0091660Y0051248D01*
X0090414Y0051347D02*
X0090144Y0051347D01*
X0088371Y0051347D02*
X0086944Y0051347D01*
X0086989Y0051445D02*
X0095958Y0051445D01*
X0095869Y0051544D02*
X0086202Y0051544D01*
X0086221Y0051642D02*
X0095780Y0051642D01*
X0095692Y0051741D02*
X0086239Y0051741D01*
X0086258Y0051839D02*
X0095603Y0051839D01*
X0095514Y0051938D02*
X0086277Y0051938D01*
X0086295Y0052036D02*
X0095425Y0052036D01*
X0095336Y0052135D02*
X0086314Y0052135D01*
X0086333Y0052233D02*
X0095247Y0052233D01*
X0095159Y0052332D02*
X0086351Y0052332D01*
X0086370Y0052430D02*
X0095070Y0052430D01*
X0094981Y0052529D02*
X0086389Y0052529D01*
X0086407Y0052627D02*
X0094892Y0052627D01*
X0094803Y0052726D02*
X0086426Y0052726D01*
X0086445Y0052824D02*
X0094714Y0052824D01*
X0094625Y0052923D02*
X0086463Y0052923D01*
X0087404Y0054060D02*
X0087624Y0053980D01*
X0087764Y0054170D01*
X0087194Y0054940D01*
X0086664Y0056600D01*
X0087114Y0058090D01*
X0088194Y0057900D01*
X0090084Y0054650D01*
X0090224Y0054580D01*
X0091534Y0055020D01*
X0091894Y0056640D01*
X0090414Y0059450D01*
X0090414Y0057930D01*
X0090434Y0057930D01*
X0090637Y0057918D01*
X0090831Y0057857D01*
X0091004Y0057750D01*
X0091186Y0057568D01*
X0091325Y0057351D01*
X0091414Y0057110D01*
X0091444Y0056880D01*
X0091444Y0056350D01*
X0091414Y0056105D01*
X0091333Y0055871D01*
X0091204Y0055660D01*
X0091084Y0055538D01*
X0090938Y0055450D01*
X0090774Y0055400D01*
X0090602Y0055393D01*
X0090435Y0055429D01*
X0090281Y0055505D01*
X0090151Y0055618D01*
X0090054Y0055760D01*
X0089866Y0056204D01*
X0089744Y0056670D01*
X0089404Y0058100D01*
X0089284Y0058418D01*
X0089116Y0058714D01*
X0088904Y0058980D01*
X0088753Y0059112D01*
X0088577Y0059210D01*
X0088384Y0059270D01*
X0087937Y0059312D01*
X0087491Y0059261D01*
X0087064Y0059120D01*
X0086859Y0059002D01*
X0086680Y0058847D01*
X0086534Y0058660D01*
X0086277Y0058155D01*
X0086115Y0057613D01*
X0086054Y0057050D01*
X0086054Y0056340D01*
X0086109Y0055792D01*
X0086254Y0055260D01*
X0086466Y0054828D01*
X0086764Y0054450D01*
X0086920Y0054313D01*
X0087094Y0054200D01*
X0087404Y0054060D01*
X0087304Y0054105D02*
X0087716Y0054105D01*
X0087739Y0054204D02*
X0087089Y0054204D01*
X0086936Y0054302D02*
X0087666Y0054302D01*
X0087594Y0054401D02*
X0086820Y0054401D01*
X0086725Y0054499D02*
X0087521Y0054499D01*
X0087448Y0054598D02*
X0086648Y0054598D01*
X0086570Y0054696D02*
X0087375Y0054696D01*
X0087302Y0054795D02*
X0086492Y0054795D01*
X0086434Y0054893D02*
X0087229Y0054893D01*
X0087178Y0054992D02*
X0086386Y0054992D01*
X0086338Y0055090D02*
X0087146Y0055090D01*
X0087057Y0055090D02*
X0087934Y0055090D01*
X0087934Y0054992D02*
X0087086Y0054992D01*
X0087114Y0054893D02*
X0087934Y0054893D01*
X0087934Y0054795D02*
X0087143Y0054795D01*
X0087144Y0054790D02*
X0086624Y0056580D01*
X0087054Y0058230D01*
X0088254Y0058020D01*
X0089284Y0056290D01*
X0090194Y0054620D01*
X0091474Y0055050D01*
X0091824Y0056600D01*
X0090414Y0059450D01*
X0090554Y0059440D01*
X0090784Y0059400D01*
X0091284Y0059230D01*
X0091519Y0059108D01*
X0091725Y0058943D01*
X0091894Y0058740D01*
X0092194Y0058270D01*
X0092351Y0057933D01*
X0092434Y0057570D01*
X0092504Y0056560D01*
X0092486Y0056038D01*
X0092414Y0055520D01*
X0092303Y0055127D01*
X0092125Y0054758D01*
X0091887Y0054426D01*
X0091594Y0054140D01*
X0091372Y0053991D01*
X0091126Y0053886D01*
X0090864Y0053830D01*
X0090454Y0053800D01*
X0090039Y0053837D01*
X0089644Y0053970D01*
X0089482Y0054069D01*
X0089344Y0054200D01*
X0089144Y0054472D01*
X0088984Y0054770D01*
X0088744Y0055422D01*
X0088594Y0056100D01*
X0088434Y0056900D01*
X0088324Y0057204D01*
X0088154Y0057480D01*
X0088029Y0057601D01*
X0087874Y0057680D01*
X0087714Y0057708D01*
X0087552Y0057687D01*
X0087404Y0057620D01*
X0087288Y0057519D01*
X0087204Y0057390D01*
X0087139Y0057214D01*
X0087104Y0057030D01*
X0087087Y0056690D01*
X0087104Y0056350D01*
X0087145Y0056147D01*
X0087222Y0055954D01*
X0087334Y0055780D01*
X0087445Y0055664D01*
X0087577Y0055573D01*
X0087724Y0055510D01*
X0087828Y0055486D01*
X0087934Y0055480D01*
X0087934Y0053950D01*
X0087654Y0053980D01*
X0087144Y0054790D01*
X0087203Y0054696D02*
X0087934Y0054696D01*
X0087934Y0054598D02*
X0087265Y0054598D01*
X0087327Y0054499D02*
X0087934Y0054499D01*
X0087934Y0054401D02*
X0087389Y0054401D01*
X0087451Y0054302D02*
X0087934Y0054302D01*
X0087934Y0054204D02*
X0087514Y0054204D01*
X0087576Y0054105D02*
X0087934Y0054105D01*
X0087934Y0054007D02*
X0087638Y0054007D01*
X0087644Y0054007D02*
X0087551Y0054007D01*
X0089024Y0054696D02*
X0090153Y0054696D01*
X0090057Y0054696D02*
X0090570Y0054696D01*
X0090420Y0054696D02*
X0092081Y0054696D01*
X0092143Y0054795D02*
X0090714Y0054795D01*
X0090863Y0054795D02*
X0090000Y0054795D01*
X0090099Y0054795D02*
X0088975Y0054795D01*
X0088939Y0054893D02*
X0090045Y0054893D01*
X0089943Y0054893D02*
X0091156Y0054893D01*
X0091007Y0054893D02*
X0092190Y0054893D01*
X0092238Y0054992D02*
X0091300Y0054992D01*
X0091450Y0054992D02*
X0089886Y0054992D01*
X0089992Y0054992D02*
X0088903Y0054992D01*
X0088866Y0055090D02*
X0089938Y0055090D01*
X0089828Y0055090D02*
X0091550Y0055090D01*
X0091483Y0055090D02*
X0092285Y0055090D01*
X0092321Y0055189D02*
X0091505Y0055189D01*
X0091572Y0055189D02*
X0089771Y0055189D01*
X0089884Y0055189D02*
X0088830Y0055189D01*
X0088794Y0055287D02*
X0089831Y0055287D01*
X0089777Y0055386D02*
X0088757Y0055386D01*
X0088730Y0055484D02*
X0089723Y0055484D01*
X0089670Y0055583D02*
X0088709Y0055583D01*
X0088687Y0055681D02*
X0089616Y0055681D01*
X0089562Y0055780D02*
X0088665Y0055780D01*
X0088643Y0055878D02*
X0089509Y0055878D01*
X0089455Y0055977D02*
X0088621Y0055977D01*
X0088600Y0056075D02*
X0089401Y0056075D01*
X0089348Y0056174D02*
X0088579Y0056174D01*
X0088560Y0056272D02*
X0089294Y0056272D01*
X0089236Y0056371D02*
X0088540Y0056371D01*
X0088520Y0056469D02*
X0089178Y0056469D01*
X0089119Y0056568D02*
X0088501Y0056568D01*
X0088481Y0056666D02*
X0089060Y0056666D01*
X0089002Y0056765D02*
X0088461Y0056765D01*
X0088442Y0056863D02*
X0088943Y0056863D01*
X0088884Y0056962D02*
X0088412Y0056962D01*
X0088376Y0057060D02*
X0088826Y0057060D01*
X0088767Y0057159D02*
X0088341Y0057159D01*
X0088291Y0057257D02*
X0088708Y0057257D01*
X0088650Y0057356D02*
X0088231Y0057356D01*
X0088170Y0057454D02*
X0088591Y0057454D01*
X0088532Y0057553D02*
X0088079Y0057553D01*
X0087930Y0057651D02*
X0088474Y0057651D01*
X0088415Y0057750D02*
X0086929Y0057750D01*
X0087011Y0057750D02*
X0086156Y0057750D01*
X0086185Y0057848D02*
X0087041Y0057848D01*
X0086955Y0057848D02*
X0088356Y0057848D01*
X0088298Y0057947D02*
X0086981Y0057947D01*
X0087071Y0057947D02*
X0086215Y0057947D01*
X0086244Y0058045D02*
X0087101Y0058045D01*
X0087006Y0058045D02*
X0088109Y0058045D01*
X0087927Y0057947D02*
X0089441Y0057947D01*
X0089464Y0057848D02*
X0088224Y0057848D01*
X0088281Y0057750D02*
X0089487Y0057750D01*
X0089511Y0057651D02*
X0088339Y0057651D01*
X0088396Y0057553D02*
X0089534Y0057553D01*
X0089558Y0057454D02*
X0088453Y0057454D01*
X0088511Y0057356D02*
X0089581Y0057356D01*
X0089605Y0057257D02*
X0088568Y0057257D01*
X0088625Y0057159D02*
X0089628Y0057159D01*
X0089651Y0057060D02*
X0088682Y0057060D01*
X0088740Y0056962D02*
X0089675Y0056962D01*
X0089698Y0056863D02*
X0088797Y0056863D01*
X0088854Y0056765D02*
X0089722Y0056765D01*
X0089745Y0056666D02*
X0088912Y0056666D01*
X0088969Y0056568D02*
X0089771Y0056568D01*
X0089796Y0056469D02*
X0089026Y0056469D01*
X0089083Y0056371D02*
X0089822Y0056371D01*
X0089848Y0056272D02*
X0089141Y0056272D01*
X0089198Y0056174D02*
X0089879Y0056174D01*
X0089920Y0056075D02*
X0089255Y0056075D01*
X0089313Y0055977D02*
X0089962Y0055977D01*
X0090004Y0055878D02*
X0089370Y0055878D01*
X0089427Y0055780D02*
X0090046Y0055780D01*
X0090108Y0055681D02*
X0089485Y0055681D01*
X0089542Y0055583D02*
X0090192Y0055583D01*
X0090323Y0055484D02*
X0089599Y0055484D01*
X0089656Y0055386D02*
X0091615Y0055386D01*
X0091550Y0055386D02*
X0092376Y0055386D01*
X0092404Y0055484D02*
X0091572Y0055484D01*
X0091637Y0055484D02*
X0090995Y0055484D01*
X0091128Y0055583D02*
X0091659Y0055583D01*
X0091594Y0055583D02*
X0092423Y0055583D01*
X0092437Y0055681D02*
X0091617Y0055681D01*
X0091681Y0055681D02*
X0091217Y0055681D01*
X0091277Y0055780D02*
X0091703Y0055780D01*
X0091639Y0055780D02*
X0092450Y0055780D01*
X0092464Y0055878D02*
X0091661Y0055878D01*
X0091725Y0055878D02*
X0091335Y0055878D01*
X0091370Y0055977D02*
X0091747Y0055977D01*
X0091683Y0055977D02*
X0092477Y0055977D01*
X0092487Y0056075D02*
X0091706Y0056075D01*
X0091769Y0056075D02*
X0091404Y0056075D01*
X0091423Y0056174D02*
X0091791Y0056174D01*
X0091728Y0056174D02*
X0092491Y0056174D01*
X0092494Y0056272D02*
X0091750Y0056272D01*
X0091812Y0056272D02*
X0091435Y0056272D01*
X0091444Y0056371D02*
X0091834Y0056371D01*
X0091772Y0056371D02*
X0092498Y0056371D01*
X0092501Y0056469D02*
X0091795Y0056469D01*
X0091856Y0056469D02*
X0091444Y0056469D01*
X0091444Y0056568D02*
X0091878Y0056568D01*
X0091817Y0056568D02*
X0092504Y0056568D01*
X0092497Y0056666D02*
X0091791Y0056666D01*
X0091880Y0056666D02*
X0091444Y0056666D01*
X0091444Y0056765D02*
X0091828Y0056765D01*
X0091742Y0056765D02*
X0092490Y0056765D01*
X0092483Y0056863D02*
X0091694Y0056863D01*
X0091777Y0056863D02*
X0091444Y0056863D01*
X0091433Y0056962D02*
X0091725Y0056962D01*
X0091645Y0056962D02*
X0092476Y0056962D01*
X0092470Y0057060D02*
X0091596Y0057060D01*
X0091673Y0057060D02*
X0091421Y0057060D01*
X0091396Y0057159D02*
X0091621Y0057159D01*
X0091548Y0057159D02*
X0092463Y0057159D01*
X0092456Y0057257D02*
X0091499Y0057257D01*
X0091569Y0057257D02*
X0091360Y0057257D01*
X0091322Y0057356D02*
X0091517Y0057356D01*
X0091450Y0057356D02*
X0092449Y0057356D01*
X0092442Y0057454D02*
X0091401Y0057454D01*
X0091465Y0057454D02*
X0091259Y0057454D01*
X0091196Y0057553D02*
X0091413Y0057553D01*
X0091353Y0057553D02*
X0092435Y0057553D01*
X0092415Y0057651D02*
X0091304Y0057651D01*
X0091361Y0057651D02*
X0091103Y0057651D01*
X0091004Y0057750D02*
X0091310Y0057750D01*
X0091255Y0057750D02*
X0092393Y0057750D01*
X0092370Y0057848D02*
X0091206Y0057848D01*
X0091258Y0057848D02*
X0090845Y0057848D01*
X0091158Y0057947D02*
X0092344Y0057947D01*
X0092298Y0058045D02*
X0091109Y0058045D01*
X0091154Y0058045D02*
X0090414Y0058045D01*
X0090414Y0057947D02*
X0091206Y0057947D01*
X0091102Y0058144D02*
X0090414Y0058144D01*
X0090414Y0058243D02*
X0091050Y0058243D01*
X0091012Y0058243D02*
X0092207Y0058243D01*
X0092253Y0058144D02*
X0091060Y0058144D01*
X0090998Y0058341D02*
X0090414Y0058341D01*
X0090414Y0058440D02*
X0090946Y0058440D01*
X0090914Y0058440D02*
X0092086Y0058440D01*
X0092023Y0058538D02*
X0090865Y0058538D01*
X0090894Y0058538D02*
X0090414Y0058538D01*
X0090414Y0058637D02*
X0090843Y0058637D01*
X0090817Y0058637D02*
X0091960Y0058637D01*
X0091897Y0058735D02*
X0090768Y0058735D01*
X0090791Y0058735D02*
X0090414Y0058735D01*
X0090414Y0058834D02*
X0090739Y0058834D01*
X0090719Y0058834D02*
X0091816Y0058834D01*
X0091734Y0058932D02*
X0090670Y0058932D01*
X0090687Y0058932D02*
X0090414Y0058932D01*
X0090414Y0059031D02*
X0090635Y0059031D01*
X0090622Y0059031D02*
X0091615Y0059031D01*
X0091478Y0059129D02*
X0090573Y0059129D01*
X0090583Y0059129D02*
X0090414Y0059129D01*
X0090414Y0059228D02*
X0090531Y0059228D01*
X0090524Y0059228D02*
X0091289Y0059228D01*
X0091001Y0059326D02*
X0090475Y0059326D01*
X0090479Y0059326D02*
X0090414Y0059326D01*
X0090414Y0059425D02*
X0090428Y0059425D01*
X0090427Y0059425D02*
X0090643Y0059425D01*
X0090963Y0058341D02*
X0092149Y0058341D01*
X0089417Y0058045D02*
X0087368Y0058045D01*
X0087546Y0058144D02*
X0087032Y0058144D01*
X0086982Y0057651D02*
X0086127Y0057651D01*
X0086109Y0057553D02*
X0086952Y0057553D01*
X0086878Y0057553D02*
X0087327Y0057553D01*
X0087246Y0057454D02*
X0086852Y0057454D01*
X0086922Y0057454D02*
X0086098Y0057454D01*
X0086087Y0057356D02*
X0086892Y0057356D01*
X0086826Y0057356D02*
X0087192Y0057356D01*
X0087155Y0057257D02*
X0086801Y0057257D01*
X0086863Y0057257D02*
X0086077Y0057257D01*
X0086066Y0057159D02*
X0086833Y0057159D01*
X0086775Y0057159D02*
X0087129Y0057159D01*
X0087110Y0057060D02*
X0086749Y0057060D01*
X0086803Y0057060D02*
X0086055Y0057060D01*
X0086054Y0056962D02*
X0086773Y0056962D01*
X0086724Y0056962D02*
X0087101Y0056962D01*
X0087096Y0056863D02*
X0086698Y0056863D01*
X0086744Y0056863D02*
X0086054Y0056863D01*
X0086054Y0056765D02*
X0086714Y0056765D01*
X0086672Y0056765D02*
X0087091Y0056765D01*
X0087088Y0056666D02*
X0086647Y0056666D01*
X0086684Y0056666D02*
X0086054Y0056666D01*
X0086054Y0056568D02*
X0086674Y0056568D01*
X0086628Y0056568D02*
X0087093Y0056568D01*
X0087098Y0056469D02*
X0086656Y0056469D01*
X0086706Y0056469D02*
X0086054Y0056469D01*
X0086054Y0056371D02*
X0086737Y0056371D01*
X0086685Y0056371D02*
X0087103Y0056371D01*
X0087120Y0056272D02*
X0086713Y0056272D01*
X0086769Y0056272D02*
X0086061Y0056272D01*
X0086071Y0056174D02*
X0086800Y0056174D01*
X0086742Y0056174D02*
X0087139Y0056174D01*
X0087174Y0056075D02*
X0086771Y0056075D01*
X0086832Y0056075D02*
X0086081Y0056075D01*
X0086091Y0055977D02*
X0086863Y0055977D01*
X0086799Y0055977D02*
X0087213Y0055977D01*
X0087271Y0055878D02*
X0086828Y0055878D01*
X0086895Y0055878D02*
X0086101Y0055878D01*
X0086112Y0055780D02*
X0086926Y0055780D01*
X0086857Y0055780D02*
X0087334Y0055780D01*
X0087429Y0055681D02*
X0086885Y0055681D01*
X0086957Y0055681D02*
X0086139Y0055681D01*
X0086166Y0055583D02*
X0086989Y0055583D01*
X0086914Y0055583D02*
X0087563Y0055583D01*
X0087863Y0055484D02*
X0086942Y0055484D01*
X0087020Y0055484D02*
X0086193Y0055484D01*
X0086220Y0055386D02*
X0087052Y0055386D01*
X0086971Y0055386D02*
X0087934Y0055386D01*
X0087934Y0055287D02*
X0087000Y0055287D01*
X0087083Y0055287D02*
X0086247Y0055287D01*
X0086289Y0055189D02*
X0087115Y0055189D01*
X0087028Y0055189D02*
X0087934Y0055189D01*
X0089077Y0054598D02*
X0092010Y0054598D01*
X0091939Y0054499D02*
X0089129Y0054499D01*
X0089197Y0054401D02*
X0091861Y0054401D01*
X0091760Y0054302D02*
X0089269Y0054302D01*
X0089341Y0054204D02*
X0091659Y0054204D01*
X0091542Y0054105D02*
X0089444Y0054105D01*
X0089584Y0054007D02*
X0091395Y0054007D01*
X0091177Y0053908D02*
X0089828Y0053908D01*
X0090348Y0053810D02*
X0090585Y0053810D01*
X0090277Y0054598D02*
X0090189Y0054598D01*
X0089714Y0055287D02*
X0091594Y0055287D01*
X0091528Y0055287D02*
X0092348Y0055287D01*
X0087473Y0057651D02*
X0086903Y0057651D01*
X0086274Y0058144D02*
X0089388Y0058144D01*
X0089350Y0058243D02*
X0086321Y0058243D01*
X0086372Y0058341D02*
X0089313Y0058341D01*
X0089272Y0058440D02*
X0086422Y0058440D01*
X0086472Y0058538D02*
X0089216Y0058538D01*
X0089160Y0058637D02*
X0086522Y0058637D01*
X0086593Y0058735D02*
X0089099Y0058735D01*
X0089021Y0058834D02*
X0086669Y0058834D01*
X0086778Y0058932D02*
X0088942Y0058932D01*
X0088846Y0059031D02*
X0086908Y0059031D01*
X0087092Y0059129D02*
X0088723Y0059129D01*
X0088521Y0059228D02*
X0087390Y0059228D01*
X0086836Y0051248D02*
X0088108Y0051248D01*
X0087939Y0051150D02*
X0086729Y0051150D01*
X0086622Y0051051D02*
X0087799Y0051051D01*
X0087687Y0050953D02*
X0086519Y0050953D01*
X0086433Y0050854D02*
X0087576Y0050854D01*
X0087499Y0050756D02*
X0086369Y0050756D01*
X0086315Y0050657D02*
X0087422Y0050657D01*
X0087349Y0050559D02*
X0086275Y0050559D01*
X0086235Y0050460D02*
X0087302Y0050460D01*
X0087273Y0050362D02*
X0086196Y0050362D01*
X0086156Y0050263D02*
X0087254Y0050263D01*
X0087249Y0050165D02*
X0086116Y0050165D01*
X0086094Y0050066D02*
X0087245Y0050066D01*
X0087240Y0049968D02*
X0086074Y0049968D01*
X0086073Y0049869D02*
X0087236Y0049869D01*
X0087240Y0049771D02*
X0086072Y0049771D01*
X0086070Y0049672D02*
X0087248Y0049672D01*
X0087263Y0049574D02*
X0086069Y0049574D01*
X0086068Y0049475D02*
X0087291Y0049475D01*
X0087322Y0049377D02*
X0086067Y0049377D01*
X0086065Y0049278D02*
X0087373Y0049278D01*
X0087424Y0049179D02*
X0086066Y0049179D01*
X0086083Y0049081D02*
X0087506Y0049081D01*
X0087588Y0048982D02*
X0086099Y0048982D01*
X0086116Y0048884D02*
X0087670Y0048884D01*
X0087794Y0048785D02*
X0086133Y0048785D01*
X0086166Y0048687D02*
X0087924Y0048687D01*
X0088092Y0048588D02*
X0086205Y0048588D01*
X0086243Y0048490D02*
X0088311Y0048490D01*
X0088748Y0048391D02*
X0086282Y0048391D01*
X0086984Y0015570D02*
X0086834Y0015460D01*
X0087324Y0014540D02*
X0087304Y0014100D01*
D13*
X0007921Y0005972D02*
X0007921Y0065028D01*
X0041386Y0065028D01*
X0041386Y0005972D01*
X0007921Y0005972D01*
D14*
X0006790Y0007730D02*
X0006790Y0008943D01*
X0006790Y0008336D02*
X0003757Y0008336D01*
X0003150Y0007730D01*
X0003150Y0007123D01*
X0003757Y0006516D01*
X0004363Y0010141D02*
X0004363Y0011961D01*
X0004970Y0012568D01*
X0006183Y0012568D01*
X0006790Y0011961D01*
X0006790Y0010141D01*
X0003150Y0010141D01*
X0003150Y0013766D02*
X0003150Y0016193D01*
X0003150Y0014980D02*
X0006790Y0014980D01*
X0005577Y0013766D01*
M02*
