G04 #@! TF.GenerationSoftware,KiCad,Pcbnew,(5.0.2)-1*
G04 #@! TF.CreationDate,2019-05-11T14:53:23+03:00*
G04 #@! TF.ProjectId,ESC versiune2,45534320-7665-4727-9369-756e65322e6b,rev?*
G04 #@! TF.SameCoordinates,Original*
G04 #@! TF.FileFunction,Soldermask,Bot*
G04 #@! TF.FilePolarity,Negative*
%FSLAX46Y46*%
G04 Gerber Fmt 4.6, Leading zero omitted, Abs format (unit mm)*
G04 Created by KiCad (PCBNEW (5.0.2)-1) date 5/11/2019 2:53:23 PM*
%MOMM*%
%LPD*%
G01*
G04 APERTURE LIST*
%ADD10C,0.150000*%
%ADD11C,0.100000*%
G04 APERTURE END LIST*
D10*
X57023000Y-131318000D02*
X172212000Y-131318000D01*
X172720000Y-51562000D02*
X172212000Y-131318000D01*
X56896000Y-51562000D02*
X57023000Y-131318000D01*
X56896000Y-51562000D02*
X172720000Y-51562000D01*
D11*
G36*
X168994190Y-124972483D02*
X169522138Y-125191166D01*
X169997283Y-125508648D01*
X170401352Y-125912717D01*
X170718834Y-126387862D01*
X170937517Y-126915810D01*
X171049000Y-127476275D01*
X171049000Y-128047725D01*
X170937517Y-128608190D01*
X170718834Y-129136138D01*
X170401352Y-129611283D01*
X169997283Y-130015352D01*
X169522138Y-130332834D01*
X168994190Y-130551517D01*
X168433725Y-130663000D01*
X167862275Y-130663000D01*
X167301810Y-130551517D01*
X166773862Y-130332834D01*
X166298717Y-130015352D01*
X165894648Y-129611283D01*
X165577166Y-129136138D01*
X165358483Y-128608190D01*
X165247000Y-128047725D01*
X165247000Y-127476275D01*
X165358483Y-126915810D01*
X165577166Y-126387862D01*
X165894648Y-125912717D01*
X166298717Y-125508648D01*
X166773862Y-125191166D01*
X167301810Y-124972483D01*
X167862275Y-124861000D01*
X168433725Y-124861000D01*
X168994190Y-124972483D01*
X168994190Y-124972483D01*
G37*
G36*
X61552190Y-124845483D02*
X62080138Y-125064166D01*
X62555283Y-125381648D01*
X62959352Y-125785717D01*
X63276834Y-126260862D01*
X63495517Y-126788810D01*
X63607000Y-127349275D01*
X63607000Y-127920725D01*
X63495517Y-128481190D01*
X63276834Y-129009138D01*
X62959352Y-129484283D01*
X62555283Y-129888352D01*
X62080138Y-130205834D01*
X61552190Y-130424517D01*
X60991725Y-130536000D01*
X60420275Y-130536000D01*
X59859810Y-130424517D01*
X59331862Y-130205834D01*
X58856717Y-129888352D01*
X58452648Y-129484283D01*
X58135166Y-129009138D01*
X57916483Y-128481190D01*
X57805000Y-127920725D01*
X57805000Y-127349275D01*
X57916483Y-126788810D01*
X58135166Y-126260862D01*
X58452648Y-125785717D01*
X58856717Y-125381648D01*
X59331862Y-125064166D01*
X59859810Y-124845483D01*
X60420275Y-124734000D01*
X60991725Y-124734000D01*
X61552190Y-124845483D01*
X61552190Y-124845483D01*
G37*
G36*
X93865000Y-129933000D02*
X92063000Y-129933000D01*
X92063000Y-128131000D01*
X93865000Y-128131000D01*
X93865000Y-129933000D01*
X93865000Y-129933000D01*
G37*
G36*
X98154442Y-128137518D02*
X98220627Y-128144037D01*
X98333853Y-128178384D01*
X98390467Y-128195557D01*
X98529087Y-128269652D01*
X98546991Y-128279222D01*
X98582729Y-128308552D01*
X98684186Y-128391814D01*
X98757534Y-128481190D01*
X98796778Y-128529009D01*
X98796779Y-128529011D01*
X98880443Y-128685533D01*
X98880443Y-128685534D01*
X98931963Y-128855373D01*
X98949359Y-129032000D01*
X98931963Y-129208627D01*
X98897616Y-129321853D01*
X98880443Y-129378467D01*
X98823884Y-129484280D01*
X98796778Y-129534991D01*
X98767448Y-129570729D01*
X98684186Y-129672186D01*
X98582729Y-129755448D01*
X98546991Y-129784778D01*
X98546989Y-129784779D01*
X98390467Y-129868443D01*
X98333853Y-129885616D01*
X98220627Y-129919963D01*
X98154442Y-129926482D01*
X98088260Y-129933000D01*
X97999740Y-129933000D01*
X97933558Y-129926482D01*
X97867373Y-129919963D01*
X97754147Y-129885616D01*
X97697533Y-129868443D01*
X97541011Y-129784779D01*
X97541009Y-129784778D01*
X97505271Y-129755448D01*
X97403814Y-129672186D01*
X97320552Y-129570729D01*
X97291222Y-129534991D01*
X97264116Y-129484280D01*
X97207557Y-129378467D01*
X97190384Y-129321853D01*
X97156037Y-129208627D01*
X97138641Y-129032000D01*
X97156037Y-128855373D01*
X97207557Y-128685534D01*
X97207557Y-128685533D01*
X97291221Y-128529011D01*
X97291222Y-128529009D01*
X97330466Y-128481190D01*
X97403814Y-128391814D01*
X97505271Y-128308552D01*
X97541009Y-128279222D01*
X97558913Y-128269652D01*
X97697533Y-128195557D01*
X97754147Y-128178384D01*
X97867373Y-128144037D01*
X97933558Y-128137518D01*
X97999740Y-128131000D01*
X98088260Y-128131000D01*
X98154442Y-128137518D01*
X98154442Y-128137518D01*
G37*
G36*
X95614442Y-128137518D02*
X95680627Y-128144037D01*
X95793853Y-128178384D01*
X95850467Y-128195557D01*
X95989087Y-128269652D01*
X96006991Y-128279222D01*
X96042729Y-128308552D01*
X96144186Y-128391814D01*
X96217534Y-128481190D01*
X96256778Y-128529009D01*
X96256779Y-128529011D01*
X96340443Y-128685533D01*
X96340443Y-128685534D01*
X96391963Y-128855373D01*
X96409359Y-129032000D01*
X96391963Y-129208627D01*
X96357616Y-129321853D01*
X96340443Y-129378467D01*
X96283884Y-129484280D01*
X96256778Y-129534991D01*
X96227448Y-129570729D01*
X96144186Y-129672186D01*
X96042729Y-129755448D01*
X96006991Y-129784778D01*
X96006989Y-129784779D01*
X95850467Y-129868443D01*
X95793853Y-129885616D01*
X95680627Y-129919963D01*
X95614442Y-129926482D01*
X95548260Y-129933000D01*
X95459740Y-129933000D01*
X95393558Y-129926482D01*
X95327373Y-129919963D01*
X95214147Y-129885616D01*
X95157533Y-129868443D01*
X95001011Y-129784779D01*
X95001009Y-129784778D01*
X94965271Y-129755448D01*
X94863814Y-129672186D01*
X94780552Y-129570729D01*
X94751222Y-129534991D01*
X94724116Y-129484280D01*
X94667557Y-129378467D01*
X94650384Y-129321853D01*
X94616037Y-129208627D01*
X94598641Y-129032000D01*
X94616037Y-128855373D01*
X94667557Y-128685534D01*
X94667557Y-128685533D01*
X94751221Y-128529011D01*
X94751222Y-128529009D01*
X94790466Y-128481190D01*
X94863814Y-128391814D01*
X94965271Y-128308552D01*
X95001009Y-128279222D01*
X95018913Y-128269652D01*
X95157533Y-128195557D01*
X95214147Y-128178384D01*
X95327373Y-128144037D01*
X95393558Y-128137518D01*
X95459740Y-128131000D01*
X95548260Y-128131000D01*
X95614442Y-128137518D01*
X95614442Y-128137518D01*
G37*
G36*
X164357786Y-114695462D02*
X164357788Y-114695463D01*
X164357789Y-114695463D01*
X165004029Y-114963144D01*
X165004030Y-114963145D01*
X165585634Y-115351760D01*
X166080240Y-115846366D01*
X166080242Y-115846369D01*
X166468856Y-116427971D01*
X166641671Y-116845185D01*
X166736538Y-117074214D01*
X166873000Y-117760256D01*
X166873000Y-118459743D01*
X166736537Y-119145789D01*
X166468856Y-119792029D01*
X166468855Y-119792030D01*
X166080240Y-120373634D01*
X165585634Y-120868240D01*
X165585631Y-120868242D01*
X165004029Y-121256856D01*
X164357789Y-121524537D01*
X164357788Y-121524537D01*
X164357786Y-121524538D01*
X163671744Y-121661000D01*
X162972256Y-121661000D01*
X162286214Y-121524538D01*
X162286212Y-121524537D01*
X162286211Y-121524537D01*
X161639971Y-121256856D01*
X161058369Y-120868242D01*
X161058366Y-120868240D01*
X160563760Y-120373634D01*
X160175145Y-119792030D01*
X160175144Y-119792029D01*
X159907463Y-119145789D01*
X159771000Y-118459743D01*
X159771000Y-117760256D01*
X159907462Y-117074214D01*
X160002329Y-116845185D01*
X160175144Y-116427971D01*
X160563758Y-115846369D01*
X160563760Y-115846366D01*
X161058366Y-115351760D01*
X161639970Y-114963145D01*
X161639971Y-114963144D01*
X162286211Y-114695463D01*
X162286212Y-114695463D01*
X162286214Y-114695462D01*
X162972256Y-114559000D01*
X163671744Y-114559000D01*
X164357786Y-114695462D01*
X164357786Y-114695462D01*
G37*
G36*
X61070442Y-115310518D02*
X61136627Y-115317037D01*
X61249853Y-115351384D01*
X61306467Y-115368557D01*
X61445087Y-115442652D01*
X61462991Y-115452222D01*
X61498729Y-115481552D01*
X61600186Y-115564814D01*
X61683448Y-115666271D01*
X61712778Y-115702009D01*
X61712779Y-115702011D01*
X61796443Y-115858533D01*
X61796443Y-115858534D01*
X61847963Y-116028373D01*
X61865359Y-116205000D01*
X61847963Y-116381627D01*
X61813616Y-116494853D01*
X61796443Y-116551467D01*
X61722348Y-116690087D01*
X61712778Y-116707991D01*
X61683448Y-116743729D01*
X61600186Y-116845186D01*
X61498729Y-116928448D01*
X61462991Y-116957778D01*
X61462989Y-116957779D01*
X61306467Y-117041443D01*
X61249853Y-117058616D01*
X61136627Y-117092963D01*
X61070443Y-117099481D01*
X61004260Y-117106000D01*
X60915740Y-117106000D01*
X60849557Y-117099481D01*
X60783373Y-117092963D01*
X60670147Y-117058616D01*
X60613533Y-117041443D01*
X60457011Y-116957779D01*
X60457009Y-116957778D01*
X60421271Y-116928448D01*
X60319814Y-116845186D01*
X60236552Y-116743729D01*
X60207222Y-116707991D01*
X60197652Y-116690087D01*
X60123557Y-116551467D01*
X60106384Y-116494853D01*
X60072037Y-116381627D01*
X60054641Y-116205000D01*
X60072037Y-116028373D01*
X60123557Y-115858534D01*
X60123557Y-115858533D01*
X60207221Y-115702011D01*
X60207222Y-115702009D01*
X60236552Y-115666271D01*
X60319814Y-115564814D01*
X60421271Y-115481552D01*
X60457009Y-115452222D01*
X60474913Y-115442652D01*
X60613533Y-115368557D01*
X60670147Y-115351384D01*
X60783373Y-115317037D01*
X60849558Y-115310518D01*
X60915740Y-115304000D01*
X61004260Y-115304000D01*
X61070442Y-115310518D01*
X61070442Y-115310518D01*
G37*
G36*
X61070442Y-112770518D02*
X61136627Y-112777037D01*
X61249853Y-112811384D01*
X61306467Y-112828557D01*
X61445087Y-112902652D01*
X61462991Y-112912222D01*
X61498729Y-112941552D01*
X61600186Y-113024814D01*
X61683448Y-113126271D01*
X61712778Y-113162009D01*
X61712779Y-113162011D01*
X61796443Y-113318533D01*
X61796443Y-113318534D01*
X61847963Y-113488373D01*
X61865359Y-113665000D01*
X61847963Y-113841627D01*
X61813616Y-113954853D01*
X61796443Y-114011467D01*
X61722348Y-114150087D01*
X61712778Y-114167991D01*
X61683448Y-114203729D01*
X61600186Y-114305186D01*
X61498729Y-114388448D01*
X61462991Y-114417778D01*
X61462989Y-114417779D01*
X61306467Y-114501443D01*
X61249853Y-114518616D01*
X61136627Y-114552963D01*
X61075331Y-114559000D01*
X61004260Y-114566000D01*
X60915740Y-114566000D01*
X60844669Y-114559000D01*
X60783373Y-114552963D01*
X60670147Y-114518616D01*
X60613533Y-114501443D01*
X60457011Y-114417779D01*
X60457009Y-114417778D01*
X60421271Y-114388448D01*
X60319814Y-114305186D01*
X60236552Y-114203729D01*
X60207222Y-114167991D01*
X60197652Y-114150087D01*
X60123557Y-114011467D01*
X60106384Y-113954853D01*
X60072037Y-113841627D01*
X60054641Y-113665000D01*
X60072037Y-113488373D01*
X60123557Y-113318534D01*
X60123557Y-113318533D01*
X60207221Y-113162011D01*
X60207222Y-113162009D01*
X60236552Y-113126271D01*
X60319814Y-113024814D01*
X60421271Y-112941552D01*
X60457009Y-112912222D01*
X60474913Y-112902652D01*
X60613533Y-112828557D01*
X60670147Y-112811384D01*
X60783373Y-112777037D01*
X60849558Y-112770518D01*
X60915740Y-112764000D01*
X61004260Y-112764000D01*
X61070442Y-112770518D01*
X61070442Y-112770518D01*
G37*
G36*
X61861000Y-112026000D02*
X60059000Y-112026000D01*
X60059000Y-110224000D01*
X61861000Y-110224000D01*
X61861000Y-112026000D01*
X61861000Y-112026000D01*
G37*
G36*
X164357786Y-96915462D02*
X164357788Y-96915463D01*
X164357789Y-96915463D01*
X165004029Y-97183144D01*
X165480433Y-97501467D01*
X165585634Y-97571760D01*
X166080240Y-98066366D01*
X166080242Y-98066369D01*
X166468856Y-98647971D01*
X166694204Y-99192011D01*
X166736538Y-99294214D01*
X166747343Y-99348534D01*
X166873000Y-99980257D01*
X166873000Y-100679743D01*
X166736537Y-101365789D01*
X166468856Y-102012029D01*
X166468855Y-102012030D01*
X166080240Y-102593634D01*
X165585634Y-103088240D01*
X165585631Y-103088242D01*
X165004029Y-103476856D01*
X164357789Y-103744537D01*
X164357788Y-103744537D01*
X164357786Y-103744538D01*
X163671744Y-103881000D01*
X162972256Y-103881000D01*
X162286214Y-103744538D01*
X162286212Y-103744537D01*
X162286211Y-103744537D01*
X161639971Y-103476856D01*
X161058369Y-103088242D01*
X161058366Y-103088240D01*
X160563760Y-102593634D01*
X160175145Y-102012030D01*
X160175144Y-102012029D01*
X159907463Y-101365789D01*
X159771000Y-100679743D01*
X159771000Y-99980257D01*
X159896657Y-99348534D01*
X159907462Y-99294214D01*
X159949796Y-99192011D01*
X160175144Y-98647971D01*
X160563758Y-98066369D01*
X160563760Y-98066366D01*
X161058366Y-97571760D01*
X161163567Y-97501467D01*
X161639971Y-97183144D01*
X162286211Y-96915463D01*
X162286212Y-96915463D01*
X162286214Y-96915462D01*
X162972256Y-96779000D01*
X163671744Y-96779000D01*
X164357786Y-96915462D01*
X164357786Y-96915462D01*
G37*
G36*
X61451443Y-98800519D02*
X61517627Y-98807037D01*
X61630853Y-98841384D01*
X61687467Y-98858557D01*
X61826087Y-98932652D01*
X61843991Y-98942222D01*
X61879729Y-98971552D01*
X61981186Y-99054814D01*
X62064448Y-99156271D01*
X62093778Y-99192009D01*
X62093779Y-99192011D01*
X62177443Y-99348533D01*
X62177443Y-99348534D01*
X62228963Y-99518373D01*
X62246359Y-99695000D01*
X62228963Y-99871627D01*
X62194616Y-99984853D01*
X62177443Y-100041467D01*
X62103348Y-100180087D01*
X62093778Y-100197991D01*
X62064448Y-100233729D01*
X61981186Y-100335186D01*
X61879729Y-100418448D01*
X61843991Y-100447778D01*
X61843989Y-100447779D01*
X61687467Y-100531443D01*
X61630853Y-100548616D01*
X61517627Y-100582963D01*
X61451443Y-100589481D01*
X61385260Y-100596000D01*
X61296740Y-100596000D01*
X61230557Y-100589481D01*
X61164373Y-100582963D01*
X61051147Y-100548616D01*
X60994533Y-100531443D01*
X60838011Y-100447779D01*
X60838009Y-100447778D01*
X60802271Y-100418448D01*
X60700814Y-100335186D01*
X60617552Y-100233729D01*
X60588222Y-100197991D01*
X60578652Y-100180087D01*
X60504557Y-100041467D01*
X60487384Y-99984853D01*
X60453037Y-99871627D01*
X60435641Y-99695000D01*
X60453037Y-99518373D01*
X60504557Y-99348534D01*
X60504557Y-99348533D01*
X60588221Y-99192011D01*
X60588222Y-99192009D01*
X60617552Y-99156271D01*
X60700814Y-99054814D01*
X60802271Y-98971552D01*
X60838009Y-98942222D01*
X60855913Y-98932652D01*
X60994533Y-98858557D01*
X61051147Y-98841384D01*
X61164373Y-98807037D01*
X61230557Y-98800519D01*
X61296740Y-98794000D01*
X61385260Y-98794000D01*
X61451443Y-98800519D01*
X61451443Y-98800519D01*
G37*
G36*
X61451442Y-96260518D02*
X61517627Y-96267037D01*
X61630853Y-96301384D01*
X61687467Y-96318557D01*
X61826087Y-96392652D01*
X61843991Y-96402222D01*
X61879729Y-96431552D01*
X61981186Y-96514814D01*
X62064448Y-96616271D01*
X62093778Y-96652009D01*
X62093779Y-96652011D01*
X62177443Y-96808533D01*
X62177443Y-96808534D01*
X62228963Y-96978373D01*
X62246359Y-97155000D01*
X62228963Y-97331627D01*
X62194616Y-97444853D01*
X62177443Y-97501467D01*
X62139871Y-97571758D01*
X62093778Y-97657991D01*
X62064448Y-97693729D01*
X61981186Y-97795186D01*
X61879729Y-97878448D01*
X61843991Y-97907778D01*
X61843989Y-97907779D01*
X61687467Y-97991443D01*
X61630853Y-98008616D01*
X61517627Y-98042963D01*
X61451443Y-98049481D01*
X61385260Y-98056000D01*
X61296740Y-98056000D01*
X61230557Y-98049481D01*
X61164373Y-98042963D01*
X61051147Y-98008616D01*
X60994533Y-97991443D01*
X60838011Y-97907779D01*
X60838009Y-97907778D01*
X60802271Y-97878448D01*
X60700814Y-97795186D01*
X60617552Y-97693729D01*
X60588222Y-97657991D01*
X60542129Y-97571758D01*
X60504557Y-97501467D01*
X60487384Y-97444853D01*
X60453037Y-97331627D01*
X60435641Y-97155000D01*
X60453037Y-96978373D01*
X60504557Y-96808534D01*
X60504557Y-96808533D01*
X60588221Y-96652011D01*
X60588222Y-96652009D01*
X60617552Y-96616271D01*
X60700814Y-96514814D01*
X60802271Y-96431552D01*
X60838009Y-96402222D01*
X60855913Y-96392652D01*
X60994533Y-96318557D01*
X61051147Y-96301384D01*
X61164373Y-96267037D01*
X61230558Y-96260518D01*
X61296740Y-96254000D01*
X61385260Y-96254000D01*
X61451442Y-96260518D01*
X61451442Y-96260518D01*
G37*
G36*
X62242000Y-95516000D02*
X60440000Y-95516000D01*
X60440000Y-93714000D01*
X62242000Y-93714000D01*
X62242000Y-95516000D01*
X62242000Y-95516000D01*
G37*
G36*
X61451443Y-85973519D02*
X61517627Y-85980037D01*
X61630853Y-86014384D01*
X61687467Y-86031557D01*
X61817384Y-86101000D01*
X61843991Y-86115222D01*
X61879729Y-86144552D01*
X61981186Y-86227814D01*
X62064448Y-86329271D01*
X62093778Y-86365009D01*
X62093779Y-86365011D01*
X62177443Y-86521533D01*
X62177443Y-86521534D01*
X62228963Y-86691373D01*
X62246359Y-86868000D01*
X62228963Y-87044627D01*
X62194616Y-87157853D01*
X62177443Y-87214467D01*
X62103348Y-87353087D01*
X62093778Y-87370991D01*
X62064448Y-87406729D01*
X61981186Y-87508186D01*
X61879729Y-87591448D01*
X61843991Y-87620778D01*
X61843989Y-87620779D01*
X61687467Y-87704443D01*
X61630853Y-87721616D01*
X61517627Y-87755963D01*
X61451442Y-87762482D01*
X61385260Y-87769000D01*
X61296740Y-87769000D01*
X61230558Y-87762482D01*
X61164373Y-87755963D01*
X61051147Y-87721616D01*
X60994533Y-87704443D01*
X60838011Y-87620779D01*
X60838009Y-87620778D01*
X60802271Y-87591448D01*
X60700814Y-87508186D01*
X60617552Y-87406729D01*
X60588222Y-87370991D01*
X60578652Y-87353087D01*
X60504557Y-87214467D01*
X60487384Y-87157853D01*
X60453037Y-87044627D01*
X60435641Y-86868000D01*
X60453037Y-86691373D01*
X60504557Y-86521534D01*
X60504557Y-86521533D01*
X60588221Y-86365011D01*
X60588222Y-86365009D01*
X60617552Y-86329271D01*
X60700814Y-86227814D01*
X60802271Y-86144552D01*
X60838009Y-86115222D01*
X60864616Y-86101000D01*
X60994533Y-86031557D01*
X61051147Y-86014384D01*
X61164373Y-85980037D01*
X61230557Y-85973519D01*
X61296740Y-85967000D01*
X61385260Y-85967000D01*
X61451443Y-85973519D01*
X61451443Y-85973519D01*
G37*
G36*
X164357786Y-79135462D02*
X164357788Y-79135463D01*
X164357789Y-79135463D01*
X165004029Y-79403144D01*
X165004030Y-79403145D01*
X165585634Y-79791760D01*
X166080240Y-80286366D01*
X166080242Y-80286369D01*
X166468856Y-80867971D01*
X166736537Y-81514211D01*
X166736538Y-81514214D01*
X166873000Y-82200256D01*
X166873000Y-82899744D01*
X166738640Y-83575221D01*
X166736537Y-83585789D01*
X166468856Y-84232029D01*
X166468855Y-84232030D01*
X166080240Y-84813634D01*
X165585634Y-85308240D01*
X165585631Y-85308242D01*
X165004029Y-85696856D01*
X164357789Y-85964537D01*
X164357788Y-85964537D01*
X164357786Y-85964538D01*
X163671744Y-86101000D01*
X162972256Y-86101000D01*
X162286214Y-85964538D01*
X162286212Y-85964537D01*
X162286211Y-85964537D01*
X161639971Y-85696856D01*
X161058369Y-85308242D01*
X161058366Y-85308240D01*
X160563760Y-84813634D01*
X160175145Y-84232030D01*
X160175144Y-84232029D01*
X159907463Y-83585789D01*
X159905361Y-83575221D01*
X159771000Y-82899744D01*
X159771000Y-82200256D01*
X159907462Y-81514214D01*
X159907463Y-81514211D01*
X160175144Y-80867971D01*
X160563758Y-80286369D01*
X160563760Y-80286366D01*
X161058366Y-79791760D01*
X161639970Y-79403145D01*
X161639971Y-79403144D01*
X162286211Y-79135463D01*
X162286212Y-79135463D01*
X162286214Y-79135462D01*
X162972256Y-78999000D01*
X163671744Y-78999000D01*
X164357786Y-79135462D01*
X164357786Y-79135462D01*
G37*
G36*
X61451443Y-83433519D02*
X61517627Y-83440037D01*
X61630853Y-83474384D01*
X61687467Y-83491557D01*
X61826087Y-83565652D01*
X61843991Y-83575222D01*
X61879729Y-83604552D01*
X61981186Y-83687814D01*
X62064448Y-83789271D01*
X62093778Y-83825009D01*
X62093779Y-83825011D01*
X62177443Y-83981533D01*
X62177443Y-83981534D01*
X62228963Y-84151373D01*
X62246359Y-84328000D01*
X62228963Y-84504627D01*
X62194616Y-84617853D01*
X62177443Y-84674467D01*
X62103348Y-84813087D01*
X62093778Y-84830991D01*
X62064448Y-84866729D01*
X61981186Y-84968186D01*
X61879729Y-85051448D01*
X61843991Y-85080778D01*
X61843989Y-85080779D01*
X61687467Y-85164443D01*
X61630853Y-85181616D01*
X61517627Y-85215963D01*
X61451443Y-85222481D01*
X61385260Y-85229000D01*
X61296740Y-85229000D01*
X61230557Y-85222481D01*
X61164373Y-85215963D01*
X61051147Y-85181616D01*
X60994533Y-85164443D01*
X60838011Y-85080779D01*
X60838009Y-85080778D01*
X60802271Y-85051448D01*
X60700814Y-84968186D01*
X60617552Y-84866729D01*
X60588222Y-84830991D01*
X60578652Y-84813087D01*
X60504557Y-84674467D01*
X60487384Y-84617853D01*
X60453037Y-84504627D01*
X60435641Y-84328000D01*
X60453037Y-84151373D01*
X60504557Y-83981534D01*
X60504557Y-83981533D01*
X60588221Y-83825011D01*
X60588222Y-83825009D01*
X60617552Y-83789271D01*
X60700814Y-83687814D01*
X60802271Y-83604552D01*
X60838009Y-83575222D01*
X60855913Y-83565652D01*
X60994533Y-83491557D01*
X61051147Y-83474384D01*
X61164373Y-83440037D01*
X61230557Y-83433519D01*
X61296740Y-83427000D01*
X61385260Y-83427000D01*
X61451443Y-83433519D01*
X61451443Y-83433519D01*
G37*
G36*
X62242000Y-82689000D02*
X60440000Y-82689000D01*
X60440000Y-80887000D01*
X62242000Y-80887000D01*
X62242000Y-82689000D01*
X62242000Y-82689000D01*
G37*
G36*
X62496000Y-69735000D02*
X60694000Y-69735000D01*
X60694000Y-67933000D01*
X62496000Y-67933000D01*
X62496000Y-69735000D01*
X62496000Y-69735000D01*
G37*
G36*
X122611635Y-65443019D02*
X122792903Y-65479075D01*
X123020571Y-65573378D01*
X123224542Y-65709668D01*
X123225469Y-65710287D01*
X123399713Y-65884531D01*
X123399715Y-65884534D01*
X123536622Y-66089429D01*
X123630925Y-66317097D01*
X123679000Y-66558787D01*
X123679000Y-66805213D01*
X123630925Y-67046903D01*
X123536622Y-67274571D01*
X123400332Y-67478542D01*
X123399713Y-67479469D01*
X123225469Y-67653713D01*
X123225466Y-67653715D01*
X123020571Y-67790622D01*
X122792903Y-67884925D01*
X122611635Y-67920981D01*
X122551214Y-67933000D01*
X122304786Y-67933000D01*
X122244365Y-67920981D01*
X122063097Y-67884925D01*
X121835429Y-67790622D01*
X121630534Y-67653715D01*
X121630531Y-67653713D01*
X121456287Y-67479469D01*
X121455668Y-67478542D01*
X121319378Y-67274571D01*
X121225075Y-67046903D01*
X121177000Y-66805213D01*
X121177000Y-66558787D01*
X121225075Y-66317097D01*
X121319378Y-66089429D01*
X121456285Y-65884534D01*
X121456287Y-65884531D01*
X121630531Y-65710287D01*
X121631458Y-65709668D01*
X121835429Y-65573378D01*
X122063097Y-65479075D01*
X122244365Y-65443019D01*
X122304786Y-65431000D01*
X122551214Y-65431000D01*
X122611635Y-65443019D01*
X122611635Y-65443019D01*
G37*
G36*
X61705443Y-65399519D02*
X61771627Y-65406037D01*
X61853919Y-65431000D01*
X61941467Y-65457557D01*
X62080087Y-65531652D01*
X62097991Y-65541222D01*
X62133729Y-65570552D01*
X62235186Y-65653814D01*
X62318448Y-65755271D01*
X62347778Y-65791009D01*
X62347779Y-65791011D01*
X62431443Y-65947533D01*
X62431443Y-65947534D01*
X62482963Y-66117373D01*
X62500359Y-66294000D01*
X62482963Y-66470627D01*
X62456220Y-66558786D01*
X62431443Y-66640467D01*
X62357348Y-66779087D01*
X62347778Y-66796991D01*
X62318448Y-66832729D01*
X62235186Y-66934186D01*
X62133729Y-67017448D01*
X62097991Y-67046778D01*
X62097989Y-67046779D01*
X61941467Y-67130443D01*
X61884853Y-67147616D01*
X61771627Y-67181963D01*
X61705442Y-67188482D01*
X61639260Y-67195000D01*
X61550740Y-67195000D01*
X61484558Y-67188482D01*
X61418373Y-67181963D01*
X61305147Y-67147616D01*
X61248533Y-67130443D01*
X61092011Y-67046779D01*
X61092009Y-67046778D01*
X61056271Y-67017448D01*
X60954814Y-66934186D01*
X60871552Y-66832729D01*
X60842222Y-66796991D01*
X60832652Y-66779087D01*
X60758557Y-66640467D01*
X60733780Y-66558786D01*
X60707037Y-66470627D01*
X60689641Y-66294000D01*
X60707037Y-66117373D01*
X60758557Y-65947534D01*
X60758557Y-65947533D01*
X60842221Y-65791011D01*
X60842222Y-65791009D01*
X60871552Y-65755271D01*
X60954814Y-65653814D01*
X61056271Y-65570552D01*
X61092009Y-65541222D01*
X61109913Y-65531652D01*
X61248533Y-65457557D01*
X61336081Y-65431000D01*
X61418373Y-65406037D01*
X61484557Y-65399519D01*
X61550740Y-65393000D01*
X61639260Y-65393000D01*
X61705443Y-65399519D01*
X61705443Y-65399519D01*
G37*
G36*
X123679000Y-60433000D02*
X121177000Y-60433000D01*
X121177000Y-57931000D01*
X123679000Y-57931000D01*
X123679000Y-60433000D01*
X123679000Y-60433000D01*
G37*
G36*
X61552190Y-52582483D02*
X62080138Y-52801166D01*
X62555283Y-53118648D01*
X62959352Y-53522717D01*
X63276834Y-53997862D01*
X63495517Y-54525810D01*
X63607000Y-55086275D01*
X63607000Y-55657725D01*
X63495517Y-56218190D01*
X63276834Y-56746138D01*
X62959352Y-57221283D01*
X62555283Y-57625352D01*
X62080138Y-57942834D01*
X61552190Y-58161517D01*
X60991725Y-58273000D01*
X60420275Y-58273000D01*
X59859810Y-58161517D01*
X59331862Y-57942834D01*
X58856717Y-57625352D01*
X58452648Y-57221283D01*
X58135166Y-56746138D01*
X57916483Y-56218190D01*
X57805000Y-55657725D01*
X57805000Y-55086275D01*
X57916483Y-54525810D01*
X58135166Y-53997862D01*
X58452648Y-53522717D01*
X58856717Y-53118648D01*
X59331862Y-52801166D01*
X59859810Y-52582483D01*
X60420275Y-52471000D01*
X60991725Y-52471000D01*
X61552190Y-52582483D01*
X61552190Y-52582483D01*
G37*
G36*
X169883190Y-52582483D02*
X170411138Y-52801166D01*
X170886283Y-53118648D01*
X171290352Y-53522717D01*
X171607834Y-53997862D01*
X171826517Y-54525810D01*
X171938000Y-55086275D01*
X171938000Y-55657725D01*
X171826517Y-56218190D01*
X171607834Y-56746138D01*
X171290352Y-57221283D01*
X170886283Y-57625352D01*
X170411138Y-57942834D01*
X169883190Y-58161517D01*
X169322725Y-58273000D01*
X168751275Y-58273000D01*
X168190810Y-58161517D01*
X167662862Y-57942834D01*
X167187717Y-57625352D01*
X166783648Y-57221283D01*
X166466166Y-56746138D01*
X166247483Y-56218190D01*
X166136000Y-55657725D01*
X166136000Y-55086275D01*
X166247483Y-54525810D01*
X166466166Y-53997862D01*
X166783648Y-53522717D01*
X167187717Y-53118648D01*
X167662862Y-52801166D01*
X168190810Y-52582483D01*
X168751275Y-52471000D01*
X169322725Y-52471000D01*
X169883190Y-52582483D01*
X169883190Y-52582483D01*
G37*
G36*
X101559870Y-54552786D02*
X101559873Y-54552787D01*
X101765527Y-54615171D01*
X101765529Y-54615172D01*
X101765532Y-54615173D01*
X101955060Y-54716477D01*
X102121186Y-54852814D01*
X102257523Y-55018940D01*
X102358827Y-55208468D01*
X102421214Y-55414130D01*
X102437000Y-55574408D01*
X102437000Y-57201592D01*
X102421214Y-57361870D01*
X102358827Y-57567532D01*
X102257523Y-57757060D01*
X102121186Y-57923186D01*
X101955059Y-58059523D01*
X101765531Y-58160827D01*
X101765528Y-58160828D01*
X101765526Y-58160829D01*
X101653531Y-58194802D01*
X101559869Y-58223214D01*
X101346000Y-58244278D01*
X101132130Y-58223214D01*
X101038468Y-58194802D01*
X100926473Y-58160829D01*
X100926471Y-58160828D01*
X100926468Y-58160827D01*
X100736940Y-58059523D01*
X100570814Y-57923186D01*
X100434477Y-57757059D01*
X100333173Y-57567531D01*
X100270786Y-57361869D01*
X100255000Y-57201591D01*
X100255000Y-55574408D01*
X100270786Y-55414125D01*
X100333171Y-55208473D01*
X100434478Y-55018940D01*
X100570815Y-54852814D01*
X100736941Y-54716477D01*
X100926469Y-54615173D01*
X100926472Y-54615172D01*
X100926474Y-54615171D01*
X101132128Y-54552787D01*
X101132131Y-54552786D01*
X101346000Y-54531722D01*
X101559870Y-54552786D01*
X101559870Y-54552786D01*
G37*
G36*
X107382216Y-54540808D02*
X107413491Y-54550295D01*
X107442309Y-54565698D01*
X107467570Y-54586430D01*
X107488302Y-54611691D01*
X107503705Y-54640509D01*
X107513192Y-54671784D01*
X107517000Y-54710447D01*
X107517000Y-58065553D01*
X107513192Y-58104216D01*
X107503705Y-58135491D01*
X107488302Y-58164309D01*
X107467570Y-58189570D01*
X107442309Y-58210302D01*
X107413491Y-58225705D01*
X107382216Y-58235192D01*
X107343553Y-58239000D01*
X105508447Y-58239000D01*
X105469784Y-58235192D01*
X105438509Y-58225705D01*
X105409691Y-58210302D01*
X105384430Y-58189570D01*
X105363698Y-58164309D01*
X105348295Y-58135491D01*
X105338808Y-58104216D01*
X105335000Y-58065553D01*
X105335000Y-54710447D01*
X105338808Y-54671784D01*
X105348295Y-54640509D01*
X105363698Y-54611691D01*
X105384430Y-54586430D01*
X105409691Y-54565698D01*
X105438509Y-54550295D01*
X105469784Y-54540808D01*
X105508447Y-54537000D01*
X107343553Y-54537000D01*
X107382216Y-54540808D01*
X107382216Y-54540808D01*
G37*
M02*
