G04 #@! TF.GenerationSoftware,KiCad,Pcbnew,(5.0.2)-1*
G04 #@! TF.CreationDate,2019-05-11T14:53:23+03:00*
G04 #@! TF.ProjectId,ESC versiune2,45534320-7665-4727-9369-756e65322e6b,rev?*
G04 #@! TF.SameCoordinates,Original*
G04 #@! TF.FileFunction,Copper,L2,Bot*
G04 #@! TF.FilePolarity,Positive*
%FSLAX46Y46*%
G04 Gerber Fmt 4.6, Leading zero omitted, Abs format (unit mm)*
G04 Created by KiCad (PCBNEW (5.0.2)-1) date 5/11/2019 2:53:23 PM*
%MOMM*%
%LPD*%
G01*
G04 APERTURE LIST*
G04 #@! TA.AperFunction,NonConductor*
%ADD10C,0.300000*%
G04 #@! TD*
G04 #@! TA.AperFunction,NonConductor*
%ADD11C,0.150000*%
G04 #@! TD*
G04 #@! TA.AperFunction,ComponentPad*
%ADD12C,7.000000*%
G04 #@! TD*
G04 #@! TA.AperFunction,Conductor*
%ADD13C,0.100000*%
G04 #@! TD*
G04 #@! TA.AperFunction,ComponentPad*
%ADD14C,2.080000*%
G04 #@! TD*
G04 #@! TA.AperFunction,ComponentPad*
%ADD15O,2.080000X3.600000*%
G04 #@! TD*
G04 #@! TA.AperFunction,ComponentPad*
%ADD16R,2.400000X2.400000*%
G04 #@! TD*
G04 #@! TA.AperFunction,ComponentPad*
%ADD17C,2.400000*%
G04 #@! TD*
G04 #@! TA.AperFunction,ComponentPad*
%ADD18O,1.700000X1.700000*%
G04 #@! TD*
G04 #@! TA.AperFunction,ComponentPad*
%ADD19R,1.700000X1.700000*%
G04 #@! TD*
G04 #@! TA.AperFunction,ComponentPad*
%ADD20C,5.700000*%
G04 #@! TD*
G04 #@! TA.AperFunction,ViaPad*
%ADD21C,0.800000*%
G04 #@! TD*
G04 #@! TA.AperFunction,ViaPad*
%ADD22C,2.000000*%
G04 #@! TD*
G04 #@! TA.AperFunction,ViaPad*
%ADD23C,1.500000*%
G04 #@! TD*
G04 #@! TA.AperFunction,Conductor*
%ADD24C,0.250000*%
G04 #@! TD*
G04 #@! TA.AperFunction,Conductor*
%ADD25C,2.000000*%
G04 #@! TD*
G04 #@! TA.AperFunction,Conductor*
%ADD26C,1.000000*%
G04 #@! TD*
G04 #@! TA.AperFunction,Conductor*
%ADD27C,0.254000*%
G04 #@! TD*
G04 APERTURE END LIST*
D10*
X115097428Y-80688571D02*
X115097428Y-79188571D01*
X115097428Y-80617142D02*
X115240285Y-80688571D01*
X115526000Y-80688571D01*
X115668857Y-80617142D01*
X115740285Y-80545714D01*
X115811714Y-80402857D01*
X115811714Y-79974285D01*
X115740285Y-79831428D01*
X115668857Y-79760000D01*
X115526000Y-79688571D01*
X115240285Y-79688571D01*
X115097428Y-79760000D01*
X114454571Y-80617142D02*
X114311714Y-80688571D01*
X114026000Y-80688571D01*
X113883142Y-80617142D01*
X113811714Y-80474285D01*
X113811714Y-80402857D01*
X113883142Y-80260000D01*
X114026000Y-80188571D01*
X114240285Y-80188571D01*
X114383142Y-80117142D01*
X114454571Y-79974285D01*
X114454571Y-79902857D01*
X114383142Y-79760000D01*
X114240285Y-79688571D01*
X114026000Y-79688571D01*
X113883142Y-79760000D01*
X112526000Y-80688571D02*
X112526000Y-79902857D01*
X112597428Y-79760000D01*
X112740285Y-79688571D01*
X113026000Y-79688571D01*
X113168857Y-79760000D01*
X112526000Y-80617142D02*
X112668857Y-80688571D01*
X113026000Y-80688571D01*
X113168857Y-80617142D01*
X113240285Y-80474285D01*
X113240285Y-80331428D01*
X113168857Y-80188571D01*
X113026000Y-80117142D01*
X112668857Y-80117142D01*
X112526000Y-80045714D01*
X111168857Y-80688571D02*
X111168857Y-79902857D01*
X111240285Y-79760000D01*
X111383142Y-79688571D01*
X111668857Y-79688571D01*
X111811714Y-79760000D01*
X111168857Y-80617142D02*
X111311714Y-80688571D01*
X111668857Y-80688571D01*
X111811714Y-80617142D01*
X111883142Y-80474285D01*
X111883142Y-80331428D01*
X111811714Y-80188571D01*
X111668857Y-80117142D01*
X111311714Y-80117142D01*
X111168857Y-80045714D01*
X109811714Y-80688571D02*
X109811714Y-79188571D01*
X109811714Y-80617142D02*
X109954571Y-80688571D01*
X110240285Y-80688571D01*
X110383142Y-80617142D01*
X110454571Y-80545714D01*
X110526000Y-80402857D01*
X110526000Y-79974285D01*
X110454571Y-79831428D01*
X110383142Y-79760000D01*
X110240285Y-79688571D01*
X109954571Y-79688571D01*
X109811714Y-79760000D01*
D11*
X57023000Y-131318000D02*
X172212000Y-131318000D01*
X172720000Y-51562000D02*
X172212000Y-131318000D01*
X56896000Y-51562000D02*
X57023000Y-131318000D01*
X56896000Y-51562000D02*
X172720000Y-51562000D01*
D12*
G04 #@! TO.P,J4,1*
G04 #@! TO.N,/PHASE_A*
X163322000Y-118110000D03*
G04 #@! TO.P,J4,2*
G04 #@! TO.N,/PHASE_B*
X163322000Y-100330000D03*
G04 #@! TO.P,J4,3*
G04 #@! TO.N,/PHASE_C*
X163322000Y-82550000D03*
G04 #@! TD*
D13*
G04 #@! TO.N,/V_BAT+*
G04 #@! TO.C,J5*
G36*
X107240505Y-54589204D02*
X107264773Y-54592804D01*
X107288572Y-54598765D01*
X107311671Y-54607030D01*
X107333850Y-54617520D01*
X107354893Y-54630132D01*
X107374599Y-54644747D01*
X107392777Y-54661223D01*
X107409253Y-54679401D01*
X107423868Y-54699107D01*
X107436480Y-54720150D01*
X107446970Y-54742329D01*
X107455235Y-54765428D01*
X107461196Y-54789227D01*
X107464796Y-54813495D01*
X107466000Y-54837999D01*
X107466000Y-57938001D01*
X107464796Y-57962505D01*
X107461196Y-57986773D01*
X107455235Y-58010572D01*
X107446970Y-58033671D01*
X107436480Y-58055850D01*
X107423868Y-58076893D01*
X107409253Y-58096599D01*
X107392777Y-58114777D01*
X107374599Y-58131253D01*
X107354893Y-58145868D01*
X107333850Y-58158480D01*
X107311671Y-58168970D01*
X107288572Y-58177235D01*
X107264773Y-58183196D01*
X107240505Y-58186796D01*
X107216001Y-58188000D01*
X105635999Y-58188000D01*
X105611495Y-58186796D01*
X105587227Y-58183196D01*
X105563428Y-58177235D01*
X105540329Y-58168970D01*
X105518150Y-58158480D01*
X105497107Y-58145868D01*
X105477401Y-58131253D01*
X105459223Y-58114777D01*
X105442747Y-58096599D01*
X105428132Y-58076893D01*
X105415520Y-58055850D01*
X105405030Y-58033671D01*
X105396765Y-58010572D01*
X105390804Y-57986773D01*
X105387204Y-57962505D01*
X105386000Y-57938001D01*
X105386000Y-54837999D01*
X105387204Y-54813495D01*
X105390804Y-54789227D01*
X105396765Y-54765428D01*
X105405030Y-54742329D01*
X105415520Y-54720150D01*
X105428132Y-54699107D01*
X105442747Y-54679401D01*
X105459223Y-54661223D01*
X105477401Y-54644747D01*
X105497107Y-54630132D01*
X105518150Y-54617520D01*
X105540329Y-54607030D01*
X105563428Y-54598765D01*
X105587227Y-54592804D01*
X105611495Y-54589204D01*
X105635999Y-54588000D01*
X107216001Y-54588000D01*
X107240505Y-54589204D01*
X107240505Y-54589204D01*
G37*
D14*
G04 #@! TD*
G04 #@! TO.P,J5,1*
G04 #@! TO.N,/V_BAT+*
X106426000Y-56388000D03*
D15*
G04 #@! TO.P,J5,2*
G04 #@! TO.N,GNDREF*
X101346000Y-56388000D03*
G04 #@! TD*
D16*
G04 #@! TO.P,C23,1*
G04 #@! TO.N,/V_BAT+*
X122428000Y-59182000D03*
D17*
G04 #@! TO.P,C23,2*
G04 #@! TO.N,GNDREF*
X122428000Y-66682000D03*
G04 #@! TD*
D18*
G04 #@! TO.P,J7,2*
G04 #@! TO.N,GNDREF*
X61595000Y-66294000D03*
D19*
G04 #@! TO.P,J7,1*
G04 #@! TO.N,/12V_Bootstrap*
X61595000Y-68834000D03*
G04 #@! TD*
G04 #@! TO.P,J1,1*
G04 #@! TO.N,/HIN1*
X61341000Y-81788000D03*
D18*
G04 #@! TO.P,J1,2*
G04 #@! TO.N,/HIN2*
X61341000Y-84328000D03*
G04 #@! TO.P,J1,3*
G04 #@! TO.N,/HIN3*
X61341000Y-86868000D03*
G04 #@! TD*
G04 #@! TO.P,J2,3*
G04 #@! TO.N,/LIN3*
X61341000Y-99695000D03*
G04 #@! TO.P,J2,2*
G04 #@! TO.N,/LIN2*
X61341000Y-97155000D03*
D19*
G04 #@! TO.P,J2,1*
G04 #@! TO.N,/LIN1*
X61341000Y-94615000D03*
G04 #@! TD*
D18*
G04 #@! TO.P,J6,3*
G04 #@! TO.N,/EXTIC*
X98044000Y-129032000D03*
G04 #@! TO.P,J6,2*
G04 #@! TO.N,/EXTIB*
X95504000Y-129032000D03*
D19*
G04 #@! TO.P,J6,1*
G04 #@! TO.N,/EXTIA*
X92964000Y-129032000D03*
G04 #@! TD*
G04 #@! TO.P,J3,1*
G04 #@! TO.N,/FAULT*
X60960000Y-111125000D03*
D18*
G04 #@! TO.P,J3,2*
G04 #@! TO.N,/BATT_VOLTAGE*
X60960000Y-113665000D03*
G04 #@! TO.P,J3,3*
G04 #@! TO.N,/CURRENT_SENSOR*
X60960000Y-116205000D03*
G04 #@! TD*
D20*
G04 #@! TO.P,REF\002A\002A,1*
G04 #@! TO.N,N/C*
X60706000Y-55372000D03*
G04 #@! TD*
G04 #@! TO.P,REF\002A\002A,4*
G04 #@! TO.N,N/C*
X169037000Y-55372000D03*
G04 #@! TD*
G04 #@! TO.P,REF\002A\002A,4*
G04 #@! TO.N,N/C*
X168148000Y-127762000D03*
G04 #@! TD*
G04 #@! TO.P,REF\002A\002A,2*
G04 #@! TO.N,N/C*
X60706000Y-127635000D03*
G04 #@! TD*
D21*
G04 #@! TO.N,/12V_Bootstrap*
X67056000Y-87757000D03*
X67056000Y-82169000D03*
X67183000Y-98171000D03*
X67183000Y-101727000D03*
G04 #@! TO.N,GNDREF*
X86360000Y-97282000D03*
X84201000Y-79502000D03*
X86233000Y-84328000D03*
X86233000Y-107442000D03*
X77597000Y-98425000D03*
X81407000Y-98552000D03*
X76327000Y-78867000D03*
D22*
X88265000Y-124333000D03*
D21*
X141605000Y-88519000D03*
X139192000Y-63881000D03*
X86233000Y-116967000D03*
X91059000Y-116967000D03*
G04 #@! TO.N,/PHASE_A*
X100330000Y-84328000D03*
X107061000Y-85979000D03*
X118237000Y-127889000D03*
X110236000Y-86741000D03*
X113792000Y-95123000D03*
X113792000Y-98044000D03*
X116967000Y-105156000D03*
X116967000Y-107569000D03*
D22*
X112776000Y-117856000D03*
D21*
X148209000Y-112395000D03*
X152654000Y-88646000D03*
X154051000Y-99187000D03*
X156210000Y-104140000D03*
X156210000Y-104140000D03*
G04 #@! TO.N,Net-(D9-Pad1)*
X124079000Y-96647000D03*
X92456000Y-104521000D03*
G04 #@! TO.N,/PHASE_C*
X105918000Y-122682000D03*
D23*
X130683000Y-120777000D03*
D21*
G04 #@! TO.N,Net-(D10-Pad1)*
X124587000Y-104267000D03*
X94107000Y-108712000D03*
G04 #@! TO.N,/PHASE_B*
X100584000Y-98044000D03*
X115189000Y-105664000D03*
X128016000Y-124841000D03*
X125095000Y-87503000D03*
D22*
X126238000Y-112522000D03*
D21*
X148336000Y-97917000D03*
X154432000Y-87757000D03*
G04 #@! TO.N,Net-(D7-Pad1)*
X111125000Y-95377000D03*
X91948000Y-95123000D03*
D22*
G04 #@! TO.N,/CP*
X117475000Y-112014000D03*
X101981000Y-116332000D03*
X126318002Y-120396000D03*
X98552000Y-119634000D03*
D21*
G04 #@! TO.N,/BATT_VOLTAGE*
X64262000Y-115697000D03*
G04 #@! TO.N,/EXTIC*
X144780000Y-62992000D03*
G04 #@! TO.N,/EXTIB*
X143256000Y-73914000D03*
X100965000Y-126238000D03*
G04 #@! TO.N,/EXTIA*
X144526000Y-77724000D03*
G04 #@! TO.N,/3V3*
X90805000Y-57023000D03*
X87376000Y-66929000D03*
X91948000Y-71120000D03*
X87699010Y-112452990D03*
G04 #@! TO.N,/5V*
X93726000Y-121666000D03*
X89916000Y-75819000D03*
X91694000Y-63119000D03*
X82804000Y-71628000D03*
G04 #@! TO.N,/BEMF_B*
X158369000Y-60579000D03*
X158369000Y-63119000D03*
X140970000Y-62865000D03*
G04 #@! TO.N,/BEMF_A*
X154051000Y-63132000D03*
X151809685Y-60325000D03*
X148082000Y-65659000D03*
G04 #@! TO.N,/BEMF_REF*
X146177000Y-81280000D03*
X146050000Y-73406000D03*
X146050000Y-73406000D03*
X142621000Y-63246000D03*
X147955000Y-59563000D03*
G04 #@! TO.N,/FAULT*
X74422000Y-111633000D03*
G04 #@! TD*
D24*
G04 #@! TO.N,/12V_Bootstrap*
X67056000Y-87757000D02*
X67056000Y-87191315D01*
X67056000Y-87191315D02*
X67056000Y-82169000D01*
X67056000Y-82169000D02*
X67056000Y-82169000D01*
X67183000Y-98171000D02*
X67183000Y-101727000D01*
X67183000Y-101727000D02*
X67183000Y-101727000D01*
G04 #@! TO.N,/LIN1*
X61341000Y-94615000D02*
X79883000Y-94615000D01*
X79883000Y-94615000D02*
X80899000Y-93599000D01*
X80899000Y-93599000D02*
X80899000Y-85979000D01*
X80899000Y-85979000D02*
X82550000Y-84328000D01*
X82550000Y-84328000D02*
X84963000Y-84328000D01*
G04 #@! TO.N,GNDREF*
X84908106Y-79502000D02*
X86233000Y-80826894D01*
X84201000Y-79502000D02*
X84908106Y-79502000D01*
X84836000Y-85598000D02*
X84963000Y-85598000D01*
X84709000Y-85725000D02*
X84836000Y-85598000D01*
X86233000Y-107442000D02*
X86233000Y-107442000D01*
X86233000Y-84328000D02*
X86233000Y-84328000D01*
X86233000Y-83566000D02*
X86614000Y-83566000D01*
X86233000Y-83566000D02*
X86233000Y-84328000D01*
X86233000Y-80826894D02*
X86233000Y-83566000D01*
X86614000Y-83566000D02*
X87249000Y-84201000D01*
X87249000Y-84201000D02*
X87249000Y-95631000D01*
X87249000Y-95631000D02*
X87249000Y-96393000D01*
X87249000Y-96393000D02*
X86360000Y-97282000D01*
X86233000Y-97974685D02*
X86233000Y-107442000D01*
X86360000Y-97847685D02*
X86233000Y-97974685D01*
X86360000Y-97282000D02*
X86360000Y-97847685D01*
X78162685Y-98425000D02*
X78289685Y-98552000D01*
X77597000Y-98425000D02*
X78162685Y-98425000D01*
X78289685Y-98552000D02*
X81407000Y-98552000D01*
X81407000Y-98552000D02*
X81407000Y-98552000D01*
X83566000Y-78867000D02*
X84201000Y-79502000D01*
X76327000Y-78867000D02*
X83566000Y-78867000D01*
D25*
X101346000Y-57148000D02*
X101346000Y-56388000D01*
X110880000Y-66682000D02*
X101346000Y-57148000D01*
X122428000Y-66682000D02*
X110880000Y-66682000D01*
X101346000Y-57148000D02*
X82548000Y-75946000D01*
X82548000Y-75946000D02*
X71374000Y-75946000D01*
X70910998Y-75946000D02*
X64897000Y-81959998D01*
X71374000Y-75946000D02*
X70910998Y-75946000D01*
X64897000Y-81959998D02*
X64897000Y-87249000D01*
X64897000Y-87249000D02*
X58909999Y-93236001D01*
X67963001Y-129685001D02*
X82912999Y-129685001D01*
X82912999Y-129685001D02*
X88265000Y-124333000D01*
X88265000Y-124333000D02*
X88265000Y-124333000D01*
X58909999Y-119126000D02*
X59690000Y-119126000D01*
X58909999Y-93236001D02*
X58909999Y-119126000D01*
X67963001Y-127399001D02*
X67963001Y-129685001D01*
X59690000Y-119126000D02*
X67963001Y-127399001D01*
D24*
X141605000Y-88519000D02*
X139827000Y-86741000D01*
X139827000Y-86741000D02*
X139192000Y-86106000D01*
X139192000Y-86106000D02*
X139192000Y-63881000D01*
X139192000Y-63881000D02*
X139192000Y-63881000D01*
X86233000Y-116967000D02*
X91059000Y-116967000D01*
X91059000Y-116967000D02*
X91059000Y-116967000D01*
G04 #@! TO.N,/PHASE_A*
X100729999Y-84727999D02*
X101364999Y-84727999D01*
X100330000Y-84328000D02*
X100729999Y-84727999D01*
X101364999Y-84727999D02*
X102616000Y-85979000D01*
X102616000Y-85979000D02*
X107061000Y-85979000D01*
X107061000Y-85979000D02*
X107061000Y-85979000D01*
D26*
X110236000Y-86741000D02*
X110236000Y-91567000D01*
X110236000Y-91567000D02*
X113792000Y-95123000D01*
X113792000Y-95123000D02*
X113792000Y-95123000D01*
X113792000Y-98044000D02*
X116289001Y-100541001D01*
X116967000Y-101219000D02*
X113792000Y-98044000D01*
X116967000Y-105156000D02*
X116967000Y-101219000D01*
X116967000Y-108134685D02*
X115697000Y-109404685D01*
X116967000Y-107569000D02*
X116967000Y-108134685D01*
X115697000Y-109404685D02*
X115697000Y-114935000D01*
X115697000Y-114935000D02*
X112776000Y-117856000D01*
X112776000Y-117856000D02*
X112776000Y-117856000D01*
D24*
X153924000Y-118110000D02*
X163322000Y-118110000D01*
X148209000Y-112395000D02*
X153924000Y-118110000D01*
X152654000Y-88646000D02*
X152654000Y-97790000D01*
X152654000Y-97790000D02*
X154051000Y-99187000D01*
X154051000Y-99187000D02*
X154178000Y-99314000D01*
X163322000Y-111252000D02*
X163322000Y-118110000D01*
X156210000Y-104140000D02*
X163322000Y-111252000D01*
G04 #@! TO.N,Net-(D9-Pad1)*
X124079000Y-96647000D02*
X100330000Y-96647000D01*
X100330000Y-96647000D02*
X92456000Y-104521000D01*
X92456000Y-104521000D02*
X92456000Y-104521000D01*
G04 #@! TO.N,/PHASE_C*
X105791000Y-122555000D02*
X129413000Y-122555000D01*
X131191000Y-121031000D02*
X131191000Y-121031000D01*
X129413000Y-122047000D02*
X130683000Y-120777000D01*
X129413000Y-122555000D02*
X129413000Y-122047000D01*
G04 #@! TO.N,Net-(D10-Pad1)*
X124021315Y-104267000D02*
X121608315Y-106680000D01*
X124587000Y-104267000D02*
X124021315Y-104267000D01*
X121608315Y-106680000D02*
X96139000Y-106680000D01*
X96139000Y-106680000D02*
X94107000Y-108712000D01*
X94107000Y-108712000D02*
X94107000Y-108712000D01*
G04 #@! TO.N,/LIN2*
X64262000Y-97155000D02*
X61341000Y-97155000D01*
X65024000Y-96393000D02*
X64262000Y-97155000D01*
X84582000Y-96393000D02*
X65024000Y-96393000D01*
G04 #@! TO.N,/PHASE_B*
X100584000Y-98044000D02*
X107569000Y-98044000D01*
X107569000Y-98044000D02*
X115189000Y-105664000D01*
X115189000Y-105664000D02*
X115189000Y-105664000D01*
D26*
X125095000Y-87503000D02*
X126619000Y-89027000D01*
X126619000Y-89027000D02*
X126619000Y-110363000D01*
X126619000Y-110363000D02*
X126238000Y-110744000D01*
X126238000Y-110744000D02*
X126238000Y-112522000D01*
X126238000Y-112522000D02*
X126238000Y-112522000D01*
D24*
X148336000Y-97917000D02*
X148336000Y-99441000D01*
X149225000Y-100330000D02*
X163322000Y-100330000D01*
X148336000Y-99441000D02*
X149225000Y-100330000D01*
X159822001Y-96830001D02*
X163322000Y-100330000D01*
X154032001Y-91040001D02*
X159822001Y-96830001D01*
X154032001Y-88156999D02*
X154032001Y-91040001D01*
X154432000Y-87757000D02*
X154032001Y-88156999D01*
G04 #@! TO.N,Net-(D7-Pad1)*
X110871000Y-95123000D02*
X111125000Y-95377000D01*
X91948000Y-95123000D02*
X110871000Y-95123000D01*
D26*
G04 #@! TO.N,/CP*
X101581001Y-116731999D02*
X101454001Y-116731999D01*
X101981000Y-116332000D02*
X101581001Y-116731999D01*
X101454001Y-116731999D02*
X98552000Y-119634000D01*
X117475000Y-112014000D02*
X117475000Y-116459000D01*
X114300000Y-119634000D02*
X98552000Y-119634000D01*
X117475000Y-116459000D02*
X114300000Y-119634000D01*
X125752317Y-120396000D02*
X124736317Y-121412000D01*
X126318002Y-120396000D02*
X125752317Y-120396000D01*
X100330000Y-121412000D02*
X98552000Y-119634000D01*
X124736317Y-121412000D02*
X100330000Y-121412000D01*
X98552000Y-119634000D02*
X98552000Y-119634000D01*
D25*
G04 #@! TO.N,/V_BAT+*
X119634000Y-56388000D02*
X122428000Y-59182000D01*
X106426000Y-56388000D02*
X119634000Y-56388000D01*
D24*
G04 #@! TO.N,/EXTIC*
X145451999Y-77633999D02*
X145451999Y-114082999D01*
X145179999Y-77361999D02*
X145451999Y-77633999D01*
X144780000Y-62992000D02*
X145179999Y-63391999D01*
X145179999Y-63391999D02*
X145179999Y-77361999D01*
X130502998Y-129032000D02*
X98044000Y-129032000D01*
X145451999Y-114082999D02*
X130502998Y-129032000D01*
G04 #@! TO.N,/EXTIB*
X129177593Y-124115999D02*
X120994001Y-124115999D01*
X143256000Y-73914000D02*
X143256000Y-110037592D01*
X143256000Y-110037592D02*
X129177593Y-124115999D01*
X120994001Y-124115999D02*
X118872000Y-126238000D01*
X118872000Y-126238000D02*
X100965000Y-126238000D01*
X100965000Y-126238000D02*
X100711000Y-125984000D01*
X100965000Y-126238000D02*
X100965000Y-126238000D01*
G04 #@! TO.N,/EXTIA*
X144526000Y-109404002D02*
X126930002Y-127000000D01*
X144526000Y-77724000D02*
X144526000Y-109404002D01*
X92964000Y-127932000D02*
X92964000Y-129032000D01*
X93896000Y-127000000D02*
X92964000Y-127932000D01*
X126930002Y-127000000D02*
X93896000Y-127000000D01*
G04 #@! TO.N,/3V3*
X90805000Y-61156998D02*
X87376000Y-64585998D01*
X90805000Y-57023000D02*
X90805000Y-61156998D01*
X87376000Y-64585998D02*
X87376000Y-66929000D01*
X87376000Y-66929000D02*
X87376000Y-66929000D01*
X87699010Y-75368990D02*
X87699010Y-112452990D01*
X91948000Y-71120000D02*
X87699010Y-75368990D01*
X87699010Y-112452990D02*
X87699010Y-112452990D01*
G04 #@! TO.N,/5V*
X92329000Y-105467002D02*
X89916000Y-103054002D01*
X93726000Y-121666000D02*
X92329000Y-120269000D01*
X92329000Y-120269000D02*
X92329000Y-105467002D01*
X89916000Y-103054002D02*
X89916000Y-75819000D01*
X89916000Y-75819000D02*
X89916000Y-75819000D01*
X91694000Y-63684685D02*
X83750685Y-71628000D01*
X91694000Y-63119000D02*
X91694000Y-63684685D01*
X83750685Y-71628000D02*
X82804000Y-71628000D01*
X82804000Y-71628000D02*
X82804000Y-71628000D01*
G04 #@! TO.N,/BEMF_B*
X158369000Y-60579000D02*
X158369000Y-63119000D01*
X158369000Y-63119000D02*
X158369000Y-63119000D01*
X141369999Y-62465001D02*
X141369999Y-59925001D01*
X140970000Y-62865000D02*
X141369999Y-62465001D01*
X141369999Y-59925001D02*
X143256000Y-58039000D01*
X155829000Y-58039000D02*
X158369000Y-60579000D01*
X143256000Y-58039000D02*
X155829000Y-58039000D01*
G04 #@! TO.N,/BEMF_A*
X154051000Y-62566315D02*
X151809685Y-60325000D01*
X154051000Y-63132000D02*
X154051000Y-62566315D01*
X151809685Y-60325000D02*
X151809685Y-60325000D01*
X151809685Y-61931315D02*
X151809685Y-60325000D01*
X148082000Y-65659000D02*
X151809685Y-61931315D01*
G04 #@! TO.N,/BEMF_REF*
X146177000Y-80714315D02*
X146050000Y-80587315D01*
X146177000Y-81280000D02*
X146177000Y-80714315D01*
X146050000Y-80587315D02*
X146050000Y-73406000D01*
X146050000Y-73406000D02*
X146050000Y-73406000D01*
X146050000Y-73406000D02*
X146050000Y-73406000D01*
X142621000Y-62680315D02*
X143129000Y-62172315D01*
X142621000Y-63246000D02*
X142621000Y-62680315D01*
X143129000Y-62172315D02*
X146488685Y-62172315D01*
X146488685Y-62172315D02*
X147955000Y-60706000D01*
X147955000Y-60706000D02*
X147955000Y-59563000D01*
X147955000Y-59563000D02*
X147955000Y-59563000D01*
G04 #@! TO.N,/FAULT*
X73914000Y-111125000D02*
X74422000Y-111633000D01*
X60960000Y-111125000D02*
X73914000Y-111125000D01*
G04 #@! TD*
D27*
G04 #@! TO.N,GNDREF*
G36*
X167062906Y-52417560D02*
X166082560Y-53397906D01*
X165552000Y-54678790D01*
X165552000Y-56065210D01*
X166082560Y-57346094D01*
X167062906Y-58326440D01*
X168343790Y-58857000D01*
X169730210Y-58857000D01*
X171011094Y-58326440D01*
X171973027Y-57364507D01*
X171530626Y-126821637D01*
X171102440Y-125787906D01*
X170122094Y-124807560D01*
X168841210Y-124277000D01*
X167454790Y-124277000D01*
X166173906Y-124807560D01*
X165193560Y-125787906D01*
X164663000Y-127068790D01*
X164663000Y-128455210D01*
X165193560Y-129736094D01*
X166065466Y-130608000D01*
X62635286Y-130608000D01*
X62680094Y-130589440D01*
X63660440Y-129609094D01*
X64191000Y-128328210D01*
X64191000Y-126941790D01*
X63660440Y-125660906D01*
X62680094Y-124680560D01*
X61399210Y-124150000D01*
X60012790Y-124150000D01*
X58731906Y-124680560D01*
X57751560Y-125660906D01*
X57724098Y-125727205D01*
X57704891Y-113665000D01*
X59445908Y-113665000D01*
X59561161Y-114244418D01*
X59889375Y-114735625D01*
X60187761Y-114935000D01*
X59889375Y-115134375D01*
X59561161Y-115625582D01*
X59445908Y-116205000D01*
X59561161Y-116784418D01*
X59889375Y-117275625D01*
X60380582Y-117603839D01*
X60813744Y-117690000D01*
X61106256Y-117690000D01*
X61539418Y-117603839D01*
X62030625Y-117275625D01*
X62358839Y-116784418D01*
X62474092Y-116205000D01*
X62358839Y-115625582D01*
X62268999Y-115491126D01*
X63227000Y-115491126D01*
X63227000Y-115902874D01*
X63384569Y-116283280D01*
X63675720Y-116574431D01*
X64056126Y-116732000D01*
X64467874Y-116732000D01*
X64848280Y-116574431D01*
X65139431Y-116283280D01*
X65297000Y-115902874D01*
X65297000Y-115491126D01*
X65139431Y-115110720D01*
X64848280Y-114819569D01*
X64467874Y-114662000D01*
X64056126Y-114662000D01*
X63675720Y-114819569D01*
X63384569Y-115110720D01*
X63227000Y-115491126D01*
X62268999Y-115491126D01*
X62030625Y-115134375D01*
X61732239Y-114935000D01*
X62030625Y-114735625D01*
X62358839Y-114244418D01*
X62474092Y-113665000D01*
X62358839Y-113085582D01*
X62030625Y-112594375D01*
X62012381Y-112582184D01*
X62057765Y-112573157D01*
X62267809Y-112432809D01*
X62408157Y-112222765D01*
X62457440Y-111975000D01*
X62457440Y-111885000D01*
X73406106Y-111885000D01*
X73544569Y-112219280D01*
X73835720Y-112510431D01*
X74216126Y-112668000D01*
X74627874Y-112668000D01*
X75008280Y-112510431D01*
X75271595Y-112247116D01*
X86664010Y-112247116D01*
X86664010Y-112658864D01*
X86821579Y-113039270D01*
X87112730Y-113330421D01*
X87493136Y-113487990D01*
X87904884Y-113487990D01*
X88285290Y-113330421D01*
X88576441Y-113039270D01*
X88734010Y-112658864D01*
X88734010Y-112247116D01*
X88576441Y-111866710D01*
X88459010Y-111749279D01*
X88459010Y-75683791D01*
X88529675Y-75613126D01*
X88881000Y-75613126D01*
X88881000Y-76024874D01*
X89038569Y-76405280D01*
X89156001Y-76522712D01*
X89156000Y-102979155D01*
X89141112Y-103054002D01*
X89156000Y-103128849D01*
X89156000Y-103128853D01*
X89200096Y-103350538D01*
X89368071Y-103601931D01*
X89431530Y-103644333D01*
X91569001Y-105781806D01*
X91569000Y-120194153D01*
X91554112Y-120269000D01*
X91569000Y-120343847D01*
X91569000Y-120343851D01*
X91613096Y-120565536D01*
X91781071Y-120816929D01*
X91844530Y-120859331D01*
X92691000Y-121705802D01*
X92691000Y-121871874D01*
X92848569Y-122252280D01*
X93139720Y-122543431D01*
X93520126Y-122701000D01*
X93931874Y-122701000D01*
X94312280Y-122543431D01*
X94603431Y-122252280D01*
X94761000Y-121871874D01*
X94761000Y-121460126D01*
X94603431Y-121079720D01*
X94312280Y-120788569D01*
X93931874Y-120631000D01*
X93765802Y-120631000D01*
X93089000Y-119954199D01*
X93089000Y-108958916D01*
X93229569Y-109298280D01*
X93520720Y-109589431D01*
X93901126Y-109747000D01*
X94312874Y-109747000D01*
X94693280Y-109589431D01*
X94984431Y-109298280D01*
X95142000Y-108917874D01*
X95142000Y-108751801D01*
X96453802Y-107440000D01*
X115835425Y-107440000D01*
X115832000Y-107457218D01*
X115832000Y-107664553D01*
X114973482Y-108523072D01*
X114878711Y-108586396D01*
X114697092Y-108858209D01*
X114627854Y-108961831D01*
X114539765Y-109404685D01*
X114562000Y-109516468D01*
X114562001Y-114464867D01*
X112805869Y-116221000D01*
X112450778Y-116221000D01*
X111849847Y-116469914D01*
X111389914Y-116929847D01*
X111141000Y-117530778D01*
X111141000Y-118181222D01*
X111272628Y-118499000D01*
X101292132Y-118499000D01*
X101824132Y-117967000D01*
X102306222Y-117967000D01*
X102907153Y-117718086D01*
X103367086Y-117258153D01*
X103616000Y-116657222D01*
X103616000Y-116006778D01*
X103367086Y-115405847D01*
X102907153Y-114945914D01*
X102306222Y-114697000D01*
X101655778Y-114697000D01*
X101054847Y-114945914D01*
X100594914Y-115405847D01*
X100346000Y-116006778D01*
X100346000Y-116234868D01*
X98581869Y-117999000D01*
X98226778Y-117999000D01*
X97625847Y-118247914D01*
X97165914Y-118707847D01*
X96917000Y-119308778D01*
X96917000Y-119959222D01*
X97165914Y-120560153D01*
X97625847Y-121020086D01*
X98226778Y-121269000D01*
X98581869Y-121269000D01*
X99448389Y-122135521D01*
X99511711Y-122230289D01*
X99826895Y-122440888D01*
X99887145Y-122481146D01*
X100330000Y-122569235D01*
X100441783Y-122547000D01*
X104883000Y-122547000D01*
X104883000Y-122887874D01*
X105040569Y-123268280D01*
X105331720Y-123559431D01*
X105712126Y-123717000D01*
X106123874Y-123717000D01*
X106504280Y-123559431D01*
X106748711Y-123315000D01*
X128903791Y-123315000D01*
X128862792Y-123355999D01*
X121068849Y-123355999D01*
X120994001Y-123341111D01*
X120919153Y-123355999D01*
X120919149Y-123355999D01*
X120697464Y-123400095D01*
X120446072Y-123568070D01*
X120403672Y-123631526D01*
X118557199Y-125478000D01*
X101668711Y-125478000D01*
X101551280Y-125360569D01*
X101170874Y-125203000D01*
X100759126Y-125203000D01*
X100733544Y-125213596D01*
X100711000Y-125209112D01*
X100414463Y-125268097D01*
X100163071Y-125436071D01*
X99995097Y-125687463D01*
X99936112Y-125984000D01*
X99940596Y-126006544D01*
X99930000Y-126032126D01*
X99930000Y-126240000D01*
X93970846Y-126240000D01*
X93895999Y-126225112D01*
X93821152Y-126240000D01*
X93821148Y-126240000D01*
X93599463Y-126284096D01*
X93348071Y-126452071D01*
X93305671Y-126515527D01*
X92479530Y-127341669D01*
X92416071Y-127384071D01*
X92315518Y-127534560D01*
X92114000Y-127534560D01*
X91866235Y-127583843D01*
X91656191Y-127724191D01*
X91515843Y-127934235D01*
X91466560Y-128182000D01*
X91466560Y-129882000D01*
X91515843Y-130129765D01*
X91656191Y-130339809D01*
X91866235Y-130480157D01*
X92114000Y-130529440D01*
X93814000Y-130529440D01*
X94061765Y-130480157D01*
X94271809Y-130339809D01*
X94412157Y-130129765D01*
X94421184Y-130084381D01*
X94433375Y-130102625D01*
X94924582Y-130430839D01*
X95357744Y-130517000D01*
X95650256Y-130517000D01*
X96083418Y-130430839D01*
X96574625Y-130102625D01*
X96774000Y-129804239D01*
X96973375Y-130102625D01*
X97464582Y-130430839D01*
X97897744Y-130517000D01*
X98190256Y-130517000D01*
X98623418Y-130430839D01*
X99114625Y-130102625D01*
X99322178Y-129792000D01*
X130428151Y-129792000D01*
X130502998Y-129806888D01*
X130577845Y-129792000D01*
X130577850Y-129792000D01*
X130799535Y-129747904D01*
X131050927Y-129579929D01*
X131093329Y-129516470D01*
X145936472Y-114673328D01*
X145999928Y-114630928D01*
X146167903Y-114379536D01*
X146211999Y-114157851D01*
X146211999Y-114157846D01*
X146226887Y-114082999D01*
X146211999Y-114008152D01*
X146211999Y-112189126D01*
X147174000Y-112189126D01*
X147174000Y-112600874D01*
X147331569Y-112981280D01*
X147622720Y-113272431D01*
X148003126Y-113430000D01*
X148169199Y-113430000D01*
X153333671Y-118594473D01*
X153376071Y-118657929D01*
X153627463Y-118825904D01*
X153849148Y-118870000D01*
X153849152Y-118870000D01*
X153924000Y-118884888D01*
X153998848Y-118870000D01*
X159187000Y-118870000D01*
X159187000Y-118932503D01*
X159816517Y-120452289D01*
X160979711Y-121615483D01*
X162499497Y-122245000D01*
X164144503Y-122245000D01*
X165664289Y-121615483D01*
X166827483Y-120452289D01*
X167457000Y-118932503D01*
X167457000Y-117287497D01*
X166827483Y-115767711D01*
X165664289Y-114604517D01*
X164144503Y-113975000D01*
X164082000Y-113975000D01*
X164082000Y-111326847D01*
X164096888Y-111252000D01*
X164082000Y-111177153D01*
X164082000Y-111177148D01*
X164037904Y-110955463D01*
X163869929Y-110704071D01*
X163806473Y-110661671D01*
X157245000Y-104100199D01*
X157245000Y-103934126D01*
X157087431Y-103553720D01*
X156796280Y-103262569D01*
X156415874Y-103105000D01*
X156004126Y-103105000D01*
X155623720Y-103262569D01*
X155332569Y-103553720D01*
X155175000Y-103934126D01*
X155175000Y-104345874D01*
X155332569Y-104726280D01*
X155623720Y-105017431D01*
X156004126Y-105175000D01*
X156170199Y-105175000D01*
X162562000Y-111566802D01*
X162562000Y-113975000D01*
X162499497Y-113975000D01*
X160979711Y-114604517D01*
X159816517Y-115767711D01*
X159187000Y-117287497D01*
X159187000Y-117350000D01*
X154238802Y-117350000D01*
X149244000Y-112355199D01*
X149244000Y-112189126D01*
X149086431Y-111808720D01*
X148795280Y-111517569D01*
X148414874Y-111360000D01*
X148003126Y-111360000D01*
X147622720Y-111517569D01*
X147331569Y-111808720D01*
X147174000Y-112189126D01*
X146211999Y-112189126D01*
X146211999Y-97711126D01*
X147301000Y-97711126D01*
X147301000Y-98122874D01*
X147458569Y-98503280D01*
X147576000Y-98620711D01*
X147576001Y-99366149D01*
X147561112Y-99441000D01*
X147576001Y-99515852D01*
X147620097Y-99737537D01*
X147788072Y-99988929D01*
X147851528Y-100031329D01*
X148634671Y-100814473D01*
X148677071Y-100877929D01*
X148928463Y-101045904D01*
X149150148Y-101090000D01*
X149150153Y-101090000D01*
X149225000Y-101104888D01*
X149299847Y-101090000D01*
X159187000Y-101090000D01*
X159187000Y-101152503D01*
X159816517Y-102672289D01*
X160979711Y-103835483D01*
X162499497Y-104465000D01*
X164144503Y-104465000D01*
X165664289Y-103835483D01*
X166827483Y-102672289D01*
X167457000Y-101152503D01*
X167457000Y-99507497D01*
X166827483Y-97987711D01*
X165664289Y-96824517D01*
X164144503Y-96195000D01*
X162499497Y-96195000D01*
X160979711Y-96824517D01*
X160935515Y-96868713D01*
X160412332Y-96345531D01*
X160412330Y-96345528D01*
X154792001Y-90725200D01*
X154792001Y-88728159D01*
X155018280Y-88634431D01*
X155309431Y-88343280D01*
X155467000Y-87962874D01*
X155467000Y-87551126D01*
X155309431Y-87170720D01*
X155018280Y-86879569D01*
X154637874Y-86722000D01*
X154226126Y-86722000D01*
X153845720Y-86879569D01*
X153554569Y-87170720D01*
X153397000Y-87551126D01*
X153397000Y-87739383D01*
X153322537Y-87850826D01*
X153240280Y-87768569D01*
X152859874Y-87611000D01*
X152448126Y-87611000D01*
X152067720Y-87768569D01*
X151776569Y-88059720D01*
X151619000Y-88440126D01*
X151619000Y-88851874D01*
X151776569Y-89232280D01*
X151894000Y-89349711D01*
X151894001Y-97715148D01*
X151879112Y-97790000D01*
X151894001Y-97864852D01*
X151938097Y-98086537D01*
X152106072Y-98337929D01*
X152169528Y-98380329D01*
X153016000Y-99226802D01*
X153016000Y-99392874D01*
X153089368Y-99570000D01*
X149539802Y-99570000D01*
X149096000Y-99126199D01*
X149096000Y-98620711D01*
X149213431Y-98503280D01*
X149371000Y-98122874D01*
X149371000Y-97711126D01*
X149213431Y-97330720D01*
X148922280Y-97039569D01*
X148541874Y-96882000D01*
X148130126Y-96882000D01*
X147749720Y-97039569D01*
X147458569Y-97330720D01*
X147301000Y-97711126D01*
X146211999Y-97711126D01*
X146211999Y-82315000D01*
X146382874Y-82315000D01*
X146763280Y-82157431D01*
X147054431Y-81866280D01*
X147111916Y-81727497D01*
X159187000Y-81727497D01*
X159187000Y-83372503D01*
X159816517Y-84892289D01*
X160979711Y-86055483D01*
X162499497Y-86685000D01*
X164144503Y-86685000D01*
X165664289Y-86055483D01*
X166827483Y-84892289D01*
X167457000Y-83372503D01*
X167457000Y-81727497D01*
X166827483Y-80207711D01*
X165664289Y-79044517D01*
X164144503Y-78415000D01*
X162499497Y-78415000D01*
X160979711Y-79044517D01*
X159816517Y-80207711D01*
X159187000Y-81727497D01*
X147111916Y-81727497D01*
X147212000Y-81485874D01*
X147212000Y-81074126D01*
X147054431Y-80693720D01*
X146921314Y-80560603D01*
X146892904Y-80417778D01*
X146810000Y-80293704D01*
X146810000Y-74109711D01*
X146927431Y-73992280D01*
X147085000Y-73611874D01*
X147085000Y-73200126D01*
X146927431Y-72819720D01*
X146636280Y-72528569D01*
X146255874Y-72371000D01*
X145939999Y-72371000D01*
X145939999Y-65453126D01*
X147047000Y-65453126D01*
X147047000Y-65864874D01*
X147204569Y-66245280D01*
X147495720Y-66536431D01*
X147876126Y-66694000D01*
X148287874Y-66694000D01*
X148668280Y-66536431D01*
X148959431Y-66245280D01*
X149117000Y-65864874D01*
X149117000Y-65698801D01*
X152294158Y-62521644D01*
X152357614Y-62479244D01*
X152409447Y-62401671D01*
X152525589Y-62227853D01*
X152544195Y-62134312D01*
X153109728Y-62699845D01*
X153016000Y-62926126D01*
X153016000Y-63337874D01*
X153173569Y-63718280D01*
X153464720Y-64009431D01*
X153845126Y-64167000D01*
X154256874Y-64167000D01*
X154637280Y-64009431D01*
X154928431Y-63718280D01*
X155086000Y-63337874D01*
X155086000Y-62926126D01*
X154928431Y-62545720D01*
X154795314Y-62412603D01*
X154766904Y-62269778D01*
X154598929Y-62018386D01*
X154535473Y-61975986D01*
X152844685Y-60285199D01*
X152844685Y-60119126D01*
X152687116Y-59738720D01*
X152395965Y-59447569D01*
X152015559Y-59290000D01*
X151603811Y-59290000D01*
X151223405Y-59447569D01*
X150932254Y-59738720D01*
X150774685Y-60119126D01*
X150774685Y-60530874D01*
X150932254Y-60911280D01*
X151049686Y-61028712D01*
X151049685Y-61616513D01*
X148042199Y-64624000D01*
X147876126Y-64624000D01*
X147495720Y-64781569D01*
X147204569Y-65072720D01*
X147047000Y-65453126D01*
X145939999Y-65453126D01*
X145939999Y-63466845D01*
X145954887Y-63391998D01*
X145939999Y-63317151D01*
X145939999Y-63317147D01*
X145895903Y-63095462D01*
X145815000Y-62974382D01*
X145815000Y-62932315D01*
X146413838Y-62932315D01*
X146488685Y-62947203D01*
X146563532Y-62932315D01*
X146563537Y-62932315D01*
X146785222Y-62888219D01*
X147036614Y-62720244D01*
X147079016Y-62656785D01*
X148439473Y-61296329D01*
X148502929Y-61253929D01*
X148670904Y-61002537D01*
X148715000Y-60780852D01*
X148715000Y-60780848D01*
X148729888Y-60706000D01*
X148715000Y-60631152D01*
X148715000Y-60266711D01*
X148832431Y-60149280D01*
X148990000Y-59768874D01*
X148990000Y-59357126D01*
X148832431Y-58976720D01*
X148654711Y-58799000D01*
X155514199Y-58799000D01*
X157334000Y-60618803D01*
X157334000Y-60784874D01*
X157491569Y-61165280D01*
X157609000Y-61282711D01*
X157609001Y-62415288D01*
X157491569Y-62532720D01*
X157334000Y-62913126D01*
X157334000Y-63324874D01*
X157491569Y-63705280D01*
X157782720Y-63996431D01*
X158163126Y-64154000D01*
X158574874Y-64154000D01*
X158955280Y-63996431D01*
X159246431Y-63705280D01*
X159404000Y-63324874D01*
X159404000Y-62913126D01*
X159246431Y-62532720D01*
X159129000Y-62415289D01*
X159129000Y-61282711D01*
X159246431Y-61165280D01*
X159404000Y-60784874D01*
X159404000Y-60373126D01*
X159246431Y-59992720D01*
X158955280Y-59701569D01*
X158574874Y-59544000D01*
X158408803Y-59544000D01*
X156419331Y-57554530D01*
X156376929Y-57491071D01*
X156125537Y-57323096D01*
X155903852Y-57279000D01*
X155903847Y-57279000D01*
X155829000Y-57264112D01*
X155754153Y-57279000D01*
X143330846Y-57279000D01*
X143255999Y-57264112D01*
X143181152Y-57279000D01*
X143181148Y-57279000D01*
X142959463Y-57323096D01*
X142708071Y-57491071D01*
X142665671Y-57554527D01*
X140885527Y-59334672D01*
X140822071Y-59377072D01*
X140779671Y-59440528D01*
X140779670Y-59440529D01*
X140654096Y-59628464D01*
X140595111Y-59925001D01*
X140610000Y-59999853D01*
X140609999Y-61893841D01*
X140383720Y-61987569D01*
X140092569Y-62278720D01*
X139935000Y-62659126D01*
X139935000Y-63070874D01*
X140092569Y-63451280D01*
X140383720Y-63742431D01*
X140764126Y-63900000D01*
X141175874Y-63900000D01*
X141556280Y-63742431D01*
X141662397Y-63636314D01*
X141743569Y-63832280D01*
X142034720Y-64123431D01*
X142415126Y-64281000D01*
X142826874Y-64281000D01*
X143207280Y-64123431D01*
X143498431Y-63832280D01*
X143656000Y-63451874D01*
X143656000Y-63040126D01*
X143611343Y-62932315D01*
X143745000Y-62932315D01*
X143745000Y-63197874D01*
X143902569Y-63578280D01*
X144193720Y-63869431D01*
X144419999Y-63963159D01*
X144420000Y-76689000D01*
X144320126Y-76689000D01*
X144016000Y-76814973D01*
X144016000Y-74617711D01*
X144133431Y-74500280D01*
X144291000Y-74119874D01*
X144291000Y-73708126D01*
X144133431Y-73327720D01*
X143842280Y-73036569D01*
X143461874Y-72879000D01*
X143050126Y-72879000D01*
X142669720Y-73036569D01*
X142378569Y-73327720D01*
X142221000Y-73708126D01*
X142221000Y-74119874D01*
X142378569Y-74500280D01*
X142496000Y-74617711D01*
X142496001Y-109722789D01*
X131965278Y-120253513D01*
X131857147Y-119992460D01*
X131467540Y-119602853D01*
X130958494Y-119392000D01*
X130407506Y-119392000D01*
X129898460Y-119602853D01*
X129508853Y-119992460D01*
X129298000Y-120501506D01*
X129298000Y-121052494D01*
X129308165Y-121077034D01*
X128928528Y-121456671D01*
X128865072Y-121499071D01*
X128697096Y-121750463D01*
X128688237Y-121795000D01*
X127212978Y-121795000D01*
X127244155Y-121782086D01*
X127704088Y-121322153D01*
X127953002Y-120721222D01*
X127953002Y-120070778D01*
X127704088Y-119469847D01*
X127244155Y-119009914D01*
X126643224Y-118761000D01*
X125992780Y-118761000D01*
X125391849Y-119009914D01*
X124931916Y-119469847D01*
X124831915Y-119711270D01*
X124266186Y-120277000D01*
X115262131Y-120277000D01*
X118198521Y-117340611D01*
X118293289Y-117277289D01*
X118544146Y-116901855D01*
X118592806Y-116657222D01*
X118632235Y-116459001D01*
X118610000Y-116347218D01*
X118610000Y-113191239D01*
X118861086Y-112940153D01*
X119110000Y-112339222D01*
X119110000Y-111688778D01*
X118861086Y-111087847D01*
X118401153Y-110627914D01*
X117800222Y-110379000D01*
X117149778Y-110379000D01*
X116832000Y-110510628D01*
X116832000Y-109874816D01*
X117690521Y-109016296D01*
X117785289Y-108952974D01*
X118001685Y-108629114D01*
X118036146Y-108577540D01*
X118124235Y-108134686D01*
X118102000Y-108022903D01*
X118102000Y-107457217D01*
X118098575Y-107440000D01*
X121533468Y-107440000D01*
X121608315Y-107454888D01*
X121683162Y-107440000D01*
X121683167Y-107440000D01*
X121904852Y-107395904D01*
X122156244Y-107227929D01*
X122198646Y-107164470D01*
X124154846Y-105208272D01*
X124381126Y-105302000D01*
X124792874Y-105302000D01*
X125173280Y-105144431D01*
X125464431Y-104853280D01*
X125484001Y-104806034D01*
X125484001Y-109882754D01*
X125419711Y-109925711D01*
X125168855Y-110301145D01*
X125168854Y-110301146D01*
X125080765Y-110744000D01*
X125103000Y-110855783D01*
X125103000Y-111344761D01*
X124851914Y-111595847D01*
X124603000Y-112196778D01*
X124603000Y-112847222D01*
X124851914Y-113448153D01*
X125311847Y-113908086D01*
X125912778Y-114157000D01*
X126563222Y-114157000D01*
X127164153Y-113908086D01*
X127624086Y-113448153D01*
X127873000Y-112847222D01*
X127873000Y-112196778D01*
X127624086Y-111595847D01*
X127373000Y-111344761D01*
X127373000Y-111224246D01*
X127437289Y-111181289D01*
X127688146Y-110805855D01*
X127754000Y-110474783D01*
X127776235Y-110363001D01*
X127754000Y-110251219D01*
X127754000Y-89138781D01*
X127776235Y-89026999D01*
X127741400Y-88851874D01*
X127688146Y-88584145D01*
X127437289Y-88208711D01*
X127342524Y-88145391D01*
X125818523Y-86621392D01*
X125537854Y-86433854D01*
X125095000Y-86345765D01*
X124652146Y-86433854D01*
X124276712Y-86684712D01*
X124025854Y-87060146D01*
X123937765Y-87503000D01*
X124025854Y-87945854D01*
X124213392Y-88226523D01*
X125484000Y-89497133D01*
X125484001Y-103727966D01*
X125464431Y-103680720D01*
X125173280Y-103389569D01*
X124792874Y-103232000D01*
X124381126Y-103232000D01*
X124000720Y-103389569D01*
X123867603Y-103522686D01*
X123724778Y-103551096D01*
X123724776Y-103551097D01*
X123724777Y-103551097D01*
X123536841Y-103676671D01*
X123536839Y-103676673D01*
X123473386Y-103719071D01*
X123430988Y-103782524D01*
X121293514Y-105920000D01*
X117821564Y-105920000D01*
X118036146Y-105598855D01*
X118102000Y-105267783D01*
X118102000Y-101330782D01*
X118124235Y-101218999D01*
X118036146Y-100776145D01*
X117936181Y-100626537D01*
X117785289Y-100400711D01*
X117690521Y-100337389D01*
X116157132Y-98804000D01*
X114760131Y-97407000D01*
X123375289Y-97407000D01*
X123492720Y-97524431D01*
X123873126Y-97682000D01*
X124284874Y-97682000D01*
X124665280Y-97524431D01*
X124956431Y-97233280D01*
X125114000Y-96852874D01*
X125114000Y-96441126D01*
X124956431Y-96060720D01*
X124665280Y-95769569D01*
X124284874Y-95612000D01*
X123873126Y-95612000D01*
X123492720Y-95769569D01*
X123375289Y-95887000D01*
X114646564Y-95887000D01*
X114861146Y-95565855D01*
X114949235Y-95123000D01*
X114861146Y-94680145D01*
X114610289Y-94304711D01*
X114515521Y-94241389D01*
X111371000Y-91096869D01*
X111371000Y-86629217D01*
X111305146Y-86298145D01*
X111054289Y-85922711D01*
X110678854Y-85671854D01*
X110236000Y-85583765D01*
X109793145Y-85671854D01*
X109417711Y-85922711D01*
X109166854Y-86298146D01*
X109101000Y-86629218D01*
X109101001Y-91455212D01*
X109078765Y-91567000D01*
X109166854Y-92009854D01*
X109166855Y-92009855D01*
X109417712Y-92385289D01*
X109512480Y-92448611D01*
X111458897Y-94395029D01*
X111330874Y-94342000D01*
X110919126Y-94342000D01*
X110893544Y-94352596D01*
X110871000Y-94348112D01*
X110796153Y-94363000D01*
X92651711Y-94363000D01*
X92534280Y-94245569D01*
X92153874Y-94088000D01*
X91742126Y-94088000D01*
X91361720Y-94245569D01*
X91070569Y-94536720D01*
X90913000Y-94917126D01*
X90913000Y-95328874D01*
X91070569Y-95709280D01*
X91361720Y-96000431D01*
X91742126Y-96158000D01*
X92153874Y-96158000D01*
X92534280Y-96000431D01*
X92651711Y-95883000D01*
X100275262Y-95883000D01*
X100255152Y-95887000D01*
X100255148Y-95887000D01*
X100033463Y-95931096D01*
X99782071Y-96099071D01*
X99739671Y-96162527D01*
X92416199Y-103486000D01*
X92250126Y-103486000D01*
X91869720Y-103643569D01*
X91725045Y-103788244D01*
X90676000Y-102739201D01*
X90676000Y-84122126D01*
X99295000Y-84122126D01*
X99295000Y-84533874D01*
X99452569Y-84914280D01*
X99743720Y-85205431D01*
X100124126Y-85363000D01*
X100312382Y-85363000D01*
X100433462Y-85443903D01*
X100655147Y-85487999D01*
X100655151Y-85487999D01*
X100729998Y-85502887D01*
X100804845Y-85487999D01*
X101050198Y-85487999D01*
X102025671Y-86463473D01*
X102068071Y-86526929D01*
X102319463Y-86694904D01*
X102541148Y-86739000D01*
X102541152Y-86739000D01*
X102616000Y-86753888D01*
X102690848Y-86739000D01*
X106357289Y-86739000D01*
X106474720Y-86856431D01*
X106855126Y-87014000D01*
X107266874Y-87014000D01*
X107647280Y-86856431D01*
X107938431Y-86565280D01*
X108096000Y-86184874D01*
X108096000Y-85773126D01*
X107938431Y-85392720D01*
X107647280Y-85101569D01*
X107266874Y-84944000D01*
X106855126Y-84944000D01*
X106474720Y-85101569D01*
X106357289Y-85219000D01*
X102930802Y-85219000D01*
X101955330Y-84243529D01*
X101912928Y-84180070D01*
X101661536Y-84012095D01*
X101439851Y-83967999D01*
X101439846Y-83967999D01*
X101364999Y-83953111D01*
X101300321Y-83965976D01*
X101207431Y-83741720D01*
X100916280Y-83450569D01*
X100535874Y-83293000D01*
X100124126Y-83293000D01*
X99743720Y-83450569D01*
X99452569Y-83741720D01*
X99295000Y-84122126D01*
X90676000Y-84122126D01*
X90676000Y-78220000D01*
X108669572Y-78220000D01*
X108669572Y-82040000D01*
X116882429Y-82040000D01*
X116882429Y-78220000D01*
X108669572Y-78220000D01*
X90676000Y-78220000D01*
X90676000Y-76522711D01*
X90793431Y-76405280D01*
X90951000Y-76024874D01*
X90951000Y-75613126D01*
X90793431Y-75232720D01*
X90502280Y-74941569D01*
X90121874Y-74784000D01*
X89710126Y-74784000D01*
X89329720Y-74941569D01*
X89038569Y-75232720D01*
X88881000Y-75613126D01*
X88529675Y-75613126D01*
X91987802Y-72155000D01*
X92153874Y-72155000D01*
X92534280Y-71997431D01*
X92825431Y-71706280D01*
X92983000Y-71325874D01*
X92983000Y-70914126D01*
X92825431Y-70533720D01*
X92534280Y-70242569D01*
X92153874Y-70085000D01*
X91742126Y-70085000D01*
X91361720Y-70242569D01*
X91070569Y-70533720D01*
X90913000Y-70914126D01*
X90913000Y-71080198D01*
X87214540Y-74778659D01*
X87151081Y-74821061D01*
X86983106Y-75072454D01*
X86939010Y-75294139D01*
X86939010Y-75294143D01*
X86924122Y-75368990D01*
X86939010Y-75443837D01*
X86939011Y-111749278D01*
X86821579Y-111866710D01*
X86664010Y-112247116D01*
X75271595Y-112247116D01*
X75299431Y-112219280D01*
X75457000Y-111838874D01*
X75457000Y-111427126D01*
X75299431Y-111046720D01*
X75008280Y-110755569D01*
X74627874Y-110598000D01*
X74475913Y-110598000D01*
X74461929Y-110577071D01*
X74210537Y-110409096D01*
X73988852Y-110365000D01*
X73988847Y-110365000D01*
X73914000Y-110350112D01*
X73839153Y-110365000D01*
X62457440Y-110365000D01*
X62457440Y-110275000D01*
X62408157Y-110027235D01*
X62267809Y-109817191D01*
X62057765Y-109676843D01*
X61810000Y-109627560D01*
X60110000Y-109627560D01*
X59862235Y-109676843D01*
X59652191Y-109817191D01*
X59511843Y-110027235D01*
X59462560Y-110275000D01*
X59462560Y-111975000D01*
X59511843Y-112222765D01*
X59652191Y-112432809D01*
X59862235Y-112573157D01*
X59907619Y-112582184D01*
X59889375Y-112594375D01*
X59561161Y-113085582D01*
X59445908Y-113665000D01*
X57704891Y-113665000D01*
X57678601Y-97155000D01*
X59826908Y-97155000D01*
X59942161Y-97734418D01*
X60270375Y-98225625D01*
X60568761Y-98425000D01*
X60270375Y-98624375D01*
X59942161Y-99115582D01*
X59826908Y-99695000D01*
X59942161Y-100274418D01*
X60270375Y-100765625D01*
X60761582Y-101093839D01*
X61194744Y-101180000D01*
X61487256Y-101180000D01*
X61920418Y-101093839D01*
X62411625Y-100765625D01*
X62739839Y-100274418D01*
X62855092Y-99695000D01*
X62739839Y-99115582D01*
X62411625Y-98624375D01*
X62113239Y-98425000D01*
X62411625Y-98225625D01*
X62619178Y-97915000D01*
X64187153Y-97915000D01*
X64262000Y-97929888D01*
X64336847Y-97915000D01*
X64336852Y-97915000D01*
X64558537Y-97870904D01*
X64809929Y-97702929D01*
X64852331Y-97639470D01*
X65338802Y-97153000D01*
X66936084Y-97153000D01*
X66596720Y-97293569D01*
X66305569Y-97584720D01*
X66148000Y-97965126D01*
X66148000Y-98376874D01*
X66305569Y-98757280D01*
X66423000Y-98874711D01*
X66423001Y-101023288D01*
X66305569Y-101140720D01*
X66148000Y-101521126D01*
X66148000Y-101932874D01*
X66305569Y-102313280D01*
X66596720Y-102604431D01*
X66977126Y-102762000D01*
X67388874Y-102762000D01*
X67769280Y-102604431D01*
X68060431Y-102313280D01*
X68218000Y-101932874D01*
X68218000Y-101521126D01*
X68060431Y-101140720D01*
X67943000Y-101023289D01*
X67943000Y-98874711D01*
X68060431Y-98757280D01*
X68218000Y-98376874D01*
X68218000Y-97965126D01*
X68060431Y-97584720D01*
X67769280Y-97293569D01*
X67429916Y-97153000D01*
X84656852Y-97153000D01*
X84878537Y-97108904D01*
X85129929Y-96940929D01*
X85297904Y-96689537D01*
X85356889Y-96393000D01*
X85297904Y-96096463D01*
X85129929Y-95845071D01*
X84878537Y-95677096D01*
X84656852Y-95633000D01*
X65098848Y-95633000D01*
X65024000Y-95618112D01*
X64949152Y-95633000D01*
X64949148Y-95633000D01*
X64775605Y-95667520D01*
X64727462Y-95677096D01*
X64540418Y-95802076D01*
X64476071Y-95845071D01*
X64433671Y-95908527D01*
X63947199Y-96395000D01*
X62619178Y-96395000D01*
X62411625Y-96084375D01*
X62393381Y-96072184D01*
X62438765Y-96063157D01*
X62648809Y-95922809D01*
X62789157Y-95712765D01*
X62838440Y-95465000D01*
X62838440Y-95375000D01*
X79808153Y-95375000D01*
X79883000Y-95389888D01*
X79957847Y-95375000D01*
X79957852Y-95375000D01*
X80179537Y-95330904D01*
X80430929Y-95162929D01*
X80473331Y-95099470D01*
X81383473Y-94189329D01*
X81446929Y-94146929D01*
X81614904Y-93895537D01*
X81659000Y-93673852D01*
X81659000Y-93673847D01*
X81673888Y-93599000D01*
X81659000Y-93524153D01*
X81659000Y-86293801D01*
X82864802Y-85088000D01*
X85037852Y-85088000D01*
X85259537Y-85043904D01*
X85510929Y-84875929D01*
X85678904Y-84624537D01*
X85737889Y-84328000D01*
X85678904Y-84031463D01*
X85510929Y-83780071D01*
X85259537Y-83612096D01*
X85037852Y-83568000D01*
X82624848Y-83568000D01*
X82550000Y-83553112D01*
X82475152Y-83568000D01*
X82475148Y-83568000D01*
X82253463Y-83612096D01*
X82002071Y-83780071D01*
X81959671Y-83843527D01*
X80414528Y-85388671D01*
X80351072Y-85431071D01*
X80308672Y-85494527D01*
X80308671Y-85494528D01*
X80183097Y-85682463D01*
X80124112Y-85979000D01*
X80139001Y-86053852D01*
X80139000Y-93284198D01*
X79568199Y-93855000D01*
X62838440Y-93855000D01*
X62838440Y-93765000D01*
X62789157Y-93517235D01*
X62648809Y-93307191D01*
X62438765Y-93166843D01*
X62191000Y-93117560D01*
X60491000Y-93117560D01*
X60243235Y-93166843D01*
X60033191Y-93307191D01*
X59892843Y-93517235D01*
X59843560Y-93765000D01*
X59843560Y-95465000D01*
X59892843Y-95712765D01*
X60033191Y-95922809D01*
X60243235Y-96063157D01*
X60288619Y-96072184D01*
X60270375Y-96084375D01*
X59942161Y-96575582D01*
X59826908Y-97155000D01*
X57678601Y-97155000D01*
X57658176Y-84328000D01*
X59826908Y-84328000D01*
X59942161Y-84907418D01*
X60270375Y-85398625D01*
X60568761Y-85598000D01*
X60270375Y-85797375D01*
X59942161Y-86288582D01*
X59826908Y-86868000D01*
X59942161Y-87447418D01*
X60270375Y-87938625D01*
X60761582Y-88266839D01*
X61194744Y-88353000D01*
X61487256Y-88353000D01*
X61920418Y-88266839D01*
X62411625Y-87938625D01*
X62739839Y-87447418D01*
X62855092Y-86868000D01*
X62739839Y-86288582D01*
X62411625Y-85797375D01*
X62113239Y-85598000D01*
X62411625Y-85398625D01*
X62739839Y-84907418D01*
X62855092Y-84328000D01*
X62739839Y-83748582D01*
X62411625Y-83257375D01*
X62393381Y-83245184D01*
X62438765Y-83236157D01*
X62648809Y-83095809D01*
X62789157Y-82885765D01*
X62838440Y-82638000D01*
X62838440Y-81963126D01*
X66021000Y-81963126D01*
X66021000Y-82374874D01*
X66178569Y-82755280D01*
X66296001Y-82872712D01*
X66296000Y-87053289D01*
X66178569Y-87170720D01*
X66021000Y-87551126D01*
X66021000Y-87962874D01*
X66178569Y-88343280D01*
X66469720Y-88634431D01*
X66850126Y-88792000D01*
X67261874Y-88792000D01*
X67642280Y-88634431D01*
X67933431Y-88343280D01*
X68091000Y-87962874D01*
X68091000Y-87551126D01*
X67933431Y-87170720D01*
X67816000Y-87053289D01*
X67816000Y-82872711D01*
X67933431Y-82755280D01*
X68091000Y-82374874D01*
X68091000Y-81963126D01*
X67933431Y-81582720D01*
X67642280Y-81291569D01*
X67261874Y-81134000D01*
X66850126Y-81134000D01*
X66469720Y-81291569D01*
X66178569Y-81582720D01*
X66021000Y-81963126D01*
X62838440Y-81963126D01*
X62838440Y-80938000D01*
X62789157Y-80690235D01*
X62648809Y-80480191D01*
X62438765Y-80339843D01*
X62191000Y-80290560D01*
X60491000Y-80290560D01*
X60243235Y-80339843D01*
X60033191Y-80480191D01*
X59892843Y-80690235D01*
X59843560Y-80938000D01*
X59843560Y-82638000D01*
X59892843Y-82885765D01*
X60033191Y-83095809D01*
X60243235Y-83236157D01*
X60288619Y-83245184D01*
X60270375Y-83257375D01*
X59942161Y-83748582D01*
X59826908Y-84328000D01*
X57658176Y-84328000D01*
X57637625Y-71422126D01*
X81769000Y-71422126D01*
X81769000Y-71833874D01*
X81926569Y-72214280D01*
X82217720Y-72505431D01*
X82598126Y-72663000D01*
X83009874Y-72663000D01*
X83390280Y-72505431D01*
X83507711Y-72388000D01*
X83675838Y-72388000D01*
X83750685Y-72402888D01*
X83825532Y-72388000D01*
X83825537Y-72388000D01*
X84047222Y-72343904D01*
X84298614Y-72175929D01*
X84341016Y-72112470D01*
X88474311Y-67979175D01*
X121310430Y-67979175D01*
X121433565Y-68266788D01*
X122115734Y-68526707D01*
X122845443Y-68505786D01*
X123422435Y-68266788D01*
X123545570Y-67979175D01*
X122428000Y-66861605D01*
X121310430Y-67979175D01*
X88474311Y-67979175D01*
X90083752Y-66369734D01*
X120583293Y-66369734D01*
X120604214Y-67099443D01*
X120843212Y-67676435D01*
X121130825Y-67799570D01*
X122248395Y-66682000D01*
X122607605Y-66682000D01*
X123725175Y-67799570D01*
X124012788Y-67676435D01*
X124272707Y-66994266D01*
X124251786Y-66264557D01*
X124012788Y-65687565D01*
X123725175Y-65564430D01*
X122607605Y-66682000D01*
X122248395Y-66682000D01*
X121130825Y-65564430D01*
X120843212Y-65687565D01*
X120583293Y-66369734D01*
X90083752Y-66369734D01*
X91068661Y-65384825D01*
X121310430Y-65384825D01*
X122428000Y-66502395D01*
X123545570Y-65384825D01*
X123422435Y-65097212D01*
X122740266Y-64837293D01*
X122010557Y-64858214D01*
X121433565Y-65097212D01*
X121310430Y-65384825D01*
X91068661Y-65384825D01*
X92178473Y-64275014D01*
X92241929Y-64232614D01*
X92325259Y-64107902D01*
X92409904Y-63981223D01*
X92426060Y-63900000D01*
X92438314Y-63838397D01*
X92571431Y-63705280D01*
X92729000Y-63324874D01*
X92729000Y-62913126D01*
X92571431Y-62532720D01*
X92280280Y-62241569D01*
X91899874Y-62084000D01*
X91488126Y-62084000D01*
X91107720Y-62241569D01*
X90816569Y-62532720D01*
X90659000Y-62913126D01*
X90659000Y-63324874D01*
X90752728Y-63551155D01*
X88136000Y-66167883D01*
X88136000Y-64900799D01*
X91289476Y-61747325D01*
X91352929Y-61704927D01*
X91395327Y-61641474D01*
X91395329Y-61641472D01*
X91479102Y-61516096D01*
X91520904Y-61453535D01*
X91565000Y-61231850D01*
X91565000Y-61231846D01*
X91579888Y-61156999D01*
X91565000Y-61082152D01*
X91565000Y-57726711D01*
X91682431Y-57609280D01*
X91840000Y-57228874D01*
X91840000Y-56817126D01*
X91714856Y-56515000D01*
X99671000Y-56515000D01*
X99671000Y-57275000D01*
X99847103Y-57906327D01*
X100251399Y-58422206D01*
X100822338Y-58744099D01*
X100959290Y-58777748D01*
X101219000Y-58658922D01*
X101219000Y-56515000D01*
X101473000Y-56515000D01*
X101473000Y-58658922D01*
X101732710Y-58777748D01*
X101869662Y-58744099D01*
X102440601Y-58422206D01*
X102844897Y-57906327D01*
X103021000Y-57275000D01*
X103021000Y-56515000D01*
X101473000Y-56515000D01*
X101219000Y-56515000D01*
X99671000Y-56515000D01*
X91714856Y-56515000D01*
X91682431Y-56436720D01*
X91391280Y-56145569D01*
X91010874Y-55988000D01*
X90599126Y-55988000D01*
X90218720Y-56145569D01*
X89927569Y-56436720D01*
X89770000Y-56817126D01*
X89770000Y-57228874D01*
X89927569Y-57609280D01*
X90045000Y-57726711D01*
X90045001Y-60842194D01*
X86891530Y-63995667D01*
X86828071Y-64038069D01*
X86660096Y-64289462D01*
X86616000Y-64511147D01*
X86616000Y-64511151D01*
X86601112Y-64585998D01*
X86616000Y-64660845D01*
X86616001Y-66225288D01*
X86498569Y-66342720D01*
X86341000Y-66723126D01*
X86341000Y-67134874D01*
X86498569Y-67515280D01*
X86643586Y-67660297D01*
X83471797Y-70832086D01*
X83390280Y-70750569D01*
X83009874Y-70593000D01*
X82598126Y-70593000D01*
X82217720Y-70750569D01*
X81926569Y-71041720D01*
X81769000Y-71422126D01*
X57637625Y-71422126D01*
X57632150Y-67984000D01*
X60097560Y-67984000D01*
X60097560Y-69684000D01*
X60146843Y-69931765D01*
X60287191Y-70141809D01*
X60497235Y-70282157D01*
X60745000Y-70331440D01*
X62445000Y-70331440D01*
X62692765Y-70282157D01*
X62902809Y-70141809D01*
X63043157Y-69931765D01*
X63092440Y-69684000D01*
X63092440Y-67984000D01*
X63043157Y-67736235D01*
X62902809Y-67526191D01*
X62692765Y-67385843D01*
X62589292Y-67365261D01*
X62866645Y-67060924D01*
X63036476Y-66650890D01*
X62915155Y-66421000D01*
X61722000Y-66421000D01*
X61722000Y-66441000D01*
X61468000Y-66441000D01*
X61468000Y-66421000D01*
X60274845Y-66421000D01*
X60153524Y-66650890D01*
X60323355Y-67060924D01*
X60600708Y-67365261D01*
X60497235Y-67385843D01*
X60287191Y-67526191D01*
X60146843Y-67736235D01*
X60097560Y-67984000D01*
X57632150Y-67984000D01*
X57628891Y-65937110D01*
X60153524Y-65937110D01*
X60274845Y-66167000D01*
X61468000Y-66167000D01*
X61468000Y-64973181D01*
X61722000Y-64973181D01*
X61722000Y-66167000D01*
X62915155Y-66167000D01*
X63036476Y-65937110D01*
X62866645Y-65527076D01*
X62476358Y-65098817D01*
X61951892Y-64852514D01*
X61722000Y-64973181D01*
X61468000Y-64973181D01*
X61238108Y-64852514D01*
X60713642Y-65098817D01*
X60323355Y-65527076D01*
X60153524Y-65937110D01*
X57628891Y-65937110D01*
X57614684Y-57015647D01*
X57751560Y-57346094D01*
X58731906Y-58326440D01*
X60012790Y-58857000D01*
X61399210Y-58857000D01*
X62680094Y-58326440D01*
X63660440Y-57346094D01*
X64191000Y-56065210D01*
X64191000Y-55501000D01*
X99671000Y-55501000D01*
X99671000Y-56261000D01*
X101219000Y-56261000D01*
X101219000Y-54117078D01*
X101473000Y-54117078D01*
X101473000Y-56261000D01*
X103021000Y-56261000D01*
X103021000Y-55501000D01*
X102844897Y-54869673D01*
X102820074Y-54837999D01*
X104738560Y-54837999D01*
X104738560Y-57938001D01*
X104806873Y-58281436D01*
X105001414Y-58572586D01*
X105292564Y-58767127D01*
X105635999Y-58835440D01*
X107216001Y-58835440D01*
X107559436Y-58767127D01*
X107850586Y-58572586D01*
X108045127Y-58281436D01*
X108096533Y-58023000D01*
X118956762Y-58023000D01*
X120580560Y-59646799D01*
X120580560Y-60382000D01*
X120629843Y-60629765D01*
X120770191Y-60839809D01*
X120980235Y-60980157D01*
X121228000Y-61029440D01*
X123628000Y-61029440D01*
X123875765Y-60980157D01*
X124085809Y-60839809D01*
X124226157Y-60629765D01*
X124275440Y-60382000D01*
X124275440Y-57982000D01*
X124226157Y-57734235D01*
X124085809Y-57524191D01*
X123875765Y-57383843D01*
X123628000Y-57334560D01*
X122892799Y-57334560D01*
X120903988Y-55345750D01*
X120812769Y-55209231D01*
X120271945Y-54847864D01*
X119795031Y-54753000D01*
X119795030Y-54753000D01*
X119634000Y-54720969D01*
X119472970Y-54753000D01*
X108096533Y-54753000D01*
X108045127Y-54494564D01*
X107850586Y-54203414D01*
X107559436Y-54008873D01*
X107216001Y-53940560D01*
X105635999Y-53940560D01*
X105292564Y-54008873D01*
X105001414Y-54203414D01*
X104806873Y-54494564D01*
X104738560Y-54837999D01*
X102820074Y-54837999D01*
X102440601Y-54353794D01*
X101869662Y-54031901D01*
X101732710Y-53998252D01*
X101473000Y-54117078D01*
X101219000Y-54117078D01*
X100959290Y-53998252D01*
X100822338Y-54031901D01*
X100251399Y-54353794D01*
X99847103Y-54869673D01*
X99671000Y-55501000D01*
X64191000Y-55501000D01*
X64191000Y-54678790D01*
X63660440Y-53397906D01*
X62680094Y-52417560D01*
X62328681Y-52272000D01*
X167414319Y-52272000D01*
X167062906Y-52417560D01*
X167062906Y-52417560D01*
G37*
X167062906Y-52417560D02*
X166082560Y-53397906D01*
X165552000Y-54678790D01*
X165552000Y-56065210D01*
X166082560Y-57346094D01*
X167062906Y-58326440D01*
X168343790Y-58857000D01*
X169730210Y-58857000D01*
X171011094Y-58326440D01*
X171973027Y-57364507D01*
X171530626Y-126821637D01*
X171102440Y-125787906D01*
X170122094Y-124807560D01*
X168841210Y-124277000D01*
X167454790Y-124277000D01*
X166173906Y-124807560D01*
X165193560Y-125787906D01*
X164663000Y-127068790D01*
X164663000Y-128455210D01*
X165193560Y-129736094D01*
X166065466Y-130608000D01*
X62635286Y-130608000D01*
X62680094Y-130589440D01*
X63660440Y-129609094D01*
X64191000Y-128328210D01*
X64191000Y-126941790D01*
X63660440Y-125660906D01*
X62680094Y-124680560D01*
X61399210Y-124150000D01*
X60012790Y-124150000D01*
X58731906Y-124680560D01*
X57751560Y-125660906D01*
X57724098Y-125727205D01*
X57704891Y-113665000D01*
X59445908Y-113665000D01*
X59561161Y-114244418D01*
X59889375Y-114735625D01*
X60187761Y-114935000D01*
X59889375Y-115134375D01*
X59561161Y-115625582D01*
X59445908Y-116205000D01*
X59561161Y-116784418D01*
X59889375Y-117275625D01*
X60380582Y-117603839D01*
X60813744Y-117690000D01*
X61106256Y-117690000D01*
X61539418Y-117603839D01*
X62030625Y-117275625D01*
X62358839Y-116784418D01*
X62474092Y-116205000D01*
X62358839Y-115625582D01*
X62268999Y-115491126D01*
X63227000Y-115491126D01*
X63227000Y-115902874D01*
X63384569Y-116283280D01*
X63675720Y-116574431D01*
X64056126Y-116732000D01*
X64467874Y-116732000D01*
X64848280Y-116574431D01*
X65139431Y-116283280D01*
X65297000Y-115902874D01*
X65297000Y-115491126D01*
X65139431Y-115110720D01*
X64848280Y-114819569D01*
X64467874Y-114662000D01*
X64056126Y-114662000D01*
X63675720Y-114819569D01*
X63384569Y-115110720D01*
X63227000Y-115491126D01*
X62268999Y-115491126D01*
X62030625Y-115134375D01*
X61732239Y-114935000D01*
X62030625Y-114735625D01*
X62358839Y-114244418D01*
X62474092Y-113665000D01*
X62358839Y-113085582D01*
X62030625Y-112594375D01*
X62012381Y-112582184D01*
X62057765Y-112573157D01*
X62267809Y-112432809D01*
X62408157Y-112222765D01*
X62457440Y-111975000D01*
X62457440Y-111885000D01*
X73406106Y-111885000D01*
X73544569Y-112219280D01*
X73835720Y-112510431D01*
X74216126Y-112668000D01*
X74627874Y-112668000D01*
X75008280Y-112510431D01*
X75271595Y-112247116D01*
X86664010Y-112247116D01*
X86664010Y-112658864D01*
X86821579Y-113039270D01*
X87112730Y-113330421D01*
X87493136Y-113487990D01*
X87904884Y-113487990D01*
X88285290Y-113330421D01*
X88576441Y-113039270D01*
X88734010Y-112658864D01*
X88734010Y-112247116D01*
X88576441Y-111866710D01*
X88459010Y-111749279D01*
X88459010Y-75683791D01*
X88529675Y-75613126D01*
X88881000Y-75613126D01*
X88881000Y-76024874D01*
X89038569Y-76405280D01*
X89156001Y-76522712D01*
X89156000Y-102979155D01*
X89141112Y-103054002D01*
X89156000Y-103128849D01*
X89156000Y-103128853D01*
X89200096Y-103350538D01*
X89368071Y-103601931D01*
X89431530Y-103644333D01*
X91569001Y-105781806D01*
X91569000Y-120194153D01*
X91554112Y-120269000D01*
X91569000Y-120343847D01*
X91569000Y-120343851D01*
X91613096Y-120565536D01*
X91781071Y-120816929D01*
X91844530Y-120859331D01*
X92691000Y-121705802D01*
X92691000Y-121871874D01*
X92848569Y-122252280D01*
X93139720Y-122543431D01*
X93520126Y-122701000D01*
X93931874Y-122701000D01*
X94312280Y-122543431D01*
X94603431Y-122252280D01*
X94761000Y-121871874D01*
X94761000Y-121460126D01*
X94603431Y-121079720D01*
X94312280Y-120788569D01*
X93931874Y-120631000D01*
X93765802Y-120631000D01*
X93089000Y-119954199D01*
X93089000Y-108958916D01*
X93229569Y-109298280D01*
X93520720Y-109589431D01*
X93901126Y-109747000D01*
X94312874Y-109747000D01*
X94693280Y-109589431D01*
X94984431Y-109298280D01*
X95142000Y-108917874D01*
X95142000Y-108751801D01*
X96453802Y-107440000D01*
X115835425Y-107440000D01*
X115832000Y-107457218D01*
X115832000Y-107664553D01*
X114973482Y-108523072D01*
X114878711Y-108586396D01*
X114697092Y-108858209D01*
X114627854Y-108961831D01*
X114539765Y-109404685D01*
X114562000Y-109516468D01*
X114562001Y-114464867D01*
X112805869Y-116221000D01*
X112450778Y-116221000D01*
X111849847Y-116469914D01*
X111389914Y-116929847D01*
X111141000Y-117530778D01*
X111141000Y-118181222D01*
X111272628Y-118499000D01*
X101292132Y-118499000D01*
X101824132Y-117967000D01*
X102306222Y-117967000D01*
X102907153Y-117718086D01*
X103367086Y-117258153D01*
X103616000Y-116657222D01*
X103616000Y-116006778D01*
X103367086Y-115405847D01*
X102907153Y-114945914D01*
X102306222Y-114697000D01*
X101655778Y-114697000D01*
X101054847Y-114945914D01*
X100594914Y-115405847D01*
X100346000Y-116006778D01*
X100346000Y-116234868D01*
X98581869Y-117999000D01*
X98226778Y-117999000D01*
X97625847Y-118247914D01*
X97165914Y-118707847D01*
X96917000Y-119308778D01*
X96917000Y-119959222D01*
X97165914Y-120560153D01*
X97625847Y-121020086D01*
X98226778Y-121269000D01*
X98581869Y-121269000D01*
X99448389Y-122135521D01*
X99511711Y-122230289D01*
X99826895Y-122440888D01*
X99887145Y-122481146D01*
X100330000Y-122569235D01*
X100441783Y-122547000D01*
X104883000Y-122547000D01*
X104883000Y-122887874D01*
X105040569Y-123268280D01*
X105331720Y-123559431D01*
X105712126Y-123717000D01*
X106123874Y-123717000D01*
X106504280Y-123559431D01*
X106748711Y-123315000D01*
X128903791Y-123315000D01*
X128862792Y-123355999D01*
X121068849Y-123355999D01*
X120994001Y-123341111D01*
X120919153Y-123355999D01*
X120919149Y-123355999D01*
X120697464Y-123400095D01*
X120446072Y-123568070D01*
X120403672Y-123631526D01*
X118557199Y-125478000D01*
X101668711Y-125478000D01*
X101551280Y-125360569D01*
X101170874Y-125203000D01*
X100759126Y-125203000D01*
X100733544Y-125213596D01*
X100711000Y-125209112D01*
X100414463Y-125268097D01*
X100163071Y-125436071D01*
X99995097Y-125687463D01*
X99936112Y-125984000D01*
X99940596Y-126006544D01*
X99930000Y-126032126D01*
X99930000Y-126240000D01*
X93970846Y-126240000D01*
X93895999Y-126225112D01*
X93821152Y-126240000D01*
X93821148Y-126240000D01*
X93599463Y-126284096D01*
X93348071Y-126452071D01*
X93305671Y-126515527D01*
X92479530Y-127341669D01*
X92416071Y-127384071D01*
X92315518Y-127534560D01*
X92114000Y-127534560D01*
X91866235Y-127583843D01*
X91656191Y-127724191D01*
X91515843Y-127934235D01*
X91466560Y-128182000D01*
X91466560Y-129882000D01*
X91515843Y-130129765D01*
X91656191Y-130339809D01*
X91866235Y-130480157D01*
X92114000Y-130529440D01*
X93814000Y-130529440D01*
X94061765Y-130480157D01*
X94271809Y-130339809D01*
X94412157Y-130129765D01*
X94421184Y-130084381D01*
X94433375Y-130102625D01*
X94924582Y-130430839D01*
X95357744Y-130517000D01*
X95650256Y-130517000D01*
X96083418Y-130430839D01*
X96574625Y-130102625D01*
X96774000Y-129804239D01*
X96973375Y-130102625D01*
X97464582Y-130430839D01*
X97897744Y-130517000D01*
X98190256Y-130517000D01*
X98623418Y-130430839D01*
X99114625Y-130102625D01*
X99322178Y-129792000D01*
X130428151Y-129792000D01*
X130502998Y-129806888D01*
X130577845Y-129792000D01*
X130577850Y-129792000D01*
X130799535Y-129747904D01*
X131050927Y-129579929D01*
X131093329Y-129516470D01*
X145936472Y-114673328D01*
X145999928Y-114630928D01*
X146167903Y-114379536D01*
X146211999Y-114157851D01*
X146211999Y-114157846D01*
X146226887Y-114082999D01*
X146211999Y-114008152D01*
X146211999Y-112189126D01*
X147174000Y-112189126D01*
X147174000Y-112600874D01*
X147331569Y-112981280D01*
X147622720Y-113272431D01*
X148003126Y-113430000D01*
X148169199Y-113430000D01*
X153333671Y-118594473D01*
X153376071Y-118657929D01*
X153627463Y-118825904D01*
X153849148Y-118870000D01*
X153849152Y-118870000D01*
X153924000Y-118884888D01*
X153998848Y-118870000D01*
X159187000Y-118870000D01*
X159187000Y-118932503D01*
X159816517Y-120452289D01*
X160979711Y-121615483D01*
X162499497Y-122245000D01*
X164144503Y-122245000D01*
X165664289Y-121615483D01*
X166827483Y-120452289D01*
X167457000Y-118932503D01*
X167457000Y-117287497D01*
X166827483Y-115767711D01*
X165664289Y-114604517D01*
X164144503Y-113975000D01*
X164082000Y-113975000D01*
X164082000Y-111326847D01*
X164096888Y-111252000D01*
X164082000Y-111177153D01*
X164082000Y-111177148D01*
X164037904Y-110955463D01*
X163869929Y-110704071D01*
X163806473Y-110661671D01*
X157245000Y-104100199D01*
X157245000Y-103934126D01*
X157087431Y-103553720D01*
X156796280Y-103262569D01*
X156415874Y-103105000D01*
X156004126Y-103105000D01*
X155623720Y-103262569D01*
X155332569Y-103553720D01*
X155175000Y-103934126D01*
X155175000Y-104345874D01*
X155332569Y-104726280D01*
X155623720Y-105017431D01*
X156004126Y-105175000D01*
X156170199Y-105175000D01*
X162562000Y-111566802D01*
X162562000Y-113975000D01*
X162499497Y-113975000D01*
X160979711Y-114604517D01*
X159816517Y-115767711D01*
X159187000Y-117287497D01*
X159187000Y-117350000D01*
X154238802Y-117350000D01*
X149244000Y-112355199D01*
X149244000Y-112189126D01*
X149086431Y-111808720D01*
X148795280Y-111517569D01*
X148414874Y-111360000D01*
X148003126Y-111360000D01*
X147622720Y-111517569D01*
X147331569Y-111808720D01*
X147174000Y-112189126D01*
X146211999Y-112189126D01*
X146211999Y-97711126D01*
X147301000Y-97711126D01*
X147301000Y-98122874D01*
X147458569Y-98503280D01*
X147576000Y-98620711D01*
X147576001Y-99366149D01*
X147561112Y-99441000D01*
X147576001Y-99515852D01*
X147620097Y-99737537D01*
X147788072Y-99988929D01*
X147851528Y-100031329D01*
X148634671Y-100814473D01*
X148677071Y-100877929D01*
X148928463Y-101045904D01*
X149150148Y-101090000D01*
X149150153Y-101090000D01*
X149225000Y-101104888D01*
X149299847Y-101090000D01*
X159187000Y-101090000D01*
X159187000Y-101152503D01*
X159816517Y-102672289D01*
X160979711Y-103835483D01*
X162499497Y-104465000D01*
X164144503Y-104465000D01*
X165664289Y-103835483D01*
X166827483Y-102672289D01*
X167457000Y-101152503D01*
X167457000Y-99507497D01*
X166827483Y-97987711D01*
X165664289Y-96824517D01*
X164144503Y-96195000D01*
X162499497Y-96195000D01*
X160979711Y-96824517D01*
X160935515Y-96868713D01*
X160412332Y-96345531D01*
X160412330Y-96345528D01*
X154792001Y-90725200D01*
X154792001Y-88728159D01*
X155018280Y-88634431D01*
X155309431Y-88343280D01*
X155467000Y-87962874D01*
X155467000Y-87551126D01*
X155309431Y-87170720D01*
X155018280Y-86879569D01*
X154637874Y-86722000D01*
X154226126Y-86722000D01*
X153845720Y-86879569D01*
X153554569Y-87170720D01*
X153397000Y-87551126D01*
X153397000Y-87739383D01*
X153322537Y-87850826D01*
X153240280Y-87768569D01*
X152859874Y-87611000D01*
X152448126Y-87611000D01*
X152067720Y-87768569D01*
X151776569Y-88059720D01*
X151619000Y-88440126D01*
X151619000Y-88851874D01*
X151776569Y-89232280D01*
X151894000Y-89349711D01*
X151894001Y-97715148D01*
X151879112Y-97790000D01*
X151894001Y-97864852D01*
X151938097Y-98086537D01*
X152106072Y-98337929D01*
X152169528Y-98380329D01*
X153016000Y-99226802D01*
X153016000Y-99392874D01*
X153089368Y-99570000D01*
X149539802Y-99570000D01*
X149096000Y-99126199D01*
X149096000Y-98620711D01*
X149213431Y-98503280D01*
X149371000Y-98122874D01*
X149371000Y-97711126D01*
X149213431Y-97330720D01*
X148922280Y-97039569D01*
X148541874Y-96882000D01*
X148130126Y-96882000D01*
X147749720Y-97039569D01*
X147458569Y-97330720D01*
X147301000Y-97711126D01*
X146211999Y-97711126D01*
X146211999Y-82315000D01*
X146382874Y-82315000D01*
X146763280Y-82157431D01*
X147054431Y-81866280D01*
X147111916Y-81727497D01*
X159187000Y-81727497D01*
X159187000Y-83372503D01*
X159816517Y-84892289D01*
X160979711Y-86055483D01*
X162499497Y-86685000D01*
X164144503Y-86685000D01*
X165664289Y-86055483D01*
X166827483Y-84892289D01*
X167457000Y-83372503D01*
X167457000Y-81727497D01*
X166827483Y-80207711D01*
X165664289Y-79044517D01*
X164144503Y-78415000D01*
X162499497Y-78415000D01*
X160979711Y-79044517D01*
X159816517Y-80207711D01*
X159187000Y-81727497D01*
X147111916Y-81727497D01*
X147212000Y-81485874D01*
X147212000Y-81074126D01*
X147054431Y-80693720D01*
X146921314Y-80560603D01*
X146892904Y-80417778D01*
X146810000Y-80293704D01*
X146810000Y-74109711D01*
X146927431Y-73992280D01*
X147085000Y-73611874D01*
X147085000Y-73200126D01*
X146927431Y-72819720D01*
X146636280Y-72528569D01*
X146255874Y-72371000D01*
X145939999Y-72371000D01*
X145939999Y-65453126D01*
X147047000Y-65453126D01*
X147047000Y-65864874D01*
X147204569Y-66245280D01*
X147495720Y-66536431D01*
X147876126Y-66694000D01*
X148287874Y-66694000D01*
X148668280Y-66536431D01*
X148959431Y-66245280D01*
X149117000Y-65864874D01*
X149117000Y-65698801D01*
X152294158Y-62521644D01*
X152357614Y-62479244D01*
X152409447Y-62401671D01*
X152525589Y-62227853D01*
X152544195Y-62134312D01*
X153109728Y-62699845D01*
X153016000Y-62926126D01*
X153016000Y-63337874D01*
X153173569Y-63718280D01*
X153464720Y-64009431D01*
X153845126Y-64167000D01*
X154256874Y-64167000D01*
X154637280Y-64009431D01*
X154928431Y-63718280D01*
X155086000Y-63337874D01*
X155086000Y-62926126D01*
X154928431Y-62545720D01*
X154795314Y-62412603D01*
X154766904Y-62269778D01*
X154598929Y-62018386D01*
X154535473Y-61975986D01*
X152844685Y-60285199D01*
X152844685Y-60119126D01*
X152687116Y-59738720D01*
X152395965Y-59447569D01*
X152015559Y-59290000D01*
X151603811Y-59290000D01*
X151223405Y-59447569D01*
X150932254Y-59738720D01*
X150774685Y-60119126D01*
X150774685Y-60530874D01*
X150932254Y-60911280D01*
X151049686Y-61028712D01*
X151049685Y-61616513D01*
X148042199Y-64624000D01*
X147876126Y-64624000D01*
X147495720Y-64781569D01*
X147204569Y-65072720D01*
X147047000Y-65453126D01*
X145939999Y-65453126D01*
X145939999Y-63466845D01*
X145954887Y-63391998D01*
X145939999Y-63317151D01*
X145939999Y-63317147D01*
X145895903Y-63095462D01*
X145815000Y-62974382D01*
X145815000Y-62932315D01*
X146413838Y-62932315D01*
X146488685Y-62947203D01*
X146563532Y-62932315D01*
X146563537Y-62932315D01*
X146785222Y-62888219D01*
X147036614Y-62720244D01*
X147079016Y-62656785D01*
X148439473Y-61296329D01*
X148502929Y-61253929D01*
X148670904Y-61002537D01*
X148715000Y-60780852D01*
X148715000Y-60780848D01*
X148729888Y-60706000D01*
X148715000Y-60631152D01*
X148715000Y-60266711D01*
X148832431Y-60149280D01*
X148990000Y-59768874D01*
X148990000Y-59357126D01*
X148832431Y-58976720D01*
X148654711Y-58799000D01*
X155514199Y-58799000D01*
X157334000Y-60618803D01*
X157334000Y-60784874D01*
X157491569Y-61165280D01*
X157609000Y-61282711D01*
X157609001Y-62415288D01*
X157491569Y-62532720D01*
X157334000Y-62913126D01*
X157334000Y-63324874D01*
X157491569Y-63705280D01*
X157782720Y-63996431D01*
X158163126Y-64154000D01*
X158574874Y-64154000D01*
X158955280Y-63996431D01*
X159246431Y-63705280D01*
X159404000Y-63324874D01*
X159404000Y-62913126D01*
X159246431Y-62532720D01*
X159129000Y-62415289D01*
X159129000Y-61282711D01*
X159246431Y-61165280D01*
X159404000Y-60784874D01*
X159404000Y-60373126D01*
X159246431Y-59992720D01*
X158955280Y-59701569D01*
X158574874Y-59544000D01*
X158408803Y-59544000D01*
X156419331Y-57554530D01*
X156376929Y-57491071D01*
X156125537Y-57323096D01*
X155903852Y-57279000D01*
X155903847Y-57279000D01*
X155829000Y-57264112D01*
X155754153Y-57279000D01*
X143330846Y-57279000D01*
X143255999Y-57264112D01*
X143181152Y-57279000D01*
X143181148Y-57279000D01*
X142959463Y-57323096D01*
X142708071Y-57491071D01*
X142665671Y-57554527D01*
X140885527Y-59334672D01*
X140822071Y-59377072D01*
X140779671Y-59440528D01*
X140779670Y-59440529D01*
X140654096Y-59628464D01*
X140595111Y-59925001D01*
X140610000Y-59999853D01*
X140609999Y-61893841D01*
X140383720Y-61987569D01*
X140092569Y-62278720D01*
X139935000Y-62659126D01*
X139935000Y-63070874D01*
X140092569Y-63451280D01*
X140383720Y-63742431D01*
X140764126Y-63900000D01*
X141175874Y-63900000D01*
X141556280Y-63742431D01*
X141662397Y-63636314D01*
X141743569Y-63832280D01*
X142034720Y-64123431D01*
X142415126Y-64281000D01*
X142826874Y-64281000D01*
X143207280Y-64123431D01*
X143498431Y-63832280D01*
X143656000Y-63451874D01*
X143656000Y-63040126D01*
X143611343Y-62932315D01*
X143745000Y-62932315D01*
X143745000Y-63197874D01*
X143902569Y-63578280D01*
X144193720Y-63869431D01*
X144419999Y-63963159D01*
X144420000Y-76689000D01*
X144320126Y-76689000D01*
X144016000Y-76814973D01*
X144016000Y-74617711D01*
X144133431Y-74500280D01*
X144291000Y-74119874D01*
X144291000Y-73708126D01*
X144133431Y-73327720D01*
X143842280Y-73036569D01*
X143461874Y-72879000D01*
X143050126Y-72879000D01*
X142669720Y-73036569D01*
X142378569Y-73327720D01*
X142221000Y-73708126D01*
X142221000Y-74119874D01*
X142378569Y-74500280D01*
X142496000Y-74617711D01*
X142496001Y-109722789D01*
X131965278Y-120253513D01*
X131857147Y-119992460D01*
X131467540Y-119602853D01*
X130958494Y-119392000D01*
X130407506Y-119392000D01*
X129898460Y-119602853D01*
X129508853Y-119992460D01*
X129298000Y-120501506D01*
X129298000Y-121052494D01*
X129308165Y-121077034D01*
X128928528Y-121456671D01*
X128865072Y-121499071D01*
X128697096Y-121750463D01*
X128688237Y-121795000D01*
X127212978Y-121795000D01*
X127244155Y-121782086D01*
X127704088Y-121322153D01*
X127953002Y-120721222D01*
X127953002Y-120070778D01*
X127704088Y-119469847D01*
X127244155Y-119009914D01*
X126643224Y-118761000D01*
X125992780Y-118761000D01*
X125391849Y-119009914D01*
X124931916Y-119469847D01*
X124831915Y-119711270D01*
X124266186Y-120277000D01*
X115262131Y-120277000D01*
X118198521Y-117340611D01*
X118293289Y-117277289D01*
X118544146Y-116901855D01*
X118592806Y-116657222D01*
X118632235Y-116459001D01*
X118610000Y-116347218D01*
X118610000Y-113191239D01*
X118861086Y-112940153D01*
X119110000Y-112339222D01*
X119110000Y-111688778D01*
X118861086Y-111087847D01*
X118401153Y-110627914D01*
X117800222Y-110379000D01*
X117149778Y-110379000D01*
X116832000Y-110510628D01*
X116832000Y-109874816D01*
X117690521Y-109016296D01*
X117785289Y-108952974D01*
X118001685Y-108629114D01*
X118036146Y-108577540D01*
X118124235Y-108134686D01*
X118102000Y-108022903D01*
X118102000Y-107457217D01*
X118098575Y-107440000D01*
X121533468Y-107440000D01*
X121608315Y-107454888D01*
X121683162Y-107440000D01*
X121683167Y-107440000D01*
X121904852Y-107395904D01*
X122156244Y-107227929D01*
X122198646Y-107164470D01*
X124154846Y-105208272D01*
X124381126Y-105302000D01*
X124792874Y-105302000D01*
X125173280Y-105144431D01*
X125464431Y-104853280D01*
X125484001Y-104806034D01*
X125484001Y-109882754D01*
X125419711Y-109925711D01*
X125168855Y-110301145D01*
X125168854Y-110301146D01*
X125080765Y-110744000D01*
X125103000Y-110855783D01*
X125103000Y-111344761D01*
X124851914Y-111595847D01*
X124603000Y-112196778D01*
X124603000Y-112847222D01*
X124851914Y-113448153D01*
X125311847Y-113908086D01*
X125912778Y-114157000D01*
X126563222Y-114157000D01*
X127164153Y-113908086D01*
X127624086Y-113448153D01*
X127873000Y-112847222D01*
X127873000Y-112196778D01*
X127624086Y-111595847D01*
X127373000Y-111344761D01*
X127373000Y-111224246D01*
X127437289Y-111181289D01*
X127688146Y-110805855D01*
X127754000Y-110474783D01*
X127776235Y-110363001D01*
X127754000Y-110251219D01*
X127754000Y-89138781D01*
X127776235Y-89026999D01*
X127741400Y-88851874D01*
X127688146Y-88584145D01*
X127437289Y-88208711D01*
X127342524Y-88145391D01*
X125818523Y-86621392D01*
X125537854Y-86433854D01*
X125095000Y-86345765D01*
X124652146Y-86433854D01*
X124276712Y-86684712D01*
X124025854Y-87060146D01*
X123937765Y-87503000D01*
X124025854Y-87945854D01*
X124213392Y-88226523D01*
X125484000Y-89497133D01*
X125484001Y-103727966D01*
X125464431Y-103680720D01*
X125173280Y-103389569D01*
X124792874Y-103232000D01*
X124381126Y-103232000D01*
X124000720Y-103389569D01*
X123867603Y-103522686D01*
X123724778Y-103551096D01*
X123724776Y-103551097D01*
X123724777Y-103551097D01*
X123536841Y-103676671D01*
X123536839Y-103676673D01*
X123473386Y-103719071D01*
X123430988Y-103782524D01*
X121293514Y-105920000D01*
X117821564Y-105920000D01*
X118036146Y-105598855D01*
X118102000Y-105267783D01*
X118102000Y-101330782D01*
X118124235Y-101218999D01*
X118036146Y-100776145D01*
X117936181Y-100626537D01*
X117785289Y-100400711D01*
X117690521Y-100337389D01*
X116157132Y-98804000D01*
X114760131Y-97407000D01*
X123375289Y-97407000D01*
X123492720Y-97524431D01*
X123873126Y-97682000D01*
X124284874Y-97682000D01*
X124665280Y-97524431D01*
X124956431Y-97233280D01*
X125114000Y-96852874D01*
X125114000Y-96441126D01*
X124956431Y-96060720D01*
X124665280Y-95769569D01*
X124284874Y-95612000D01*
X123873126Y-95612000D01*
X123492720Y-95769569D01*
X123375289Y-95887000D01*
X114646564Y-95887000D01*
X114861146Y-95565855D01*
X114949235Y-95123000D01*
X114861146Y-94680145D01*
X114610289Y-94304711D01*
X114515521Y-94241389D01*
X111371000Y-91096869D01*
X111371000Y-86629217D01*
X111305146Y-86298145D01*
X111054289Y-85922711D01*
X110678854Y-85671854D01*
X110236000Y-85583765D01*
X109793145Y-85671854D01*
X109417711Y-85922711D01*
X109166854Y-86298146D01*
X109101000Y-86629218D01*
X109101001Y-91455212D01*
X109078765Y-91567000D01*
X109166854Y-92009854D01*
X109166855Y-92009855D01*
X109417712Y-92385289D01*
X109512480Y-92448611D01*
X111458897Y-94395029D01*
X111330874Y-94342000D01*
X110919126Y-94342000D01*
X110893544Y-94352596D01*
X110871000Y-94348112D01*
X110796153Y-94363000D01*
X92651711Y-94363000D01*
X92534280Y-94245569D01*
X92153874Y-94088000D01*
X91742126Y-94088000D01*
X91361720Y-94245569D01*
X91070569Y-94536720D01*
X90913000Y-94917126D01*
X90913000Y-95328874D01*
X91070569Y-95709280D01*
X91361720Y-96000431D01*
X91742126Y-96158000D01*
X92153874Y-96158000D01*
X92534280Y-96000431D01*
X92651711Y-95883000D01*
X100275262Y-95883000D01*
X100255152Y-95887000D01*
X100255148Y-95887000D01*
X100033463Y-95931096D01*
X99782071Y-96099071D01*
X99739671Y-96162527D01*
X92416199Y-103486000D01*
X92250126Y-103486000D01*
X91869720Y-103643569D01*
X91725045Y-103788244D01*
X90676000Y-102739201D01*
X90676000Y-84122126D01*
X99295000Y-84122126D01*
X99295000Y-84533874D01*
X99452569Y-84914280D01*
X99743720Y-85205431D01*
X100124126Y-85363000D01*
X100312382Y-85363000D01*
X100433462Y-85443903D01*
X100655147Y-85487999D01*
X100655151Y-85487999D01*
X100729998Y-85502887D01*
X100804845Y-85487999D01*
X101050198Y-85487999D01*
X102025671Y-86463473D01*
X102068071Y-86526929D01*
X102319463Y-86694904D01*
X102541148Y-86739000D01*
X102541152Y-86739000D01*
X102616000Y-86753888D01*
X102690848Y-86739000D01*
X106357289Y-86739000D01*
X106474720Y-86856431D01*
X106855126Y-87014000D01*
X107266874Y-87014000D01*
X107647280Y-86856431D01*
X107938431Y-86565280D01*
X108096000Y-86184874D01*
X108096000Y-85773126D01*
X107938431Y-85392720D01*
X107647280Y-85101569D01*
X107266874Y-84944000D01*
X106855126Y-84944000D01*
X106474720Y-85101569D01*
X106357289Y-85219000D01*
X102930802Y-85219000D01*
X101955330Y-84243529D01*
X101912928Y-84180070D01*
X101661536Y-84012095D01*
X101439851Y-83967999D01*
X101439846Y-83967999D01*
X101364999Y-83953111D01*
X101300321Y-83965976D01*
X101207431Y-83741720D01*
X100916280Y-83450569D01*
X100535874Y-83293000D01*
X100124126Y-83293000D01*
X99743720Y-83450569D01*
X99452569Y-83741720D01*
X99295000Y-84122126D01*
X90676000Y-84122126D01*
X90676000Y-78220000D01*
X108669572Y-78220000D01*
X108669572Y-82040000D01*
X116882429Y-82040000D01*
X116882429Y-78220000D01*
X108669572Y-78220000D01*
X90676000Y-78220000D01*
X90676000Y-76522711D01*
X90793431Y-76405280D01*
X90951000Y-76024874D01*
X90951000Y-75613126D01*
X90793431Y-75232720D01*
X90502280Y-74941569D01*
X90121874Y-74784000D01*
X89710126Y-74784000D01*
X89329720Y-74941569D01*
X89038569Y-75232720D01*
X88881000Y-75613126D01*
X88529675Y-75613126D01*
X91987802Y-72155000D01*
X92153874Y-72155000D01*
X92534280Y-71997431D01*
X92825431Y-71706280D01*
X92983000Y-71325874D01*
X92983000Y-70914126D01*
X92825431Y-70533720D01*
X92534280Y-70242569D01*
X92153874Y-70085000D01*
X91742126Y-70085000D01*
X91361720Y-70242569D01*
X91070569Y-70533720D01*
X90913000Y-70914126D01*
X90913000Y-71080198D01*
X87214540Y-74778659D01*
X87151081Y-74821061D01*
X86983106Y-75072454D01*
X86939010Y-75294139D01*
X86939010Y-75294143D01*
X86924122Y-75368990D01*
X86939010Y-75443837D01*
X86939011Y-111749278D01*
X86821579Y-111866710D01*
X86664010Y-112247116D01*
X75271595Y-112247116D01*
X75299431Y-112219280D01*
X75457000Y-111838874D01*
X75457000Y-111427126D01*
X75299431Y-111046720D01*
X75008280Y-110755569D01*
X74627874Y-110598000D01*
X74475913Y-110598000D01*
X74461929Y-110577071D01*
X74210537Y-110409096D01*
X73988852Y-110365000D01*
X73988847Y-110365000D01*
X73914000Y-110350112D01*
X73839153Y-110365000D01*
X62457440Y-110365000D01*
X62457440Y-110275000D01*
X62408157Y-110027235D01*
X62267809Y-109817191D01*
X62057765Y-109676843D01*
X61810000Y-109627560D01*
X60110000Y-109627560D01*
X59862235Y-109676843D01*
X59652191Y-109817191D01*
X59511843Y-110027235D01*
X59462560Y-110275000D01*
X59462560Y-111975000D01*
X59511843Y-112222765D01*
X59652191Y-112432809D01*
X59862235Y-112573157D01*
X59907619Y-112582184D01*
X59889375Y-112594375D01*
X59561161Y-113085582D01*
X59445908Y-113665000D01*
X57704891Y-113665000D01*
X57678601Y-97155000D01*
X59826908Y-97155000D01*
X59942161Y-97734418D01*
X60270375Y-98225625D01*
X60568761Y-98425000D01*
X60270375Y-98624375D01*
X59942161Y-99115582D01*
X59826908Y-99695000D01*
X59942161Y-100274418D01*
X60270375Y-100765625D01*
X60761582Y-101093839D01*
X61194744Y-101180000D01*
X61487256Y-101180000D01*
X61920418Y-101093839D01*
X62411625Y-100765625D01*
X62739839Y-100274418D01*
X62855092Y-99695000D01*
X62739839Y-99115582D01*
X62411625Y-98624375D01*
X62113239Y-98425000D01*
X62411625Y-98225625D01*
X62619178Y-97915000D01*
X64187153Y-97915000D01*
X64262000Y-97929888D01*
X64336847Y-97915000D01*
X64336852Y-97915000D01*
X64558537Y-97870904D01*
X64809929Y-97702929D01*
X64852331Y-97639470D01*
X65338802Y-97153000D01*
X66936084Y-97153000D01*
X66596720Y-97293569D01*
X66305569Y-97584720D01*
X66148000Y-97965126D01*
X66148000Y-98376874D01*
X66305569Y-98757280D01*
X66423000Y-98874711D01*
X66423001Y-101023288D01*
X66305569Y-101140720D01*
X66148000Y-101521126D01*
X66148000Y-101932874D01*
X66305569Y-102313280D01*
X66596720Y-102604431D01*
X66977126Y-102762000D01*
X67388874Y-102762000D01*
X67769280Y-102604431D01*
X68060431Y-102313280D01*
X68218000Y-101932874D01*
X68218000Y-101521126D01*
X68060431Y-101140720D01*
X67943000Y-101023289D01*
X67943000Y-98874711D01*
X68060431Y-98757280D01*
X68218000Y-98376874D01*
X68218000Y-97965126D01*
X68060431Y-97584720D01*
X67769280Y-97293569D01*
X67429916Y-97153000D01*
X84656852Y-97153000D01*
X84878537Y-97108904D01*
X85129929Y-96940929D01*
X85297904Y-96689537D01*
X85356889Y-96393000D01*
X85297904Y-96096463D01*
X85129929Y-95845071D01*
X84878537Y-95677096D01*
X84656852Y-95633000D01*
X65098848Y-95633000D01*
X65024000Y-95618112D01*
X64949152Y-95633000D01*
X64949148Y-95633000D01*
X64775605Y-95667520D01*
X64727462Y-95677096D01*
X64540418Y-95802076D01*
X64476071Y-95845071D01*
X64433671Y-95908527D01*
X63947199Y-96395000D01*
X62619178Y-96395000D01*
X62411625Y-96084375D01*
X62393381Y-96072184D01*
X62438765Y-96063157D01*
X62648809Y-95922809D01*
X62789157Y-95712765D01*
X62838440Y-95465000D01*
X62838440Y-95375000D01*
X79808153Y-95375000D01*
X79883000Y-95389888D01*
X79957847Y-95375000D01*
X79957852Y-95375000D01*
X80179537Y-95330904D01*
X80430929Y-95162929D01*
X80473331Y-95099470D01*
X81383473Y-94189329D01*
X81446929Y-94146929D01*
X81614904Y-93895537D01*
X81659000Y-93673852D01*
X81659000Y-93673847D01*
X81673888Y-93599000D01*
X81659000Y-93524153D01*
X81659000Y-86293801D01*
X82864802Y-85088000D01*
X85037852Y-85088000D01*
X85259537Y-85043904D01*
X85510929Y-84875929D01*
X85678904Y-84624537D01*
X85737889Y-84328000D01*
X85678904Y-84031463D01*
X85510929Y-83780071D01*
X85259537Y-83612096D01*
X85037852Y-83568000D01*
X82624848Y-83568000D01*
X82550000Y-83553112D01*
X82475152Y-83568000D01*
X82475148Y-83568000D01*
X82253463Y-83612096D01*
X82002071Y-83780071D01*
X81959671Y-83843527D01*
X80414528Y-85388671D01*
X80351072Y-85431071D01*
X80308672Y-85494527D01*
X80308671Y-85494528D01*
X80183097Y-85682463D01*
X80124112Y-85979000D01*
X80139001Y-86053852D01*
X80139000Y-93284198D01*
X79568199Y-93855000D01*
X62838440Y-93855000D01*
X62838440Y-93765000D01*
X62789157Y-93517235D01*
X62648809Y-93307191D01*
X62438765Y-93166843D01*
X62191000Y-93117560D01*
X60491000Y-93117560D01*
X60243235Y-93166843D01*
X60033191Y-93307191D01*
X59892843Y-93517235D01*
X59843560Y-93765000D01*
X59843560Y-95465000D01*
X59892843Y-95712765D01*
X60033191Y-95922809D01*
X60243235Y-96063157D01*
X60288619Y-96072184D01*
X60270375Y-96084375D01*
X59942161Y-96575582D01*
X59826908Y-97155000D01*
X57678601Y-97155000D01*
X57658176Y-84328000D01*
X59826908Y-84328000D01*
X59942161Y-84907418D01*
X60270375Y-85398625D01*
X60568761Y-85598000D01*
X60270375Y-85797375D01*
X59942161Y-86288582D01*
X59826908Y-86868000D01*
X59942161Y-87447418D01*
X60270375Y-87938625D01*
X60761582Y-88266839D01*
X61194744Y-88353000D01*
X61487256Y-88353000D01*
X61920418Y-88266839D01*
X62411625Y-87938625D01*
X62739839Y-87447418D01*
X62855092Y-86868000D01*
X62739839Y-86288582D01*
X62411625Y-85797375D01*
X62113239Y-85598000D01*
X62411625Y-85398625D01*
X62739839Y-84907418D01*
X62855092Y-84328000D01*
X62739839Y-83748582D01*
X62411625Y-83257375D01*
X62393381Y-83245184D01*
X62438765Y-83236157D01*
X62648809Y-83095809D01*
X62789157Y-82885765D01*
X62838440Y-82638000D01*
X62838440Y-81963126D01*
X66021000Y-81963126D01*
X66021000Y-82374874D01*
X66178569Y-82755280D01*
X66296001Y-82872712D01*
X66296000Y-87053289D01*
X66178569Y-87170720D01*
X66021000Y-87551126D01*
X66021000Y-87962874D01*
X66178569Y-88343280D01*
X66469720Y-88634431D01*
X66850126Y-88792000D01*
X67261874Y-88792000D01*
X67642280Y-88634431D01*
X67933431Y-88343280D01*
X68091000Y-87962874D01*
X68091000Y-87551126D01*
X67933431Y-87170720D01*
X67816000Y-87053289D01*
X67816000Y-82872711D01*
X67933431Y-82755280D01*
X68091000Y-82374874D01*
X68091000Y-81963126D01*
X67933431Y-81582720D01*
X67642280Y-81291569D01*
X67261874Y-81134000D01*
X66850126Y-81134000D01*
X66469720Y-81291569D01*
X66178569Y-81582720D01*
X66021000Y-81963126D01*
X62838440Y-81963126D01*
X62838440Y-80938000D01*
X62789157Y-80690235D01*
X62648809Y-80480191D01*
X62438765Y-80339843D01*
X62191000Y-80290560D01*
X60491000Y-80290560D01*
X60243235Y-80339843D01*
X60033191Y-80480191D01*
X59892843Y-80690235D01*
X59843560Y-80938000D01*
X59843560Y-82638000D01*
X59892843Y-82885765D01*
X60033191Y-83095809D01*
X60243235Y-83236157D01*
X60288619Y-83245184D01*
X60270375Y-83257375D01*
X59942161Y-83748582D01*
X59826908Y-84328000D01*
X57658176Y-84328000D01*
X57637625Y-71422126D01*
X81769000Y-71422126D01*
X81769000Y-71833874D01*
X81926569Y-72214280D01*
X82217720Y-72505431D01*
X82598126Y-72663000D01*
X83009874Y-72663000D01*
X83390280Y-72505431D01*
X83507711Y-72388000D01*
X83675838Y-72388000D01*
X83750685Y-72402888D01*
X83825532Y-72388000D01*
X83825537Y-72388000D01*
X84047222Y-72343904D01*
X84298614Y-72175929D01*
X84341016Y-72112470D01*
X88474311Y-67979175D01*
X121310430Y-67979175D01*
X121433565Y-68266788D01*
X122115734Y-68526707D01*
X122845443Y-68505786D01*
X123422435Y-68266788D01*
X123545570Y-67979175D01*
X122428000Y-66861605D01*
X121310430Y-67979175D01*
X88474311Y-67979175D01*
X90083752Y-66369734D01*
X120583293Y-66369734D01*
X120604214Y-67099443D01*
X120843212Y-67676435D01*
X121130825Y-67799570D01*
X122248395Y-66682000D01*
X122607605Y-66682000D01*
X123725175Y-67799570D01*
X124012788Y-67676435D01*
X124272707Y-66994266D01*
X124251786Y-66264557D01*
X124012788Y-65687565D01*
X123725175Y-65564430D01*
X122607605Y-66682000D01*
X122248395Y-66682000D01*
X121130825Y-65564430D01*
X120843212Y-65687565D01*
X120583293Y-66369734D01*
X90083752Y-66369734D01*
X91068661Y-65384825D01*
X121310430Y-65384825D01*
X122428000Y-66502395D01*
X123545570Y-65384825D01*
X123422435Y-65097212D01*
X122740266Y-64837293D01*
X122010557Y-64858214D01*
X121433565Y-65097212D01*
X121310430Y-65384825D01*
X91068661Y-65384825D01*
X92178473Y-64275014D01*
X92241929Y-64232614D01*
X92325259Y-64107902D01*
X92409904Y-63981223D01*
X92426060Y-63900000D01*
X92438314Y-63838397D01*
X92571431Y-63705280D01*
X92729000Y-63324874D01*
X92729000Y-62913126D01*
X92571431Y-62532720D01*
X92280280Y-62241569D01*
X91899874Y-62084000D01*
X91488126Y-62084000D01*
X91107720Y-62241569D01*
X90816569Y-62532720D01*
X90659000Y-62913126D01*
X90659000Y-63324874D01*
X90752728Y-63551155D01*
X88136000Y-66167883D01*
X88136000Y-64900799D01*
X91289476Y-61747325D01*
X91352929Y-61704927D01*
X91395327Y-61641474D01*
X91395329Y-61641472D01*
X91479102Y-61516096D01*
X91520904Y-61453535D01*
X91565000Y-61231850D01*
X91565000Y-61231846D01*
X91579888Y-61156999D01*
X91565000Y-61082152D01*
X91565000Y-57726711D01*
X91682431Y-57609280D01*
X91840000Y-57228874D01*
X91840000Y-56817126D01*
X91714856Y-56515000D01*
X99671000Y-56515000D01*
X99671000Y-57275000D01*
X99847103Y-57906327D01*
X100251399Y-58422206D01*
X100822338Y-58744099D01*
X100959290Y-58777748D01*
X101219000Y-58658922D01*
X101219000Y-56515000D01*
X101473000Y-56515000D01*
X101473000Y-58658922D01*
X101732710Y-58777748D01*
X101869662Y-58744099D01*
X102440601Y-58422206D01*
X102844897Y-57906327D01*
X103021000Y-57275000D01*
X103021000Y-56515000D01*
X101473000Y-56515000D01*
X101219000Y-56515000D01*
X99671000Y-56515000D01*
X91714856Y-56515000D01*
X91682431Y-56436720D01*
X91391280Y-56145569D01*
X91010874Y-55988000D01*
X90599126Y-55988000D01*
X90218720Y-56145569D01*
X89927569Y-56436720D01*
X89770000Y-56817126D01*
X89770000Y-57228874D01*
X89927569Y-57609280D01*
X90045000Y-57726711D01*
X90045001Y-60842194D01*
X86891530Y-63995667D01*
X86828071Y-64038069D01*
X86660096Y-64289462D01*
X86616000Y-64511147D01*
X86616000Y-64511151D01*
X86601112Y-64585998D01*
X86616000Y-64660845D01*
X86616001Y-66225288D01*
X86498569Y-66342720D01*
X86341000Y-66723126D01*
X86341000Y-67134874D01*
X86498569Y-67515280D01*
X86643586Y-67660297D01*
X83471797Y-70832086D01*
X83390280Y-70750569D01*
X83009874Y-70593000D01*
X82598126Y-70593000D01*
X82217720Y-70750569D01*
X81926569Y-71041720D01*
X81769000Y-71422126D01*
X57637625Y-71422126D01*
X57632150Y-67984000D01*
X60097560Y-67984000D01*
X60097560Y-69684000D01*
X60146843Y-69931765D01*
X60287191Y-70141809D01*
X60497235Y-70282157D01*
X60745000Y-70331440D01*
X62445000Y-70331440D01*
X62692765Y-70282157D01*
X62902809Y-70141809D01*
X63043157Y-69931765D01*
X63092440Y-69684000D01*
X63092440Y-67984000D01*
X63043157Y-67736235D01*
X62902809Y-67526191D01*
X62692765Y-67385843D01*
X62589292Y-67365261D01*
X62866645Y-67060924D01*
X63036476Y-66650890D01*
X62915155Y-66421000D01*
X61722000Y-66421000D01*
X61722000Y-66441000D01*
X61468000Y-66441000D01*
X61468000Y-66421000D01*
X60274845Y-66421000D01*
X60153524Y-66650890D01*
X60323355Y-67060924D01*
X60600708Y-67365261D01*
X60497235Y-67385843D01*
X60287191Y-67526191D01*
X60146843Y-67736235D01*
X60097560Y-67984000D01*
X57632150Y-67984000D01*
X57628891Y-65937110D01*
X60153524Y-65937110D01*
X60274845Y-66167000D01*
X61468000Y-66167000D01*
X61468000Y-64973181D01*
X61722000Y-64973181D01*
X61722000Y-66167000D01*
X62915155Y-66167000D01*
X63036476Y-65937110D01*
X62866645Y-65527076D01*
X62476358Y-65098817D01*
X61951892Y-64852514D01*
X61722000Y-64973181D01*
X61468000Y-64973181D01*
X61238108Y-64852514D01*
X60713642Y-65098817D01*
X60323355Y-65527076D01*
X60153524Y-65937110D01*
X57628891Y-65937110D01*
X57614684Y-57015647D01*
X57751560Y-57346094D01*
X58731906Y-58326440D01*
X60012790Y-58857000D01*
X61399210Y-58857000D01*
X62680094Y-58326440D01*
X63660440Y-57346094D01*
X64191000Y-56065210D01*
X64191000Y-55501000D01*
X99671000Y-55501000D01*
X99671000Y-56261000D01*
X101219000Y-56261000D01*
X101219000Y-54117078D01*
X101473000Y-54117078D01*
X101473000Y-56261000D01*
X103021000Y-56261000D01*
X103021000Y-55501000D01*
X102844897Y-54869673D01*
X102820074Y-54837999D01*
X104738560Y-54837999D01*
X104738560Y-57938001D01*
X104806873Y-58281436D01*
X105001414Y-58572586D01*
X105292564Y-58767127D01*
X105635999Y-58835440D01*
X107216001Y-58835440D01*
X107559436Y-58767127D01*
X107850586Y-58572586D01*
X108045127Y-58281436D01*
X108096533Y-58023000D01*
X118956762Y-58023000D01*
X120580560Y-59646799D01*
X120580560Y-60382000D01*
X120629843Y-60629765D01*
X120770191Y-60839809D01*
X120980235Y-60980157D01*
X121228000Y-61029440D01*
X123628000Y-61029440D01*
X123875765Y-60980157D01*
X124085809Y-60839809D01*
X124226157Y-60629765D01*
X124275440Y-60382000D01*
X124275440Y-57982000D01*
X124226157Y-57734235D01*
X124085809Y-57524191D01*
X123875765Y-57383843D01*
X123628000Y-57334560D01*
X122892799Y-57334560D01*
X120903988Y-55345750D01*
X120812769Y-55209231D01*
X120271945Y-54847864D01*
X119795031Y-54753000D01*
X119795030Y-54753000D01*
X119634000Y-54720969D01*
X119472970Y-54753000D01*
X108096533Y-54753000D01*
X108045127Y-54494564D01*
X107850586Y-54203414D01*
X107559436Y-54008873D01*
X107216001Y-53940560D01*
X105635999Y-53940560D01*
X105292564Y-54008873D01*
X105001414Y-54203414D01*
X104806873Y-54494564D01*
X104738560Y-54837999D01*
X102820074Y-54837999D01*
X102440601Y-54353794D01*
X101869662Y-54031901D01*
X101732710Y-53998252D01*
X101473000Y-54117078D01*
X101219000Y-54117078D01*
X100959290Y-53998252D01*
X100822338Y-54031901D01*
X100251399Y-54353794D01*
X99847103Y-54869673D01*
X99671000Y-55501000D01*
X64191000Y-55501000D01*
X64191000Y-54678790D01*
X63660440Y-53397906D01*
X62680094Y-52417560D01*
X62328681Y-52272000D01*
X167414319Y-52272000D01*
X167062906Y-52417560D01*
G04 #@! TD*
M02*
