G04 #@! TF.GenerationSoftware,KiCad,Pcbnew,(5.0.2)-1*
G04 #@! TF.CreationDate,2019-05-11T14:53:23+03:00*
G04 #@! TF.ProjectId,ESC versiune2,45534320-7665-4727-9369-756e65322e6b,rev?*
G04 #@! TF.SameCoordinates,Original*
G04 #@! TF.FileFunction,Legend,Top*
G04 #@! TF.FilePolarity,Positive*
%FSLAX46Y46*%
G04 Gerber Fmt 4.6, Leading zero omitted, Abs format (unit mm)*
G04 Created by KiCad (PCBNEW (5.0.2)-1) date 5/11/2019 2:53:23 PM*
%MOMM*%
%LPD*%
G01*
G04 APERTURE LIST*
%ADD10C,0.300000*%
%ADD11C,0.250000*%
%ADD12C,0.150000*%
%ADD13C,0.120000*%
%ADD14C,0.100000*%
%ADD15C,0.152400*%
%ADD16C,0.127000*%
%ADD17C,0.050000*%
G04 APERTURE END LIST*
D10*
X175638627Y-97438131D02*
X175566746Y-97580761D01*
X175495091Y-97651963D01*
X175352009Y-97722938D01*
X175280580Y-97722712D01*
X175137950Y-97650831D01*
X175066749Y-97579176D01*
X174995773Y-97436094D01*
X174996679Y-97150381D01*
X175068560Y-97007751D01*
X175140214Y-96936549D01*
X175283297Y-96865573D01*
X175354725Y-96865800D01*
X175497355Y-96937681D01*
X175568557Y-97009335D01*
X175639533Y-97152418D01*
X175638627Y-97438131D01*
X175709602Y-97581214D01*
X175780804Y-97652869D01*
X175923434Y-97724750D01*
X176209147Y-97725655D01*
X176352230Y-97654680D01*
X176423885Y-97583478D01*
X176495766Y-97440848D01*
X176496671Y-97155135D01*
X176425696Y-97012052D01*
X176354494Y-96940398D01*
X176211864Y-96868517D01*
X175926151Y-96867611D01*
X175783068Y-96938586D01*
X175711414Y-97009788D01*
X175639533Y-97152418D01*
X175000527Y-95936101D02*
X175000980Y-95793245D01*
X175072861Y-95650615D01*
X175144516Y-95579413D01*
X175287599Y-95508437D01*
X175573538Y-95437915D01*
X175930679Y-95439047D01*
X176216165Y-95511381D01*
X176358795Y-95583262D01*
X176429997Y-95654916D01*
X176500973Y-95797999D01*
X176500520Y-95940855D01*
X176428639Y-96083485D01*
X176356984Y-96154687D01*
X176213901Y-96225663D01*
X175927962Y-96296185D01*
X175570821Y-96295053D01*
X175285335Y-96222720D01*
X175142705Y-96150839D01*
X175071503Y-96079184D01*
X175000527Y-95936101D01*
X176361286Y-94797551D02*
X176432940Y-94726349D01*
X176504142Y-94798004D01*
X176432488Y-94869206D01*
X176361286Y-94797551D01*
X176504142Y-94798004D01*
X176508897Y-93298012D02*
X176506180Y-94155150D01*
X176507538Y-93726581D02*
X175007546Y-93721827D01*
X175221378Y-93865362D01*
X175363781Y-94008671D01*
X175434757Y-94151754D01*
X175010489Y-92793260D02*
X175013432Y-91864693D01*
X175583273Y-92366502D01*
X175583952Y-92152217D01*
X175655833Y-92009587D01*
X175727488Y-91938385D01*
X175870571Y-91867410D01*
X176227712Y-91868542D01*
X176370342Y-91940423D01*
X176441544Y-92012077D01*
X176512519Y-92155160D01*
X176511161Y-92583729D01*
X176439280Y-92726359D01*
X176367625Y-92797561D01*
X175015017Y-91364696D02*
X175018186Y-90364701D01*
X176516141Y-91012309D01*
X176523612Y-88655178D02*
X175523617Y-88652008D01*
X175666474Y-88652461D02*
X175595272Y-88580806D01*
X175524297Y-88437724D01*
X175524976Y-88223439D01*
X175596857Y-88080809D01*
X175739940Y-88009833D01*
X176525650Y-88012324D01*
X175739940Y-88009833D02*
X175597310Y-87937952D01*
X175526334Y-87794870D01*
X175527013Y-87580585D01*
X175598894Y-87437955D01*
X175741977Y-87366980D01*
X176527688Y-87369470D01*
X176529952Y-86655188D02*
X175529957Y-86652018D01*
X175672813Y-86652471D02*
X175601611Y-86580816D01*
X175530636Y-86437734D01*
X175531315Y-86223449D01*
X175603196Y-86080819D01*
X175746279Y-86009844D01*
X176531989Y-86012334D01*
X175746279Y-86009844D02*
X175603649Y-85937963D01*
X175532673Y-85794880D01*
X175533352Y-85580595D01*
X175605233Y-85437965D01*
X175748316Y-85366990D01*
X176534027Y-85369480D01*
X173609000Y-131572000D02*
X173863000Y-51435000D01*
X173609000Y-131572000D02*
X174195418Y-131573859D01*
X173863000Y-51435000D02*
X174449418Y-51436859D01*
X173863000Y-51435000D02*
X174445847Y-52563357D01*
X173863000Y-51435000D02*
X173273012Y-52559639D01*
X173609000Y-131572000D02*
X174198988Y-130447361D01*
X173609000Y-131572000D02*
X173026153Y-130443643D01*
X108468267Y-135828867D02*
X107611132Y-135825099D01*
X108039700Y-135826983D02*
X108046293Y-134326998D01*
X107902495Y-134540653D01*
X107759012Y-134682881D01*
X107615842Y-134753681D01*
X109896825Y-135835146D02*
X109039690Y-135831379D01*
X109468257Y-135833263D02*
X109474851Y-134333277D01*
X109331053Y-134546933D01*
X109187569Y-134689161D01*
X109044399Y-134759961D01*
X111260548Y-134341126D02*
X110546269Y-134337987D01*
X110471701Y-135051951D01*
X110543443Y-134980838D01*
X110686613Y-134910038D01*
X111043752Y-134911607D01*
X111186294Y-134983663D01*
X111257408Y-135055405D01*
X111328208Y-135198575D01*
X111326638Y-135555714D01*
X111254582Y-135698256D01*
X111182840Y-135769370D01*
X111039671Y-135840170D01*
X110682531Y-135838600D01*
X110539989Y-135766544D01*
X110468875Y-135694802D01*
X111968861Y-135701396D02*
X112039975Y-135773138D01*
X111968233Y-135844251D01*
X111897119Y-135772510D01*
X111968861Y-135701396D01*
X111968233Y-135844251D01*
X113403384Y-134350545D02*
X112689105Y-134347406D01*
X112614538Y-135061371D01*
X112686280Y-134990257D01*
X112829449Y-134919457D01*
X113186589Y-134921027D01*
X113329130Y-134993082D01*
X113400244Y-135064824D01*
X113471044Y-135207994D01*
X113469474Y-135565133D01*
X113397419Y-135707675D01*
X113325677Y-135778789D01*
X113182507Y-135849589D01*
X112825368Y-135848019D01*
X112682826Y-135775963D01*
X112611712Y-135704221D01*
X113974807Y-134353057D02*
X114974797Y-134357453D01*
X114325353Y-135854612D01*
X116325334Y-135863404D02*
X115468199Y-135859636D01*
X115896767Y-135861520D02*
X115903360Y-134361534D01*
X115759562Y-134575190D01*
X115616079Y-134717418D01*
X115472909Y-134788218D01*
X118111031Y-135871253D02*
X118115426Y-134871262D01*
X118114798Y-135014118D02*
X118186540Y-134943004D01*
X118329710Y-134872204D01*
X118543994Y-134873146D01*
X118686536Y-134945202D01*
X118757335Y-135088372D01*
X118753882Y-135874079D01*
X118757335Y-135088372D02*
X118829391Y-134945830D01*
X118972561Y-134875030D01*
X119186845Y-134875972D01*
X119329386Y-134948028D01*
X119400186Y-135091198D01*
X119396733Y-135876904D01*
X120111012Y-135880044D02*
X120115407Y-134880054D01*
X120114779Y-135022909D02*
X120186521Y-134951795D01*
X120329691Y-134880996D01*
X120543974Y-134881937D01*
X120686516Y-134953993D01*
X120757316Y-135097163D01*
X120753862Y-135882870D01*
X120757316Y-135097163D02*
X120829372Y-134954621D01*
X120972542Y-134883821D01*
X121186825Y-134884763D01*
X121329367Y-134956819D01*
X121400167Y-135099989D01*
X121396713Y-135885695D01*
X56766851Y-132823010D02*
X172336851Y-133331010D01*
X56769000Y-132334000D02*
X56764273Y-133409425D01*
X172339000Y-132842000D02*
X172334273Y-133917425D01*
X172336851Y-133331010D02*
X171207780Y-133912473D01*
X172336851Y-133331010D02*
X171212936Y-132739643D01*
X56766851Y-132823010D02*
X57890766Y-133414377D01*
X56766851Y-132823010D02*
X57895922Y-132241547D01*
X156103142Y-114089571D02*
X156103142Y-112589571D01*
X156674571Y-112589571D01*
X156817428Y-112661000D01*
X156888857Y-112732428D01*
X156960285Y-112875285D01*
X156960285Y-113089571D01*
X156888857Y-113232428D01*
X156817428Y-113303857D01*
X156674571Y-113375285D01*
X156103142Y-113375285D01*
X157603142Y-114089571D02*
X157603142Y-112589571D01*
X157603142Y-113303857D02*
X158460285Y-113303857D01*
X158460285Y-114089571D02*
X158460285Y-112589571D01*
X158817428Y-114232428D02*
X159960285Y-114232428D01*
X160246000Y-113661000D02*
X160960285Y-113661000D01*
X160103142Y-114089571D02*
X160603142Y-112589571D01*
X161103142Y-114089571D01*
X156377000Y-96055571D02*
X156377000Y-94555571D01*
X156948428Y-94555571D01*
X157091285Y-94627000D01*
X157162714Y-94698428D01*
X157234142Y-94841285D01*
X157234142Y-95055571D01*
X157162714Y-95198428D01*
X157091285Y-95269857D01*
X156948428Y-95341285D01*
X156377000Y-95341285D01*
X157877000Y-96055571D02*
X157877000Y-94555571D01*
X157877000Y-95269857D02*
X158734142Y-95269857D01*
X158734142Y-96055571D02*
X158734142Y-94555571D01*
X159091285Y-96198428D02*
X160234142Y-96198428D01*
X161091285Y-95269857D02*
X161305571Y-95341285D01*
X161377000Y-95412714D01*
X161448428Y-95555571D01*
X161448428Y-95769857D01*
X161377000Y-95912714D01*
X161305571Y-95984142D01*
X161162714Y-96055571D01*
X160591285Y-96055571D01*
X160591285Y-94555571D01*
X161091285Y-94555571D01*
X161234142Y-94627000D01*
X161305571Y-94698428D01*
X161377000Y-94841285D01*
X161377000Y-94984142D01*
X161305571Y-95127000D01*
X161234142Y-95198428D01*
X161091285Y-95269857D01*
X160591285Y-95269857D01*
X157393000Y-77640571D02*
X157393000Y-76140571D01*
X157964428Y-76140571D01*
X158107285Y-76212000D01*
X158178714Y-76283428D01*
X158250142Y-76426285D01*
X158250142Y-76640571D01*
X158178714Y-76783428D01*
X158107285Y-76854857D01*
X157964428Y-76926285D01*
X157393000Y-76926285D01*
X158893000Y-77640571D02*
X158893000Y-76140571D01*
X158893000Y-76854857D02*
X159750142Y-76854857D01*
X159750142Y-77640571D02*
X159750142Y-76140571D01*
X160107285Y-77783428D02*
X161250142Y-77783428D01*
X162464428Y-77497714D02*
X162393000Y-77569142D01*
X162178714Y-77640571D01*
X162035857Y-77640571D01*
X161821571Y-77569142D01*
X161678714Y-77426285D01*
X161607285Y-77283428D01*
X161535857Y-76997714D01*
X161535857Y-76783428D01*
X161607285Y-76497714D01*
X161678714Y-76354857D01*
X161821571Y-76212000D01*
X162035857Y-76140571D01*
X162178714Y-76140571D01*
X162393000Y-76212000D01*
X162464428Y-76283428D01*
X93857714Y-62678571D02*
X94357714Y-64178571D01*
X94857714Y-62678571D01*
X95357714Y-64178571D02*
X95357714Y-62678571D01*
X96072000Y-64178571D02*
X96072000Y-62678571D01*
X96929142Y-64178571D01*
X96929142Y-62678571D01*
X98786285Y-64178571D02*
X98786285Y-62678571D01*
X99286285Y-63750000D01*
X99786285Y-62678571D01*
X99786285Y-64178571D01*
X100786285Y-62678571D02*
X101072000Y-62678571D01*
X101214857Y-62750000D01*
X101357714Y-62892857D01*
X101429142Y-63178571D01*
X101429142Y-63678571D01*
X101357714Y-63964285D01*
X101214857Y-64107142D01*
X101072000Y-64178571D01*
X100786285Y-64178571D01*
X100643428Y-64107142D01*
X100500571Y-63964285D01*
X100429142Y-63678571D01*
X100429142Y-63178571D01*
X100500571Y-62892857D01*
X100643428Y-62750000D01*
X100786285Y-62678571D01*
X101857714Y-62678571D02*
X102714857Y-62678571D01*
X102286285Y-64178571D02*
X102286285Y-62678571D01*
X103500571Y-62678571D02*
X103786285Y-62678571D01*
X103929142Y-62750000D01*
X104072000Y-62892857D01*
X104143428Y-63178571D01*
X104143428Y-63678571D01*
X104072000Y-63964285D01*
X103929142Y-64107142D01*
X103786285Y-64178571D01*
X103500571Y-64178571D01*
X103357714Y-64107142D01*
X103214857Y-63964285D01*
X103143428Y-63678571D01*
X103143428Y-63178571D01*
X103214857Y-62892857D01*
X103357714Y-62750000D01*
X103500571Y-62678571D01*
X105643428Y-64178571D02*
X105143428Y-63464285D01*
X104786285Y-64178571D02*
X104786285Y-62678571D01*
X105357714Y-62678571D01*
X105500571Y-62750000D01*
X105572000Y-62821428D01*
X105643428Y-62964285D01*
X105643428Y-63178571D01*
X105572000Y-63321428D01*
X105500571Y-63392857D01*
X105357714Y-63464285D01*
X104786285Y-63464285D01*
X85288571Y-128837571D02*
X85645714Y-129837571D01*
X86002857Y-128837571D01*
X87360000Y-129837571D02*
X86502857Y-129837571D01*
X86931428Y-129837571D02*
X86931428Y-128337571D01*
X86788571Y-128551857D01*
X86645714Y-128694714D01*
X86502857Y-128766142D01*
D11*
X170025142Y-107964380D02*
X170096571Y-107821523D01*
X170096571Y-107583428D01*
X170025142Y-107488190D01*
X169953714Y-107440571D01*
X169810857Y-107392952D01*
X169668000Y-107392952D01*
X169525142Y-107440571D01*
X169453714Y-107488190D01*
X169382285Y-107583428D01*
X169310857Y-107773904D01*
X169239428Y-107869142D01*
X169168000Y-107916761D01*
X169025142Y-107964380D01*
X168882285Y-107964380D01*
X168739428Y-107916761D01*
X168668000Y-107869142D01*
X168596571Y-107773904D01*
X168596571Y-107535809D01*
X168668000Y-107392952D01*
X169310857Y-106964380D02*
X169310857Y-106631047D01*
X170096571Y-106488190D02*
X170096571Y-106964380D01*
X168596571Y-106964380D01*
X168596571Y-106488190D01*
X170096571Y-106059619D02*
X168596571Y-106059619D01*
X170096571Y-105488190D01*
X168596571Y-105488190D01*
X170025142Y-105059619D02*
X170096571Y-104916761D01*
X170096571Y-104678666D01*
X170025142Y-104583428D01*
X169953714Y-104535809D01*
X169810857Y-104488190D01*
X169668000Y-104488190D01*
X169525142Y-104535809D01*
X169453714Y-104583428D01*
X169382285Y-104678666D01*
X169310857Y-104869142D01*
X169239428Y-104964380D01*
X169168000Y-105012000D01*
X169025142Y-105059619D01*
X168882285Y-105059619D01*
X168739428Y-105012000D01*
X168668000Y-104964380D01*
X168596571Y-104869142D01*
X168596571Y-104631047D01*
X168668000Y-104488190D01*
X168596571Y-103869142D02*
X168596571Y-103678666D01*
X168668000Y-103583428D01*
X168810857Y-103488190D01*
X169096571Y-103440571D01*
X169596571Y-103440571D01*
X169882285Y-103488190D01*
X170025142Y-103583428D01*
X170096571Y-103678666D01*
X170096571Y-103869142D01*
X170025142Y-103964380D01*
X169882285Y-104059619D01*
X169596571Y-104107238D01*
X169096571Y-104107238D01*
X168810857Y-104059619D01*
X168668000Y-103964380D01*
X168596571Y-103869142D01*
X170096571Y-102440571D02*
X169382285Y-102773904D01*
X170096571Y-103012000D02*
X168596571Y-103012000D01*
X168596571Y-102631047D01*
X168668000Y-102535809D01*
X168739428Y-102488190D01*
X168882285Y-102440571D01*
X169096571Y-102440571D01*
X169239428Y-102488190D01*
X169310857Y-102535809D01*
X169382285Y-102631047D01*
X169382285Y-103012000D01*
X170096571Y-101535809D02*
X170096571Y-102012000D01*
X168596571Y-102012000D01*
X169310857Y-101202476D02*
X169310857Y-100869142D01*
X170096571Y-100726285D02*
X170096571Y-101202476D01*
X168596571Y-101202476D01*
X168596571Y-100726285D01*
X170025142Y-100345333D02*
X170096571Y-100202476D01*
X170096571Y-99964380D01*
X170025142Y-99869142D01*
X169953714Y-99821523D01*
X169810857Y-99773904D01*
X169668000Y-99773904D01*
X169525142Y-99821523D01*
X169453714Y-99869142D01*
X169382285Y-99964380D01*
X169310857Y-100154857D01*
X169239428Y-100250095D01*
X169168000Y-100297714D01*
X169025142Y-100345333D01*
X168882285Y-100345333D01*
X168739428Y-100297714D01*
X168668000Y-100250095D01*
X168596571Y-100154857D01*
X168596571Y-99916761D01*
X168668000Y-99773904D01*
X170025142Y-99392952D02*
X170096571Y-99250095D01*
X170096571Y-99012000D01*
X170025142Y-98916761D01*
X169953714Y-98869142D01*
X169810857Y-98821523D01*
X169668000Y-98821523D01*
X169525142Y-98869142D01*
X169453714Y-98916761D01*
X169382285Y-99012000D01*
X169310857Y-99202476D01*
X169239428Y-99297714D01*
X169168000Y-99345333D01*
X169025142Y-99392952D01*
X168882285Y-99392952D01*
X168739428Y-99345333D01*
X168668000Y-99297714D01*
X168596571Y-99202476D01*
X168596571Y-98964380D01*
X168668000Y-98821523D01*
X169310857Y-97297714D02*
X169382285Y-97154857D01*
X169453714Y-97107238D01*
X169596571Y-97059619D01*
X169810857Y-97059619D01*
X169953714Y-97107238D01*
X170025142Y-97154857D01*
X170096571Y-97250095D01*
X170096571Y-97631047D01*
X168596571Y-97631047D01*
X168596571Y-97297714D01*
X168668000Y-97202476D01*
X168739428Y-97154857D01*
X168882285Y-97107238D01*
X169025142Y-97107238D01*
X169168000Y-97154857D01*
X169239428Y-97202476D01*
X169310857Y-97297714D01*
X169310857Y-97631047D01*
X170096571Y-96154857D02*
X170096571Y-96631047D01*
X168596571Y-96631047D01*
X170096571Y-95821523D02*
X168596571Y-95821523D01*
X168596571Y-95583428D01*
X168668000Y-95440571D01*
X168810857Y-95345333D01*
X168953714Y-95297714D01*
X169239428Y-95250095D01*
X169453714Y-95250095D01*
X169739428Y-95297714D01*
X169882285Y-95345333D01*
X170025142Y-95440571D01*
X170096571Y-95583428D01*
X170096571Y-95821523D01*
X169953714Y-94250095D02*
X170025142Y-94297714D01*
X170096571Y-94440571D01*
X170096571Y-94535809D01*
X170025142Y-94678666D01*
X169882285Y-94773904D01*
X169739428Y-94821523D01*
X169453714Y-94869142D01*
X169239428Y-94869142D01*
X168953714Y-94821523D01*
X168810857Y-94773904D01*
X168668000Y-94678666D01*
X168596571Y-94535809D01*
X168596571Y-94440571D01*
X168668000Y-94297714D01*
X168739428Y-94250095D01*
X169953714Y-92488190D02*
X170025142Y-92535809D01*
X170096571Y-92678666D01*
X170096571Y-92773904D01*
X170025142Y-92916761D01*
X169882285Y-93012000D01*
X169739428Y-93059619D01*
X169453714Y-93107238D01*
X169239428Y-93107238D01*
X168953714Y-93059619D01*
X168810857Y-93012000D01*
X168668000Y-92916761D01*
X168596571Y-92773904D01*
X168596571Y-92678666D01*
X168668000Y-92535809D01*
X168739428Y-92488190D01*
X168596571Y-91869142D02*
X168596571Y-91678666D01*
X168668000Y-91583428D01*
X168810857Y-91488190D01*
X169096571Y-91440571D01*
X169596571Y-91440571D01*
X169882285Y-91488190D01*
X170025142Y-91583428D01*
X170096571Y-91678666D01*
X170096571Y-91869142D01*
X170025142Y-91964380D01*
X169882285Y-92059619D01*
X169596571Y-92107238D01*
X169096571Y-92107238D01*
X168810857Y-92059619D01*
X168668000Y-91964380D01*
X168596571Y-91869142D01*
X170096571Y-91012000D02*
X168596571Y-91012000D01*
X170096571Y-90440571D01*
X168596571Y-90440571D01*
X168596571Y-90107238D02*
X168596571Y-89535809D01*
X170096571Y-89821523D02*
X168596571Y-89821523D01*
X170096571Y-88631047D02*
X169382285Y-88964380D01*
X170096571Y-89202476D02*
X168596571Y-89202476D01*
X168596571Y-88821523D01*
X168668000Y-88726285D01*
X168739428Y-88678666D01*
X168882285Y-88631047D01*
X169096571Y-88631047D01*
X169239428Y-88678666D01*
X169310857Y-88726285D01*
X169382285Y-88821523D01*
X169382285Y-89202476D01*
X168596571Y-88012000D02*
X168596571Y-87821523D01*
X168668000Y-87726285D01*
X168810857Y-87631047D01*
X169096571Y-87583428D01*
X169596571Y-87583428D01*
X169882285Y-87631047D01*
X170025142Y-87726285D01*
X170096571Y-87821523D01*
X170096571Y-88012000D01*
X170025142Y-88107238D01*
X169882285Y-88202476D01*
X169596571Y-88250095D01*
X169096571Y-88250095D01*
X168810857Y-88202476D01*
X168668000Y-88107238D01*
X168596571Y-88012000D01*
X170096571Y-86678666D02*
X170096571Y-87154857D01*
X168596571Y-87154857D01*
X170096571Y-85869142D02*
X170096571Y-86345333D01*
X168596571Y-86345333D01*
X169310857Y-85535809D02*
X169310857Y-85202476D01*
X170096571Y-85059619D02*
X170096571Y-85535809D01*
X168596571Y-85535809D01*
X168596571Y-85059619D01*
X170096571Y-84059619D02*
X169382285Y-84392952D01*
X170096571Y-84631047D02*
X168596571Y-84631047D01*
X168596571Y-84250095D01*
X168668000Y-84154857D01*
X168739428Y-84107238D01*
X168882285Y-84059619D01*
X169096571Y-84059619D01*
X169239428Y-84107238D01*
X169310857Y-84154857D01*
X169382285Y-84250095D01*
X169382285Y-84631047D01*
X68271380Y-124265857D02*
X68414238Y-124337285D01*
X68461857Y-124408714D01*
X68509476Y-124551571D01*
X68509476Y-124765857D01*
X68461857Y-124908714D01*
X68414238Y-124980142D01*
X68319000Y-125051571D01*
X67938047Y-125051571D01*
X67938047Y-123551571D01*
X68271380Y-123551571D01*
X68366619Y-123623000D01*
X68414238Y-123694428D01*
X68461857Y-123837285D01*
X68461857Y-123980142D01*
X68414238Y-124123000D01*
X68366619Y-124194428D01*
X68271380Y-124265857D01*
X67938047Y-124265857D01*
X68890428Y-124623000D02*
X69366619Y-124623000D01*
X68795190Y-125051571D02*
X69128523Y-123551571D01*
X69461857Y-125051571D01*
X70366619Y-124908714D02*
X70319000Y-124980142D01*
X70176142Y-125051571D01*
X70080904Y-125051571D01*
X69938047Y-124980142D01*
X69842809Y-124837285D01*
X69795190Y-124694428D01*
X69747571Y-124408714D01*
X69747571Y-124194428D01*
X69795190Y-123908714D01*
X69842809Y-123765857D01*
X69938047Y-123623000D01*
X70080904Y-123551571D01*
X70176142Y-123551571D01*
X70319000Y-123623000D01*
X70366619Y-123694428D01*
X70795190Y-125051571D02*
X70795190Y-123551571D01*
X71271380Y-123551571D02*
X71271380Y-124765857D01*
X71319000Y-124908714D01*
X71366619Y-124980142D01*
X71461857Y-125051571D01*
X71652333Y-125051571D01*
X71747571Y-124980142D01*
X71795190Y-124908714D01*
X71842809Y-124765857D01*
X71842809Y-123551571D01*
X72938047Y-123551571D02*
X73271380Y-125051571D01*
X73604714Y-123551571D01*
X74414238Y-125051571D02*
X73938047Y-125051571D01*
X73938047Y-123551571D01*
X74699952Y-124623000D02*
X75176142Y-124623000D01*
X74604714Y-125051571D02*
X74938047Y-123551571D01*
X75271380Y-125051571D01*
X75604714Y-125051571D02*
X75604714Y-123551571D01*
X75842809Y-123551571D01*
X75985666Y-123623000D01*
X76080904Y-123765857D01*
X76128523Y-123908714D01*
X76176142Y-124194428D01*
X76176142Y-124408714D01*
X76128523Y-124694428D01*
X76080904Y-124837285D01*
X75985666Y-124980142D01*
X75842809Y-125051571D01*
X75604714Y-125051571D01*
X76604714Y-124480142D02*
X77366619Y-124480142D01*
X77842809Y-124265857D02*
X78176142Y-124265857D01*
X78319000Y-125051571D02*
X77842809Y-125051571D01*
X77842809Y-123551571D01*
X78319000Y-123551571D01*
X78747571Y-123551571D02*
X78747571Y-124765857D01*
X78795190Y-124908714D01*
X78842809Y-124980142D01*
X78938047Y-125051571D01*
X79128523Y-125051571D01*
X79223761Y-124980142D01*
X79271380Y-124908714D01*
X79319000Y-124765857D01*
X79319000Y-123551571D01*
X79747571Y-124980142D02*
X79890428Y-125051571D01*
X80128523Y-125051571D01*
X80223761Y-124980142D01*
X80271380Y-124908714D01*
X80319000Y-124765857D01*
X80319000Y-124623000D01*
X80271380Y-124480142D01*
X80223761Y-124408714D01*
X80128523Y-124337285D01*
X79938047Y-124265857D01*
X79842809Y-124194428D01*
X79795190Y-124123000D01*
X79747571Y-123980142D01*
X79747571Y-123837285D01*
X79795190Y-123694428D01*
X79842809Y-123623000D01*
X79938047Y-123551571D01*
X80176142Y-123551571D01*
X80319000Y-123623000D01*
X80747571Y-124265857D02*
X81080904Y-124265857D01*
X81223761Y-125051571D02*
X80747571Y-125051571D01*
X80747571Y-123551571D01*
X81223761Y-123551571D01*
X81985666Y-124265857D02*
X82128523Y-124337285D01*
X82176142Y-124408714D01*
X82223761Y-124551571D01*
X82223761Y-124765857D01*
X82176142Y-124908714D01*
X82128523Y-124980142D01*
X82033285Y-125051571D01*
X81652333Y-125051571D01*
X81652333Y-123551571D01*
X81985666Y-123551571D01*
X82080904Y-123623000D01*
X82128523Y-123694428D01*
X82176142Y-123837285D01*
X82176142Y-123980142D01*
X82128523Y-124123000D01*
X82080904Y-124194428D01*
X81985666Y-124265857D01*
X81652333Y-124265857D01*
X82652333Y-125051571D02*
X82652333Y-123551571D01*
X83128523Y-123551571D02*
X83128523Y-124765857D01*
X83176142Y-124908714D01*
X83223761Y-124980142D01*
X83319000Y-125051571D01*
X83509476Y-125051571D01*
X83604714Y-124980142D01*
X83652333Y-124908714D01*
X83699952Y-124765857D01*
X83699952Y-123551571D01*
X67461857Y-126765857D02*
X67795190Y-126765857D01*
X67938047Y-127551571D02*
X67461857Y-127551571D01*
X67461857Y-126051571D01*
X67938047Y-126051571D01*
X68842809Y-127551571D02*
X68366619Y-127551571D01*
X68366619Y-126051571D01*
X69176142Y-126765857D02*
X69509476Y-126765857D01*
X69652333Y-127551571D02*
X69176142Y-127551571D01*
X69176142Y-126051571D01*
X69652333Y-126051571D01*
X70652333Y-127408714D02*
X70604714Y-127480142D01*
X70461857Y-127551571D01*
X70366619Y-127551571D01*
X70223761Y-127480142D01*
X70128523Y-127337285D01*
X70080904Y-127194428D01*
X70033285Y-126908714D01*
X70033285Y-126694428D01*
X70080904Y-126408714D01*
X70128523Y-126265857D01*
X70223761Y-126123000D01*
X70366619Y-126051571D01*
X70461857Y-126051571D01*
X70604714Y-126123000D01*
X70652333Y-126194428D01*
X70938047Y-126051571D02*
X71509476Y-126051571D01*
X71223761Y-127551571D02*
X71223761Y-126051571D01*
X72414238Y-127551571D02*
X72080904Y-126837285D01*
X71842809Y-127551571D02*
X71842809Y-126051571D01*
X72223761Y-126051571D01*
X72319000Y-126123000D01*
X72366619Y-126194428D01*
X72414238Y-126337285D01*
X72414238Y-126551571D01*
X72366619Y-126694428D01*
X72319000Y-126765857D01*
X72223761Y-126837285D01*
X71842809Y-126837285D01*
X73033285Y-126051571D02*
X73223761Y-126051571D01*
X73319000Y-126123000D01*
X73414238Y-126265857D01*
X73461857Y-126551571D01*
X73461857Y-127051571D01*
X73414238Y-127337285D01*
X73319000Y-127480142D01*
X73223761Y-127551571D01*
X73033285Y-127551571D01*
X72938047Y-127480142D01*
X72842809Y-127337285D01*
X72795190Y-127051571D01*
X72795190Y-126551571D01*
X72842809Y-126265857D01*
X72938047Y-126123000D01*
X73033285Y-126051571D01*
X73890428Y-127551571D02*
X73890428Y-126051571D01*
X74461857Y-127551571D01*
X74461857Y-126051571D01*
X74938047Y-127551571D02*
X74938047Y-126051571D01*
X75985666Y-127408714D02*
X75938047Y-127480142D01*
X75795190Y-127551571D01*
X75699952Y-127551571D01*
X75557095Y-127480142D01*
X75461857Y-127337285D01*
X75414238Y-127194428D01*
X75366619Y-126908714D01*
X75366619Y-126694428D01*
X75414238Y-126408714D01*
X75461857Y-126265857D01*
X75557095Y-126123000D01*
X75699952Y-126051571D01*
X75795190Y-126051571D01*
X75938047Y-126123000D01*
X75985666Y-126194428D01*
X76366619Y-127123000D02*
X76842809Y-127123000D01*
X76271380Y-127551571D02*
X76604714Y-126051571D01*
X76938047Y-127551571D01*
X77985666Y-127123000D02*
X78461857Y-127123000D01*
X77890428Y-127551571D02*
X78223761Y-126051571D01*
X78557095Y-127551571D01*
X78890428Y-127551571D02*
X78890428Y-126051571D01*
X79271380Y-126051571D01*
X79366619Y-126123000D01*
X79414238Y-126194428D01*
X79461857Y-126337285D01*
X79461857Y-126551571D01*
X79414238Y-126694428D01*
X79366619Y-126765857D01*
X79271380Y-126837285D01*
X78890428Y-126837285D01*
X80366619Y-127551571D02*
X79890428Y-127551571D01*
X79890428Y-126051571D01*
X81271380Y-127408714D02*
X81223761Y-127480142D01*
X81080904Y-127551571D01*
X80985666Y-127551571D01*
X80842809Y-127480142D01*
X80747571Y-127337285D01*
X80699952Y-127194428D01*
X80652333Y-126908714D01*
X80652333Y-126694428D01*
X80699952Y-126408714D01*
X80747571Y-126265857D01*
X80842809Y-126123000D01*
X80985666Y-126051571D01*
X81080904Y-126051571D01*
X81223761Y-126123000D01*
X81271380Y-126194428D01*
X81699952Y-127551571D02*
X81699952Y-126051571D01*
X82128523Y-127123000D02*
X82604714Y-127123000D01*
X82033285Y-127551571D02*
X82366619Y-126051571D01*
X82699952Y-127551571D01*
X82890428Y-126051571D02*
X83461857Y-126051571D01*
X83176142Y-127551571D02*
X83176142Y-126051571D01*
X83747571Y-127123000D02*
X84223761Y-127123000D01*
X83652333Y-127551571D02*
X83985666Y-126051571D01*
X84319000Y-127551571D01*
X71319000Y-130051571D02*
X70842809Y-130051571D01*
X70842809Y-128551571D01*
X71652333Y-130051571D02*
X71652333Y-128551571D01*
X72699952Y-129908714D02*
X72652333Y-129980142D01*
X72509476Y-130051571D01*
X72414238Y-130051571D01*
X72271380Y-129980142D01*
X72176142Y-129837285D01*
X72128523Y-129694428D01*
X72080904Y-129408714D01*
X72080904Y-129194428D01*
X72128523Y-128908714D01*
X72176142Y-128765857D01*
X72271380Y-128623000D01*
X72414238Y-128551571D01*
X72509476Y-128551571D01*
X72652333Y-128623000D01*
X72699952Y-128694428D01*
X73128523Y-129265857D02*
X73461857Y-129265857D01*
X73604714Y-130051571D02*
X73128523Y-130051571D01*
X73128523Y-128551571D01*
X73604714Y-128551571D01*
X74033285Y-130051571D02*
X74033285Y-128551571D01*
X74604714Y-130051571D01*
X74604714Y-128551571D01*
X74938047Y-128551571D02*
X75509476Y-128551571D01*
X75223761Y-130051571D02*
X75223761Y-128551571D01*
X75795190Y-129623000D02*
X76271380Y-129623000D01*
X75699952Y-130051571D02*
X76033285Y-128551571D01*
X76366619Y-130051571D01*
X77414238Y-128694428D02*
X77461857Y-128623000D01*
X77557095Y-128551571D01*
X77795190Y-128551571D01*
X77890428Y-128623000D01*
X77938047Y-128694428D01*
X77985666Y-128837285D01*
X77985666Y-128980142D01*
X77938047Y-129194428D01*
X77366619Y-130051571D01*
X77985666Y-130051571D01*
X78604714Y-128551571D02*
X78699952Y-128551571D01*
X78795190Y-128623000D01*
X78842809Y-128694428D01*
X78890428Y-128837285D01*
X78938047Y-129123000D01*
X78938047Y-129480142D01*
X78890428Y-129765857D01*
X78842809Y-129908714D01*
X78795190Y-129980142D01*
X78699952Y-130051571D01*
X78604714Y-130051571D01*
X78509476Y-129980142D01*
X78461857Y-129908714D01*
X78414238Y-129765857D01*
X78366619Y-129480142D01*
X78366619Y-129123000D01*
X78414238Y-128837285D01*
X78461857Y-128694428D01*
X78509476Y-128623000D01*
X78604714Y-128551571D01*
X79890428Y-130051571D02*
X79319000Y-130051571D01*
X79604714Y-130051571D02*
X79604714Y-128551571D01*
X79509476Y-128765857D01*
X79414238Y-128908714D01*
X79319000Y-128980142D01*
X80366619Y-130051571D02*
X80557095Y-130051571D01*
X80652333Y-129980142D01*
X80699952Y-129908714D01*
X80795190Y-129694428D01*
X80842809Y-129408714D01*
X80842809Y-128837285D01*
X80795190Y-128694428D01*
X80747571Y-128623000D01*
X80652333Y-128551571D01*
X80461857Y-128551571D01*
X80366619Y-128623000D01*
X80319000Y-128694428D01*
X80271380Y-128837285D01*
X80271380Y-129194428D01*
X80319000Y-129337285D01*
X80366619Y-129408714D01*
X80461857Y-129480142D01*
X80652333Y-129480142D01*
X80747571Y-129408714D01*
X80795190Y-129337285D01*
X80842809Y-129194428D01*
D12*
X57023000Y-131318000D02*
X172212000Y-131318000D01*
X172720000Y-51562000D02*
X172212000Y-131318000D01*
X56896000Y-51562000D02*
X57023000Y-131318000D01*
X56896000Y-51562000D02*
X172720000Y-51562000D01*
D13*
G04 #@! TO.C,U3*
X92691000Y-56104000D02*
X91431000Y-56104000D01*
X85871000Y-56104000D02*
X87131000Y-56104000D01*
X92691000Y-59864000D02*
X92691000Y-56104000D01*
X85871000Y-62114000D02*
X85871000Y-56104000D01*
G04 #@! TO.C,C33*
X82529000Y-114677436D02*
X82529000Y-115881564D01*
X84349000Y-114677436D02*
X84349000Y-115881564D01*
G04 #@! TO.C,C24*
X159618000Y-56572564D02*
X159618000Y-55368436D01*
X161438000Y-56572564D02*
X161438000Y-55368436D01*
G04 #@! TO.C,C22*
X156612000Y-56572564D02*
X156612000Y-55368436D01*
X154792000Y-56572564D02*
X154792000Y-55368436D01*
G04 #@! TO.C,C21*
X150093000Y-56609064D02*
X150093000Y-55404936D01*
X151913000Y-56609064D02*
X151913000Y-55404936D01*
G04 #@! TO.C,C20*
X151786000Y-66605564D02*
X151786000Y-65401436D01*
X149966000Y-66605564D02*
X149966000Y-65401436D01*
G04 #@! TO.C,C19*
X135451436Y-56875000D02*
X136655564Y-56875000D01*
X135451436Y-58695000D02*
X136655564Y-58695000D01*
G04 #@! TO.C,C18*
X135922936Y-63648000D02*
X137127064Y-63648000D01*
X135922936Y-61828000D02*
X137127064Y-61828000D01*
G04 #@! TO.C,C3*
X66146000Y-120907564D02*
X66146000Y-119703436D01*
X67966000Y-120907564D02*
X67966000Y-119703436D01*
D14*
G04 #@! TO.C,U7*
X143205200Y-68783200D02*
G75*
G02X143814800Y-68783200I304800J0D01*
G01*
D15*
X143814800Y-68783200D02*
X144881600Y-68783200D01*
X143205200Y-68783200D02*
X143814800Y-68783200D01*
X142138400Y-68783200D02*
X143205200Y-68783200D01*
X144881600Y-63804800D02*
X142138400Y-63804800D01*
G04 #@! TO.C,U8*
X144627600Y-55930800D02*
X141884400Y-55930800D01*
X141884400Y-60909200D02*
X142951200Y-60909200D01*
X142951200Y-60909200D02*
X143560800Y-60909200D01*
X143560800Y-60909200D02*
X144627600Y-60909200D01*
D14*
X142951200Y-60909200D02*
G75*
G02X143560800Y-60909200I304800J0D01*
G01*
D13*
G04 #@! TO.C,R30*
X103907000Y-125545436D02*
X103907000Y-126749564D01*
X102087000Y-125545436D02*
X102087000Y-126749564D01*
G04 #@! TO.C,R25*
X157628000Y-63938564D02*
X157628000Y-62734436D01*
X155808000Y-63938564D02*
X155808000Y-62734436D01*
G04 #@! TO.C,R23*
X145672564Y-92096000D02*
X144468436Y-92096000D01*
X145672564Y-90276000D02*
X144468436Y-90276000D01*
G04 #@! TO.C,R24*
X157628000Y-70415564D02*
X157628000Y-69211436D01*
X155808000Y-70415564D02*
X155808000Y-69211436D01*
G04 #@! TO.C,R26*
X159618000Y-70415564D02*
X159618000Y-69211436D01*
X161438000Y-70415564D02*
X161438000Y-69211436D01*
G04 #@! TO.C,R27*
X161311000Y-63811564D02*
X161311000Y-62607436D01*
X159491000Y-63811564D02*
X159491000Y-62607436D01*
G04 #@! TO.C,R28*
X91853936Y-122788000D02*
X93058064Y-122788000D01*
X91853936Y-124608000D02*
X93058064Y-124608000D01*
G04 #@! TO.C,R29*
X97441936Y-124735000D02*
X98646064Y-124735000D01*
X97441936Y-122915000D02*
X98646064Y-122915000D01*
G04 #@! TO.C,R32*
X163682000Y-63684564D02*
X163682000Y-62480436D01*
X165502000Y-63684564D02*
X165502000Y-62480436D01*
G04 #@! TO.C,R22*
X144646854Y-84093688D02*
X144646854Y-85297816D01*
X146466854Y-84093688D02*
X146466854Y-85297816D01*
G04 #@! TO.C,R21*
X147440854Y-85297816D02*
X147440854Y-84093688D01*
X149260854Y-85297816D02*
X149260854Y-84093688D01*
G04 #@! TO.C,R31*
X165375000Y-70415564D02*
X165375000Y-69211436D01*
X163555000Y-70415564D02*
X163555000Y-69211436D01*
G04 #@! TO.C,R20*
X145599564Y-95398000D02*
X144395436Y-95398000D01*
X145599564Y-93578000D02*
X144395436Y-93578000D01*
G04 #@! TO.C,R3*
X72030000Y-120961564D02*
X72030000Y-119757436D01*
X70210000Y-120961564D02*
X70210000Y-119757436D01*
G04 #@! TO.C,R19*
X145672564Y-98573000D02*
X144468436Y-98573000D01*
X145672564Y-96753000D02*
X144468436Y-96753000D01*
D12*
G04 #@! TO.C,J4*
X155702000Y-125730000D02*
X155702000Y-72390000D01*
X155702000Y-72390000D02*
X170942000Y-72390000D01*
X170942000Y-72390000D02*
X170942000Y-123190000D01*
X170942000Y-123190000D02*
X155702000Y-123190000D01*
D13*
G04 #@! TO.C,J5*
X104439159Y-54172179D02*
G75*
G02X108426000Y-54188000I1986841J-1665821D01*
G01*
X99359159Y-54172179D02*
G75*
G02X103346000Y-54188000I1986841J-1665821D01*
G01*
X110076000Y-61298000D02*
X110076000Y-52478000D01*
X110076000Y-52478000D02*
X97696000Y-52478000D01*
X97696000Y-52478000D02*
X97696000Y-61298000D01*
X97696000Y-61298000D02*
X110076000Y-61298000D01*
X110076000Y-60488000D02*
X107536000Y-60488000D01*
X97696000Y-60488000D02*
X100236000Y-60488000D01*
X105426000Y-60488000D02*
X102346000Y-60488000D01*
X107426000Y-59488000D02*
X107426000Y-61298000D01*
X107426000Y-61298000D02*
X105426000Y-61298000D01*
X105426000Y-61298000D02*
X105426000Y-59488000D01*
X105426000Y-59488000D02*
X107426000Y-59488000D01*
X102346000Y-59488000D02*
X102346000Y-61298000D01*
X102346000Y-61298000D02*
X100346000Y-61298000D01*
X100346000Y-61298000D02*
X100346000Y-59488000D01*
X100346000Y-59488000D02*
X102346000Y-59488000D01*
X104426000Y-54188000D02*
X103346000Y-54188000D01*
X108426000Y-54188000D02*
X109166000Y-54188000D01*
X109166000Y-54188000D02*
X109166000Y-59488000D01*
X109166000Y-59488000D02*
X98606000Y-59488000D01*
X98606000Y-59488000D02*
X98606000Y-54188000D01*
X98606000Y-54188000D02*
X99346000Y-54188000D01*
X106126000Y-62098000D02*
X106426000Y-61498000D01*
X106426000Y-61498000D02*
X106726000Y-62098000D01*
X106726000Y-62098000D02*
X106126000Y-62098000D01*
G04 #@! TO.C,C23*
X131548000Y-62932000D02*
G75*
G03X131548000Y-62932000I-9120000J0D01*
G01*
X131509000Y-62932000D02*
X113347000Y-62932000D01*
X131508000Y-62972000D02*
X113348000Y-62972000D01*
X131508000Y-63012000D02*
X113348000Y-63012000D01*
X131508000Y-63052000D02*
X113348000Y-63052000D01*
X131507000Y-63092000D02*
X113349000Y-63092000D01*
X131506000Y-63132000D02*
X113350000Y-63132000D01*
X131505000Y-63172000D02*
X113351000Y-63172000D01*
X131504000Y-63212000D02*
X113352000Y-63212000D01*
X131503000Y-63252000D02*
X113353000Y-63252000D01*
X131501000Y-63292000D02*
X113355000Y-63292000D01*
X131500000Y-63332000D02*
X113356000Y-63332000D01*
X131498000Y-63372000D02*
X113358000Y-63372000D01*
X131496000Y-63412000D02*
X113360000Y-63412000D01*
X131494000Y-63452000D02*
X113362000Y-63452000D01*
X131491000Y-63492000D02*
X113365000Y-63492000D01*
X131489000Y-63532000D02*
X113367000Y-63532000D01*
X131486000Y-63572000D02*
X113370000Y-63572000D01*
X131483000Y-63612000D02*
X113373000Y-63612000D01*
X131480000Y-63653000D02*
X113376000Y-63653000D01*
X131477000Y-63693000D02*
X113379000Y-63693000D01*
X131473000Y-63733000D02*
X113383000Y-63733000D01*
X131470000Y-63773000D02*
X113386000Y-63773000D01*
X131466000Y-63813000D02*
X113390000Y-63813000D01*
X131462000Y-63853000D02*
X113394000Y-63853000D01*
X131458000Y-63893000D02*
X113398000Y-63893000D01*
X131454000Y-63933000D02*
X113402000Y-63933000D01*
X131449000Y-63973000D02*
X113407000Y-63973000D01*
X131444000Y-64013000D02*
X113412000Y-64013000D01*
X131439000Y-64053000D02*
X113417000Y-64053000D01*
X131434000Y-64093000D02*
X113422000Y-64093000D01*
X131429000Y-64133000D02*
X113427000Y-64133000D01*
X131424000Y-64173000D02*
X113432000Y-64173000D01*
X131418000Y-64213000D02*
X113438000Y-64213000D01*
X131412000Y-64253000D02*
X113444000Y-64253000D01*
X131407000Y-64293000D02*
X113449000Y-64293000D01*
X131400000Y-64333000D02*
X113456000Y-64333000D01*
X131394000Y-64373000D02*
X113462000Y-64373000D01*
X131388000Y-64413000D02*
X113468000Y-64413000D01*
X131381000Y-64453000D02*
X113475000Y-64453000D01*
X131374000Y-64493000D02*
X113482000Y-64493000D01*
X131367000Y-64533000D02*
X113489000Y-64533000D01*
X131360000Y-64573000D02*
X113496000Y-64573000D01*
X131352000Y-64613000D02*
X113504000Y-64613000D01*
X131345000Y-64653000D02*
X113511000Y-64653000D01*
X131337000Y-64693000D02*
X113519000Y-64693000D01*
X131329000Y-64733000D02*
X113527000Y-64733000D01*
X131321000Y-64773000D02*
X113535000Y-64773000D01*
X131313000Y-64813000D02*
X113543000Y-64813000D01*
X131304000Y-64853000D02*
X113552000Y-64853000D01*
X131295000Y-64893000D02*
X113561000Y-64893000D01*
X131286000Y-64933000D02*
X113570000Y-64933000D01*
X131277000Y-64973000D02*
X113579000Y-64973000D01*
X131268000Y-65013000D02*
X113588000Y-65013000D01*
X131259000Y-65053000D02*
X113597000Y-65053000D01*
X131249000Y-65093000D02*
X113607000Y-65093000D01*
X131239000Y-65133000D02*
X113617000Y-65133000D01*
X131229000Y-65173000D02*
X113627000Y-65173000D01*
X131219000Y-65213000D02*
X113637000Y-65213000D01*
X131208000Y-65253000D02*
X123868000Y-65253000D01*
X120988000Y-65253000D02*
X113648000Y-65253000D01*
X131198000Y-65293000D02*
X123868000Y-65293000D01*
X120988000Y-65293000D02*
X113658000Y-65293000D01*
X131187000Y-65333000D02*
X123868000Y-65333000D01*
X120988000Y-65333000D02*
X113669000Y-65333000D01*
X131176000Y-65373000D02*
X123868000Y-65373000D01*
X120988000Y-65373000D02*
X113680000Y-65373000D01*
X131165000Y-65413000D02*
X123868000Y-65413000D01*
X120988000Y-65413000D02*
X113691000Y-65413000D01*
X131153000Y-65453000D02*
X123868000Y-65453000D01*
X120988000Y-65453000D02*
X113703000Y-65453000D01*
X131142000Y-65493000D02*
X123868000Y-65493000D01*
X120988000Y-65493000D02*
X113714000Y-65493000D01*
X131130000Y-65533000D02*
X123868000Y-65533000D01*
X120988000Y-65533000D02*
X113726000Y-65533000D01*
X131118000Y-65573000D02*
X123868000Y-65573000D01*
X120988000Y-65573000D02*
X113738000Y-65573000D01*
X131106000Y-65613000D02*
X123868000Y-65613000D01*
X120988000Y-65613000D02*
X113750000Y-65613000D01*
X131093000Y-65653000D02*
X123868000Y-65653000D01*
X120988000Y-65653000D02*
X113763000Y-65653000D01*
X131081000Y-65693000D02*
X123868000Y-65693000D01*
X120988000Y-65693000D02*
X113775000Y-65693000D01*
X131068000Y-65733000D02*
X123868000Y-65733000D01*
X120988000Y-65733000D02*
X113788000Y-65733000D01*
X131055000Y-65773000D02*
X123868000Y-65773000D01*
X120988000Y-65773000D02*
X113801000Y-65773000D01*
X131042000Y-65813000D02*
X123868000Y-65813000D01*
X120988000Y-65813000D02*
X113814000Y-65813000D01*
X131028000Y-65853000D02*
X123868000Y-65853000D01*
X120988000Y-65853000D02*
X113828000Y-65853000D01*
X131015000Y-65893000D02*
X123868000Y-65893000D01*
X120988000Y-65893000D02*
X113841000Y-65893000D01*
X131001000Y-65933000D02*
X123868000Y-65933000D01*
X120988000Y-65933000D02*
X113855000Y-65933000D01*
X130987000Y-65973000D02*
X123868000Y-65973000D01*
X120988000Y-65973000D02*
X113869000Y-65973000D01*
X130973000Y-66013000D02*
X123868000Y-66013000D01*
X120988000Y-66013000D02*
X113883000Y-66013000D01*
X130958000Y-66053000D02*
X123868000Y-66053000D01*
X120988000Y-66053000D02*
X113898000Y-66053000D01*
X130944000Y-66093000D02*
X123868000Y-66093000D01*
X120988000Y-66093000D02*
X113912000Y-66093000D01*
X130929000Y-66133000D02*
X123868000Y-66133000D01*
X120988000Y-66133000D02*
X113927000Y-66133000D01*
X130914000Y-66173000D02*
X123868000Y-66173000D01*
X120988000Y-66173000D02*
X113942000Y-66173000D01*
X130898000Y-66213000D02*
X123868000Y-66213000D01*
X120988000Y-66213000D02*
X113958000Y-66213000D01*
X130883000Y-66253000D02*
X123868000Y-66253000D01*
X120988000Y-66253000D02*
X113973000Y-66253000D01*
X130867000Y-66293000D02*
X123868000Y-66293000D01*
X120988000Y-66293000D02*
X113989000Y-66293000D01*
X130851000Y-66333000D02*
X123868000Y-66333000D01*
X120988000Y-66333000D02*
X114005000Y-66333000D01*
X130835000Y-66373000D02*
X123868000Y-66373000D01*
X120988000Y-66373000D02*
X114021000Y-66373000D01*
X130818000Y-66413000D02*
X123868000Y-66413000D01*
X120988000Y-66413000D02*
X114038000Y-66413000D01*
X130802000Y-66453000D02*
X123868000Y-66453000D01*
X120988000Y-66453000D02*
X114054000Y-66453000D01*
X130785000Y-66493000D02*
X123868000Y-66493000D01*
X120988000Y-66493000D02*
X114071000Y-66493000D01*
X130768000Y-66533000D02*
X123868000Y-66533000D01*
X120988000Y-66533000D02*
X114088000Y-66533000D01*
X130751000Y-66573000D02*
X123868000Y-66573000D01*
X120988000Y-66573000D02*
X114105000Y-66573000D01*
X130733000Y-66613000D02*
X123868000Y-66613000D01*
X120988000Y-66613000D02*
X114123000Y-66613000D01*
X130715000Y-66653000D02*
X123868000Y-66653000D01*
X120988000Y-66653000D02*
X114141000Y-66653000D01*
X130697000Y-66693000D02*
X123868000Y-66693000D01*
X120988000Y-66693000D02*
X114159000Y-66693000D01*
X130679000Y-66733000D02*
X123868000Y-66733000D01*
X120988000Y-66733000D02*
X114177000Y-66733000D01*
X130661000Y-66773000D02*
X123868000Y-66773000D01*
X120988000Y-66773000D02*
X114195000Y-66773000D01*
X130642000Y-66813000D02*
X123868000Y-66813000D01*
X120988000Y-66813000D02*
X114214000Y-66813000D01*
X130623000Y-66853000D02*
X123868000Y-66853000D01*
X120988000Y-66853000D02*
X114233000Y-66853000D01*
X130604000Y-66893000D02*
X123868000Y-66893000D01*
X120988000Y-66893000D02*
X114252000Y-66893000D01*
X130584000Y-66933000D02*
X123868000Y-66933000D01*
X120988000Y-66933000D02*
X114272000Y-66933000D01*
X130565000Y-66973000D02*
X123868000Y-66973000D01*
X120988000Y-66973000D02*
X114291000Y-66973000D01*
X130545000Y-67013000D02*
X123868000Y-67013000D01*
X120988000Y-67013000D02*
X114311000Y-67013000D01*
X130525000Y-67053000D02*
X123868000Y-67053000D01*
X120988000Y-67053000D02*
X114331000Y-67053000D01*
X130504000Y-67093000D02*
X123868000Y-67093000D01*
X120988000Y-67093000D02*
X114352000Y-67093000D01*
X130484000Y-67133000D02*
X123868000Y-67133000D01*
X120988000Y-67133000D02*
X114372000Y-67133000D01*
X130463000Y-67173000D02*
X123868000Y-67173000D01*
X120988000Y-67173000D02*
X114393000Y-67173000D01*
X130442000Y-67213000D02*
X123868000Y-67213000D01*
X120988000Y-67213000D02*
X114414000Y-67213000D01*
X130420000Y-67253000D02*
X123868000Y-67253000D01*
X120988000Y-67253000D02*
X114436000Y-67253000D01*
X130399000Y-67293000D02*
X123868000Y-67293000D01*
X120988000Y-67293000D02*
X114457000Y-67293000D01*
X130377000Y-67333000D02*
X123868000Y-67333000D01*
X120988000Y-67333000D02*
X114479000Y-67333000D01*
X130355000Y-67373000D02*
X123868000Y-67373000D01*
X120988000Y-67373000D02*
X114501000Y-67373000D01*
X130332000Y-67413000D02*
X123868000Y-67413000D01*
X120988000Y-67413000D02*
X114524000Y-67413000D01*
X130310000Y-67453000D02*
X123868000Y-67453000D01*
X120988000Y-67453000D02*
X114546000Y-67453000D01*
X130287000Y-67493000D02*
X123868000Y-67493000D01*
X120988000Y-67493000D02*
X114569000Y-67493000D01*
X130263000Y-67533000D02*
X123868000Y-67533000D01*
X120988000Y-67533000D02*
X114593000Y-67533000D01*
X130240000Y-67573000D02*
X123868000Y-67573000D01*
X120988000Y-67573000D02*
X114616000Y-67573000D01*
X130216000Y-67613000D02*
X123868000Y-67613000D01*
X120988000Y-67613000D02*
X114640000Y-67613000D01*
X130192000Y-67653000D02*
X123868000Y-67653000D01*
X120988000Y-67653000D02*
X114664000Y-67653000D01*
X130168000Y-67693000D02*
X123868000Y-67693000D01*
X120988000Y-67693000D02*
X114688000Y-67693000D01*
X130143000Y-67733000D02*
X123868000Y-67733000D01*
X120988000Y-67733000D02*
X114713000Y-67733000D01*
X130118000Y-67773000D02*
X123868000Y-67773000D01*
X120988000Y-67773000D02*
X114738000Y-67773000D01*
X130093000Y-67813000D02*
X123868000Y-67813000D01*
X120988000Y-67813000D02*
X114763000Y-67813000D01*
X130068000Y-67853000D02*
X123868000Y-67853000D01*
X120988000Y-67853000D02*
X114788000Y-67853000D01*
X130042000Y-67893000D02*
X123868000Y-67893000D01*
X120988000Y-67893000D02*
X114814000Y-67893000D01*
X130016000Y-67933000D02*
X123868000Y-67933000D01*
X120988000Y-67933000D02*
X114840000Y-67933000D01*
X129989000Y-67973000D02*
X123868000Y-67973000D01*
X120988000Y-67973000D02*
X114867000Y-67973000D01*
X129963000Y-68013000D02*
X123868000Y-68013000D01*
X120988000Y-68013000D02*
X114893000Y-68013000D01*
X129936000Y-68053000D02*
X123868000Y-68053000D01*
X120988000Y-68053000D02*
X114920000Y-68053000D01*
X129908000Y-68093000D02*
X123868000Y-68093000D01*
X120988000Y-68093000D02*
X114948000Y-68093000D01*
X129881000Y-68133000D02*
X114975000Y-68133000D01*
X129853000Y-68173000D02*
X115003000Y-68173000D01*
X129825000Y-68213000D02*
X115031000Y-68213000D01*
X129796000Y-68253000D02*
X115060000Y-68253000D01*
X129767000Y-68293000D02*
X115089000Y-68293000D01*
X129738000Y-68333000D02*
X115118000Y-68333000D01*
X129708000Y-68373000D02*
X115148000Y-68373000D01*
X129678000Y-68413000D02*
X115178000Y-68413000D01*
X129648000Y-68453000D02*
X115208000Y-68453000D01*
X129618000Y-68493000D02*
X115238000Y-68493000D01*
X129587000Y-68533000D02*
X115269000Y-68533000D01*
X129555000Y-68573000D02*
X115301000Y-68573000D01*
X129524000Y-68613000D02*
X115332000Y-68613000D01*
X129492000Y-68653000D02*
X115364000Y-68653000D01*
X129459000Y-68693000D02*
X115397000Y-68693000D01*
X129427000Y-68733000D02*
X115429000Y-68733000D01*
X129393000Y-68773000D02*
X115463000Y-68773000D01*
X129360000Y-68813000D02*
X115496000Y-68813000D01*
X129326000Y-68853000D02*
X115530000Y-68853000D01*
X129292000Y-68893000D02*
X115564000Y-68893000D01*
X129257000Y-68933000D02*
X115599000Y-68933000D01*
X129222000Y-68973000D02*
X115634000Y-68973000D01*
X129186000Y-69013000D02*
X115670000Y-69013000D01*
X129150000Y-69053000D02*
X115706000Y-69053000D01*
X129114000Y-69093000D02*
X115742000Y-69093000D01*
X129077000Y-69133000D02*
X115779000Y-69133000D01*
X129040000Y-69173000D02*
X115816000Y-69173000D01*
X129002000Y-69213000D02*
X115854000Y-69213000D01*
X128964000Y-69253000D02*
X115892000Y-69253000D01*
X128925000Y-69293000D02*
X115931000Y-69293000D01*
X128886000Y-69333000D02*
X115970000Y-69333000D01*
X128846000Y-69373000D02*
X116010000Y-69373000D01*
X128806000Y-69413000D02*
X116050000Y-69413000D01*
X128765000Y-69453000D02*
X116091000Y-69453000D01*
X128724000Y-69493000D02*
X116132000Y-69493000D01*
X128682000Y-69533000D02*
X116174000Y-69533000D01*
X128640000Y-69573000D02*
X116216000Y-69573000D01*
X128598000Y-69613000D02*
X116258000Y-69613000D01*
X128554000Y-69653000D02*
X116302000Y-69653000D01*
X128510000Y-69693000D02*
X116346000Y-69693000D01*
X128466000Y-69733000D02*
X116390000Y-69733000D01*
X128421000Y-69773000D02*
X116435000Y-69773000D01*
X128375000Y-69813000D02*
X116481000Y-69813000D01*
X128329000Y-69853000D02*
X116527000Y-69853000D01*
X128282000Y-69893000D02*
X116574000Y-69893000D01*
X128234000Y-69933000D02*
X116622000Y-69933000D01*
X128186000Y-69973000D02*
X116670000Y-69973000D01*
X128137000Y-70013000D02*
X116719000Y-70013000D01*
X128088000Y-70053000D02*
X116768000Y-70053000D01*
X128037000Y-70093000D02*
X116819000Y-70093000D01*
X127986000Y-70133000D02*
X116870000Y-70133000D01*
X127934000Y-70173000D02*
X116922000Y-70173000D01*
X127882000Y-70213000D02*
X116974000Y-70213000D01*
X127828000Y-70253000D02*
X117028000Y-70253000D01*
X127774000Y-70293000D02*
X117082000Y-70293000D01*
X127719000Y-70333000D02*
X117137000Y-70333000D01*
X127663000Y-70373000D02*
X117193000Y-70373000D01*
X127606000Y-70413000D02*
X117250000Y-70413000D01*
X127548000Y-70453000D02*
X117308000Y-70453000D01*
X127490000Y-70493000D02*
X117366000Y-70493000D01*
X127430000Y-70533000D02*
X117426000Y-70533000D01*
X127369000Y-70573000D02*
X117487000Y-70573000D01*
X127307000Y-70613000D02*
X117549000Y-70613000D01*
X127244000Y-70653000D02*
X117612000Y-70653000D01*
X127180000Y-70693000D02*
X117676000Y-70693000D01*
X127114000Y-70733000D02*
X117742000Y-70733000D01*
X127048000Y-70773000D02*
X117808000Y-70773000D01*
X126980000Y-70813000D02*
X117876000Y-70813000D01*
X126910000Y-70853000D02*
X117946000Y-70853000D01*
X126840000Y-70893000D02*
X118016000Y-70893000D01*
X126767000Y-70933000D02*
X118089000Y-70933000D01*
X126693000Y-70973000D02*
X118163000Y-70973000D01*
X126618000Y-71013000D02*
X118238000Y-71013000D01*
X126541000Y-71053000D02*
X118315000Y-71053000D01*
X126461000Y-71093000D02*
X118395000Y-71093000D01*
X126380000Y-71132000D02*
X118476000Y-71132000D01*
X126297000Y-71172000D02*
X118559000Y-71172000D01*
X126212000Y-71212000D02*
X118644000Y-71212000D01*
X126124000Y-71252000D02*
X118732000Y-71252000D01*
X126033000Y-71292000D02*
X118823000Y-71292000D01*
X125940000Y-71332000D02*
X118916000Y-71332000D01*
X125844000Y-71372000D02*
X119012000Y-71372000D01*
X125745000Y-71412000D02*
X119111000Y-71412000D01*
X125642000Y-71452000D02*
X119214000Y-71452000D01*
X125535000Y-71492000D02*
X119321000Y-71492000D01*
X125424000Y-71532000D02*
X119432000Y-71532000D01*
X125308000Y-71572000D02*
X119548000Y-71572000D01*
X125187000Y-71612000D02*
X119669000Y-71612000D01*
X125060000Y-71652000D02*
X119796000Y-71652000D01*
X124926000Y-71692000D02*
X119930000Y-71692000D01*
X124783000Y-71732000D02*
X120073000Y-71732000D01*
X124631000Y-71772000D02*
X120225000Y-71772000D01*
X124467000Y-71812000D02*
X120389000Y-71812000D01*
X124288000Y-71852000D02*
X120568000Y-71852000D01*
X124089000Y-71892000D02*
X120767000Y-71892000D01*
X123863000Y-71932000D02*
X120993000Y-71932000D01*
X123594000Y-71972000D02*
X121262000Y-71972000D01*
X123242000Y-72012000D02*
X121614000Y-72012000D01*
X122468000Y-72052000D02*
X122388000Y-72052000D01*
X127543000Y-53172560D02*
X127543000Y-54972560D01*
X128443000Y-54072560D02*
X126643000Y-54072560D01*
G04 #@! TO.C,C10*
X76802064Y-92985000D02*
X75597936Y-92985000D01*
X76802064Y-91165000D02*
X75597936Y-91165000D01*
G04 #@! TO.C,D1*
X70216500Y-60587000D02*
X66156500Y-60587000D01*
X66156500Y-60587000D02*
X66156500Y-62857000D01*
X66156500Y-62857000D02*
X70216500Y-62857000D01*
D12*
G04 #@! TO.C,U2*
X87087000Y-119677000D02*
X87137000Y-119677000D01*
X87087000Y-115527000D02*
X87232000Y-115527000D01*
X92237000Y-115527000D02*
X92092000Y-115527000D01*
X92237000Y-119677000D02*
X92092000Y-119677000D01*
X87087000Y-119677000D02*
X87087000Y-115527000D01*
X92237000Y-119677000D02*
X92237000Y-115527000D01*
X87137000Y-119677000D02*
X87137000Y-121077000D01*
D13*
G04 #@! TO.C,R6*
X68964564Y-59584000D02*
X67760436Y-59584000D01*
X68964564Y-57764000D02*
X67760436Y-57764000D01*
G04 #@! TO.C,R5*
X69575000Y-114992564D02*
X69575000Y-113788436D01*
X71395000Y-114992564D02*
X71395000Y-113788436D01*
G04 #@! TO.C,R4*
X66273000Y-113734436D02*
X66273000Y-114938564D01*
X68093000Y-113734436D02*
X68093000Y-114938564D01*
G04 #@! TO.C,U1*
X72778000Y-68960000D02*
X72778000Y-70460000D01*
X72778000Y-70460000D02*
X74588000Y-70460000D01*
X74588000Y-70460000D02*
X74588000Y-75585000D01*
X83178000Y-68960000D02*
X83178000Y-70460000D01*
X83178000Y-70460000D02*
X81368000Y-70460000D01*
X81368000Y-70460000D02*
X81368000Y-71560000D01*
G04 #@! TO.C,C2*
X86466000Y-71939564D02*
X86466000Y-70735436D01*
X88286000Y-71939564D02*
X88286000Y-70735436D01*
G04 #@! TO.C,C4*
X95779000Y-58223564D02*
X95779000Y-57019436D01*
X93959000Y-58223564D02*
X93959000Y-57019436D01*
G04 #@! TO.C,C5*
X85492000Y-55822436D02*
X85492000Y-57026564D01*
X83672000Y-55822436D02*
X83672000Y-57026564D01*
G04 #@! TO.C,C1*
X70832000Y-65723500D02*
X69132000Y-65723500D01*
X65312000Y-65723500D02*
X67012000Y-65723500D01*
X65312000Y-70179063D02*
X65312000Y-65723500D01*
X70832000Y-70179063D02*
X70832000Y-65723500D01*
X69767563Y-71243500D02*
X69132000Y-71243500D01*
X66376437Y-71243500D02*
X67012000Y-71243500D01*
X66376437Y-71243500D02*
X65312000Y-70179063D01*
X69767563Y-71243500D02*
X70832000Y-70179063D01*
G04 #@! TO.C,J7*
X62925000Y-70164000D02*
X61595000Y-70164000D01*
X62925000Y-68834000D02*
X62925000Y-70164000D01*
X62925000Y-67564000D02*
X60265000Y-67564000D01*
X60265000Y-67564000D02*
X60265000Y-64964000D01*
X62925000Y-67564000D02*
X62925000Y-64964000D01*
X62925000Y-64964000D02*
X60265000Y-64964000D01*
G04 #@! TO.C,J1*
X60011000Y-88198000D02*
X62671000Y-88198000D01*
X60011000Y-83058000D02*
X60011000Y-88198000D01*
X62671000Y-83058000D02*
X62671000Y-88198000D01*
X60011000Y-83058000D02*
X62671000Y-83058000D01*
X60011000Y-81788000D02*
X60011000Y-80458000D01*
X60011000Y-80458000D02*
X61341000Y-80458000D01*
G04 #@! TO.C,J2*
X60011000Y-93285000D02*
X61341000Y-93285000D01*
X60011000Y-94615000D02*
X60011000Y-93285000D01*
X60011000Y-95885000D02*
X62671000Y-95885000D01*
X62671000Y-95885000D02*
X62671000Y-101025000D01*
X60011000Y-95885000D02*
X60011000Y-101025000D01*
X60011000Y-101025000D02*
X62671000Y-101025000D01*
G04 #@! TO.C,J6*
X91634000Y-130362000D02*
X91634000Y-129032000D01*
X92964000Y-130362000D02*
X91634000Y-130362000D01*
X94234000Y-130362000D02*
X94234000Y-127702000D01*
X94234000Y-127702000D02*
X99374000Y-127702000D01*
X94234000Y-130362000D02*
X99374000Y-130362000D01*
X99374000Y-130362000D02*
X99374000Y-127702000D01*
G04 #@! TO.C,J3*
X59630000Y-117535000D02*
X62290000Y-117535000D01*
X59630000Y-112395000D02*
X59630000Y-117535000D01*
X62290000Y-112395000D02*
X62290000Y-117535000D01*
X59630000Y-112395000D02*
X62290000Y-112395000D01*
X59630000Y-111125000D02*
X59630000Y-109795000D01*
X59630000Y-109795000D02*
X60960000Y-109795000D01*
G04 #@! TO.C,Q7*
X138181000Y-82675000D02*
X138181000Y-83775000D01*
X138451000Y-82675000D02*
X138181000Y-82675000D01*
X138451000Y-81175000D02*
X138451000Y-82675000D01*
X131821000Y-82675000D02*
X131821000Y-85505000D01*
X131551000Y-82675000D02*
X131821000Y-82675000D01*
X131551000Y-81175000D02*
X131551000Y-82675000D01*
G04 #@! TO.C,Q6*
X125116000Y-111865000D02*
X125116000Y-110365000D01*
X125116000Y-110365000D02*
X124846000Y-110365000D01*
X124846000Y-110365000D02*
X124846000Y-107535000D01*
X118216000Y-111865000D02*
X118216000Y-110365000D01*
X118216000Y-110365000D02*
X118486000Y-110365000D01*
X118486000Y-110365000D02*
X118486000Y-109265000D01*
G04 #@! TO.C,Q5*
X124211000Y-82421000D02*
X124211000Y-83521000D01*
X124481000Y-82421000D02*
X124211000Y-82421000D01*
X124481000Y-80921000D02*
X124481000Y-82421000D01*
X117851000Y-82421000D02*
X117851000Y-85251000D01*
X117581000Y-82421000D02*
X117851000Y-82421000D01*
X117581000Y-80921000D02*
X117581000Y-82421000D01*
G04 #@! TO.C,Q4*
X110511000Y-111611000D02*
X110511000Y-110111000D01*
X110511000Y-110111000D02*
X110241000Y-110111000D01*
X110241000Y-110111000D02*
X110241000Y-107281000D01*
X103611000Y-111611000D02*
X103611000Y-110111000D01*
X103611000Y-110111000D02*
X103881000Y-110111000D01*
X103881000Y-110111000D02*
X103881000Y-109011000D01*
G04 #@! TO.C,Q3*
X109986000Y-82318000D02*
X109986000Y-83418000D01*
X110256000Y-82318000D02*
X109986000Y-82318000D01*
X110256000Y-80818000D02*
X110256000Y-82318000D01*
X103626000Y-82318000D02*
X103626000Y-85148000D01*
X103356000Y-82318000D02*
X103626000Y-82318000D01*
X103356000Y-80818000D02*
X103356000Y-82318000D01*
G04 #@! TO.C,Q8*
X139467000Y-111992000D02*
X139467000Y-110492000D01*
X139467000Y-110492000D02*
X139197000Y-110492000D01*
X139197000Y-110492000D02*
X139197000Y-107662000D01*
X132567000Y-111992000D02*
X132567000Y-110492000D01*
X132567000Y-110492000D02*
X132837000Y-110492000D01*
X132837000Y-110492000D02*
X132837000Y-109392000D01*
G04 #@! TO.C,D11*
X114919000Y-76413000D02*
X114919000Y-80263000D01*
X112919000Y-76413000D02*
X112919000Y-80263000D01*
X114919000Y-76413000D02*
X112919000Y-76413000D01*
G04 #@! TO.C,D12*
X112030000Y-116246000D02*
X114030000Y-116246000D01*
X114030000Y-116246000D02*
X114030000Y-112396000D01*
X112030000Y-116246000D02*
X112030000Y-112396000D01*
G04 #@! TO.C,D13*
X129016000Y-76540000D02*
X129016000Y-80390000D01*
X127016000Y-76540000D02*
X127016000Y-80390000D01*
X129016000Y-76540000D02*
X127016000Y-76540000D01*
G04 #@! TO.C,D14*
X127524000Y-116630000D02*
X129524000Y-116630000D01*
X129524000Y-116630000D02*
X129524000Y-112780000D01*
X127524000Y-116630000D02*
X127524000Y-112780000D01*
G04 #@! TO.C,D15*
X143875000Y-76286000D02*
X143875000Y-80136000D01*
X141875000Y-76286000D02*
X141875000Y-80136000D01*
X143875000Y-76286000D02*
X141875000Y-76286000D01*
G04 #@! TO.C,D16*
X142002000Y-115992000D02*
X144002000Y-115992000D01*
X144002000Y-115992000D02*
X144002000Y-112142000D01*
X142002000Y-115992000D02*
X142002000Y-112142000D01*
G04 #@! TO.C,C16*
X98658000Y-79797658D02*
X98658000Y-81001786D01*
X100478000Y-79797658D02*
X100478000Y-81001786D01*
G04 #@! TO.C,C14*
X97049000Y-102939436D02*
X97049000Y-104143564D01*
X95229000Y-102939436D02*
X95229000Y-104143564D01*
G04 #@! TO.C,C11*
X75688436Y-106701000D02*
X76892564Y-106701000D01*
X75688436Y-104881000D02*
X76892564Y-104881000D01*
G04 #@! TO.C,C12*
X97049000Y-90583936D02*
X97049000Y-91788064D01*
X95229000Y-90583936D02*
X95229000Y-91788064D01*
G04 #@! TO.C,C15*
X99547000Y-90456936D02*
X99547000Y-91661064D01*
X101367000Y-90456936D02*
X101367000Y-91661064D01*
G04 #@! TO.C,C13*
X96414000Y-79834158D02*
X96414000Y-81038286D01*
X94594000Y-79834158D02*
X94594000Y-81038286D01*
G04 #@! TO.C,C17*
X99420000Y-102902936D02*
X99420000Y-104107064D01*
X101240000Y-102902936D02*
X101240000Y-104107064D01*
G04 #@! TO.C,C9*
X75253436Y-80116000D02*
X76457564Y-80116000D01*
X75253436Y-81936000D02*
X76457564Y-81936000D01*
G04 #@! TO.C,C8*
X71975000Y-106519000D02*
X71975000Y-104819000D01*
X71975000Y-100999000D02*
X71975000Y-102699000D01*
X67519437Y-100999000D02*
X71975000Y-100999000D01*
X67519437Y-106519000D02*
X71975000Y-106519000D01*
X66455000Y-105454563D02*
X66455000Y-104819000D01*
X66455000Y-102063437D02*
X66455000Y-102699000D01*
X66455000Y-102063437D02*
X67519437Y-100999000D01*
X66455000Y-105454563D02*
X67519437Y-106519000D01*
G04 #@! TO.C,C7*
X66455000Y-92246563D02*
X67519437Y-93311000D01*
X66455000Y-88855437D02*
X67519437Y-87791000D01*
X66455000Y-88855437D02*
X66455000Y-89491000D01*
X66455000Y-92246563D02*
X66455000Y-91611000D01*
X67519437Y-93311000D02*
X71975000Y-93311000D01*
X67519437Y-87791000D02*
X71975000Y-87791000D01*
X71975000Y-87791000D02*
X71975000Y-89491000D01*
X71975000Y-93311000D02*
X71975000Y-91611000D01*
G04 #@! TO.C,C6*
X72071500Y-81627000D02*
X72071500Y-79927000D01*
X72071500Y-76107000D02*
X72071500Y-77807000D01*
X67615937Y-76107000D02*
X72071500Y-76107000D01*
X67615937Y-81627000D02*
X72071500Y-81627000D01*
X66551500Y-80562563D02*
X66551500Y-79927000D01*
X66551500Y-77171437D02*
X66551500Y-77807000D01*
X66551500Y-77171437D02*
X67615937Y-76107000D01*
X66551500Y-80562563D02*
X67615937Y-81627000D01*
G04 #@! TO.C,D4*
X88443000Y-102989000D02*
X92503000Y-102989000D01*
X92503000Y-102989000D02*
X92503000Y-100719000D01*
X92503000Y-100719000D02*
X88443000Y-100719000D01*
G04 #@! TO.C,D3*
X92630000Y-89416000D02*
X88570000Y-89416000D01*
X92630000Y-91686000D02*
X92630000Y-89416000D01*
X88570000Y-91686000D02*
X92630000Y-91686000D01*
G04 #@! TO.C,D2*
X88225500Y-79748000D02*
X92285500Y-79748000D01*
X92285500Y-79748000D02*
X92285500Y-77478000D01*
X92285500Y-77478000D02*
X88225500Y-77478000D01*
G04 #@! TO.C,D5*
X110736000Y-93519000D02*
X110736000Y-89459000D01*
X108466000Y-93519000D02*
X110736000Y-93519000D01*
X108466000Y-89459000D02*
X108466000Y-93519000D01*
G04 #@! TO.C,D7*
X122182000Y-89241500D02*
X122182000Y-93301500D01*
X122182000Y-93301500D02*
X124452000Y-93301500D01*
X124452000Y-93301500D02*
X124452000Y-89241500D01*
G04 #@! TO.C,D8*
X122309000Y-97833500D02*
X122309000Y-101893500D01*
X124579000Y-97833500D02*
X122309000Y-97833500D01*
X124579000Y-101893500D02*
X124579000Y-97833500D01*
G04 #@! TO.C,D10*
X138930000Y-101385500D02*
X138930000Y-97325500D01*
X138930000Y-97325500D02*
X136660000Y-97325500D01*
X136660000Y-97325500D02*
X136660000Y-101385500D01*
G04 #@! TO.C,D6*
X108720000Y-97108000D02*
X108720000Y-101168000D01*
X110990000Y-97108000D02*
X108720000Y-97108000D01*
X110990000Y-101168000D02*
X110990000Y-97108000D01*
G04 #@! TO.C,D9*
X136660000Y-89622500D02*
X136660000Y-93682500D01*
X136660000Y-93682500D02*
X138930000Y-93682500D01*
X138930000Y-93682500D02*
X138930000Y-89622500D01*
G04 #@! TO.C,R13*
X142092000Y-106585936D02*
X142092000Y-107790064D01*
X143912000Y-106585936D02*
X143912000Y-107790064D01*
G04 #@! TO.C,R14*
X113136000Y-85057064D02*
X113136000Y-83852936D01*
X114956000Y-85057064D02*
X114956000Y-83852936D01*
G04 #@! TO.C,R15*
X112120000Y-107728936D02*
X112120000Y-108933064D01*
X113940000Y-107728936D02*
X113940000Y-108933064D01*
G04 #@! TO.C,R16*
X127233000Y-85692064D02*
X127233000Y-84487936D01*
X129053000Y-85692064D02*
X129053000Y-84487936D01*
G04 #@! TO.C,R18*
X143785000Y-85311064D02*
X143785000Y-84106936D01*
X141965000Y-85311064D02*
X141965000Y-84106936D01*
G04 #@! TO.C,R17*
X129561000Y-107130436D02*
X129561000Y-108334564D01*
X127741000Y-107130436D02*
X127741000Y-108334564D01*
G04 #@! TO.C,R12*
X130878000Y-98150936D02*
X130878000Y-102255064D01*
X134298000Y-98150936D02*
X134298000Y-102255064D01*
G04 #@! TO.C,R11*
X134425000Y-89260936D02*
X134425000Y-93365064D01*
X131005000Y-89260936D02*
X131005000Y-93365064D01*
G04 #@! TO.C,R10*
X117035000Y-98023936D02*
X117035000Y-102128064D01*
X120455000Y-98023936D02*
X120455000Y-102128064D01*
G04 #@! TO.C,R9*
X120455000Y-89006936D02*
X120455000Y-93111064D01*
X117035000Y-89006936D02*
X117035000Y-93111064D01*
G04 #@! TO.C,R8*
X103446000Y-97830436D02*
X103446000Y-101934564D01*
X106866000Y-97830436D02*
X106866000Y-101934564D01*
G04 #@! TO.C,R7*
X107120000Y-88686436D02*
X107120000Y-92790564D01*
X103700000Y-88686436D02*
X103700000Y-92790564D01*
D14*
G04 #@! TO.C,U5*
X83244000Y-93263000D02*
G75*
G03X83244000Y-93263000I-200000J0D01*
G01*
D16*
X85299000Y-93308000D02*
X89199000Y-93308000D01*
X85299000Y-98208000D02*
X89199000Y-98208000D01*
G04 #@! TO.C,U6*
X85172000Y-109130000D02*
X89072000Y-109130000D01*
X85172000Y-104230000D02*
X89072000Y-104230000D01*
D14*
X83117000Y-104185000D02*
G75*
G03X83117000Y-104185000I-200000J0D01*
G01*
G04 #@! TO.C,U4*
X83244000Y-81198000D02*
G75*
G03X83244000Y-81198000I-200000J0D01*
G01*
D16*
X85299000Y-81243000D02*
X89199000Y-81243000D01*
X85299000Y-86143000D02*
X89199000Y-86143000D01*
G04 #@! TD*
G04 #@! TO.C,U3*
D12*
X87630095Y-62825380D02*
X87630095Y-63634904D01*
X87677714Y-63730142D01*
X87725333Y-63777761D01*
X87820571Y-63825380D01*
X88011047Y-63825380D01*
X88106285Y-63777761D01*
X88153904Y-63730142D01*
X88201523Y-63634904D01*
X88201523Y-62825380D01*
X88582476Y-62825380D02*
X89201523Y-62825380D01*
X88868190Y-63206333D01*
X89011047Y-63206333D01*
X89106285Y-63253952D01*
X89153904Y-63301571D01*
X89201523Y-63396809D01*
X89201523Y-63634904D01*
X89153904Y-63730142D01*
X89106285Y-63777761D01*
X89011047Y-63825380D01*
X88725333Y-63825380D01*
X88630095Y-63777761D01*
X88582476Y-63730142D01*
G04 #@! TO.C,C33*
X85616142Y-115922357D02*
X85663761Y-115969976D01*
X85711380Y-116112833D01*
X85711380Y-116208071D01*
X85663761Y-116350928D01*
X85568523Y-116446166D01*
X85473285Y-116493785D01*
X85282809Y-116541404D01*
X85139952Y-116541404D01*
X84949476Y-116493785D01*
X84854238Y-116446166D01*
X84759000Y-116350928D01*
X84711380Y-116208071D01*
X84711380Y-116112833D01*
X84759000Y-115969976D01*
X84806619Y-115922357D01*
X84711380Y-115589023D02*
X84711380Y-114969976D01*
X85092333Y-115303309D01*
X85092333Y-115160452D01*
X85139952Y-115065214D01*
X85187571Y-115017595D01*
X85282809Y-114969976D01*
X85520904Y-114969976D01*
X85616142Y-115017595D01*
X85663761Y-115065214D01*
X85711380Y-115160452D01*
X85711380Y-115446166D01*
X85663761Y-115541404D01*
X85616142Y-115589023D01*
X84711380Y-114636642D02*
X84711380Y-114017595D01*
X85092333Y-114350928D01*
X85092333Y-114208071D01*
X85139952Y-114112833D01*
X85187571Y-114065214D01*
X85282809Y-114017595D01*
X85520904Y-114017595D01*
X85616142Y-114065214D01*
X85663761Y-114112833D01*
X85711380Y-114208071D01*
X85711380Y-114493785D01*
X85663761Y-114589023D01*
X85616142Y-114636642D01*
G04 #@! TO.C,C24*
X159065142Y-56613357D02*
X159112761Y-56660976D01*
X159160380Y-56803833D01*
X159160380Y-56899071D01*
X159112761Y-57041928D01*
X159017523Y-57137166D01*
X158922285Y-57184785D01*
X158731809Y-57232404D01*
X158588952Y-57232404D01*
X158398476Y-57184785D01*
X158303238Y-57137166D01*
X158208000Y-57041928D01*
X158160380Y-56899071D01*
X158160380Y-56803833D01*
X158208000Y-56660976D01*
X158255619Y-56613357D01*
X158255619Y-56232404D02*
X158208000Y-56184785D01*
X158160380Y-56089547D01*
X158160380Y-55851452D01*
X158208000Y-55756214D01*
X158255619Y-55708595D01*
X158350857Y-55660976D01*
X158446095Y-55660976D01*
X158588952Y-55708595D01*
X159160380Y-56280023D01*
X159160380Y-55660976D01*
X158493714Y-54803833D02*
X159160380Y-54803833D01*
X158112761Y-55041928D02*
X158827047Y-55280023D01*
X158827047Y-54660976D01*
G04 #@! TO.C,C22*
X154239142Y-56613357D02*
X154286761Y-56660976D01*
X154334380Y-56803833D01*
X154334380Y-56899071D01*
X154286761Y-57041928D01*
X154191523Y-57137166D01*
X154096285Y-57184785D01*
X153905809Y-57232404D01*
X153762952Y-57232404D01*
X153572476Y-57184785D01*
X153477238Y-57137166D01*
X153382000Y-57041928D01*
X153334380Y-56899071D01*
X153334380Y-56803833D01*
X153382000Y-56660976D01*
X153429619Y-56613357D01*
X153429619Y-56232404D02*
X153382000Y-56184785D01*
X153334380Y-56089547D01*
X153334380Y-55851452D01*
X153382000Y-55756214D01*
X153429619Y-55708595D01*
X153524857Y-55660976D01*
X153620095Y-55660976D01*
X153762952Y-55708595D01*
X154334380Y-56280023D01*
X154334380Y-55660976D01*
X153429619Y-55280023D02*
X153382000Y-55232404D01*
X153334380Y-55137166D01*
X153334380Y-54899071D01*
X153382000Y-54803833D01*
X153429619Y-54756214D01*
X153524857Y-54708595D01*
X153620095Y-54708595D01*
X153762952Y-54756214D01*
X154334380Y-55327642D01*
X154334380Y-54708595D01*
G04 #@! TO.C,C21*
X149540142Y-56649857D02*
X149587761Y-56697476D01*
X149635380Y-56840333D01*
X149635380Y-56935571D01*
X149587761Y-57078428D01*
X149492523Y-57173666D01*
X149397285Y-57221285D01*
X149206809Y-57268904D01*
X149063952Y-57268904D01*
X148873476Y-57221285D01*
X148778238Y-57173666D01*
X148683000Y-57078428D01*
X148635380Y-56935571D01*
X148635380Y-56840333D01*
X148683000Y-56697476D01*
X148730619Y-56649857D01*
X148730619Y-56268904D02*
X148683000Y-56221285D01*
X148635380Y-56126047D01*
X148635380Y-55887952D01*
X148683000Y-55792714D01*
X148730619Y-55745095D01*
X148825857Y-55697476D01*
X148921095Y-55697476D01*
X149063952Y-55745095D01*
X149635380Y-56316523D01*
X149635380Y-55697476D01*
X149635380Y-54745095D02*
X149635380Y-55316523D01*
X149635380Y-55030809D02*
X148635380Y-55030809D01*
X148778238Y-55126047D01*
X148873476Y-55221285D01*
X148921095Y-55316523D01*
G04 #@! TO.C,C20*
X149413142Y-66646357D02*
X149460761Y-66693976D01*
X149508380Y-66836833D01*
X149508380Y-66932071D01*
X149460761Y-67074928D01*
X149365523Y-67170166D01*
X149270285Y-67217785D01*
X149079809Y-67265404D01*
X148936952Y-67265404D01*
X148746476Y-67217785D01*
X148651238Y-67170166D01*
X148556000Y-67074928D01*
X148508380Y-66932071D01*
X148508380Y-66836833D01*
X148556000Y-66693976D01*
X148603619Y-66646357D01*
X148603619Y-66265404D02*
X148556000Y-66217785D01*
X148508380Y-66122547D01*
X148508380Y-65884452D01*
X148556000Y-65789214D01*
X148603619Y-65741595D01*
X148698857Y-65693976D01*
X148794095Y-65693976D01*
X148936952Y-65741595D01*
X149508380Y-66313023D01*
X149508380Y-65693976D01*
X148508380Y-65074928D02*
X148508380Y-64979690D01*
X148556000Y-64884452D01*
X148603619Y-64836833D01*
X148698857Y-64789214D01*
X148889333Y-64741595D01*
X149127428Y-64741595D01*
X149317904Y-64789214D01*
X149413142Y-64836833D01*
X149460761Y-64884452D01*
X149508380Y-64979690D01*
X149508380Y-65074928D01*
X149460761Y-65170166D01*
X149413142Y-65217785D01*
X149317904Y-65265404D01*
X149127428Y-65313023D01*
X148889333Y-65313023D01*
X148698857Y-65265404D01*
X148603619Y-65217785D01*
X148556000Y-65170166D01*
X148508380Y-65074928D01*
G04 #@! TO.C,C19*
X135410642Y-56322142D02*
X135363023Y-56369761D01*
X135220166Y-56417380D01*
X135124928Y-56417380D01*
X134982071Y-56369761D01*
X134886833Y-56274523D01*
X134839214Y-56179285D01*
X134791595Y-55988809D01*
X134791595Y-55845952D01*
X134839214Y-55655476D01*
X134886833Y-55560238D01*
X134982071Y-55465000D01*
X135124928Y-55417380D01*
X135220166Y-55417380D01*
X135363023Y-55465000D01*
X135410642Y-55512619D01*
X136363023Y-56417380D02*
X135791595Y-56417380D01*
X136077309Y-56417380D02*
X136077309Y-55417380D01*
X135982071Y-55560238D01*
X135886833Y-55655476D01*
X135791595Y-55703095D01*
X136839214Y-56417380D02*
X137029690Y-56417380D01*
X137124928Y-56369761D01*
X137172547Y-56322142D01*
X137267785Y-56179285D01*
X137315404Y-55988809D01*
X137315404Y-55607857D01*
X137267785Y-55512619D01*
X137220166Y-55465000D01*
X137124928Y-55417380D01*
X136934452Y-55417380D01*
X136839214Y-55465000D01*
X136791595Y-55512619D01*
X136743976Y-55607857D01*
X136743976Y-55845952D01*
X136791595Y-55941190D01*
X136839214Y-55988809D01*
X136934452Y-56036428D01*
X137124928Y-56036428D01*
X137220166Y-55988809D01*
X137267785Y-55941190D01*
X137315404Y-55845952D01*
G04 #@! TO.C,C18*
X135882142Y-61275142D02*
X135834523Y-61322761D01*
X135691666Y-61370380D01*
X135596428Y-61370380D01*
X135453571Y-61322761D01*
X135358333Y-61227523D01*
X135310714Y-61132285D01*
X135263095Y-60941809D01*
X135263095Y-60798952D01*
X135310714Y-60608476D01*
X135358333Y-60513238D01*
X135453571Y-60418000D01*
X135596428Y-60370380D01*
X135691666Y-60370380D01*
X135834523Y-60418000D01*
X135882142Y-60465619D01*
X136834523Y-61370380D02*
X136263095Y-61370380D01*
X136548809Y-61370380D02*
X136548809Y-60370380D01*
X136453571Y-60513238D01*
X136358333Y-60608476D01*
X136263095Y-60656095D01*
X137405952Y-60798952D02*
X137310714Y-60751333D01*
X137263095Y-60703714D01*
X137215476Y-60608476D01*
X137215476Y-60560857D01*
X137263095Y-60465619D01*
X137310714Y-60418000D01*
X137405952Y-60370380D01*
X137596428Y-60370380D01*
X137691666Y-60418000D01*
X137739285Y-60465619D01*
X137786904Y-60560857D01*
X137786904Y-60608476D01*
X137739285Y-60703714D01*
X137691666Y-60751333D01*
X137596428Y-60798952D01*
X137405952Y-60798952D01*
X137310714Y-60846571D01*
X137263095Y-60894190D01*
X137215476Y-60989428D01*
X137215476Y-61179904D01*
X137263095Y-61275142D01*
X137310714Y-61322761D01*
X137405952Y-61370380D01*
X137596428Y-61370380D01*
X137691666Y-61322761D01*
X137739285Y-61275142D01*
X137786904Y-61179904D01*
X137786904Y-60989428D01*
X137739285Y-60894190D01*
X137691666Y-60846571D01*
X137596428Y-60798952D01*
G04 #@! TO.C,C3*
X65593142Y-120472166D02*
X65640761Y-120519785D01*
X65688380Y-120662642D01*
X65688380Y-120757880D01*
X65640761Y-120900738D01*
X65545523Y-120995976D01*
X65450285Y-121043595D01*
X65259809Y-121091214D01*
X65116952Y-121091214D01*
X64926476Y-121043595D01*
X64831238Y-120995976D01*
X64736000Y-120900738D01*
X64688380Y-120757880D01*
X64688380Y-120662642D01*
X64736000Y-120519785D01*
X64783619Y-120472166D01*
X64688380Y-120138833D02*
X64688380Y-119519785D01*
X65069333Y-119853119D01*
X65069333Y-119710261D01*
X65116952Y-119615023D01*
X65164571Y-119567404D01*
X65259809Y-119519785D01*
X65497904Y-119519785D01*
X65593142Y-119567404D01*
X65640761Y-119615023D01*
X65688380Y-119710261D01*
X65688380Y-119995976D01*
X65640761Y-120091214D01*
X65593142Y-120138833D01*
G04 #@! TO.C,U7*
D17*
X142767721Y-69819075D02*
X142767721Y-71148038D01*
X142845895Y-71304387D01*
X142924070Y-71382561D01*
X143080418Y-71460735D01*
X143393115Y-71460735D01*
X143549464Y-71382561D01*
X143627638Y-71304387D01*
X143705812Y-71148038D01*
X143705812Y-69819075D01*
X144331207Y-69819075D02*
X145425647Y-69819075D01*
X144722078Y-71460735D01*
X138069385Y-72370235D02*
X137288085Y-72370235D01*
X137288085Y-70729505D01*
X138616295Y-72370235D02*
X138616295Y-70729505D01*
X139163205Y-71901455D01*
X139710115Y-70729505D01*
X139710115Y-72370235D01*
X140335155Y-70729505D02*
X141350845Y-70729505D01*
X140803935Y-71354545D01*
X141038325Y-71354545D01*
X141194585Y-71432675D01*
X141272715Y-71510805D01*
X141350845Y-71667065D01*
X141350845Y-72057715D01*
X141272715Y-72213975D01*
X141194585Y-72292105D01*
X141038325Y-72370235D01*
X140569545Y-72370235D01*
X140413285Y-72292105D01*
X140335155Y-72213975D01*
X142132145Y-72370235D02*
X142444665Y-72370235D01*
X142600925Y-72292105D01*
X142679055Y-72213975D01*
X142835315Y-71979585D01*
X142913445Y-71667065D01*
X142913445Y-71042025D01*
X142835315Y-70885765D01*
X142757185Y-70807635D01*
X142600925Y-70729505D01*
X142288405Y-70729505D01*
X142132145Y-70807635D01*
X142054015Y-70885765D01*
X141975885Y-71042025D01*
X141975885Y-71432675D01*
X142054015Y-71588935D01*
X142132145Y-71667065D01*
X142288405Y-71745195D01*
X142600925Y-71745195D01*
X142757185Y-71667065D01*
X142835315Y-71588935D01*
X142913445Y-71432675D01*
X143460355Y-70729505D02*
X144476045Y-70729505D01*
X143929135Y-71354545D01*
X144163525Y-71354545D01*
X144319785Y-71432675D01*
X144397915Y-71510805D01*
X144476045Y-71667065D01*
X144476045Y-72057715D01*
X144397915Y-72213975D01*
X144319785Y-72292105D01*
X144163525Y-72370235D01*
X143694745Y-72370235D01*
X143538485Y-72292105D01*
X143460355Y-72213975D01*
G04 #@! TO.C,U8*
X142513721Y-61945075D02*
X142513721Y-63274038D01*
X142591895Y-63430387D01*
X142670070Y-63508561D01*
X142826418Y-63586735D01*
X143139115Y-63586735D01*
X143295464Y-63508561D01*
X143373638Y-63430387D01*
X143451812Y-63274038D01*
X143451812Y-61945075D01*
X144468078Y-62648644D02*
X144311730Y-62570470D01*
X144233555Y-62492295D01*
X144155381Y-62335947D01*
X144155381Y-62257772D01*
X144233555Y-62101424D01*
X144311730Y-62023250D01*
X144468078Y-61945075D01*
X144780775Y-61945075D01*
X144937124Y-62023250D01*
X145015298Y-62101424D01*
X145093472Y-62257772D01*
X145093472Y-62335947D01*
X145015298Y-62492295D01*
X144937124Y-62570470D01*
X144780775Y-62648644D01*
X144468078Y-62648644D01*
X144311730Y-62726818D01*
X144233555Y-62804992D01*
X144155381Y-62961341D01*
X144155381Y-63274038D01*
X144233555Y-63430387D01*
X144311730Y-63508561D01*
X144468078Y-63586735D01*
X144780775Y-63586735D01*
X144937124Y-63508561D01*
X145015298Y-63430387D01*
X145093472Y-63274038D01*
X145093472Y-62961341D01*
X145015298Y-62804992D01*
X144937124Y-62726818D01*
X144780775Y-62648644D01*
X133497385Y-54590235D02*
X132716085Y-54590235D01*
X132716085Y-52949505D01*
X134044295Y-54590235D02*
X134044295Y-52949505D01*
X134591205Y-54121455D01*
X135138115Y-52949505D01*
X135138115Y-54590235D01*
X135763155Y-52949505D02*
X136778845Y-52949505D01*
X136231935Y-53574545D01*
X136466325Y-53574545D01*
X136622585Y-53652675D01*
X136700715Y-53730805D01*
X136778845Y-53887065D01*
X136778845Y-54277715D01*
X136700715Y-54433975D01*
X136622585Y-54512105D01*
X136466325Y-54590235D01*
X135997545Y-54590235D01*
X135841285Y-54512105D01*
X135763155Y-54433975D01*
X137560145Y-54590235D02*
X137872665Y-54590235D01*
X138028925Y-54512105D01*
X138107055Y-54433975D01*
X138263315Y-54199585D01*
X138341445Y-53887065D01*
X138341445Y-53262025D01*
X138263315Y-53105765D01*
X138185185Y-53027635D01*
X138028925Y-52949505D01*
X137716405Y-52949505D01*
X137560145Y-53027635D01*
X137482015Y-53105765D01*
X137403885Y-53262025D01*
X137403885Y-53652675D01*
X137482015Y-53808935D01*
X137560145Y-53887065D01*
X137716405Y-53965195D01*
X138028925Y-53965195D01*
X138185185Y-53887065D01*
X138263315Y-53808935D01*
X138341445Y-53652675D01*
X138888355Y-52949505D02*
X139904045Y-52949505D01*
X139357135Y-53574545D01*
X139591525Y-53574545D01*
X139747785Y-53652675D01*
X139825915Y-53730805D01*
X139904045Y-53887065D01*
X139904045Y-54277715D01*
X139825915Y-54433975D01*
X139747785Y-54512105D01*
X139591525Y-54590235D01*
X139122745Y-54590235D01*
X138966485Y-54512105D01*
X138888355Y-54433975D01*
G04 #@! TO.C,R30*
D12*
X105269380Y-126790357D02*
X104793190Y-127123690D01*
X105269380Y-127361785D02*
X104269380Y-127361785D01*
X104269380Y-126980833D01*
X104317000Y-126885595D01*
X104364619Y-126837976D01*
X104459857Y-126790357D01*
X104602714Y-126790357D01*
X104697952Y-126837976D01*
X104745571Y-126885595D01*
X104793190Y-126980833D01*
X104793190Y-127361785D01*
X104269380Y-126457023D02*
X104269380Y-125837976D01*
X104650333Y-126171309D01*
X104650333Y-126028452D01*
X104697952Y-125933214D01*
X104745571Y-125885595D01*
X104840809Y-125837976D01*
X105078904Y-125837976D01*
X105174142Y-125885595D01*
X105221761Y-125933214D01*
X105269380Y-126028452D01*
X105269380Y-126314166D01*
X105221761Y-126409404D01*
X105174142Y-126457023D01*
X104269380Y-125218928D02*
X104269380Y-125123690D01*
X104317000Y-125028452D01*
X104364619Y-124980833D01*
X104459857Y-124933214D01*
X104650333Y-124885595D01*
X104888428Y-124885595D01*
X105078904Y-124933214D01*
X105174142Y-124980833D01*
X105221761Y-125028452D01*
X105269380Y-125123690D01*
X105269380Y-125218928D01*
X105221761Y-125314166D01*
X105174142Y-125361785D01*
X105078904Y-125409404D01*
X104888428Y-125457023D01*
X104650333Y-125457023D01*
X104459857Y-125409404D01*
X104364619Y-125361785D01*
X104317000Y-125314166D01*
X104269380Y-125218928D01*
G04 #@! TO.C,R25*
X155350380Y-63979357D02*
X154874190Y-64312690D01*
X155350380Y-64550785D02*
X154350380Y-64550785D01*
X154350380Y-64169833D01*
X154398000Y-64074595D01*
X154445619Y-64026976D01*
X154540857Y-63979357D01*
X154683714Y-63979357D01*
X154778952Y-64026976D01*
X154826571Y-64074595D01*
X154874190Y-64169833D01*
X154874190Y-64550785D01*
X154445619Y-63598404D02*
X154398000Y-63550785D01*
X154350380Y-63455547D01*
X154350380Y-63217452D01*
X154398000Y-63122214D01*
X154445619Y-63074595D01*
X154540857Y-63026976D01*
X154636095Y-63026976D01*
X154778952Y-63074595D01*
X155350380Y-63646023D01*
X155350380Y-63026976D01*
X154350380Y-62122214D02*
X154350380Y-62598404D01*
X154826571Y-62646023D01*
X154778952Y-62598404D01*
X154731333Y-62503166D01*
X154731333Y-62265071D01*
X154778952Y-62169833D01*
X154826571Y-62122214D01*
X154921809Y-62074595D01*
X155159904Y-62074595D01*
X155255142Y-62122214D01*
X155302761Y-62169833D01*
X155350380Y-62265071D01*
X155350380Y-62503166D01*
X155302761Y-62598404D01*
X155255142Y-62646023D01*
G04 #@! TO.C,R23*
X144427642Y-93458380D02*
X144094309Y-92982190D01*
X143856214Y-93458380D02*
X143856214Y-92458380D01*
X144237166Y-92458380D01*
X144332404Y-92506000D01*
X144380023Y-92553619D01*
X144427642Y-92648857D01*
X144427642Y-92791714D01*
X144380023Y-92886952D01*
X144332404Y-92934571D01*
X144237166Y-92982190D01*
X143856214Y-92982190D01*
X144808595Y-92553619D02*
X144856214Y-92506000D01*
X144951452Y-92458380D01*
X145189547Y-92458380D01*
X145284785Y-92506000D01*
X145332404Y-92553619D01*
X145380023Y-92648857D01*
X145380023Y-92744095D01*
X145332404Y-92886952D01*
X144760976Y-93458380D01*
X145380023Y-93458380D01*
X145713357Y-92458380D02*
X146332404Y-92458380D01*
X145999071Y-92839333D01*
X146141928Y-92839333D01*
X146237166Y-92886952D01*
X146284785Y-92934571D01*
X146332404Y-93029809D01*
X146332404Y-93267904D01*
X146284785Y-93363142D01*
X146237166Y-93410761D01*
X146141928Y-93458380D01*
X145856214Y-93458380D01*
X145760976Y-93410761D01*
X145713357Y-93363142D01*
G04 #@! TO.C,R24*
X155350380Y-70456357D02*
X154874190Y-70789690D01*
X155350380Y-71027785D02*
X154350380Y-71027785D01*
X154350380Y-70646833D01*
X154398000Y-70551595D01*
X154445619Y-70503976D01*
X154540857Y-70456357D01*
X154683714Y-70456357D01*
X154778952Y-70503976D01*
X154826571Y-70551595D01*
X154874190Y-70646833D01*
X154874190Y-71027785D01*
X154445619Y-70075404D02*
X154398000Y-70027785D01*
X154350380Y-69932547D01*
X154350380Y-69694452D01*
X154398000Y-69599214D01*
X154445619Y-69551595D01*
X154540857Y-69503976D01*
X154636095Y-69503976D01*
X154778952Y-69551595D01*
X155350380Y-70123023D01*
X155350380Y-69503976D01*
X154683714Y-68646833D02*
X155350380Y-68646833D01*
X154302761Y-68884928D02*
X155017047Y-69123023D01*
X155017047Y-68503976D01*
G04 #@! TO.C,R26*
X159160380Y-70456357D02*
X158684190Y-70789690D01*
X159160380Y-71027785D02*
X158160380Y-71027785D01*
X158160380Y-70646833D01*
X158208000Y-70551595D01*
X158255619Y-70503976D01*
X158350857Y-70456357D01*
X158493714Y-70456357D01*
X158588952Y-70503976D01*
X158636571Y-70551595D01*
X158684190Y-70646833D01*
X158684190Y-71027785D01*
X158255619Y-70075404D02*
X158208000Y-70027785D01*
X158160380Y-69932547D01*
X158160380Y-69694452D01*
X158208000Y-69599214D01*
X158255619Y-69551595D01*
X158350857Y-69503976D01*
X158446095Y-69503976D01*
X158588952Y-69551595D01*
X159160380Y-70123023D01*
X159160380Y-69503976D01*
X158160380Y-68646833D02*
X158160380Y-68837309D01*
X158208000Y-68932547D01*
X158255619Y-68980166D01*
X158398476Y-69075404D01*
X158588952Y-69123023D01*
X158969904Y-69123023D01*
X159065142Y-69075404D01*
X159112761Y-69027785D01*
X159160380Y-68932547D01*
X159160380Y-68742071D01*
X159112761Y-68646833D01*
X159065142Y-68599214D01*
X158969904Y-68551595D01*
X158731809Y-68551595D01*
X158636571Y-68599214D01*
X158588952Y-68646833D01*
X158541333Y-68742071D01*
X158541333Y-68932547D01*
X158588952Y-69027785D01*
X158636571Y-69075404D01*
X158731809Y-69123023D01*
G04 #@! TO.C,R27*
X159033380Y-63852357D02*
X158557190Y-64185690D01*
X159033380Y-64423785D02*
X158033380Y-64423785D01*
X158033380Y-64042833D01*
X158081000Y-63947595D01*
X158128619Y-63899976D01*
X158223857Y-63852357D01*
X158366714Y-63852357D01*
X158461952Y-63899976D01*
X158509571Y-63947595D01*
X158557190Y-64042833D01*
X158557190Y-64423785D01*
X158128619Y-63471404D02*
X158081000Y-63423785D01*
X158033380Y-63328547D01*
X158033380Y-63090452D01*
X158081000Y-62995214D01*
X158128619Y-62947595D01*
X158223857Y-62899976D01*
X158319095Y-62899976D01*
X158461952Y-62947595D01*
X159033380Y-63519023D01*
X159033380Y-62899976D01*
X158033380Y-62566642D02*
X158033380Y-61899976D01*
X159033380Y-62328547D01*
G04 #@! TO.C,R28*
X91813142Y-122330380D02*
X91479809Y-121854190D01*
X91241714Y-122330380D02*
X91241714Y-121330380D01*
X91622666Y-121330380D01*
X91717904Y-121378000D01*
X91765523Y-121425619D01*
X91813142Y-121520857D01*
X91813142Y-121663714D01*
X91765523Y-121758952D01*
X91717904Y-121806571D01*
X91622666Y-121854190D01*
X91241714Y-121854190D01*
X92194095Y-121425619D02*
X92241714Y-121378000D01*
X92336952Y-121330380D01*
X92575047Y-121330380D01*
X92670285Y-121378000D01*
X92717904Y-121425619D01*
X92765523Y-121520857D01*
X92765523Y-121616095D01*
X92717904Y-121758952D01*
X92146476Y-122330380D01*
X92765523Y-122330380D01*
X93336952Y-121758952D02*
X93241714Y-121711333D01*
X93194095Y-121663714D01*
X93146476Y-121568476D01*
X93146476Y-121520857D01*
X93194095Y-121425619D01*
X93241714Y-121378000D01*
X93336952Y-121330380D01*
X93527428Y-121330380D01*
X93622666Y-121378000D01*
X93670285Y-121425619D01*
X93717904Y-121520857D01*
X93717904Y-121568476D01*
X93670285Y-121663714D01*
X93622666Y-121711333D01*
X93527428Y-121758952D01*
X93336952Y-121758952D01*
X93241714Y-121806571D01*
X93194095Y-121854190D01*
X93146476Y-121949428D01*
X93146476Y-122139904D01*
X93194095Y-122235142D01*
X93241714Y-122282761D01*
X93336952Y-122330380D01*
X93527428Y-122330380D01*
X93622666Y-122282761D01*
X93670285Y-122235142D01*
X93717904Y-122139904D01*
X93717904Y-121949428D01*
X93670285Y-121854190D01*
X93622666Y-121806571D01*
X93527428Y-121758952D01*
G04 #@! TO.C,R29*
X97401142Y-122457380D02*
X97067809Y-121981190D01*
X96829714Y-122457380D02*
X96829714Y-121457380D01*
X97210666Y-121457380D01*
X97305904Y-121505000D01*
X97353523Y-121552619D01*
X97401142Y-121647857D01*
X97401142Y-121790714D01*
X97353523Y-121885952D01*
X97305904Y-121933571D01*
X97210666Y-121981190D01*
X96829714Y-121981190D01*
X97782095Y-121552619D02*
X97829714Y-121505000D01*
X97924952Y-121457380D01*
X98163047Y-121457380D01*
X98258285Y-121505000D01*
X98305904Y-121552619D01*
X98353523Y-121647857D01*
X98353523Y-121743095D01*
X98305904Y-121885952D01*
X97734476Y-122457380D01*
X98353523Y-122457380D01*
X98829714Y-122457380D02*
X99020190Y-122457380D01*
X99115428Y-122409761D01*
X99163047Y-122362142D01*
X99258285Y-122219285D01*
X99305904Y-122028809D01*
X99305904Y-121647857D01*
X99258285Y-121552619D01*
X99210666Y-121505000D01*
X99115428Y-121457380D01*
X98924952Y-121457380D01*
X98829714Y-121505000D01*
X98782095Y-121552619D01*
X98734476Y-121647857D01*
X98734476Y-121885952D01*
X98782095Y-121981190D01*
X98829714Y-122028809D01*
X98924952Y-122076428D01*
X99115428Y-122076428D01*
X99210666Y-122028809D01*
X99258285Y-121981190D01*
X99305904Y-121885952D01*
G04 #@! TO.C,R32*
X163224380Y-63725357D02*
X162748190Y-64058690D01*
X163224380Y-64296785D02*
X162224380Y-64296785D01*
X162224380Y-63915833D01*
X162272000Y-63820595D01*
X162319619Y-63772976D01*
X162414857Y-63725357D01*
X162557714Y-63725357D01*
X162652952Y-63772976D01*
X162700571Y-63820595D01*
X162748190Y-63915833D01*
X162748190Y-64296785D01*
X162224380Y-63392023D02*
X162224380Y-62772976D01*
X162605333Y-63106309D01*
X162605333Y-62963452D01*
X162652952Y-62868214D01*
X162700571Y-62820595D01*
X162795809Y-62772976D01*
X163033904Y-62772976D01*
X163129142Y-62820595D01*
X163176761Y-62868214D01*
X163224380Y-62963452D01*
X163224380Y-63249166D01*
X163176761Y-63344404D01*
X163129142Y-63392023D01*
X162319619Y-62392023D02*
X162272000Y-62344404D01*
X162224380Y-62249166D01*
X162224380Y-62011071D01*
X162272000Y-61915833D01*
X162319619Y-61868214D01*
X162414857Y-61820595D01*
X162510095Y-61820595D01*
X162652952Y-61868214D01*
X163224380Y-62439642D01*
X163224380Y-61820595D01*
G04 #@! TO.C,R22*
X151074380Y-85224857D02*
X150598190Y-85558190D01*
X151074380Y-85796285D02*
X150074380Y-85796285D01*
X150074380Y-85415333D01*
X150122000Y-85320095D01*
X150169619Y-85272476D01*
X150264857Y-85224857D01*
X150407714Y-85224857D01*
X150502952Y-85272476D01*
X150550571Y-85320095D01*
X150598190Y-85415333D01*
X150598190Y-85796285D01*
X150169619Y-84843904D02*
X150122000Y-84796285D01*
X150074380Y-84701047D01*
X150074380Y-84462952D01*
X150122000Y-84367714D01*
X150169619Y-84320095D01*
X150264857Y-84272476D01*
X150360095Y-84272476D01*
X150502952Y-84320095D01*
X151074380Y-84891523D01*
X151074380Y-84272476D01*
X150169619Y-83891523D02*
X150122000Y-83843904D01*
X150074380Y-83748666D01*
X150074380Y-83510571D01*
X150122000Y-83415333D01*
X150169619Y-83367714D01*
X150264857Y-83320095D01*
X150360095Y-83320095D01*
X150502952Y-83367714D01*
X151074380Y-83939142D01*
X151074380Y-83320095D01*
G04 #@! TO.C,R21*
X145153142Y-88463380D02*
X144819809Y-87987190D01*
X144581714Y-88463380D02*
X144581714Y-87463380D01*
X144962666Y-87463380D01*
X145057904Y-87511000D01*
X145105523Y-87558619D01*
X145153142Y-87653857D01*
X145153142Y-87796714D01*
X145105523Y-87891952D01*
X145057904Y-87939571D01*
X144962666Y-87987190D01*
X144581714Y-87987190D01*
X145534095Y-87558619D02*
X145581714Y-87511000D01*
X145676952Y-87463380D01*
X145915047Y-87463380D01*
X146010285Y-87511000D01*
X146057904Y-87558619D01*
X146105523Y-87653857D01*
X146105523Y-87749095D01*
X146057904Y-87891952D01*
X145486476Y-88463380D01*
X146105523Y-88463380D01*
X147057904Y-88463380D02*
X146486476Y-88463380D01*
X146772190Y-88463380D02*
X146772190Y-87463380D01*
X146676952Y-87606238D01*
X146581714Y-87701476D01*
X146486476Y-87749095D01*
G04 #@! TO.C,R31*
X163097380Y-70456357D02*
X162621190Y-70789690D01*
X163097380Y-71027785D02*
X162097380Y-71027785D01*
X162097380Y-70646833D01*
X162145000Y-70551595D01*
X162192619Y-70503976D01*
X162287857Y-70456357D01*
X162430714Y-70456357D01*
X162525952Y-70503976D01*
X162573571Y-70551595D01*
X162621190Y-70646833D01*
X162621190Y-71027785D01*
X162097380Y-70123023D02*
X162097380Y-69503976D01*
X162478333Y-69837309D01*
X162478333Y-69694452D01*
X162525952Y-69599214D01*
X162573571Y-69551595D01*
X162668809Y-69503976D01*
X162906904Y-69503976D01*
X163002142Y-69551595D01*
X163049761Y-69599214D01*
X163097380Y-69694452D01*
X163097380Y-69980166D01*
X163049761Y-70075404D01*
X163002142Y-70123023D01*
X163097380Y-68551595D02*
X163097380Y-69123023D01*
X163097380Y-68837309D02*
X162097380Y-68837309D01*
X162240238Y-68932547D01*
X162335476Y-69027785D01*
X162383095Y-69123023D01*
G04 #@! TO.C,R20*
X144354642Y-96760380D02*
X144021309Y-96284190D01*
X143783214Y-96760380D02*
X143783214Y-95760380D01*
X144164166Y-95760380D01*
X144259404Y-95808000D01*
X144307023Y-95855619D01*
X144354642Y-95950857D01*
X144354642Y-96093714D01*
X144307023Y-96188952D01*
X144259404Y-96236571D01*
X144164166Y-96284190D01*
X143783214Y-96284190D01*
X144735595Y-95855619D02*
X144783214Y-95808000D01*
X144878452Y-95760380D01*
X145116547Y-95760380D01*
X145211785Y-95808000D01*
X145259404Y-95855619D01*
X145307023Y-95950857D01*
X145307023Y-96046095D01*
X145259404Y-96188952D01*
X144687976Y-96760380D01*
X145307023Y-96760380D01*
X145926071Y-95760380D02*
X146021309Y-95760380D01*
X146116547Y-95808000D01*
X146164166Y-95855619D01*
X146211785Y-95950857D01*
X146259404Y-96141333D01*
X146259404Y-96379428D01*
X146211785Y-96569904D01*
X146164166Y-96665142D01*
X146116547Y-96712761D01*
X146021309Y-96760380D01*
X145926071Y-96760380D01*
X145830833Y-96712761D01*
X145783214Y-96665142D01*
X145735595Y-96569904D01*
X145687976Y-96379428D01*
X145687976Y-96141333D01*
X145735595Y-95950857D01*
X145783214Y-95855619D01*
X145830833Y-95808000D01*
X145926071Y-95760380D01*
G04 #@! TO.C,R3*
X69752380Y-120526166D02*
X69276190Y-120859500D01*
X69752380Y-121097595D02*
X68752380Y-121097595D01*
X68752380Y-120716642D01*
X68800000Y-120621404D01*
X68847619Y-120573785D01*
X68942857Y-120526166D01*
X69085714Y-120526166D01*
X69180952Y-120573785D01*
X69228571Y-120621404D01*
X69276190Y-120716642D01*
X69276190Y-121097595D01*
X68752380Y-120192833D02*
X68752380Y-119573785D01*
X69133333Y-119907119D01*
X69133333Y-119764261D01*
X69180952Y-119669023D01*
X69228571Y-119621404D01*
X69323809Y-119573785D01*
X69561904Y-119573785D01*
X69657142Y-119621404D01*
X69704761Y-119669023D01*
X69752380Y-119764261D01*
X69752380Y-120049976D01*
X69704761Y-120145214D01*
X69657142Y-120192833D01*
G04 #@! TO.C,R19*
X144427642Y-99935380D02*
X144094309Y-99459190D01*
X143856214Y-99935380D02*
X143856214Y-98935380D01*
X144237166Y-98935380D01*
X144332404Y-98983000D01*
X144380023Y-99030619D01*
X144427642Y-99125857D01*
X144427642Y-99268714D01*
X144380023Y-99363952D01*
X144332404Y-99411571D01*
X144237166Y-99459190D01*
X143856214Y-99459190D01*
X145380023Y-99935380D02*
X144808595Y-99935380D01*
X145094309Y-99935380D02*
X145094309Y-98935380D01*
X144999071Y-99078238D01*
X144903833Y-99173476D01*
X144808595Y-99221095D01*
X145856214Y-99935380D02*
X146046690Y-99935380D01*
X146141928Y-99887761D01*
X146189547Y-99840142D01*
X146284785Y-99697285D01*
X146332404Y-99506809D01*
X146332404Y-99125857D01*
X146284785Y-99030619D01*
X146237166Y-98983000D01*
X146141928Y-98935380D01*
X145951452Y-98935380D01*
X145856214Y-98983000D01*
X145808595Y-99030619D01*
X145760976Y-99125857D01*
X145760976Y-99363952D01*
X145808595Y-99459190D01*
X145856214Y-99506809D01*
X145951452Y-99554428D01*
X146141928Y-99554428D01*
X146237166Y-99506809D01*
X146284785Y-99459190D01*
X146332404Y-99363952D01*
G04 #@! TO.C,J4*
X155654380Y-126063333D02*
X156368666Y-126063333D01*
X156511523Y-126110952D01*
X156606761Y-126206190D01*
X156654380Y-126349047D01*
X156654380Y-126444285D01*
X155987714Y-125158571D02*
X156654380Y-125158571D01*
X155606761Y-125396666D02*
X156321047Y-125634761D01*
X156321047Y-125015714D01*
G04 #@! TO.C,J5*
X103552666Y-61840380D02*
X103552666Y-62554666D01*
X103505047Y-62697523D01*
X103409809Y-62792761D01*
X103266952Y-62840380D01*
X103171714Y-62840380D01*
X104505047Y-61840380D02*
X104028857Y-61840380D01*
X103981238Y-62316571D01*
X104028857Y-62268952D01*
X104124095Y-62221333D01*
X104362190Y-62221333D01*
X104457428Y-62268952D01*
X104505047Y-62316571D01*
X104552666Y-62411809D01*
X104552666Y-62649904D01*
X104505047Y-62745142D01*
X104457428Y-62792761D01*
X104362190Y-62840380D01*
X104124095Y-62840380D01*
X104028857Y-62792761D01*
X103981238Y-62745142D01*
G04 #@! TO.C,C23*
X133035142Y-63574857D02*
X133082761Y-63622476D01*
X133130380Y-63765333D01*
X133130380Y-63860571D01*
X133082761Y-64003428D01*
X132987523Y-64098666D01*
X132892285Y-64146285D01*
X132701809Y-64193904D01*
X132558952Y-64193904D01*
X132368476Y-64146285D01*
X132273238Y-64098666D01*
X132178000Y-64003428D01*
X132130380Y-63860571D01*
X132130380Y-63765333D01*
X132178000Y-63622476D01*
X132225619Y-63574857D01*
X132225619Y-63193904D02*
X132178000Y-63146285D01*
X132130380Y-63051047D01*
X132130380Y-62812952D01*
X132178000Y-62717714D01*
X132225619Y-62670095D01*
X132320857Y-62622476D01*
X132416095Y-62622476D01*
X132558952Y-62670095D01*
X133130380Y-63241523D01*
X133130380Y-62622476D01*
X132130380Y-62289142D02*
X132130380Y-61670095D01*
X132511333Y-62003428D01*
X132511333Y-61860571D01*
X132558952Y-61765333D01*
X132606571Y-61717714D01*
X132701809Y-61670095D01*
X132939904Y-61670095D01*
X133035142Y-61717714D01*
X133082761Y-61765333D01*
X133130380Y-61860571D01*
X133130380Y-62146285D01*
X133082761Y-62241523D01*
X133035142Y-62289142D01*
G04 #@! TO.C,C10*
X75557142Y-94252142D02*
X75509523Y-94299761D01*
X75366666Y-94347380D01*
X75271428Y-94347380D01*
X75128571Y-94299761D01*
X75033333Y-94204523D01*
X74985714Y-94109285D01*
X74938095Y-93918809D01*
X74938095Y-93775952D01*
X74985714Y-93585476D01*
X75033333Y-93490238D01*
X75128571Y-93395000D01*
X75271428Y-93347380D01*
X75366666Y-93347380D01*
X75509523Y-93395000D01*
X75557142Y-93442619D01*
X76509523Y-94347380D02*
X75938095Y-94347380D01*
X76223809Y-94347380D02*
X76223809Y-93347380D01*
X76128571Y-93490238D01*
X76033333Y-93585476D01*
X75938095Y-93633095D01*
X77128571Y-93347380D02*
X77223809Y-93347380D01*
X77319047Y-93395000D01*
X77366666Y-93442619D01*
X77414285Y-93537857D01*
X77461904Y-93728333D01*
X77461904Y-93966428D01*
X77414285Y-94156904D01*
X77366666Y-94252142D01*
X77319047Y-94299761D01*
X77223809Y-94347380D01*
X77128571Y-94347380D01*
X77033333Y-94299761D01*
X76985714Y-94252142D01*
X76938095Y-94156904D01*
X76890476Y-93966428D01*
X76890476Y-93728333D01*
X76938095Y-93537857D01*
X76985714Y-93442619D01*
X77033333Y-93395000D01*
X77128571Y-93347380D01*
G04 #@! TO.C,D1*
X63904904Y-62174380D02*
X63904904Y-61174380D01*
X64143000Y-61174380D01*
X64285857Y-61222000D01*
X64381095Y-61317238D01*
X64428714Y-61412476D01*
X64476333Y-61602952D01*
X64476333Y-61745809D01*
X64428714Y-61936285D01*
X64381095Y-62031523D01*
X64285857Y-62126761D01*
X64143000Y-62174380D01*
X63904904Y-62174380D01*
X65428714Y-62174380D02*
X64857285Y-62174380D01*
X65143000Y-62174380D02*
X65143000Y-61174380D01*
X65047761Y-61317238D01*
X64952523Y-61412476D01*
X64857285Y-61460095D01*
G04 #@! TO.C,U2*
X85614380Y-118363904D02*
X86423904Y-118363904D01*
X86519142Y-118316285D01*
X86566761Y-118268666D01*
X86614380Y-118173428D01*
X86614380Y-117982952D01*
X86566761Y-117887714D01*
X86519142Y-117840095D01*
X86423904Y-117792476D01*
X85614380Y-117792476D01*
X85709619Y-117363904D02*
X85662000Y-117316285D01*
X85614380Y-117221047D01*
X85614380Y-116982952D01*
X85662000Y-116887714D01*
X85709619Y-116840095D01*
X85804857Y-116792476D01*
X85900095Y-116792476D01*
X86042952Y-116840095D01*
X86614380Y-117411523D01*
X86614380Y-116792476D01*
G04 #@! TO.C,R6*
X67143333Y-57348380D02*
X66810000Y-56872190D01*
X66571904Y-57348380D02*
X66571904Y-56348380D01*
X66952857Y-56348380D01*
X67048095Y-56396000D01*
X67095714Y-56443619D01*
X67143333Y-56538857D01*
X67143333Y-56681714D01*
X67095714Y-56776952D01*
X67048095Y-56824571D01*
X66952857Y-56872190D01*
X66571904Y-56872190D01*
X68000476Y-56348380D02*
X67810000Y-56348380D01*
X67714761Y-56396000D01*
X67667142Y-56443619D01*
X67571904Y-56586476D01*
X67524285Y-56776952D01*
X67524285Y-57157904D01*
X67571904Y-57253142D01*
X67619523Y-57300761D01*
X67714761Y-57348380D01*
X67905238Y-57348380D01*
X68000476Y-57300761D01*
X68048095Y-57253142D01*
X68095714Y-57157904D01*
X68095714Y-56919809D01*
X68048095Y-56824571D01*
X68000476Y-56776952D01*
X67905238Y-56729333D01*
X67714761Y-56729333D01*
X67619523Y-56776952D01*
X67571904Y-56824571D01*
X67524285Y-56919809D01*
G04 #@! TO.C,R5*
X73477380Y-114557166D02*
X73001190Y-114890500D01*
X73477380Y-115128595D02*
X72477380Y-115128595D01*
X72477380Y-114747642D01*
X72525000Y-114652404D01*
X72572619Y-114604785D01*
X72667857Y-114557166D01*
X72810714Y-114557166D01*
X72905952Y-114604785D01*
X72953571Y-114652404D01*
X73001190Y-114747642D01*
X73001190Y-115128595D01*
X72477380Y-113652404D02*
X72477380Y-114128595D01*
X72953571Y-114176214D01*
X72905952Y-114128595D01*
X72858333Y-114033357D01*
X72858333Y-113795261D01*
X72905952Y-113700023D01*
X72953571Y-113652404D01*
X73048809Y-113604785D01*
X73286904Y-113604785D01*
X73382142Y-113652404D01*
X73429761Y-113700023D01*
X73477380Y-113795261D01*
X73477380Y-114033357D01*
X73429761Y-114128595D01*
X73382142Y-114176214D01*
G04 #@! TO.C,R4*
X65476380Y-114212666D02*
X65000190Y-114546000D01*
X65476380Y-114784095D02*
X64476380Y-114784095D01*
X64476380Y-114403142D01*
X64524000Y-114307904D01*
X64571619Y-114260285D01*
X64666857Y-114212666D01*
X64809714Y-114212666D01*
X64904952Y-114260285D01*
X64952571Y-114307904D01*
X65000190Y-114403142D01*
X65000190Y-114784095D01*
X64809714Y-113355523D02*
X65476380Y-113355523D01*
X64428761Y-113593619D02*
X65143047Y-113831714D01*
X65143047Y-113212666D01*
G04 #@! TO.C,U1*
X70445380Y-64896904D02*
X71254904Y-64896904D01*
X71350142Y-64849285D01*
X71397761Y-64801666D01*
X71445380Y-64706428D01*
X71445380Y-64515952D01*
X71397761Y-64420714D01*
X71350142Y-64373095D01*
X71254904Y-64325476D01*
X70445380Y-64325476D01*
X71445380Y-63325476D02*
X71445380Y-63896904D01*
X71445380Y-63611190D02*
X70445380Y-63611190D01*
X70588238Y-63706428D01*
X70683476Y-63801666D01*
X70731095Y-63896904D01*
G04 #@! TO.C,C2*
X85913142Y-71504166D02*
X85960761Y-71551785D01*
X86008380Y-71694642D01*
X86008380Y-71789880D01*
X85960761Y-71932738D01*
X85865523Y-72027976D01*
X85770285Y-72075595D01*
X85579809Y-72123214D01*
X85436952Y-72123214D01*
X85246476Y-72075595D01*
X85151238Y-72027976D01*
X85056000Y-71932738D01*
X85008380Y-71789880D01*
X85008380Y-71694642D01*
X85056000Y-71551785D01*
X85103619Y-71504166D01*
X85103619Y-71123214D02*
X85056000Y-71075595D01*
X85008380Y-70980357D01*
X85008380Y-70742261D01*
X85056000Y-70647023D01*
X85103619Y-70599404D01*
X85198857Y-70551785D01*
X85294095Y-70551785D01*
X85436952Y-70599404D01*
X86008380Y-71170833D01*
X86008380Y-70551785D01*
G04 #@! TO.C,C4*
X93067142Y-55030666D02*
X93114761Y-55078285D01*
X93162380Y-55221142D01*
X93162380Y-55316380D01*
X93114761Y-55459238D01*
X93019523Y-55554476D01*
X92924285Y-55602095D01*
X92733809Y-55649714D01*
X92590952Y-55649714D01*
X92400476Y-55602095D01*
X92305238Y-55554476D01*
X92210000Y-55459238D01*
X92162380Y-55316380D01*
X92162380Y-55221142D01*
X92210000Y-55078285D01*
X92257619Y-55030666D01*
X92495714Y-54173523D02*
X93162380Y-54173523D01*
X92114761Y-54411619D02*
X92829047Y-54649714D01*
X92829047Y-54030666D01*
G04 #@! TO.C,C5*
X82653142Y-56681666D02*
X82700761Y-56729285D01*
X82748380Y-56872142D01*
X82748380Y-56967380D01*
X82700761Y-57110238D01*
X82605523Y-57205476D01*
X82510285Y-57253095D01*
X82319809Y-57300714D01*
X82176952Y-57300714D01*
X81986476Y-57253095D01*
X81891238Y-57205476D01*
X81796000Y-57110238D01*
X81748380Y-56967380D01*
X81748380Y-56872142D01*
X81796000Y-56729285D01*
X81843619Y-56681666D01*
X81748380Y-55776904D02*
X81748380Y-56253095D01*
X82224571Y-56300714D01*
X82176952Y-56253095D01*
X82129333Y-56157857D01*
X82129333Y-55919761D01*
X82176952Y-55824523D01*
X82224571Y-55776904D01*
X82319809Y-55729285D01*
X82557904Y-55729285D01*
X82653142Y-55776904D01*
X82700761Y-55824523D01*
X82748380Y-55919761D01*
X82748380Y-56157857D01*
X82700761Y-56253095D01*
X82653142Y-56300714D01*
G04 #@! TO.C,C1*
X64729142Y-68650166D02*
X64776761Y-68697785D01*
X64824380Y-68840642D01*
X64824380Y-68935880D01*
X64776761Y-69078738D01*
X64681523Y-69173976D01*
X64586285Y-69221595D01*
X64395809Y-69269214D01*
X64252952Y-69269214D01*
X64062476Y-69221595D01*
X63967238Y-69173976D01*
X63872000Y-69078738D01*
X63824380Y-68935880D01*
X63824380Y-68840642D01*
X63872000Y-68697785D01*
X63919619Y-68650166D01*
X64824380Y-67697785D02*
X64824380Y-68269214D01*
X64824380Y-67983500D02*
X63824380Y-67983500D01*
X63967238Y-68078738D01*
X64062476Y-68173976D01*
X64110095Y-68269214D01*
G04 #@! TO.C,J7*
X61261666Y-70616380D02*
X61261666Y-71330666D01*
X61214047Y-71473523D01*
X61118809Y-71568761D01*
X60975952Y-71616380D01*
X60880714Y-71616380D01*
X61642619Y-70616380D02*
X62309285Y-70616380D01*
X61880714Y-71616380D01*
G04 #@! TO.C,J1*
X61007666Y-78910380D02*
X61007666Y-79624666D01*
X60960047Y-79767523D01*
X60864809Y-79862761D01*
X60721952Y-79910380D01*
X60626714Y-79910380D01*
X62007666Y-79910380D02*
X61436238Y-79910380D01*
X61721952Y-79910380D02*
X61721952Y-78910380D01*
X61626714Y-79053238D01*
X61531476Y-79148476D01*
X61436238Y-79196095D01*
G04 #@! TO.C,J2*
X61007666Y-91737380D02*
X61007666Y-92451666D01*
X60960047Y-92594523D01*
X60864809Y-92689761D01*
X60721952Y-92737380D01*
X60626714Y-92737380D01*
X61436238Y-91832619D02*
X61483857Y-91785000D01*
X61579095Y-91737380D01*
X61817190Y-91737380D01*
X61912428Y-91785000D01*
X61960047Y-91832619D01*
X62007666Y-91927857D01*
X62007666Y-92023095D01*
X61960047Y-92165952D01*
X61388619Y-92737380D01*
X62007666Y-92737380D01*
G04 #@! TO.C,J6*
X90086380Y-129365333D02*
X90800666Y-129365333D01*
X90943523Y-129412952D01*
X91038761Y-129508190D01*
X91086380Y-129651047D01*
X91086380Y-129746285D01*
X90086380Y-128460571D02*
X90086380Y-128651047D01*
X90134000Y-128746285D01*
X90181619Y-128793904D01*
X90324476Y-128889142D01*
X90514952Y-128936761D01*
X90895904Y-128936761D01*
X90991142Y-128889142D01*
X91038761Y-128841523D01*
X91086380Y-128746285D01*
X91086380Y-128555809D01*
X91038761Y-128460571D01*
X90991142Y-128412952D01*
X90895904Y-128365333D01*
X90657809Y-128365333D01*
X90562571Y-128412952D01*
X90514952Y-128460571D01*
X90467333Y-128555809D01*
X90467333Y-128746285D01*
X90514952Y-128841523D01*
X90562571Y-128889142D01*
X90657809Y-128936761D01*
G04 #@! TO.C,J3*
X60626666Y-108247380D02*
X60626666Y-108961666D01*
X60579047Y-109104523D01*
X60483809Y-109199761D01*
X60340952Y-109247380D01*
X60245714Y-109247380D01*
X61007619Y-108247380D02*
X61626666Y-108247380D01*
X61293333Y-108628333D01*
X61436190Y-108628333D01*
X61531428Y-108675952D01*
X61579047Y-108723571D01*
X61626666Y-108818809D01*
X61626666Y-109056904D01*
X61579047Y-109152142D01*
X61531428Y-109199761D01*
X61436190Y-109247380D01*
X61150476Y-109247380D01*
X61055238Y-109199761D01*
X61007619Y-109152142D01*
G04 #@! TO.C,Q7*
X131357619Y-75279238D02*
X131310000Y-75374476D01*
X131214761Y-75469714D01*
X131071904Y-75612571D01*
X131024285Y-75707809D01*
X131024285Y-75803047D01*
X131262380Y-75755428D02*
X131214761Y-75850666D01*
X131119523Y-75945904D01*
X130929047Y-75993523D01*
X130595714Y-75993523D01*
X130405238Y-75945904D01*
X130310000Y-75850666D01*
X130262380Y-75755428D01*
X130262380Y-75564952D01*
X130310000Y-75469714D01*
X130405238Y-75374476D01*
X130595714Y-75326857D01*
X130929047Y-75326857D01*
X131119523Y-75374476D01*
X131214761Y-75469714D01*
X131262380Y-75564952D01*
X131262380Y-75755428D01*
X130262380Y-74993523D02*
X130262380Y-74326857D01*
X131262380Y-74755428D01*
G04 #@! TO.C,Q6*
X126785619Y-118078238D02*
X126738000Y-118173476D01*
X126642761Y-118268714D01*
X126499904Y-118411571D01*
X126452285Y-118506809D01*
X126452285Y-118602047D01*
X126690380Y-118554428D02*
X126642761Y-118649666D01*
X126547523Y-118744904D01*
X126357047Y-118792523D01*
X126023714Y-118792523D01*
X125833238Y-118744904D01*
X125738000Y-118649666D01*
X125690380Y-118554428D01*
X125690380Y-118363952D01*
X125738000Y-118268714D01*
X125833238Y-118173476D01*
X126023714Y-118125857D01*
X126357047Y-118125857D01*
X126547523Y-118173476D01*
X126642761Y-118268714D01*
X126690380Y-118363952D01*
X126690380Y-118554428D01*
X125690380Y-117268714D02*
X125690380Y-117459190D01*
X125738000Y-117554428D01*
X125785619Y-117602047D01*
X125928476Y-117697285D01*
X126118952Y-117744904D01*
X126499904Y-117744904D01*
X126595142Y-117697285D01*
X126642761Y-117649666D01*
X126690380Y-117554428D01*
X126690380Y-117363952D01*
X126642761Y-117268714D01*
X126595142Y-117221095D01*
X126499904Y-117173476D01*
X126261809Y-117173476D01*
X126166571Y-117221095D01*
X126118952Y-117268714D01*
X126071333Y-117363952D01*
X126071333Y-117554428D01*
X126118952Y-117649666D01*
X126166571Y-117697285D01*
X126261809Y-117744904D01*
G04 #@! TO.C,Q5*
X117133619Y-75533238D02*
X117086000Y-75628476D01*
X116990761Y-75723714D01*
X116847904Y-75866571D01*
X116800285Y-75961809D01*
X116800285Y-76057047D01*
X117038380Y-76009428D02*
X116990761Y-76104666D01*
X116895523Y-76199904D01*
X116705047Y-76247523D01*
X116371714Y-76247523D01*
X116181238Y-76199904D01*
X116086000Y-76104666D01*
X116038380Y-76009428D01*
X116038380Y-75818952D01*
X116086000Y-75723714D01*
X116181238Y-75628476D01*
X116371714Y-75580857D01*
X116705047Y-75580857D01*
X116895523Y-75628476D01*
X116990761Y-75723714D01*
X117038380Y-75818952D01*
X117038380Y-76009428D01*
X116038380Y-74676095D02*
X116038380Y-75152285D01*
X116514571Y-75199904D01*
X116466952Y-75152285D01*
X116419333Y-75057047D01*
X116419333Y-74818952D01*
X116466952Y-74723714D01*
X116514571Y-74676095D01*
X116609809Y-74628476D01*
X116847904Y-74628476D01*
X116943142Y-74676095D01*
X116990761Y-74723714D01*
X117038380Y-74818952D01*
X117038380Y-75057047D01*
X116990761Y-75152285D01*
X116943142Y-75199904D01*
G04 #@! TO.C,Q4*
X111926619Y-117951238D02*
X111879000Y-118046476D01*
X111783761Y-118141714D01*
X111640904Y-118284571D01*
X111593285Y-118379809D01*
X111593285Y-118475047D01*
X111831380Y-118427428D02*
X111783761Y-118522666D01*
X111688523Y-118617904D01*
X111498047Y-118665523D01*
X111164714Y-118665523D01*
X110974238Y-118617904D01*
X110879000Y-118522666D01*
X110831380Y-118427428D01*
X110831380Y-118236952D01*
X110879000Y-118141714D01*
X110974238Y-118046476D01*
X111164714Y-117998857D01*
X111498047Y-117998857D01*
X111688523Y-118046476D01*
X111783761Y-118141714D01*
X111831380Y-118236952D01*
X111831380Y-118427428D01*
X111164714Y-117141714D02*
X111831380Y-117141714D01*
X110783761Y-117379809D02*
X111498047Y-117617904D01*
X111498047Y-116998857D01*
G04 #@! TO.C,Q3*
X103036619Y-75533238D02*
X102989000Y-75628476D01*
X102893761Y-75723714D01*
X102750904Y-75866571D01*
X102703285Y-75961809D01*
X102703285Y-76057047D01*
X102941380Y-76009428D02*
X102893761Y-76104666D01*
X102798523Y-76199904D01*
X102608047Y-76247523D01*
X102274714Y-76247523D01*
X102084238Y-76199904D01*
X101989000Y-76104666D01*
X101941380Y-76009428D01*
X101941380Y-75818952D01*
X101989000Y-75723714D01*
X102084238Y-75628476D01*
X102274714Y-75580857D01*
X102608047Y-75580857D01*
X102798523Y-75628476D01*
X102893761Y-75723714D01*
X102941380Y-75818952D01*
X102941380Y-76009428D01*
X101941380Y-75247523D02*
X101941380Y-74628476D01*
X102322333Y-74961809D01*
X102322333Y-74818952D01*
X102369952Y-74723714D01*
X102417571Y-74676095D01*
X102512809Y-74628476D01*
X102750904Y-74628476D01*
X102846142Y-74676095D01*
X102893761Y-74723714D01*
X102941380Y-74818952D01*
X102941380Y-75104666D01*
X102893761Y-75199904D01*
X102846142Y-75247523D01*
G04 #@! TO.C,Q8*
X141009619Y-118713238D02*
X140962000Y-118808476D01*
X140866761Y-118903714D01*
X140723904Y-119046571D01*
X140676285Y-119141809D01*
X140676285Y-119237047D01*
X140914380Y-119189428D02*
X140866761Y-119284666D01*
X140771523Y-119379904D01*
X140581047Y-119427523D01*
X140247714Y-119427523D01*
X140057238Y-119379904D01*
X139962000Y-119284666D01*
X139914380Y-119189428D01*
X139914380Y-118998952D01*
X139962000Y-118903714D01*
X140057238Y-118808476D01*
X140247714Y-118760857D01*
X140581047Y-118760857D01*
X140771523Y-118808476D01*
X140866761Y-118903714D01*
X140914380Y-118998952D01*
X140914380Y-119189428D01*
X140342952Y-118189428D02*
X140295333Y-118284666D01*
X140247714Y-118332285D01*
X140152476Y-118379904D01*
X140104857Y-118379904D01*
X140009619Y-118332285D01*
X139962000Y-118284666D01*
X139914380Y-118189428D01*
X139914380Y-117998952D01*
X139962000Y-117903714D01*
X140009619Y-117856095D01*
X140104857Y-117808476D01*
X140152476Y-117808476D01*
X140247714Y-117856095D01*
X140295333Y-117903714D01*
X140342952Y-117998952D01*
X140342952Y-118189428D01*
X140390571Y-118284666D01*
X140438190Y-118332285D01*
X140533428Y-118379904D01*
X140723904Y-118379904D01*
X140819142Y-118332285D01*
X140866761Y-118284666D01*
X140914380Y-118189428D01*
X140914380Y-117998952D01*
X140866761Y-117903714D01*
X140819142Y-117856095D01*
X140723904Y-117808476D01*
X140533428Y-117808476D01*
X140438190Y-117856095D01*
X140390571Y-117903714D01*
X140342952Y-117998952D01*
G04 #@! TO.C,D11*
X116276380Y-79700285D02*
X115276380Y-79700285D01*
X115276380Y-79462190D01*
X115324000Y-79319333D01*
X115419238Y-79224095D01*
X115514476Y-79176476D01*
X115704952Y-79128857D01*
X115847809Y-79128857D01*
X116038285Y-79176476D01*
X116133523Y-79224095D01*
X116228761Y-79319333D01*
X116276380Y-79462190D01*
X116276380Y-79700285D01*
X116276380Y-78176476D02*
X116276380Y-78747904D01*
X116276380Y-78462190D02*
X115276380Y-78462190D01*
X115419238Y-78557428D01*
X115514476Y-78652666D01*
X115562095Y-78747904D01*
X116276380Y-77224095D02*
X116276380Y-77795523D01*
X116276380Y-77509809D02*
X115276380Y-77509809D01*
X115419238Y-77605047D01*
X115514476Y-77700285D01*
X115562095Y-77795523D01*
G04 #@! TO.C,D12*
X111577380Y-115387285D02*
X110577380Y-115387285D01*
X110577380Y-115149190D01*
X110625000Y-115006333D01*
X110720238Y-114911095D01*
X110815476Y-114863476D01*
X111005952Y-114815857D01*
X111148809Y-114815857D01*
X111339285Y-114863476D01*
X111434523Y-114911095D01*
X111529761Y-115006333D01*
X111577380Y-115149190D01*
X111577380Y-115387285D01*
X111577380Y-113863476D02*
X111577380Y-114434904D01*
X111577380Y-114149190D02*
X110577380Y-114149190D01*
X110720238Y-114244428D01*
X110815476Y-114339666D01*
X110863095Y-114434904D01*
X110672619Y-113482523D02*
X110625000Y-113434904D01*
X110577380Y-113339666D01*
X110577380Y-113101571D01*
X110625000Y-113006333D01*
X110672619Y-112958714D01*
X110767857Y-112911095D01*
X110863095Y-112911095D01*
X111005952Y-112958714D01*
X111577380Y-113530142D01*
X111577380Y-112911095D01*
G04 #@! TO.C,D13*
X130373380Y-79827285D02*
X129373380Y-79827285D01*
X129373380Y-79589190D01*
X129421000Y-79446333D01*
X129516238Y-79351095D01*
X129611476Y-79303476D01*
X129801952Y-79255857D01*
X129944809Y-79255857D01*
X130135285Y-79303476D01*
X130230523Y-79351095D01*
X130325761Y-79446333D01*
X130373380Y-79589190D01*
X130373380Y-79827285D01*
X130373380Y-78303476D02*
X130373380Y-78874904D01*
X130373380Y-78589190D02*
X129373380Y-78589190D01*
X129516238Y-78684428D01*
X129611476Y-78779666D01*
X129659095Y-78874904D01*
X129373380Y-77970142D02*
X129373380Y-77351095D01*
X129754333Y-77684428D01*
X129754333Y-77541571D01*
X129801952Y-77446333D01*
X129849571Y-77398714D01*
X129944809Y-77351095D01*
X130182904Y-77351095D01*
X130278142Y-77398714D01*
X130325761Y-77446333D01*
X130373380Y-77541571D01*
X130373380Y-77827285D01*
X130325761Y-77922523D01*
X130278142Y-77970142D01*
G04 #@! TO.C,D14*
X127309714Y-118054380D02*
X127309714Y-117054380D01*
X127547809Y-117054380D01*
X127690666Y-117102000D01*
X127785904Y-117197238D01*
X127833523Y-117292476D01*
X127881142Y-117482952D01*
X127881142Y-117625809D01*
X127833523Y-117816285D01*
X127785904Y-117911523D01*
X127690666Y-118006761D01*
X127547809Y-118054380D01*
X127309714Y-118054380D01*
X128833523Y-118054380D02*
X128262095Y-118054380D01*
X128547809Y-118054380D02*
X128547809Y-117054380D01*
X128452571Y-117197238D01*
X128357333Y-117292476D01*
X128262095Y-117340095D01*
X129690666Y-117387714D02*
X129690666Y-118054380D01*
X129452571Y-117006761D02*
X129214476Y-117721047D01*
X129833523Y-117721047D01*
G04 #@! TO.C,D15*
X145232380Y-79573285D02*
X144232380Y-79573285D01*
X144232380Y-79335190D01*
X144280000Y-79192333D01*
X144375238Y-79097095D01*
X144470476Y-79049476D01*
X144660952Y-79001857D01*
X144803809Y-79001857D01*
X144994285Y-79049476D01*
X145089523Y-79097095D01*
X145184761Y-79192333D01*
X145232380Y-79335190D01*
X145232380Y-79573285D01*
X145232380Y-78049476D02*
X145232380Y-78620904D01*
X145232380Y-78335190D02*
X144232380Y-78335190D01*
X144375238Y-78430428D01*
X144470476Y-78525666D01*
X144518095Y-78620904D01*
X144232380Y-77144714D02*
X144232380Y-77620904D01*
X144708571Y-77668523D01*
X144660952Y-77620904D01*
X144613333Y-77525666D01*
X144613333Y-77287571D01*
X144660952Y-77192333D01*
X144708571Y-77144714D01*
X144803809Y-77097095D01*
X145041904Y-77097095D01*
X145137142Y-77144714D01*
X145184761Y-77192333D01*
X145232380Y-77287571D01*
X145232380Y-77525666D01*
X145184761Y-77620904D01*
X145137142Y-77668523D01*
G04 #@! TO.C,D16*
X141549380Y-115133285D02*
X140549380Y-115133285D01*
X140549380Y-114895190D01*
X140597000Y-114752333D01*
X140692238Y-114657095D01*
X140787476Y-114609476D01*
X140977952Y-114561857D01*
X141120809Y-114561857D01*
X141311285Y-114609476D01*
X141406523Y-114657095D01*
X141501761Y-114752333D01*
X141549380Y-114895190D01*
X141549380Y-115133285D01*
X141549380Y-113609476D02*
X141549380Y-114180904D01*
X141549380Y-113895190D02*
X140549380Y-113895190D01*
X140692238Y-113990428D01*
X140787476Y-114085666D01*
X140835095Y-114180904D01*
X140549380Y-112752333D02*
X140549380Y-112942809D01*
X140597000Y-113038047D01*
X140644619Y-113085666D01*
X140787476Y-113180904D01*
X140977952Y-113228523D01*
X141358904Y-113228523D01*
X141454142Y-113180904D01*
X141501761Y-113133285D01*
X141549380Y-113038047D01*
X141549380Y-112847571D01*
X141501761Y-112752333D01*
X141454142Y-112704714D01*
X141358904Y-112657095D01*
X141120809Y-112657095D01*
X141025571Y-112704714D01*
X140977952Y-112752333D01*
X140930333Y-112847571D01*
X140930333Y-113038047D01*
X140977952Y-113133285D01*
X141025571Y-113180904D01*
X141120809Y-113228523D01*
G04 #@! TO.C,C16*
X101745142Y-81042579D02*
X101792761Y-81090198D01*
X101840380Y-81233055D01*
X101840380Y-81328293D01*
X101792761Y-81471150D01*
X101697523Y-81566388D01*
X101602285Y-81614007D01*
X101411809Y-81661626D01*
X101268952Y-81661626D01*
X101078476Y-81614007D01*
X100983238Y-81566388D01*
X100888000Y-81471150D01*
X100840380Y-81328293D01*
X100840380Y-81233055D01*
X100888000Y-81090198D01*
X100935619Y-81042579D01*
X101840380Y-80090198D02*
X101840380Y-80661626D01*
X101840380Y-80375912D02*
X100840380Y-80375912D01*
X100983238Y-80471150D01*
X101078476Y-80566388D01*
X101126095Y-80661626D01*
X100840380Y-79233055D02*
X100840380Y-79423531D01*
X100888000Y-79518769D01*
X100935619Y-79566388D01*
X101078476Y-79661626D01*
X101268952Y-79709245D01*
X101649904Y-79709245D01*
X101745142Y-79661626D01*
X101792761Y-79614007D01*
X101840380Y-79518769D01*
X101840380Y-79328293D01*
X101792761Y-79233055D01*
X101745142Y-79185436D01*
X101649904Y-79137817D01*
X101411809Y-79137817D01*
X101316571Y-79185436D01*
X101268952Y-79233055D01*
X101221333Y-79328293D01*
X101221333Y-79518769D01*
X101268952Y-79614007D01*
X101316571Y-79661626D01*
X101411809Y-79709245D01*
G04 #@! TO.C,C14*
X98316142Y-104184357D02*
X98363761Y-104231976D01*
X98411380Y-104374833D01*
X98411380Y-104470071D01*
X98363761Y-104612928D01*
X98268523Y-104708166D01*
X98173285Y-104755785D01*
X97982809Y-104803404D01*
X97839952Y-104803404D01*
X97649476Y-104755785D01*
X97554238Y-104708166D01*
X97459000Y-104612928D01*
X97411380Y-104470071D01*
X97411380Y-104374833D01*
X97459000Y-104231976D01*
X97506619Y-104184357D01*
X98411380Y-103231976D02*
X98411380Y-103803404D01*
X98411380Y-103517690D02*
X97411380Y-103517690D01*
X97554238Y-103612928D01*
X97649476Y-103708166D01*
X97697095Y-103803404D01*
X97744714Y-102374833D02*
X98411380Y-102374833D01*
X97363761Y-102612928D02*
X98078047Y-102851023D01*
X98078047Y-102231976D01*
G04 #@! TO.C,C11*
X75647642Y-104328142D02*
X75600023Y-104375761D01*
X75457166Y-104423380D01*
X75361928Y-104423380D01*
X75219071Y-104375761D01*
X75123833Y-104280523D01*
X75076214Y-104185285D01*
X75028595Y-103994809D01*
X75028595Y-103851952D01*
X75076214Y-103661476D01*
X75123833Y-103566238D01*
X75219071Y-103471000D01*
X75361928Y-103423380D01*
X75457166Y-103423380D01*
X75600023Y-103471000D01*
X75647642Y-103518619D01*
X76600023Y-104423380D02*
X76028595Y-104423380D01*
X76314309Y-104423380D02*
X76314309Y-103423380D01*
X76219071Y-103566238D01*
X76123833Y-103661476D01*
X76028595Y-103709095D01*
X77552404Y-104423380D02*
X76980976Y-104423380D01*
X77266690Y-104423380D02*
X77266690Y-103423380D01*
X77171452Y-103566238D01*
X77076214Y-103661476D01*
X76980976Y-103709095D01*
G04 #@! TO.C,C12*
X98316142Y-91828857D02*
X98363761Y-91876476D01*
X98411380Y-92019333D01*
X98411380Y-92114571D01*
X98363761Y-92257428D01*
X98268523Y-92352666D01*
X98173285Y-92400285D01*
X97982809Y-92447904D01*
X97839952Y-92447904D01*
X97649476Y-92400285D01*
X97554238Y-92352666D01*
X97459000Y-92257428D01*
X97411380Y-92114571D01*
X97411380Y-92019333D01*
X97459000Y-91876476D01*
X97506619Y-91828857D01*
X98411380Y-90876476D02*
X98411380Y-91447904D01*
X98411380Y-91162190D02*
X97411380Y-91162190D01*
X97554238Y-91257428D01*
X97649476Y-91352666D01*
X97697095Y-91447904D01*
X97506619Y-90495523D02*
X97459000Y-90447904D01*
X97411380Y-90352666D01*
X97411380Y-90114571D01*
X97459000Y-90019333D01*
X97506619Y-89971714D01*
X97601857Y-89924095D01*
X97697095Y-89924095D01*
X97839952Y-89971714D01*
X98411380Y-90543142D01*
X98411380Y-89924095D01*
G04 #@! TO.C,C15*
X102634142Y-91701857D02*
X102681761Y-91749476D01*
X102729380Y-91892333D01*
X102729380Y-91987571D01*
X102681761Y-92130428D01*
X102586523Y-92225666D01*
X102491285Y-92273285D01*
X102300809Y-92320904D01*
X102157952Y-92320904D01*
X101967476Y-92273285D01*
X101872238Y-92225666D01*
X101777000Y-92130428D01*
X101729380Y-91987571D01*
X101729380Y-91892333D01*
X101777000Y-91749476D01*
X101824619Y-91701857D01*
X102729380Y-90749476D02*
X102729380Y-91320904D01*
X102729380Y-91035190D02*
X101729380Y-91035190D01*
X101872238Y-91130428D01*
X101967476Y-91225666D01*
X102015095Y-91320904D01*
X101729380Y-89844714D02*
X101729380Y-90320904D01*
X102205571Y-90368523D01*
X102157952Y-90320904D01*
X102110333Y-90225666D01*
X102110333Y-89987571D01*
X102157952Y-89892333D01*
X102205571Y-89844714D01*
X102300809Y-89797095D01*
X102538904Y-89797095D01*
X102634142Y-89844714D01*
X102681761Y-89892333D01*
X102729380Y-89987571D01*
X102729380Y-90225666D01*
X102681761Y-90320904D01*
X102634142Y-90368523D01*
G04 #@! TO.C,C13*
X97681142Y-81079079D02*
X97728761Y-81126698D01*
X97776380Y-81269555D01*
X97776380Y-81364793D01*
X97728761Y-81507650D01*
X97633523Y-81602888D01*
X97538285Y-81650507D01*
X97347809Y-81698126D01*
X97204952Y-81698126D01*
X97014476Y-81650507D01*
X96919238Y-81602888D01*
X96824000Y-81507650D01*
X96776380Y-81364793D01*
X96776380Y-81269555D01*
X96824000Y-81126698D01*
X96871619Y-81079079D01*
X97776380Y-80126698D02*
X97776380Y-80698126D01*
X97776380Y-80412412D02*
X96776380Y-80412412D01*
X96919238Y-80507650D01*
X97014476Y-80602888D01*
X97062095Y-80698126D01*
X96776380Y-79793364D02*
X96776380Y-79174317D01*
X97157333Y-79507650D01*
X97157333Y-79364793D01*
X97204952Y-79269555D01*
X97252571Y-79221936D01*
X97347809Y-79174317D01*
X97585904Y-79174317D01*
X97681142Y-79221936D01*
X97728761Y-79269555D01*
X97776380Y-79364793D01*
X97776380Y-79650507D01*
X97728761Y-79745745D01*
X97681142Y-79793364D01*
G04 #@! TO.C,C17*
X102507142Y-104147857D02*
X102554761Y-104195476D01*
X102602380Y-104338333D01*
X102602380Y-104433571D01*
X102554761Y-104576428D01*
X102459523Y-104671666D01*
X102364285Y-104719285D01*
X102173809Y-104766904D01*
X102030952Y-104766904D01*
X101840476Y-104719285D01*
X101745238Y-104671666D01*
X101650000Y-104576428D01*
X101602380Y-104433571D01*
X101602380Y-104338333D01*
X101650000Y-104195476D01*
X101697619Y-104147857D01*
X102602380Y-103195476D02*
X102602380Y-103766904D01*
X102602380Y-103481190D02*
X101602380Y-103481190D01*
X101745238Y-103576428D01*
X101840476Y-103671666D01*
X101888095Y-103766904D01*
X101602380Y-102862142D02*
X101602380Y-102195476D01*
X102602380Y-102624047D01*
G04 #@! TO.C,C9*
X75688833Y-79563142D02*
X75641214Y-79610761D01*
X75498357Y-79658380D01*
X75403119Y-79658380D01*
X75260261Y-79610761D01*
X75165023Y-79515523D01*
X75117404Y-79420285D01*
X75069785Y-79229809D01*
X75069785Y-79086952D01*
X75117404Y-78896476D01*
X75165023Y-78801238D01*
X75260261Y-78706000D01*
X75403119Y-78658380D01*
X75498357Y-78658380D01*
X75641214Y-78706000D01*
X75688833Y-78753619D01*
X76165023Y-79658380D02*
X76355500Y-79658380D01*
X76450738Y-79610761D01*
X76498357Y-79563142D01*
X76593595Y-79420285D01*
X76641214Y-79229809D01*
X76641214Y-78848857D01*
X76593595Y-78753619D01*
X76545976Y-78706000D01*
X76450738Y-78658380D01*
X76260261Y-78658380D01*
X76165023Y-78706000D01*
X76117404Y-78753619D01*
X76069785Y-78848857D01*
X76069785Y-79086952D01*
X76117404Y-79182190D01*
X76165023Y-79229809D01*
X76260261Y-79277428D01*
X76450738Y-79277428D01*
X76545976Y-79229809D01*
X76593595Y-79182190D01*
X76641214Y-79086952D01*
G04 #@! TO.C,C8*
X69048333Y-100416142D02*
X69000714Y-100463761D01*
X68857857Y-100511380D01*
X68762619Y-100511380D01*
X68619761Y-100463761D01*
X68524523Y-100368523D01*
X68476904Y-100273285D01*
X68429285Y-100082809D01*
X68429285Y-99939952D01*
X68476904Y-99749476D01*
X68524523Y-99654238D01*
X68619761Y-99559000D01*
X68762619Y-99511380D01*
X68857857Y-99511380D01*
X69000714Y-99559000D01*
X69048333Y-99606619D01*
X69619761Y-99939952D02*
X69524523Y-99892333D01*
X69476904Y-99844714D01*
X69429285Y-99749476D01*
X69429285Y-99701857D01*
X69476904Y-99606619D01*
X69524523Y-99559000D01*
X69619761Y-99511380D01*
X69810238Y-99511380D01*
X69905476Y-99559000D01*
X69953095Y-99606619D01*
X70000714Y-99701857D01*
X70000714Y-99749476D01*
X69953095Y-99844714D01*
X69905476Y-99892333D01*
X69810238Y-99939952D01*
X69619761Y-99939952D01*
X69524523Y-99987571D01*
X69476904Y-100035190D01*
X69429285Y-100130428D01*
X69429285Y-100320904D01*
X69476904Y-100416142D01*
X69524523Y-100463761D01*
X69619761Y-100511380D01*
X69810238Y-100511380D01*
X69905476Y-100463761D01*
X69953095Y-100416142D01*
X70000714Y-100320904D01*
X70000714Y-100130428D01*
X69953095Y-100035190D01*
X69905476Y-99987571D01*
X69810238Y-99939952D01*
G04 #@! TO.C,C7*
X69048333Y-87208142D02*
X69000714Y-87255761D01*
X68857857Y-87303380D01*
X68762619Y-87303380D01*
X68619761Y-87255761D01*
X68524523Y-87160523D01*
X68476904Y-87065285D01*
X68429285Y-86874809D01*
X68429285Y-86731952D01*
X68476904Y-86541476D01*
X68524523Y-86446238D01*
X68619761Y-86351000D01*
X68762619Y-86303380D01*
X68857857Y-86303380D01*
X69000714Y-86351000D01*
X69048333Y-86398619D01*
X69381666Y-86303380D02*
X70048333Y-86303380D01*
X69619761Y-87303380D01*
G04 #@! TO.C,C6*
X69144833Y-75524142D02*
X69097214Y-75571761D01*
X68954357Y-75619380D01*
X68859119Y-75619380D01*
X68716261Y-75571761D01*
X68621023Y-75476523D01*
X68573404Y-75381285D01*
X68525785Y-75190809D01*
X68525785Y-75047952D01*
X68573404Y-74857476D01*
X68621023Y-74762238D01*
X68716261Y-74667000D01*
X68859119Y-74619380D01*
X68954357Y-74619380D01*
X69097214Y-74667000D01*
X69144833Y-74714619D01*
X70001976Y-74619380D02*
X69811500Y-74619380D01*
X69716261Y-74667000D01*
X69668642Y-74714619D01*
X69573404Y-74857476D01*
X69525785Y-75047952D01*
X69525785Y-75428904D01*
X69573404Y-75524142D01*
X69621023Y-75571761D01*
X69716261Y-75619380D01*
X69906738Y-75619380D01*
X70001976Y-75571761D01*
X70049595Y-75524142D01*
X70097214Y-75428904D01*
X70097214Y-75190809D01*
X70049595Y-75095571D01*
X70001976Y-75047952D01*
X69906738Y-75000333D01*
X69716261Y-75000333D01*
X69621023Y-75047952D01*
X69573404Y-75095571D01*
X69525785Y-75190809D01*
G04 #@! TO.C,D4*
X90066904Y-100020380D02*
X90066904Y-99020380D01*
X90305000Y-99020380D01*
X90447857Y-99068000D01*
X90543095Y-99163238D01*
X90590714Y-99258476D01*
X90638333Y-99448952D01*
X90638333Y-99591809D01*
X90590714Y-99782285D01*
X90543095Y-99877523D01*
X90447857Y-99972761D01*
X90305000Y-100020380D01*
X90066904Y-100020380D01*
X91495476Y-99353714D02*
X91495476Y-100020380D01*
X91257380Y-98972761D02*
X91019285Y-99687047D01*
X91638333Y-99687047D01*
G04 #@! TO.C,D3*
X90447904Y-88844380D02*
X90447904Y-87844380D01*
X90686000Y-87844380D01*
X90828857Y-87892000D01*
X90924095Y-87987238D01*
X90971714Y-88082476D01*
X91019333Y-88272952D01*
X91019333Y-88415809D01*
X90971714Y-88606285D01*
X90924095Y-88701523D01*
X90828857Y-88796761D01*
X90686000Y-88844380D01*
X90447904Y-88844380D01*
X91352666Y-87844380D02*
X91971714Y-87844380D01*
X91638380Y-88225333D01*
X91781238Y-88225333D01*
X91876476Y-88272952D01*
X91924095Y-88320571D01*
X91971714Y-88415809D01*
X91971714Y-88653904D01*
X91924095Y-88749142D01*
X91876476Y-88796761D01*
X91781238Y-88844380D01*
X91495523Y-88844380D01*
X91400285Y-88796761D01*
X91352666Y-88749142D01*
G04 #@! TO.C,D2*
X86764904Y-77033380D02*
X86764904Y-76033380D01*
X87003000Y-76033380D01*
X87145857Y-76081000D01*
X87241095Y-76176238D01*
X87288714Y-76271476D01*
X87336333Y-76461952D01*
X87336333Y-76604809D01*
X87288714Y-76795285D01*
X87241095Y-76890523D01*
X87145857Y-76985761D01*
X87003000Y-77033380D01*
X86764904Y-77033380D01*
X87717285Y-76128619D02*
X87764904Y-76081000D01*
X87860142Y-76033380D01*
X88098238Y-76033380D01*
X88193476Y-76081000D01*
X88241095Y-76128619D01*
X88288714Y-76223857D01*
X88288714Y-76319095D01*
X88241095Y-76461952D01*
X87669666Y-77033380D01*
X88288714Y-77033380D01*
G04 #@! TO.C,D5*
X112466380Y-91416095D02*
X111466380Y-91416095D01*
X111466380Y-91178000D01*
X111514000Y-91035142D01*
X111609238Y-90939904D01*
X111704476Y-90892285D01*
X111894952Y-90844666D01*
X112037809Y-90844666D01*
X112228285Y-90892285D01*
X112323523Y-90939904D01*
X112418761Y-91035142D01*
X112466380Y-91178000D01*
X112466380Y-91416095D01*
X111466380Y-89939904D02*
X111466380Y-90416095D01*
X111942571Y-90463714D01*
X111894952Y-90416095D01*
X111847333Y-90320857D01*
X111847333Y-90082761D01*
X111894952Y-89987523D01*
X111942571Y-89939904D01*
X112037809Y-89892285D01*
X112275904Y-89892285D01*
X112371142Y-89939904D01*
X112418761Y-89987523D01*
X112466380Y-90082761D01*
X112466380Y-90320857D01*
X112418761Y-90416095D01*
X112371142Y-90463714D01*
G04 #@! TO.C,D7*
X126436380Y-91797095D02*
X125436380Y-91797095D01*
X125436380Y-91559000D01*
X125484000Y-91416142D01*
X125579238Y-91320904D01*
X125674476Y-91273285D01*
X125864952Y-91225666D01*
X126007809Y-91225666D01*
X126198285Y-91273285D01*
X126293523Y-91320904D01*
X126388761Y-91416142D01*
X126436380Y-91559000D01*
X126436380Y-91797095D01*
X125436380Y-90892333D02*
X125436380Y-90225666D01*
X126436380Y-90654238D01*
G04 #@! TO.C,D8*
X125716380Y-101031595D02*
X124716380Y-101031595D01*
X124716380Y-100793500D01*
X124764000Y-100650642D01*
X124859238Y-100555404D01*
X124954476Y-100507785D01*
X125144952Y-100460166D01*
X125287809Y-100460166D01*
X125478285Y-100507785D01*
X125573523Y-100555404D01*
X125668761Y-100650642D01*
X125716380Y-100793500D01*
X125716380Y-101031595D01*
X125144952Y-99888738D02*
X125097333Y-99983976D01*
X125049714Y-100031595D01*
X124954476Y-100079214D01*
X124906857Y-100079214D01*
X124811619Y-100031595D01*
X124764000Y-99983976D01*
X124716380Y-99888738D01*
X124716380Y-99698261D01*
X124764000Y-99603023D01*
X124811619Y-99555404D01*
X124906857Y-99507785D01*
X124954476Y-99507785D01*
X125049714Y-99555404D01*
X125097333Y-99603023D01*
X125144952Y-99698261D01*
X125144952Y-99888738D01*
X125192571Y-99983976D01*
X125240190Y-100031595D01*
X125335428Y-100079214D01*
X125525904Y-100079214D01*
X125621142Y-100031595D01*
X125668761Y-99983976D01*
X125716380Y-99888738D01*
X125716380Y-99698261D01*
X125668761Y-99603023D01*
X125621142Y-99555404D01*
X125525904Y-99507785D01*
X125335428Y-99507785D01*
X125240190Y-99555404D01*
X125192571Y-99603023D01*
X125144952Y-99698261D01*
G04 #@! TO.C,D10*
X140067380Y-100999785D02*
X139067380Y-100999785D01*
X139067380Y-100761690D01*
X139115000Y-100618833D01*
X139210238Y-100523595D01*
X139305476Y-100475976D01*
X139495952Y-100428357D01*
X139638809Y-100428357D01*
X139829285Y-100475976D01*
X139924523Y-100523595D01*
X140019761Y-100618833D01*
X140067380Y-100761690D01*
X140067380Y-100999785D01*
X140067380Y-99475976D02*
X140067380Y-100047404D01*
X140067380Y-99761690D02*
X139067380Y-99761690D01*
X139210238Y-99856928D01*
X139305476Y-99952166D01*
X139353095Y-100047404D01*
X139067380Y-98856928D02*
X139067380Y-98761690D01*
X139115000Y-98666452D01*
X139162619Y-98618833D01*
X139257857Y-98571214D01*
X139448333Y-98523595D01*
X139686428Y-98523595D01*
X139876904Y-98571214D01*
X139972142Y-98618833D01*
X140019761Y-98666452D01*
X140067380Y-98761690D01*
X140067380Y-98856928D01*
X140019761Y-98952166D01*
X139972142Y-98999785D01*
X139876904Y-99047404D01*
X139686428Y-99095023D01*
X139448333Y-99095023D01*
X139257857Y-99047404D01*
X139162619Y-98999785D01*
X139115000Y-98952166D01*
X139067380Y-98856928D01*
G04 #@! TO.C,D6*
X112127380Y-100306095D02*
X111127380Y-100306095D01*
X111127380Y-100068000D01*
X111175000Y-99925142D01*
X111270238Y-99829904D01*
X111365476Y-99782285D01*
X111555952Y-99734666D01*
X111698809Y-99734666D01*
X111889285Y-99782285D01*
X111984523Y-99829904D01*
X112079761Y-99925142D01*
X112127380Y-100068000D01*
X112127380Y-100306095D01*
X111127380Y-98877523D02*
X111127380Y-99068000D01*
X111175000Y-99163238D01*
X111222619Y-99210857D01*
X111365476Y-99306095D01*
X111555952Y-99353714D01*
X111936904Y-99353714D01*
X112032142Y-99306095D01*
X112079761Y-99258476D01*
X112127380Y-99163238D01*
X112127380Y-98972761D01*
X112079761Y-98877523D01*
X112032142Y-98829904D01*
X111936904Y-98782285D01*
X111698809Y-98782285D01*
X111603571Y-98829904D01*
X111555952Y-98877523D01*
X111508333Y-98972761D01*
X111508333Y-99163238D01*
X111555952Y-99258476D01*
X111603571Y-99306095D01*
X111698809Y-99353714D01*
G04 #@! TO.C,D9*
X140533380Y-92051095D02*
X139533380Y-92051095D01*
X139533380Y-91813000D01*
X139581000Y-91670142D01*
X139676238Y-91574904D01*
X139771476Y-91527285D01*
X139961952Y-91479666D01*
X140104809Y-91479666D01*
X140295285Y-91527285D01*
X140390523Y-91574904D01*
X140485761Y-91670142D01*
X140533380Y-91813000D01*
X140533380Y-92051095D01*
X140533380Y-91003476D02*
X140533380Y-90813000D01*
X140485761Y-90717761D01*
X140438142Y-90670142D01*
X140295285Y-90574904D01*
X140104809Y-90527285D01*
X139723857Y-90527285D01*
X139628619Y-90574904D01*
X139581000Y-90622523D01*
X139533380Y-90717761D01*
X139533380Y-90908238D01*
X139581000Y-91003476D01*
X139628619Y-91051095D01*
X139723857Y-91098714D01*
X139961952Y-91098714D01*
X140057190Y-91051095D01*
X140104809Y-91003476D01*
X140152428Y-90908238D01*
X140152428Y-90717761D01*
X140104809Y-90622523D01*
X140057190Y-90574904D01*
X139961952Y-90527285D01*
G04 #@! TO.C,R13*
X145274380Y-107830857D02*
X144798190Y-108164190D01*
X145274380Y-108402285D02*
X144274380Y-108402285D01*
X144274380Y-108021333D01*
X144322000Y-107926095D01*
X144369619Y-107878476D01*
X144464857Y-107830857D01*
X144607714Y-107830857D01*
X144702952Y-107878476D01*
X144750571Y-107926095D01*
X144798190Y-108021333D01*
X144798190Y-108402285D01*
X145274380Y-106878476D02*
X145274380Y-107449904D01*
X145274380Y-107164190D02*
X144274380Y-107164190D01*
X144417238Y-107259428D01*
X144512476Y-107354666D01*
X144560095Y-107449904D01*
X144274380Y-106545142D02*
X144274380Y-105926095D01*
X144655333Y-106259428D01*
X144655333Y-106116571D01*
X144702952Y-106021333D01*
X144750571Y-105973714D01*
X144845809Y-105926095D01*
X145083904Y-105926095D01*
X145179142Y-105973714D01*
X145226761Y-106021333D01*
X145274380Y-106116571D01*
X145274380Y-106402285D01*
X145226761Y-106497523D01*
X145179142Y-106545142D01*
G04 #@! TO.C,R14*
X112678380Y-85097857D02*
X112202190Y-85431190D01*
X112678380Y-85669285D02*
X111678380Y-85669285D01*
X111678380Y-85288333D01*
X111726000Y-85193095D01*
X111773619Y-85145476D01*
X111868857Y-85097857D01*
X112011714Y-85097857D01*
X112106952Y-85145476D01*
X112154571Y-85193095D01*
X112202190Y-85288333D01*
X112202190Y-85669285D01*
X112678380Y-84145476D02*
X112678380Y-84716904D01*
X112678380Y-84431190D02*
X111678380Y-84431190D01*
X111821238Y-84526428D01*
X111916476Y-84621666D01*
X111964095Y-84716904D01*
X112011714Y-83288333D02*
X112678380Y-83288333D01*
X111630761Y-83526428D02*
X112345047Y-83764523D01*
X112345047Y-83145476D01*
G04 #@! TO.C,R15*
X115302380Y-108973857D02*
X114826190Y-109307190D01*
X115302380Y-109545285D02*
X114302380Y-109545285D01*
X114302380Y-109164333D01*
X114350000Y-109069095D01*
X114397619Y-109021476D01*
X114492857Y-108973857D01*
X114635714Y-108973857D01*
X114730952Y-109021476D01*
X114778571Y-109069095D01*
X114826190Y-109164333D01*
X114826190Y-109545285D01*
X115302380Y-108021476D02*
X115302380Y-108592904D01*
X115302380Y-108307190D02*
X114302380Y-108307190D01*
X114445238Y-108402428D01*
X114540476Y-108497666D01*
X114588095Y-108592904D01*
X114302380Y-107116714D02*
X114302380Y-107592904D01*
X114778571Y-107640523D01*
X114730952Y-107592904D01*
X114683333Y-107497666D01*
X114683333Y-107259571D01*
X114730952Y-107164333D01*
X114778571Y-107116714D01*
X114873809Y-107069095D01*
X115111904Y-107069095D01*
X115207142Y-107116714D01*
X115254761Y-107164333D01*
X115302380Y-107259571D01*
X115302380Y-107497666D01*
X115254761Y-107592904D01*
X115207142Y-107640523D01*
G04 #@! TO.C,R16*
X126775380Y-85732857D02*
X126299190Y-86066190D01*
X126775380Y-86304285D02*
X125775380Y-86304285D01*
X125775380Y-85923333D01*
X125823000Y-85828095D01*
X125870619Y-85780476D01*
X125965857Y-85732857D01*
X126108714Y-85732857D01*
X126203952Y-85780476D01*
X126251571Y-85828095D01*
X126299190Y-85923333D01*
X126299190Y-86304285D01*
X126775380Y-84780476D02*
X126775380Y-85351904D01*
X126775380Y-85066190D02*
X125775380Y-85066190D01*
X125918238Y-85161428D01*
X126013476Y-85256666D01*
X126061095Y-85351904D01*
X125775380Y-83923333D02*
X125775380Y-84113809D01*
X125823000Y-84209047D01*
X125870619Y-84256666D01*
X126013476Y-84351904D01*
X126203952Y-84399523D01*
X126584904Y-84399523D01*
X126680142Y-84351904D01*
X126727761Y-84304285D01*
X126775380Y-84209047D01*
X126775380Y-84018571D01*
X126727761Y-83923333D01*
X126680142Y-83875714D01*
X126584904Y-83828095D01*
X126346809Y-83828095D01*
X126251571Y-83875714D01*
X126203952Y-83923333D01*
X126156333Y-84018571D01*
X126156333Y-84209047D01*
X126203952Y-84304285D01*
X126251571Y-84351904D01*
X126346809Y-84399523D01*
G04 #@! TO.C,R18*
X141507380Y-85351857D02*
X141031190Y-85685190D01*
X141507380Y-85923285D02*
X140507380Y-85923285D01*
X140507380Y-85542333D01*
X140555000Y-85447095D01*
X140602619Y-85399476D01*
X140697857Y-85351857D01*
X140840714Y-85351857D01*
X140935952Y-85399476D01*
X140983571Y-85447095D01*
X141031190Y-85542333D01*
X141031190Y-85923285D01*
X141507380Y-84399476D02*
X141507380Y-84970904D01*
X141507380Y-84685190D02*
X140507380Y-84685190D01*
X140650238Y-84780428D01*
X140745476Y-84875666D01*
X140793095Y-84970904D01*
X140935952Y-83828047D02*
X140888333Y-83923285D01*
X140840714Y-83970904D01*
X140745476Y-84018523D01*
X140697857Y-84018523D01*
X140602619Y-83970904D01*
X140555000Y-83923285D01*
X140507380Y-83828047D01*
X140507380Y-83637571D01*
X140555000Y-83542333D01*
X140602619Y-83494714D01*
X140697857Y-83447095D01*
X140745476Y-83447095D01*
X140840714Y-83494714D01*
X140888333Y-83542333D01*
X140935952Y-83637571D01*
X140935952Y-83828047D01*
X140983571Y-83923285D01*
X141031190Y-83970904D01*
X141126428Y-84018523D01*
X141316904Y-84018523D01*
X141412142Y-83970904D01*
X141459761Y-83923285D01*
X141507380Y-83828047D01*
X141507380Y-83637571D01*
X141459761Y-83542333D01*
X141412142Y-83494714D01*
X141316904Y-83447095D01*
X141126428Y-83447095D01*
X141031190Y-83494714D01*
X140983571Y-83542333D01*
X140935952Y-83637571D01*
G04 #@! TO.C,R17*
X130923380Y-108375357D02*
X130447190Y-108708690D01*
X130923380Y-108946785D02*
X129923380Y-108946785D01*
X129923380Y-108565833D01*
X129971000Y-108470595D01*
X130018619Y-108422976D01*
X130113857Y-108375357D01*
X130256714Y-108375357D01*
X130351952Y-108422976D01*
X130399571Y-108470595D01*
X130447190Y-108565833D01*
X130447190Y-108946785D01*
X130923380Y-107422976D02*
X130923380Y-107994404D01*
X130923380Y-107708690D02*
X129923380Y-107708690D01*
X130066238Y-107803928D01*
X130161476Y-107899166D01*
X130209095Y-107994404D01*
X129923380Y-107089642D02*
X129923380Y-106422976D01*
X130923380Y-106851547D01*
G04 #@! TO.C,R12*
X135660380Y-100845857D02*
X135184190Y-101179190D01*
X135660380Y-101417285D02*
X134660380Y-101417285D01*
X134660380Y-101036333D01*
X134708000Y-100941095D01*
X134755619Y-100893476D01*
X134850857Y-100845857D01*
X134993714Y-100845857D01*
X135088952Y-100893476D01*
X135136571Y-100941095D01*
X135184190Y-101036333D01*
X135184190Y-101417285D01*
X135660380Y-99893476D02*
X135660380Y-100464904D01*
X135660380Y-100179190D02*
X134660380Y-100179190D01*
X134803238Y-100274428D01*
X134898476Y-100369666D01*
X134946095Y-100464904D01*
X134755619Y-99512523D02*
X134708000Y-99464904D01*
X134660380Y-99369666D01*
X134660380Y-99131571D01*
X134708000Y-99036333D01*
X134755619Y-98988714D01*
X134850857Y-98941095D01*
X134946095Y-98941095D01*
X135088952Y-98988714D01*
X135660380Y-99560142D01*
X135660380Y-98941095D01*
G04 #@! TO.C,R11*
X135787380Y-91955857D02*
X135311190Y-92289190D01*
X135787380Y-92527285D02*
X134787380Y-92527285D01*
X134787380Y-92146333D01*
X134835000Y-92051095D01*
X134882619Y-92003476D01*
X134977857Y-91955857D01*
X135120714Y-91955857D01*
X135215952Y-92003476D01*
X135263571Y-92051095D01*
X135311190Y-92146333D01*
X135311190Y-92527285D01*
X135787380Y-91003476D02*
X135787380Y-91574904D01*
X135787380Y-91289190D02*
X134787380Y-91289190D01*
X134930238Y-91384428D01*
X135025476Y-91479666D01*
X135073095Y-91574904D01*
X135787380Y-90051095D02*
X135787380Y-90622523D01*
X135787380Y-90336809D02*
X134787380Y-90336809D01*
X134930238Y-90432047D01*
X135025476Y-90527285D01*
X135073095Y-90622523D01*
G04 #@! TO.C,R10*
X121817380Y-100718857D02*
X121341190Y-101052190D01*
X121817380Y-101290285D02*
X120817380Y-101290285D01*
X120817380Y-100909333D01*
X120865000Y-100814095D01*
X120912619Y-100766476D01*
X121007857Y-100718857D01*
X121150714Y-100718857D01*
X121245952Y-100766476D01*
X121293571Y-100814095D01*
X121341190Y-100909333D01*
X121341190Y-101290285D01*
X121817380Y-99766476D02*
X121817380Y-100337904D01*
X121817380Y-100052190D02*
X120817380Y-100052190D01*
X120960238Y-100147428D01*
X121055476Y-100242666D01*
X121103095Y-100337904D01*
X120817380Y-99147428D02*
X120817380Y-99052190D01*
X120865000Y-98956952D01*
X120912619Y-98909333D01*
X121007857Y-98861714D01*
X121198333Y-98814095D01*
X121436428Y-98814095D01*
X121626904Y-98861714D01*
X121722142Y-98909333D01*
X121769761Y-98956952D01*
X121817380Y-99052190D01*
X121817380Y-99147428D01*
X121769761Y-99242666D01*
X121722142Y-99290285D01*
X121626904Y-99337904D01*
X121436428Y-99385523D01*
X121198333Y-99385523D01*
X121007857Y-99337904D01*
X120912619Y-99290285D01*
X120865000Y-99242666D01*
X120817380Y-99147428D01*
G04 #@! TO.C,R9*
X121817380Y-91225666D02*
X121341190Y-91559000D01*
X121817380Y-91797095D02*
X120817380Y-91797095D01*
X120817380Y-91416142D01*
X120865000Y-91320904D01*
X120912619Y-91273285D01*
X121007857Y-91225666D01*
X121150714Y-91225666D01*
X121245952Y-91273285D01*
X121293571Y-91320904D01*
X121341190Y-91416142D01*
X121341190Y-91797095D01*
X121817380Y-90749476D02*
X121817380Y-90559000D01*
X121769761Y-90463761D01*
X121722142Y-90416142D01*
X121579285Y-90320904D01*
X121388809Y-90273285D01*
X121007857Y-90273285D01*
X120912619Y-90320904D01*
X120865000Y-90368523D01*
X120817380Y-90463761D01*
X120817380Y-90654238D01*
X120865000Y-90749476D01*
X120912619Y-90797095D01*
X121007857Y-90844714D01*
X121245952Y-90844714D01*
X121341190Y-90797095D01*
X121388809Y-90749476D01*
X121436428Y-90654238D01*
X121436428Y-90463761D01*
X121388809Y-90368523D01*
X121341190Y-90320904D01*
X121245952Y-90273285D01*
G04 #@! TO.C,R8*
X108228380Y-100049166D02*
X107752190Y-100382500D01*
X108228380Y-100620595D02*
X107228380Y-100620595D01*
X107228380Y-100239642D01*
X107276000Y-100144404D01*
X107323619Y-100096785D01*
X107418857Y-100049166D01*
X107561714Y-100049166D01*
X107656952Y-100096785D01*
X107704571Y-100144404D01*
X107752190Y-100239642D01*
X107752190Y-100620595D01*
X107656952Y-99477738D02*
X107609333Y-99572976D01*
X107561714Y-99620595D01*
X107466476Y-99668214D01*
X107418857Y-99668214D01*
X107323619Y-99620595D01*
X107276000Y-99572976D01*
X107228380Y-99477738D01*
X107228380Y-99287261D01*
X107276000Y-99192023D01*
X107323619Y-99144404D01*
X107418857Y-99096785D01*
X107466476Y-99096785D01*
X107561714Y-99144404D01*
X107609333Y-99192023D01*
X107656952Y-99287261D01*
X107656952Y-99477738D01*
X107704571Y-99572976D01*
X107752190Y-99620595D01*
X107847428Y-99668214D01*
X108037904Y-99668214D01*
X108133142Y-99620595D01*
X108180761Y-99572976D01*
X108228380Y-99477738D01*
X108228380Y-99287261D01*
X108180761Y-99192023D01*
X108133142Y-99144404D01*
X108037904Y-99096785D01*
X107847428Y-99096785D01*
X107752190Y-99144404D01*
X107704571Y-99192023D01*
X107656952Y-99287261D01*
G04 #@! TO.C,R7*
X108482380Y-90905166D02*
X108006190Y-91238500D01*
X108482380Y-91476595D02*
X107482380Y-91476595D01*
X107482380Y-91095642D01*
X107530000Y-91000404D01*
X107577619Y-90952785D01*
X107672857Y-90905166D01*
X107815714Y-90905166D01*
X107910952Y-90952785D01*
X107958571Y-91000404D01*
X108006190Y-91095642D01*
X108006190Y-91476595D01*
X107482380Y-90571833D02*
X107482380Y-89905166D01*
X108482380Y-90333738D01*
G04 #@! TO.C,U5*
D17*
X84833354Y-90545294D02*
X84833354Y-91645720D01*
X84898085Y-91775182D01*
X84962816Y-91839913D01*
X85092278Y-91904644D01*
X85351202Y-91904644D01*
X85480664Y-91839913D01*
X85545395Y-91775182D01*
X85610126Y-91645720D01*
X85610126Y-90545294D01*
X86904745Y-90545294D02*
X86257435Y-90545294D01*
X86192704Y-91192603D01*
X86257435Y-91127872D01*
X86386897Y-91063141D01*
X86710552Y-91063141D01*
X86840014Y-91127872D01*
X86904745Y-91192603D01*
X86969476Y-91322065D01*
X86969476Y-91645720D01*
X86904745Y-91775182D01*
X86840014Y-91839913D01*
X86710552Y-91904644D01*
X86386897Y-91904644D01*
X86257435Y-91839913D01*
X86192704Y-91775182D01*
X83504170Y-100786534D02*
X83504170Y-99441794D01*
X84912945Y-100786534D02*
X84464699Y-100146182D01*
X84144522Y-100786534D02*
X84144522Y-99441794D01*
X84656804Y-99441794D01*
X84784875Y-99505830D01*
X84848910Y-99569865D01*
X84912945Y-99697935D01*
X84912945Y-99890041D01*
X84848910Y-100018111D01*
X84784875Y-100082147D01*
X84656804Y-100146182D01*
X84144522Y-100146182D01*
X85425227Y-99569865D02*
X85489262Y-99505830D01*
X85617333Y-99441794D01*
X85937509Y-99441794D01*
X86065580Y-99505830D01*
X86129615Y-99569865D01*
X86193650Y-99697935D01*
X86193650Y-99826006D01*
X86129615Y-100018111D01*
X85361192Y-100786534D01*
X86193650Y-100786534D01*
X87474355Y-100786534D02*
X86705932Y-100786534D01*
X87090143Y-100786534D02*
X87090143Y-99441794D01*
X86962073Y-99633900D01*
X86834002Y-99761970D01*
X86705932Y-99826006D01*
X88306813Y-99441794D02*
X88434883Y-99441794D01*
X88562954Y-99505830D01*
X88626989Y-99569865D01*
X88691024Y-99697935D01*
X88755060Y-99954076D01*
X88755060Y-100274252D01*
X88691024Y-100530393D01*
X88626989Y-100658464D01*
X88562954Y-100722499D01*
X88434883Y-100786534D01*
X88306813Y-100786534D01*
X88178742Y-100722499D01*
X88114707Y-100658464D01*
X88050672Y-100530393D01*
X87986637Y-100274252D01*
X87986637Y-99954076D01*
X88050672Y-99697935D01*
X88114707Y-99569865D01*
X88178742Y-99505830D01*
X88306813Y-99441794D01*
X90035764Y-100786534D02*
X89267341Y-100786534D01*
X89651553Y-100786534D02*
X89651553Y-99441794D01*
X89523482Y-99633900D01*
X89395412Y-99761970D01*
X89267341Y-99826006D01*
G04 #@! TO.C,U6*
X84706354Y-101467294D02*
X84706354Y-102567720D01*
X84771085Y-102697182D01*
X84835816Y-102761913D01*
X84965278Y-102826644D01*
X85224202Y-102826644D01*
X85353664Y-102761913D01*
X85418395Y-102697182D01*
X85483126Y-102567720D01*
X85483126Y-101467294D01*
X86713014Y-101467294D02*
X86454090Y-101467294D01*
X86324628Y-101532025D01*
X86259897Y-101596755D01*
X86130435Y-101790948D01*
X86065704Y-102049872D01*
X86065704Y-102567720D01*
X86130435Y-102697182D01*
X86195166Y-102761913D01*
X86324628Y-102826644D01*
X86583552Y-102826644D01*
X86713014Y-102761913D01*
X86777745Y-102697182D01*
X86842476Y-102567720D01*
X86842476Y-102244065D01*
X86777745Y-102114603D01*
X86713014Y-102049872D01*
X86583552Y-101985141D01*
X86324628Y-101985141D01*
X86195166Y-102049872D01*
X86130435Y-102114603D01*
X86065704Y-102244065D01*
X83377170Y-111708534D02*
X83377170Y-110363794D01*
X84785945Y-111708534D02*
X84337699Y-111068182D01*
X84017522Y-111708534D02*
X84017522Y-110363794D01*
X84529804Y-110363794D01*
X84657875Y-110427830D01*
X84721910Y-110491865D01*
X84785945Y-110619935D01*
X84785945Y-110812041D01*
X84721910Y-110940111D01*
X84657875Y-111004147D01*
X84529804Y-111068182D01*
X84017522Y-111068182D01*
X85298227Y-110491865D02*
X85362262Y-110427830D01*
X85490333Y-110363794D01*
X85810509Y-110363794D01*
X85938580Y-110427830D01*
X86002615Y-110491865D01*
X86066650Y-110619935D01*
X86066650Y-110748006D01*
X86002615Y-110940111D01*
X85234192Y-111708534D01*
X86066650Y-111708534D01*
X87347355Y-111708534D02*
X86578932Y-111708534D01*
X86963143Y-111708534D02*
X86963143Y-110363794D01*
X86835073Y-110555900D01*
X86707002Y-110683970D01*
X86578932Y-110748006D01*
X88179813Y-110363794D02*
X88307883Y-110363794D01*
X88435954Y-110427830D01*
X88499989Y-110491865D01*
X88564024Y-110619935D01*
X88628060Y-110876076D01*
X88628060Y-111196252D01*
X88564024Y-111452393D01*
X88499989Y-111580464D01*
X88435954Y-111644499D01*
X88307883Y-111708534D01*
X88179813Y-111708534D01*
X88051742Y-111644499D01*
X87987707Y-111580464D01*
X87923672Y-111452393D01*
X87859637Y-111196252D01*
X87859637Y-110876076D01*
X87923672Y-110619935D01*
X87987707Y-110491865D01*
X88051742Y-110427830D01*
X88179813Y-110363794D01*
X89908764Y-111708534D02*
X89140341Y-111708534D01*
X89524553Y-111708534D02*
X89524553Y-110363794D01*
X89396482Y-110555900D01*
X89268412Y-110683970D01*
X89140341Y-110748006D01*
G04 #@! TO.C,U4*
X84833354Y-78480294D02*
X84833354Y-79580720D01*
X84898085Y-79710182D01*
X84962816Y-79774913D01*
X85092278Y-79839644D01*
X85351202Y-79839644D01*
X85480664Y-79774913D01*
X85545395Y-79710182D01*
X85610126Y-79580720D01*
X85610126Y-78480294D01*
X86840014Y-78933410D02*
X86840014Y-79839644D01*
X86516359Y-78415563D02*
X86192704Y-79386527D01*
X87034207Y-79386527D01*
X83504170Y-88721534D02*
X83504170Y-87376794D01*
X84912945Y-88721534D02*
X84464699Y-88081182D01*
X84144522Y-88721534D02*
X84144522Y-87376794D01*
X84656804Y-87376794D01*
X84784875Y-87440830D01*
X84848910Y-87504865D01*
X84912945Y-87632935D01*
X84912945Y-87825041D01*
X84848910Y-87953111D01*
X84784875Y-88017147D01*
X84656804Y-88081182D01*
X84144522Y-88081182D01*
X85425227Y-87504865D02*
X85489262Y-87440830D01*
X85617333Y-87376794D01*
X85937509Y-87376794D01*
X86065580Y-87440830D01*
X86129615Y-87504865D01*
X86193650Y-87632935D01*
X86193650Y-87761006D01*
X86129615Y-87953111D01*
X85361192Y-88721534D01*
X86193650Y-88721534D01*
X87474355Y-88721534D02*
X86705932Y-88721534D01*
X87090143Y-88721534D02*
X87090143Y-87376794D01*
X86962073Y-87568900D01*
X86834002Y-87696970D01*
X86705932Y-87761006D01*
X88306813Y-87376794D02*
X88434883Y-87376794D01*
X88562954Y-87440830D01*
X88626989Y-87504865D01*
X88691024Y-87632935D01*
X88755060Y-87889076D01*
X88755060Y-88209252D01*
X88691024Y-88465393D01*
X88626989Y-88593464D01*
X88562954Y-88657499D01*
X88434883Y-88721534D01*
X88306813Y-88721534D01*
X88178742Y-88657499D01*
X88114707Y-88593464D01*
X88050672Y-88465393D01*
X87986637Y-88209252D01*
X87986637Y-87889076D01*
X88050672Y-87632935D01*
X88114707Y-87504865D01*
X88178742Y-87440830D01*
X88306813Y-87376794D01*
X90035764Y-88721534D02*
X89267341Y-88721534D01*
X89651553Y-88721534D02*
X89651553Y-87376794D01*
X89523482Y-87568900D01*
X89395412Y-87696970D01*
X89267341Y-87761006D01*
G04 #@! TD*
M02*
