M48
;DRILL file {KiCad (5.0.2)-1} date 5/11/2019 2:53:26 PM
;FORMAT={-:-/ absolute / inch / decimal}
FMAT,2
INCH,TZ
T1C0.0157
T2C0.0197
T3C0.0276
T4C0.0315
T5C0.0394
T6C0.0472
T7C0.0551
T8C0.0787
T9C0.1260
%
G90
G05
T1
X2.53Y-4.555
X2.64Y-3.235
X2.64Y-3.455
X2.645Y-3.865
X2.645Y-4.005
X2.93Y-4.395
X3.005Y-3.105
X3.055Y-3.875
X3.205Y-3.88
X3.26Y-2.82
X3.315Y-3.13
X3.395Y-3.32
X3.395Y-4.23
X3.395Y-4.605
X3.4Y-3.83
X3.44Y-2.635
X3.4527Y-4.4273
X3.54Y-2.985
X3.575Y-2.245
X3.585Y-4.605
X3.61Y-2.485
X3.62Y-2.8
X3.62Y-3.745
X3.64Y-4.115
X3.69Y-4.79
X3.705Y-4.28
X3.95Y-3.32
X3.96Y-3.86
X3.975Y-4.97
X4.17Y-4.83
X4.215Y-3.385
X4.34Y-3.415
X4.375Y-3.755
X4.48Y-3.745
X4.48Y-3.86
X4.535Y-4.16
X4.605Y-4.14
X4.605Y-4.235
X4.655Y-5.035
X4.885Y-3.805
X4.905Y-4.105
X4.925Y-3.445
X5.04Y-4.915
X5.48Y-2.515
X5.55Y-2.475
X5.575Y-3.485
X5.615Y-2.49
X5.64Y-2.91
X5.69Y-3.06
X5.7Y-2.48
X5.75Y-2.89
X5.75Y-2.89
X5.755Y-3.2
X5.825Y-2.345
X5.83Y-2.585
X5.835Y-4.425
X5.84Y-3.855
X5.9768Y-2.375
X6.01Y-3.49
X6.065Y-2.4855
X6.065Y-3.905
X6.08Y-3.455
X6.15Y-4.1
X6.15Y-4.1
X6.235Y-2.385
X6.235Y-2.485
T2
X5.145Y-4.755
T3
X3.475Y-4.895
T4
X3.88Y-4.71
X4.015Y-4.58
X4.44Y-4.64
X4.625Y-4.41
X4.97Y-4.43
X4.9731Y-4.74
T5
X2.415Y-3.725
X2.415Y-3.825
X2.415Y-3.925
X2.415Y-3.22
X2.415Y-3.32
X2.415Y-3.42
X2.425Y-2.61
X2.425Y-2.71
X2.4Y-4.375
X2.4Y-4.475
X2.4Y-4.575
X3.66Y-5.08
X3.76Y-5.08
X3.86Y-5.08
T6
X4.82Y-2.33
X4.82Y-2.6253
T7
X3.99Y-2.22
X4.19Y-2.22
T8
X6.43Y-3.25
X6.43Y-3.95
X6.43Y-4.65
T9
X6.62Y-5.03
X6.655Y-2.18
X2.39Y-2.18
X2.39Y-5.025
T0
M30
