M48
;DRILL file {KiCad (5.0.2)-1} date 6/3/2019 7:18:05 PM
;FORMAT={-:-/ absolute / metric / decimal}
FMAT,2
METRIC,TZ
T1C0.750
T2C0.800
T3C0.900
T4C1.000
T5C1.100
T6C1.118
T7C1.200
T8C1.300
T9C1.400
T10C3.200
%
G90
G05
T1
X163.914Y-74.855
X165.989Y-74.805
X167.989Y-74.855
T2
X168.839Y-67.945
X172.339Y-67.945
X146.741Y-53.34
X150.241Y-53.34
X169.474Y-82.55
X172.974Y-82.55
X156.21Y-72.192
X156.21Y-75.692
T3
X61.114Y-138.425
X61.114Y-140.965
X61.114Y-144.925
X61.114Y-147.465
X61.114Y-151.425
X61.114Y-153.965
T4
X120.904Y-160.401
X123.444Y-160.401
X125.984Y-160.401
X84.709Y-160.147
X87.249Y-160.147
X89.789Y-160.147
X64.389Y-60.96
X64.389Y-63.5
X64.389Y-66.04
X64.389Y-68.58
X64.389Y-71.12
X64.389Y-73.66
X64.389Y-76.2
X64.389Y-78.74
X64.389Y-81.28
X64.389Y-83.82
X64.389Y-86.36
X64.389Y-88.9
X64.389Y-91.44
X64.389Y-93.98
X64.389Y-96.52
X64.389Y-99.06
X94.742Y-160.274
X97.282Y-160.274
X99.822Y-160.274
X112.649Y-52.705
X115.189Y-52.705
X117.729Y-52.705
X120.269Y-52.705
X122.809Y-52.705
X80.264Y-91.925
X80.264Y-94.465
X80.264Y-97.005
X80.264Y-99.545
X80.264Y-102.085
X80.264Y-104.625
X80.264Y-107.165
X80.264Y-109.705
X80.264Y-112.245
X80.264Y-114.785
X80.264Y-117.325
X80.264Y-119.865
X80.264Y-122.405
X80.264Y-124.945
X80.264Y-127.485
X80.264Y-130.025
X80.264Y-132.565
X80.264Y-135.105
X80.264Y-137.645
X80.264Y-140.185
X80.264Y-142.725
X80.264Y-145.265
X80.264Y-147.805
X80.264Y-150.345
X80.264Y-152.885
X82.804Y-91.925
X82.804Y-94.465
X82.804Y-97.005
X82.804Y-99.545
X82.804Y-102.085
X82.804Y-104.625
X82.804Y-107.165
X82.804Y-109.705
X82.804Y-112.245
X82.804Y-114.785
X82.804Y-117.325
X82.804Y-119.865
X82.804Y-122.405
X82.804Y-124.945
X82.804Y-127.485
X82.804Y-130.025
X82.804Y-132.565
X82.804Y-135.105
X82.804Y-137.645
X82.804Y-140.185
X82.804Y-142.725
X82.804Y-145.265
X82.804Y-147.805
X82.804Y-150.345
X82.804Y-152.885
X131.064Y-91.925
X131.064Y-94.465
X131.064Y-97.005
X131.064Y-99.545
X131.064Y-102.085
X131.064Y-104.625
X131.064Y-107.165
X131.064Y-109.705
X131.064Y-112.245
X131.064Y-114.785
X131.064Y-117.325
X131.064Y-119.865
X131.064Y-122.405
X131.064Y-124.945
X131.064Y-127.485
X131.064Y-130.025
X131.064Y-132.565
X131.064Y-135.105
X131.064Y-137.645
X131.064Y-140.185
X131.064Y-142.725
X131.064Y-145.265
X131.064Y-147.805
X131.064Y-150.345
X131.064Y-152.885
X133.604Y-91.925
X133.604Y-94.465
X133.604Y-97.005
X133.604Y-99.545
X133.604Y-102.085
X133.604Y-104.625
X133.604Y-107.165
X133.604Y-109.705
X133.604Y-112.245
X133.604Y-114.785
X133.604Y-117.325
X133.604Y-119.865
X133.604Y-122.405
X133.604Y-124.945
X133.604Y-127.485
X133.604Y-130.025
X133.604Y-132.565
X133.604Y-135.105
X133.604Y-137.645
X133.604Y-140.185
X133.604Y-142.725
X133.604Y-145.265
X133.604Y-147.805
X133.604Y-150.345
X133.604Y-152.885
X152.527Y-146.558
X152.527Y-149.098
X152.527Y-151.638
X152.527Y-154.178
X152.527Y-156.718
X152.527Y-159.258
X106.172Y-160.274
X108.712Y-160.274
X111.252Y-160.274
X172.974Y-107.95
X172.974Y-110.49
X172.974Y-113.03
X172.974Y-133.35
X172.974Y-135.89
X172.974Y-138.43
X173.228Y-96.52
X173.228Y-99.06
T5
X161.544Y-61.52
X164.084Y-61.52
X166.624Y-61.52
T6
X151.384Y-120.575
X151.384Y-128.195
X153.924Y-120.575
X153.924Y-128.195
X156.464Y-120.575
X156.464Y-128.195
X159.004Y-120.575
X159.004Y-128.195
X161.544Y-120.575
X161.544Y-128.195
X164.084Y-120.575
X164.084Y-128.195
X166.624Y-120.575
X166.624Y-128.195
X169.164Y-120.575
X169.164Y-128.195
T7
X37.719Y-138.355
X52.959Y-138.355
X37.719Y-151.055
X52.959Y-151.055
X37.719Y-144.705
X52.959Y-144.705
X122.174Y-83.82
X122.174Y-99.06
T8
X102.649Y-40.64
X107.649Y-40.64
X112.649Y-40.64
T9
X147.552Y-42.037
X152.527Y-42.037
T10
X23.368Y-33.401
X24.13Y-158.623
X182.245Y-34.163
X182.626Y-157.607
T0
M30
