G04 #@! TF.GenerationSoftware,KiCad,Pcbnew,(5.0.2)-1*
G04 #@! TF.CreationDate,2019-06-03T19:17:29+03:00*
G04 #@! TF.ProjectId,STM32_board,53544d33-325f-4626-9f61-72642e6b6963,rev?*
G04 #@! TF.SameCoordinates,Original*
G04 #@! TF.FileFunction,Legend,Top*
G04 #@! TF.FilePolarity,Positive*
%FSLAX46Y46*%
G04 Gerber Fmt 4.6, Leading zero omitted, Abs format (unit mm)*
G04 Created by KiCad (PCBNEW (5.0.2)-1) date 6/3/2019 7:17:29 PM*
%MOMM*%
%LPD*%
G01*
G04 APERTURE LIST*
%ADD10C,0.375000*%
%ADD11C,0.300000*%
%ADD12C,0.250000*%
%ADD13C,0.120000*%
%ADD14C,0.127000*%
%ADD15C,0.400000*%
%ADD16C,0.152400*%
%ADD17C,0.100000*%
%ADD18C,0.150000*%
%ADD19C,0.050000*%
G04 APERTURE END LIST*
D10*
X42663857Y-40394857D02*
X40521000Y-40394857D01*
X40092428Y-40252000D01*
X39806714Y-39966285D01*
X39663857Y-39537714D01*
X39663857Y-39252000D01*
X39663857Y-42252000D02*
X39806714Y-41966285D01*
X39949571Y-41823428D01*
X40235285Y-41680571D01*
X41092428Y-41680571D01*
X41378142Y-41823428D01*
X41521000Y-41966285D01*
X41663857Y-42252000D01*
X41663857Y-42680571D01*
X41521000Y-42966285D01*
X41378142Y-43109142D01*
X41092428Y-43252000D01*
X40235285Y-43252000D01*
X39949571Y-43109142D01*
X39806714Y-42966285D01*
X39663857Y-42680571D01*
X39663857Y-42252000D01*
X41663857Y-44252000D02*
X39663857Y-44966285D01*
X41663857Y-45680571D02*
X39663857Y-44966285D01*
X38949571Y-44680571D01*
X38806714Y-44537714D01*
X38663857Y-44252000D01*
X39806714Y-46680571D02*
X39663857Y-46966285D01*
X39663857Y-47537714D01*
X39806714Y-47823428D01*
X40092428Y-47966285D01*
X40235285Y-47966285D01*
X40521000Y-47823428D01*
X40663857Y-47537714D01*
X40663857Y-47109142D01*
X40806714Y-46823428D01*
X41092428Y-46680571D01*
X41235285Y-46680571D01*
X41521000Y-46823428D01*
X41663857Y-47109142D01*
X41663857Y-47537714D01*
X41521000Y-47823428D01*
X41663857Y-48823428D02*
X41663857Y-49966285D01*
X42663857Y-49252000D02*
X40092428Y-49252000D01*
X39806714Y-49394857D01*
X39663857Y-49680571D01*
X39663857Y-49966285D01*
X39663857Y-50966285D02*
X41663857Y-50966285D01*
X42663857Y-50966285D02*
X42521000Y-50823428D01*
X42378142Y-50966285D01*
X42521000Y-51109142D01*
X42663857Y-50966285D01*
X42378142Y-50966285D01*
X39806714Y-53680571D02*
X39663857Y-53394857D01*
X39663857Y-52823428D01*
X39806714Y-52537714D01*
X39949571Y-52394857D01*
X40235285Y-52252000D01*
X41092428Y-52252000D01*
X41378142Y-52394857D01*
X41521000Y-52537714D01*
X41663857Y-52823428D01*
X41663857Y-53394857D01*
X41521000Y-53680571D01*
X39663857Y-54966285D02*
X42663857Y-54966285D01*
X40806714Y-55252000D02*
X39663857Y-56109142D01*
X41663857Y-56109142D02*
X40521000Y-54966285D01*
D11*
X177311857Y-43869857D02*
X177383285Y-43655571D01*
X177454714Y-43584142D01*
X177597571Y-43512714D01*
X177811857Y-43512714D01*
X177954714Y-43584142D01*
X178026142Y-43655571D01*
X178097571Y-43798428D01*
X178097571Y-44369857D01*
X176597571Y-44369857D01*
X176597571Y-43869857D01*
X176669000Y-43727000D01*
X176740428Y-43655571D01*
X176883285Y-43584142D01*
X177026142Y-43584142D01*
X177169000Y-43655571D01*
X177240428Y-43727000D01*
X177311857Y-43869857D01*
X177311857Y-44369857D01*
X177669000Y-42941285D02*
X177669000Y-42227000D01*
X178097571Y-43084142D02*
X176597571Y-42584142D01*
X178097571Y-42084142D01*
X177954714Y-40727000D02*
X178026142Y-40798428D01*
X178097571Y-41012714D01*
X178097571Y-41155571D01*
X178026142Y-41369857D01*
X177883285Y-41512714D01*
X177740428Y-41584142D01*
X177454714Y-41655571D01*
X177240428Y-41655571D01*
X176954714Y-41584142D01*
X176811857Y-41512714D01*
X176669000Y-41369857D01*
X176597571Y-41155571D01*
X176597571Y-41012714D01*
X176669000Y-40798428D01*
X176740428Y-40727000D01*
X178097571Y-40084142D02*
X176597571Y-40084142D01*
X176597571Y-39369857D02*
X177811857Y-39369857D01*
X177954714Y-39298428D01*
X178026142Y-39227000D01*
X178097571Y-39084142D01*
X178097571Y-38798428D01*
X178026142Y-38655571D01*
X177954714Y-38584142D01*
X177811857Y-38512714D01*
X176597571Y-38512714D01*
X176597571Y-36869857D02*
X178097571Y-36369857D01*
X176597571Y-35869857D01*
X178097571Y-34655571D02*
X178097571Y-35369857D01*
X176597571Y-35369857D01*
X177669000Y-34227000D02*
X177669000Y-33512714D01*
X178097571Y-34369857D02*
X176597571Y-33869857D01*
X178097571Y-33369857D01*
X178097571Y-32869857D02*
X176597571Y-32869857D01*
X176597571Y-32512714D01*
X176669000Y-32298428D01*
X176811857Y-32155571D01*
X176954714Y-32084142D01*
X177240428Y-32012714D01*
X177454714Y-32012714D01*
X177740428Y-32084142D01*
X177883285Y-32155571D01*
X178026142Y-32298428D01*
X178097571Y-32512714D01*
X178097571Y-32869857D01*
D12*
X171013380Y-159717523D02*
X170013380Y-159717523D01*
X170013380Y-159336571D01*
X170061000Y-159241333D01*
X170108619Y-159193714D01*
X170203857Y-159146095D01*
X170346714Y-159146095D01*
X170441952Y-159193714D01*
X170489571Y-159241333D01*
X170537190Y-159336571D01*
X170537190Y-159717523D01*
X170918142Y-158146095D02*
X170965761Y-158193714D01*
X171013380Y-158336571D01*
X171013380Y-158431809D01*
X170965761Y-158574666D01*
X170870523Y-158669904D01*
X170775285Y-158717523D01*
X170584809Y-158765142D01*
X170441952Y-158765142D01*
X170251476Y-158717523D01*
X170156238Y-158669904D01*
X170061000Y-158574666D01*
X170013380Y-158431809D01*
X170013380Y-158336571D01*
X170061000Y-158193714D01*
X170108619Y-158146095D01*
X170965761Y-156527047D02*
X171013380Y-156622285D01*
X171013380Y-156812761D01*
X170965761Y-156908000D01*
X170918142Y-156955619D01*
X170822904Y-157003238D01*
X170537190Y-157003238D01*
X170441952Y-156955619D01*
X170394333Y-156908000D01*
X170346714Y-156812761D01*
X170346714Y-156622285D01*
X170394333Y-156527047D01*
X171013380Y-155955619D02*
X170965761Y-156050857D01*
X170918142Y-156098476D01*
X170822904Y-156146095D01*
X170537190Y-156146095D01*
X170441952Y-156098476D01*
X170394333Y-156050857D01*
X170346714Y-155955619D01*
X170346714Y-155812761D01*
X170394333Y-155717523D01*
X170441952Y-155669904D01*
X170537190Y-155622285D01*
X170822904Y-155622285D01*
X170918142Y-155669904D01*
X170965761Y-155717523D01*
X171013380Y-155812761D01*
X171013380Y-155955619D01*
X171013380Y-155193714D02*
X170346714Y-155193714D01*
X170441952Y-155193714D02*
X170394333Y-155146095D01*
X170346714Y-155050857D01*
X170346714Y-154908000D01*
X170394333Y-154812761D01*
X170489571Y-154765142D01*
X171013380Y-154765142D01*
X170489571Y-154765142D02*
X170394333Y-154717523D01*
X170346714Y-154622285D01*
X170346714Y-154479428D01*
X170394333Y-154384190D01*
X170489571Y-154336571D01*
X171013380Y-154336571D01*
X171013380Y-153860380D02*
X170346714Y-153860380D01*
X170441952Y-153860380D02*
X170394333Y-153812761D01*
X170346714Y-153717523D01*
X170346714Y-153574666D01*
X170394333Y-153479428D01*
X170489571Y-153431809D01*
X171013380Y-153431809D01*
X170489571Y-153431809D02*
X170394333Y-153384190D01*
X170346714Y-153288952D01*
X170346714Y-153146095D01*
X170394333Y-153050857D01*
X170489571Y-153003238D01*
X171013380Y-153003238D01*
X170346714Y-152098476D02*
X171013380Y-152098476D01*
X170346714Y-152527047D02*
X170870523Y-152527047D01*
X170965761Y-152479428D01*
X171013380Y-152384190D01*
X171013380Y-152241333D01*
X170965761Y-152146095D01*
X170918142Y-152098476D01*
X170346714Y-151622285D02*
X171013380Y-151622285D01*
X170441952Y-151622285D02*
X170394333Y-151574666D01*
X170346714Y-151479428D01*
X170346714Y-151336571D01*
X170394333Y-151241333D01*
X170489571Y-151193714D01*
X171013380Y-151193714D01*
X171013380Y-150717523D02*
X170346714Y-150717523D01*
X170013380Y-150717523D02*
X170061000Y-150765142D01*
X170108619Y-150717523D01*
X170061000Y-150669904D01*
X170013380Y-150717523D01*
X170108619Y-150717523D01*
X170965761Y-149812761D02*
X171013380Y-149908000D01*
X171013380Y-150098476D01*
X170965761Y-150193714D01*
X170918142Y-150241333D01*
X170822904Y-150288952D01*
X170537190Y-150288952D01*
X170441952Y-150241333D01*
X170394333Y-150193714D01*
X170346714Y-150098476D01*
X170346714Y-149908000D01*
X170394333Y-149812761D01*
X171013380Y-148955619D02*
X170489571Y-148955619D01*
X170394333Y-149003238D01*
X170346714Y-149098476D01*
X170346714Y-149288952D01*
X170394333Y-149384190D01*
X170965761Y-148955619D02*
X171013380Y-149050857D01*
X171013380Y-149288952D01*
X170965761Y-149384190D01*
X170870523Y-149431809D01*
X170775285Y-149431809D01*
X170680047Y-149384190D01*
X170632428Y-149288952D01*
X170632428Y-149050857D01*
X170584809Y-148955619D01*
X170346714Y-148622285D02*
X170346714Y-148241333D01*
X170013380Y-148479428D02*
X170870523Y-148479428D01*
X170965761Y-148431809D01*
X171013380Y-148336571D01*
X171013380Y-148241333D01*
X171013380Y-147908000D02*
X170346714Y-147908000D01*
X170013380Y-147908000D02*
X170061000Y-147955619D01*
X170108619Y-147908000D01*
X170061000Y-147860380D01*
X170013380Y-147908000D01*
X170108619Y-147908000D01*
X171013380Y-147288952D02*
X170965761Y-147384190D01*
X170918142Y-147431809D01*
X170822904Y-147479428D01*
X170537190Y-147479428D01*
X170441952Y-147431809D01*
X170394333Y-147384190D01*
X170346714Y-147288952D01*
X170346714Y-147146095D01*
X170394333Y-147050857D01*
X170441952Y-147003238D01*
X170537190Y-146955619D01*
X170822904Y-146955619D01*
X170918142Y-147003238D01*
X170965761Y-147050857D01*
X171013380Y-147146095D01*
X171013380Y-147288952D01*
X170346714Y-146527047D02*
X171013380Y-146527047D01*
X170441952Y-146527047D02*
X170394333Y-146479428D01*
X170346714Y-146384190D01*
X170346714Y-146241333D01*
X170394333Y-146146095D01*
X170489571Y-146098476D01*
X171013380Y-146098476D01*
X180792380Y-138723333D02*
X180792380Y-139199523D01*
X179792380Y-139199523D01*
X179792380Y-138199523D02*
X179792380Y-138009047D01*
X179840000Y-137913809D01*
X179935238Y-137818571D01*
X180125714Y-137770952D01*
X180459047Y-137770952D01*
X180649523Y-137818571D01*
X180744761Y-137913809D01*
X180792380Y-138009047D01*
X180792380Y-138199523D01*
X180744761Y-138294761D01*
X180649523Y-138390000D01*
X180459047Y-138437619D01*
X180125714Y-138437619D01*
X179935238Y-138390000D01*
X179840000Y-138294761D01*
X179792380Y-138199523D01*
X179792380Y-137437619D02*
X180792380Y-137199523D01*
X180078095Y-137009047D01*
X180792380Y-136818571D01*
X179792380Y-136580476D01*
X180744761Y-135485238D02*
X180792380Y-135342380D01*
X180792380Y-135104285D01*
X180744761Y-135009047D01*
X180697142Y-134961428D01*
X180601904Y-134913809D01*
X180506666Y-134913809D01*
X180411428Y-134961428D01*
X180363809Y-135009047D01*
X180316190Y-135104285D01*
X180268571Y-135294761D01*
X180220952Y-135390000D01*
X180173333Y-135437619D01*
X180078095Y-135485238D01*
X179982857Y-135485238D01*
X179887619Y-135437619D01*
X179840000Y-135390000D01*
X179792380Y-135294761D01*
X179792380Y-135056666D01*
X179840000Y-134913809D01*
X180792380Y-134485238D02*
X179792380Y-134485238D01*
X180792380Y-134009047D02*
X179792380Y-134009047D01*
X179792380Y-133770952D01*
X179840000Y-133628095D01*
X179935238Y-133532857D01*
X180030476Y-133485238D01*
X180220952Y-133437619D01*
X180363809Y-133437619D01*
X180554285Y-133485238D01*
X180649523Y-133532857D01*
X180744761Y-133628095D01*
X180792380Y-133770952D01*
X180792380Y-134009047D01*
X180268571Y-133009047D02*
X180268571Y-132675714D01*
X180792380Y-132532857D02*
X180792380Y-133009047D01*
X179792380Y-133009047D01*
X179792380Y-132532857D01*
D11*
X37410428Y-162603571D02*
X37410428Y-161103571D01*
X38124714Y-161603571D02*
X38124714Y-162603571D01*
X38124714Y-161746428D02*
X38196142Y-161675000D01*
X38339000Y-161603571D01*
X38553285Y-161603571D01*
X38696142Y-161675000D01*
X38767571Y-161817857D01*
X38767571Y-162603571D01*
X40124714Y-162603571D02*
X40124714Y-161103571D01*
X40124714Y-162532142D02*
X39981857Y-162603571D01*
X39696142Y-162603571D01*
X39553285Y-162532142D01*
X39481857Y-162460714D01*
X39410428Y-162317857D01*
X39410428Y-161889285D01*
X39481857Y-161746428D01*
X39553285Y-161675000D01*
X39696142Y-161603571D01*
X39981857Y-161603571D01*
X40124714Y-161675000D01*
X40839000Y-162603571D02*
X40839000Y-161603571D01*
X40839000Y-161103571D02*
X40767571Y-161175000D01*
X40839000Y-161246428D01*
X40910428Y-161175000D01*
X40839000Y-161103571D01*
X40839000Y-161246428D01*
X42196142Y-162532142D02*
X42053285Y-162603571D01*
X41767571Y-162603571D01*
X41624714Y-162532142D01*
X41553285Y-162460714D01*
X41481857Y-162317857D01*
X41481857Y-161889285D01*
X41553285Y-161746428D01*
X41624714Y-161675000D01*
X41767571Y-161603571D01*
X42053285Y-161603571D01*
X42196142Y-161675000D01*
X43481857Y-162603571D02*
X43481857Y-161817857D01*
X43410428Y-161675000D01*
X43267571Y-161603571D01*
X42981857Y-161603571D01*
X42839000Y-161675000D01*
X43481857Y-162532142D02*
X43339000Y-162603571D01*
X42981857Y-162603571D01*
X42839000Y-162532142D01*
X42767571Y-162389285D01*
X42767571Y-162246428D01*
X42839000Y-162103571D01*
X42981857Y-162032142D01*
X43339000Y-162032142D01*
X43481857Y-161960714D01*
X43981857Y-161603571D02*
X44553285Y-161603571D01*
X44196142Y-161103571D02*
X44196142Y-162389285D01*
X44267571Y-162532142D01*
X44410428Y-162603571D01*
X44553285Y-162603571D01*
X45267571Y-162603571D02*
X45124714Y-162532142D01*
X45053285Y-162460714D01*
X44981857Y-162317857D01*
X44981857Y-161889285D01*
X45053285Y-161746428D01*
X45124714Y-161675000D01*
X45267571Y-161603571D01*
X45481857Y-161603571D01*
X45624714Y-161675000D01*
X45696142Y-161746428D01*
X45767571Y-161889285D01*
X45767571Y-162317857D01*
X45696142Y-162460714D01*
X45624714Y-162532142D01*
X45481857Y-162603571D01*
X45267571Y-162603571D01*
X46410428Y-162603571D02*
X46410428Y-161603571D01*
X46410428Y-161889285D02*
X46481857Y-161746428D01*
X46553285Y-161675000D01*
X46696142Y-161603571D01*
X46839000Y-161603571D01*
X49196142Y-162603571D02*
X48481857Y-162603571D01*
X48481857Y-161103571D01*
X49696142Y-161817857D02*
X50196142Y-161817857D01*
X50410428Y-162603571D02*
X49696142Y-162603571D01*
X49696142Y-161103571D01*
X50410428Y-161103571D01*
X51053285Y-162603571D02*
X51053285Y-161103571D01*
X51410428Y-161103571D01*
X51624714Y-161175000D01*
X51767571Y-161317857D01*
X51839000Y-161460714D01*
X51910428Y-161746428D01*
X51910428Y-161960714D01*
X51839000Y-162246428D01*
X51767571Y-162389285D01*
X51624714Y-162532142D01*
X51410428Y-162603571D01*
X51053285Y-162603571D01*
X52481857Y-162532142D02*
X52696142Y-162603571D01*
X53053285Y-162603571D01*
X53196142Y-162532142D01*
X53267571Y-162460714D01*
X53339000Y-162317857D01*
X53339000Y-162175000D01*
X53267571Y-162032142D01*
X53196142Y-161960714D01*
X53053285Y-161889285D01*
X52767571Y-161817857D01*
X52624714Y-161746428D01*
X52553285Y-161675000D01*
X52481857Y-161532142D01*
X52481857Y-161389285D01*
X52553285Y-161246428D01*
X52624714Y-161175000D01*
X52767571Y-161103571D01*
X53124714Y-161103571D01*
X53339000Y-161175000D01*
D12*
X181300380Y-114466190D02*
X180300380Y-114466190D01*
X180776571Y-114466190D02*
X180776571Y-113894761D01*
X181300380Y-113894761D02*
X180300380Y-113894761D01*
X181300380Y-113418571D02*
X180300380Y-113418571D01*
X180348000Y-112418571D02*
X180300380Y-112513809D01*
X180300380Y-112656666D01*
X180348000Y-112799523D01*
X180443238Y-112894761D01*
X180538476Y-112942380D01*
X180728952Y-112990000D01*
X180871809Y-112990000D01*
X181062285Y-112942380D01*
X181157523Y-112894761D01*
X181252761Y-112799523D01*
X181300380Y-112656666D01*
X181300380Y-112561428D01*
X181252761Y-112418571D01*
X181205142Y-112370952D01*
X180871809Y-112370952D01*
X180871809Y-112561428D01*
X181300380Y-111942380D02*
X180300380Y-111942380D01*
X180776571Y-111942380D02*
X180776571Y-111370952D01*
X181300380Y-111370952D02*
X180300380Y-111370952D01*
X181252761Y-110180476D02*
X181300380Y-110037619D01*
X181300380Y-109799523D01*
X181252761Y-109704285D01*
X181205142Y-109656666D01*
X181109904Y-109609047D01*
X181014666Y-109609047D01*
X180919428Y-109656666D01*
X180871809Y-109704285D01*
X180824190Y-109799523D01*
X180776571Y-109990000D01*
X180728952Y-110085238D01*
X180681333Y-110132857D01*
X180586095Y-110180476D01*
X180490857Y-110180476D01*
X180395619Y-110132857D01*
X180348000Y-110085238D01*
X180300380Y-109990000D01*
X180300380Y-109751904D01*
X180348000Y-109609047D01*
X181300380Y-109180476D02*
X180300380Y-109180476D01*
X181300380Y-108704285D02*
X180300380Y-108704285D01*
X180300380Y-108466190D01*
X180348000Y-108323333D01*
X180443238Y-108228095D01*
X180538476Y-108180476D01*
X180728952Y-108132857D01*
X180871809Y-108132857D01*
X181062285Y-108180476D01*
X181157523Y-108228095D01*
X181252761Y-108323333D01*
X181300380Y-108466190D01*
X181300380Y-108704285D01*
X180776571Y-107704285D02*
X180776571Y-107370952D01*
X181300380Y-107228095D02*
X181300380Y-107704285D01*
X180300380Y-107704285D01*
X180300380Y-107228095D01*
X180808380Y-99186619D02*
X180808380Y-98567571D01*
X181189333Y-98900904D01*
X181189333Y-98758047D01*
X181236952Y-98662809D01*
X181284571Y-98615190D01*
X181379809Y-98567571D01*
X181617904Y-98567571D01*
X181713142Y-98615190D01*
X181760761Y-98662809D01*
X181808380Y-98758047D01*
X181808380Y-99043761D01*
X181760761Y-99139000D01*
X181713142Y-99186619D01*
X180808380Y-98281857D02*
X181808380Y-97948523D01*
X180808380Y-97615190D01*
X180808380Y-97377095D02*
X180808380Y-96758047D01*
X181189333Y-97091380D01*
X181189333Y-96948523D01*
X181236952Y-96853285D01*
X181284571Y-96805666D01*
X181379809Y-96758047D01*
X181617904Y-96758047D01*
X181713142Y-96805666D01*
X181760761Y-96853285D01*
X181808380Y-96948523D01*
X181808380Y-97234238D01*
X181760761Y-97329476D01*
X181713142Y-97377095D01*
X180808380Y-95377095D02*
X180808380Y-95186619D01*
X180856000Y-95091380D01*
X180951238Y-94996142D01*
X181141714Y-94948523D01*
X181475047Y-94948523D01*
X181665523Y-94996142D01*
X181760761Y-95091380D01*
X181808380Y-95186619D01*
X181808380Y-95377095D01*
X181760761Y-95472333D01*
X181665523Y-95567571D01*
X181475047Y-95615190D01*
X181141714Y-95615190D01*
X180951238Y-95567571D01*
X180856000Y-95472333D01*
X180808380Y-95377095D01*
X180808380Y-94519952D02*
X181617904Y-94519952D01*
X181713142Y-94472333D01*
X181760761Y-94424714D01*
X181808380Y-94329476D01*
X181808380Y-94139000D01*
X181760761Y-94043761D01*
X181713142Y-93996142D01*
X181617904Y-93948523D01*
X180808380Y-93948523D01*
X180808380Y-93615190D02*
X180808380Y-93043761D01*
X181808380Y-93329476D02*
X180808380Y-93329476D01*
D10*
X39282857Y-70804142D02*
X39282857Y-69375571D01*
X42282857Y-69375571D01*
X39568571Y-73518428D02*
X39425714Y-73375571D01*
X39282857Y-72947000D01*
X39282857Y-72661285D01*
X39425714Y-72232714D01*
X39711428Y-71947000D01*
X39997142Y-71804142D01*
X40568571Y-71661285D01*
X40997142Y-71661285D01*
X41568571Y-71804142D01*
X41854285Y-71947000D01*
X42140000Y-72232714D01*
X42282857Y-72661285D01*
X42282857Y-72947000D01*
X42140000Y-73375571D01*
X41997142Y-73518428D01*
X39282857Y-74804142D02*
X42282857Y-74804142D01*
X42282857Y-75518428D01*
X42140000Y-75947000D01*
X41854285Y-76232714D01*
X41568571Y-76375571D01*
X40997142Y-76518428D01*
X40568571Y-76518428D01*
X39997142Y-76375571D01*
X39711428Y-76232714D01*
X39425714Y-75947000D01*
X39282857Y-75518428D01*
X39282857Y-74804142D01*
X39282857Y-80089857D02*
X41282857Y-80089857D01*
X42282857Y-80089857D02*
X42140000Y-79947000D01*
X41997142Y-80089857D01*
X42140000Y-80232714D01*
X42282857Y-80089857D01*
X41997142Y-80089857D01*
X41282857Y-81518428D02*
X39282857Y-81518428D01*
X40997142Y-81518428D02*
X41140000Y-81661285D01*
X41282857Y-81947000D01*
X41282857Y-82375571D01*
X41140000Y-82661285D01*
X40854285Y-82804142D01*
X39282857Y-82804142D01*
X41282857Y-83804142D02*
X41282857Y-84947000D01*
X42282857Y-84232714D02*
X39711428Y-84232714D01*
X39425714Y-84375571D01*
X39282857Y-84661285D01*
X39282857Y-84947000D01*
X39425714Y-87089857D02*
X39282857Y-86804142D01*
X39282857Y-86232714D01*
X39425714Y-85947000D01*
X39711428Y-85804142D01*
X40854285Y-85804142D01*
X41140000Y-85947000D01*
X41282857Y-86232714D01*
X41282857Y-86804142D01*
X41140000Y-87089857D01*
X40854285Y-87232714D01*
X40568571Y-87232714D01*
X40282857Y-85804142D01*
X39282857Y-88518428D02*
X41282857Y-88518428D01*
X40711428Y-88518428D02*
X40997142Y-88661285D01*
X41140000Y-88804142D01*
X41282857Y-89089857D01*
X41282857Y-89375571D01*
X41282857Y-89947000D02*
X41282857Y-91089857D01*
X39282857Y-90375571D02*
X41854285Y-90375571D01*
X42140000Y-90518428D01*
X42282857Y-90804142D01*
X42282857Y-91089857D01*
X39282857Y-93375571D02*
X40854285Y-93375571D01*
X41140000Y-93232714D01*
X41282857Y-92947000D01*
X41282857Y-92375571D01*
X41140000Y-92089857D01*
X39425714Y-93375571D02*
X39282857Y-93089857D01*
X39282857Y-92375571D01*
X39425714Y-92089857D01*
X39711428Y-91947000D01*
X39997142Y-91947000D01*
X40282857Y-92089857D01*
X40425714Y-92375571D01*
X40425714Y-93089857D01*
X40568571Y-93375571D01*
X39425714Y-96089857D02*
X39282857Y-95804142D01*
X39282857Y-95232714D01*
X39425714Y-94947000D01*
X39568571Y-94804142D01*
X39854285Y-94661285D01*
X40711428Y-94661285D01*
X40997142Y-94804142D01*
X41140000Y-94947000D01*
X41282857Y-95232714D01*
X41282857Y-95804142D01*
X41140000Y-96089857D01*
X39425714Y-98518428D02*
X39282857Y-98232714D01*
X39282857Y-97661285D01*
X39425714Y-97375571D01*
X39711428Y-97232714D01*
X40854285Y-97232714D01*
X41140000Y-97375571D01*
X41282857Y-97661285D01*
X41282857Y-98232714D01*
X41140000Y-98518428D01*
X40854285Y-98661285D01*
X40568571Y-98661285D01*
X40282857Y-97232714D01*
D13*
G04 #@! TO.C,J11*
X124714000Y-159071000D02*
X124714000Y-161731000D01*
X124714000Y-159071000D02*
X119574000Y-159071000D01*
X119574000Y-159071000D02*
X119574000Y-161731000D01*
X124714000Y-161731000D02*
X119574000Y-161731000D01*
X127314000Y-161731000D02*
X125984000Y-161731000D01*
X127314000Y-160401000D02*
X127314000Y-161731000D01*
G04 #@! TO.C,J6*
X171898000Y-97790000D02*
X174558000Y-97790000D01*
X171898000Y-97790000D02*
X171898000Y-100390000D01*
X171898000Y-100390000D02*
X174558000Y-100390000D01*
X174558000Y-97790000D02*
X174558000Y-100390000D01*
X174558000Y-95190000D02*
X174558000Y-96520000D01*
X173228000Y-95190000D02*
X174558000Y-95190000D01*
G04 #@! TO.C,J8*
X88519000Y-158817000D02*
X88519000Y-161477000D01*
X88519000Y-158817000D02*
X83379000Y-158817000D01*
X83379000Y-158817000D02*
X83379000Y-161477000D01*
X88519000Y-161477000D02*
X83379000Y-161477000D01*
X91119000Y-161477000D02*
X89789000Y-161477000D01*
X91119000Y-160147000D02*
X91119000Y-161477000D01*
G04 #@! TO.C,C2*
X174598698Y-70660000D02*
X174598698Y-69860000D01*
X174998698Y-70260000D02*
X174198698Y-70260000D01*
X166508000Y-68478000D02*
X166508000Y-67412000D01*
X166548000Y-68713000D02*
X166548000Y-67177000D01*
X166588000Y-68893000D02*
X166588000Y-66997000D01*
X166628000Y-69043000D02*
X166628000Y-66847000D01*
X166668000Y-69174000D02*
X166668000Y-66716000D01*
X166708000Y-69291000D02*
X166708000Y-66599000D01*
X166748000Y-69398000D02*
X166748000Y-66492000D01*
X166788000Y-69497000D02*
X166788000Y-66393000D01*
X166828000Y-69590000D02*
X166828000Y-66300000D01*
X166868000Y-69676000D02*
X166868000Y-66214000D01*
X166908000Y-69758000D02*
X166908000Y-66132000D01*
X166948000Y-69835000D02*
X166948000Y-66055000D01*
X166988000Y-69909000D02*
X166988000Y-65981000D01*
X167028000Y-69979000D02*
X167028000Y-65911000D01*
X167068000Y-70047000D02*
X167068000Y-65843000D01*
X167108000Y-70111000D02*
X167108000Y-65779000D01*
X167148000Y-70173000D02*
X167148000Y-65717000D01*
X167188000Y-70232000D02*
X167188000Y-65658000D01*
X167228000Y-70290000D02*
X167228000Y-65600000D01*
X167268000Y-70345000D02*
X167268000Y-65545000D01*
X167308000Y-70399000D02*
X167308000Y-65491000D01*
X167348000Y-70450000D02*
X167348000Y-65440000D01*
X167388000Y-70501000D02*
X167388000Y-65389000D01*
X167428000Y-70549000D02*
X167428000Y-65341000D01*
X167468000Y-70596000D02*
X167468000Y-65294000D01*
X167508000Y-70642000D02*
X167508000Y-65248000D01*
X167548000Y-70686000D02*
X167548000Y-65204000D01*
X167588000Y-70729000D02*
X167588000Y-65161000D01*
X167628000Y-70771000D02*
X167628000Y-65119000D01*
X167668000Y-70812000D02*
X167668000Y-65078000D01*
X167708000Y-70852000D02*
X167708000Y-65038000D01*
X167748000Y-70890000D02*
X167748000Y-65000000D01*
X167788000Y-70928000D02*
X167788000Y-64962000D01*
X167828000Y-66905000D02*
X167828000Y-64926000D01*
X167828000Y-70964000D02*
X167828000Y-68985000D01*
X167868000Y-66905000D02*
X167868000Y-64890000D01*
X167868000Y-71000000D02*
X167868000Y-68985000D01*
X167908000Y-66905000D02*
X167908000Y-64855000D01*
X167908000Y-71035000D02*
X167908000Y-68985000D01*
X167948000Y-66905000D02*
X167948000Y-64821000D01*
X167948000Y-71069000D02*
X167948000Y-68985000D01*
X167988000Y-66905000D02*
X167988000Y-64789000D01*
X167988000Y-71101000D02*
X167988000Y-68985000D01*
X168028000Y-66905000D02*
X168028000Y-64756000D01*
X168028000Y-71134000D02*
X168028000Y-68985000D01*
X168068000Y-66905000D02*
X168068000Y-64725000D01*
X168068000Y-71165000D02*
X168068000Y-68985000D01*
X168108000Y-66905000D02*
X168108000Y-64695000D01*
X168108000Y-71195000D02*
X168108000Y-68985000D01*
X168148000Y-66905000D02*
X168148000Y-64665000D01*
X168148000Y-71225000D02*
X168148000Y-68985000D01*
X168188000Y-66905000D02*
X168188000Y-64636000D01*
X168188000Y-71254000D02*
X168188000Y-68985000D01*
X168228000Y-66905000D02*
X168228000Y-64607000D01*
X168228000Y-71283000D02*
X168228000Y-68985000D01*
X168268000Y-66905000D02*
X168268000Y-64580000D01*
X168268000Y-71310000D02*
X168268000Y-68985000D01*
X168308000Y-66905000D02*
X168308000Y-64553000D01*
X168308000Y-71337000D02*
X168308000Y-68985000D01*
X168348000Y-66905000D02*
X168348000Y-64527000D01*
X168348000Y-71363000D02*
X168348000Y-68985000D01*
X168388000Y-66905000D02*
X168388000Y-64501000D01*
X168388000Y-71389000D02*
X168388000Y-68985000D01*
X168428000Y-66905000D02*
X168428000Y-64476000D01*
X168428000Y-71414000D02*
X168428000Y-68985000D01*
X168468000Y-66905000D02*
X168468000Y-64452000D01*
X168468000Y-71438000D02*
X168468000Y-68985000D01*
X168508000Y-66905000D02*
X168508000Y-64428000D01*
X168508000Y-71462000D02*
X168508000Y-68985000D01*
X168548000Y-66905000D02*
X168548000Y-64405000D01*
X168548000Y-71485000D02*
X168548000Y-68985000D01*
X168588000Y-66905000D02*
X168588000Y-64383000D01*
X168588000Y-71507000D02*
X168588000Y-68985000D01*
X168628000Y-66905000D02*
X168628000Y-64361000D01*
X168628000Y-71529000D02*
X168628000Y-68985000D01*
X168668000Y-66905000D02*
X168668000Y-64339000D01*
X168668000Y-71551000D02*
X168668000Y-68985000D01*
X168708000Y-66905000D02*
X168708000Y-64318000D01*
X168708000Y-71572000D02*
X168708000Y-68985000D01*
X168748000Y-66905000D02*
X168748000Y-64298000D01*
X168748000Y-71592000D02*
X168748000Y-68985000D01*
X168788000Y-66905000D02*
X168788000Y-64279000D01*
X168788000Y-71611000D02*
X168788000Y-68985000D01*
X168828000Y-66905000D02*
X168828000Y-64259000D01*
X168828000Y-71631000D02*
X168828000Y-68985000D01*
X168868000Y-66905000D02*
X168868000Y-64241000D01*
X168868000Y-71649000D02*
X168868000Y-68985000D01*
X168908000Y-66905000D02*
X168908000Y-64223000D01*
X168908000Y-71667000D02*
X168908000Y-68985000D01*
X168948000Y-66905000D02*
X168948000Y-64205000D01*
X168948000Y-71685000D02*
X168948000Y-68985000D01*
X168988000Y-66905000D02*
X168988000Y-64188000D01*
X168988000Y-71702000D02*
X168988000Y-68985000D01*
X169028000Y-66905000D02*
X169028000Y-64171000D01*
X169028000Y-71719000D02*
X169028000Y-68985000D01*
X169068000Y-66905000D02*
X169068000Y-64155000D01*
X169068000Y-71735000D02*
X169068000Y-68985000D01*
X169108000Y-66905000D02*
X169108000Y-64140000D01*
X169108000Y-71750000D02*
X169108000Y-68985000D01*
X169148000Y-66905000D02*
X169148000Y-64124000D01*
X169148000Y-71766000D02*
X169148000Y-68985000D01*
X169188000Y-66905000D02*
X169188000Y-64110000D01*
X169188000Y-71780000D02*
X169188000Y-68985000D01*
X169228000Y-66905000D02*
X169228000Y-64095000D01*
X169228000Y-71795000D02*
X169228000Y-68985000D01*
X169268000Y-66905000D02*
X169268000Y-64082000D01*
X169268000Y-71808000D02*
X169268000Y-68985000D01*
X169308000Y-66905000D02*
X169308000Y-64068000D01*
X169308000Y-71822000D02*
X169308000Y-68985000D01*
X169348000Y-66905000D02*
X169348000Y-64056000D01*
X169348000Y-71834000D02*
X169348000Y-68985000D01*
X169388000Y-66905000D02*
X169388000Y-64043000D01*
X169388000Y-71847000D02*
X169388000Y-68985000D01*
X169428000Y-66905000D02*
X169428000Y-64031000D01*
X169428000Y-71859000D02*
X169428000Y-68985000D01*
X169468000Y-66905000D02*
X169468000Y-64020000D01*
X169468000Y-71870000D02*
X169468000Y-68985000D01*
X169508000Y-66905000D02*
X169508000Y-64009000D01*
X169508000Y-71881000D02*
X169508000Y-68985000D01*
X169548000Y-66905000D02*
X169548000Y-63998000D01*
X169548000Y-71892000D02*
X169548000Y-68985000D01*
X169588000Y-66905000D02*
X169588000Y-63988000D01*
X169588000Y-71902000D02*
X169588000Y-68985000D01*
X169628000Y-66905000D02*
X169628000Y-63978000D01*
X169628000Y-71912000D02*
X169628000Y-68985000D01*
X169668000Y-66905000D02*
X169668000Y-63969000D01*
X169668000Y-71921000D02*
X169668000Y-68985000D01*
X169708000Y-66905000D02*
X169708000Y-63960000D01*
X169708000Y-71930000D02*
X169708000Y-68985000D01*
X169748000Y-66905000D02*
X169748000Y-63951000D01*
X169748000Y-71939000D02*
X169748000Y-68985000D01*
X169788000Y-66905000D02*
X169788000Y-63943000D01*
X169788000Y-71947000D02*
X169788000Y-68985000D01*
X169828000Y-66905000D02*
X169828000Y-63935000D01*
X169828000Y-71955000D02*
X169828000Y-68985000D01*
X169868000Y-66905000D02*
X169868000Y-63928000D01*
X169868000Y-71962000D02*
X169868000Y-68985000D01*
X169909000Y-71969000D02*
X169909000Y-63921000D01*
X169949000Y-71975000D02*
X169949000Y-63915000D01*
X169989000Y-71982000D02*
X169989000Y-63908000D01*
X170029000Y-71987000D02*
X170029000Y-63903000D01*
X170069000Y-71993000D02*
X170069000Y-63897000D01*
X170109000Y-71997000D02*
X170109000Y-63893000D01*
X170149000Y-72002000D02*
X170149000Y-63888000D01*
X170189000Y-72006000D02*
X170189000Y-63884000D01*
X170229000Y-72010000D02*
X170229000Y-63880000D01*
X170269000Y-72013000D02*
X170269000Y-63877000D01*
X170309000Y-72016000D02*
X170309000Y-63874000D01*
X170349000Y-72019000D02*
X170349000Y-63871000D01*
X170389000Y-72021000D02*
X170389000Y-63869000D01*
X170429000Y-72022000D02*
X170429000Y-63868000D01*
X170469000Y-72024000D02*
X170469000Y-63866000D01*
X170509000Y-72025000D02*
X170509000Y-63865000D01*
X170549000Y-72025000D02*
X170549000Y-63865000D01*
X170589000Y-72025000D02*
X170589000Y-63865000D01*
X174709000Y-67945000D02*
G75*
G03X174709000Y-67945000I-4120000J0D01*
G01*
G04 #@! TO.C,C3*
X175344000Y-82550000D02*
G75*
G03X175344000Y-82550000I-4120000J0D01*
G01*
X171224000Y-86630000D02*
X171224000Y-78470000D01*
X171184000Y-86630000D02*
X171184000Y-78470000D01*
X171144000Y-86630000D02*
X171144000Y-78470000D01*
X171104000Y-86629000D02*
X171104000Y-78471000D01*
X171064000Y-86627000D02*
X171064000Y-78473000D01*
X171024000Y-86626000D02*
X171024000Y-78474000D01*
X170984000Y-86624000D02*
X170984000Y-78476000D01*
X170944000Y-86621000D02*
X170944000Y-78479000D01*
X170904000Y-86618000D02*
X170904000Y-78482000D01*
X170864000Y-86615000D02*
X170864000Y-78485000D01*
X170824000Y-86611000D02*
X170824000Y-78489000D01*
X170784000Y-86607000D02*
X170784000Y-78493000D01*
X170744000Y-86602000D02*
X170744000Y-78498000D01*
X170704000Y-86598000D02*
X170704000Y-78502000D01*
X170664000Y-86592000D02*
X170664000Y-78508000D01*
X170624000Y-86587000D02*
X170624000Y-78513000D01*
X170584000Y-86580000D02*
X170584000Y-78520000D01*
X170544000Y-86574000D02*
X170544000Y-78526000D01*
X170503000Y-86567000D02*
X170503000Y-83590000D01*
X170503000Y-81510000D02*
X170503000Y-78533000D01*
X170463000Y-86560000D02*
X170463000Y-83590000D01*
X170463000Y-81510000D02*
X170463000Y-78540000D01*
X170423000Y-86552000D02*
X170423000Y-83590000D01*
X170423000Y-81510000D02*
X170423000Y-78548000D01*
X170383000Y-86544000D02*
X170383000Y-83590000D01*
X170383000Y-81510000D02*
X170383000Y-78556000D01*
X170343000Y-86535000D02*
X170343000Y-83590000D01*
X170343000Y-81510000D02*
X170343000Y-78565000D01*
X170303000Y-86526000D02*
X170303000Y-83590000D01*
X170303000Y-81510000D02*
X170303000Y-78574000D01*
X170263000Y-86517000D02*
X170263000Y-83590000D01*
X170263000Y-81510000D02*
X170263000Y-78583000D01*
X170223000Y-86507000D02*
X170223000Y-83590000D01*
X170223000Y-81510000D02*
X170223000Y-78593000D01*
X170183000Y-86497000D02*
X170183000Y-83590000D01*
X170183000Y-81510000D02*
X170183000Y-78603000D01*
X170143000Y-86486000D02*
X170143000Y-83590000D01*
X170143000Y-81510000D02*
X170143000Y-78614000D01*
X170103000Y-86475000D02*
X170103000Y-83590000D01*
X170103000Y-81510000D02*
X170103000Y-78625000D01*
X170063000Y-86464000D02*
X170063000Y-83590000D01*
X170063000Y-81510000D02*
X170063000Y-78636000D01*
X170023000Y-86452000D02*
X170023000Y-83590000D01*
X170023000Y-81510000D02*
X170023000Y-78648000D01*
X169983000Y-86439000D02*
X169983000Y-83590000D01*
X169983000Y-81510000D02*
X169983000Y-78661000D01*
X169943000Y-86427000D02*
X169943000Y-83590000D01*
X169943000Y-81510000D02*
X169943000Y-78673000D01*
X169903000Y-86413000D02*
X169903000Y-83590000D01*
X169903000Y-81510000D02*
X169903000Y-78687000D01*
X169863000Y-86400000D02*
X169863000Y-83590000D01*
X169863000Y-81510000D02*
X169863000Y-78700000D01*
X169823000Y-86385000D02*
X169823000Y-83590000D01*
X169823000Y-81510000D02*
X169823000Y-78715000D01*
X169783000Y-86371000D02*
X169783000Y-83590000D01*
X169783000Y-81510000D02*
X169783000Y-78729000D01*
X169743000Y-86355000D02*
X169743000Y-83590000D01*
X169743000Y-81510000D02*
X169743000Y-78745000D01*
X169703000Y-86340000D02*
X169703000Y-83590000D01*
X169703000Y-81510000D02*
X169703000Y-78760000D01*
X169663000Y-86324000D02*
X169663000Y-83590000D01*
X169663000Y-81510000D02*
X169663000Y-78776000D01*
X169623000Y-86307000D02*
X169623000Y-83590000D01*
X169623000Y-81510000D02*
X169623000Y-78793000D01*
X169583000Y-86290000D02*
X169583000Y-83590000D01*
X169583000Y-81510000D02*
X169583000Y-78810000D01*
X169543000Y-86272000D02*
X169543000Y-83590000D01*
X169543000Y-81510000D02*
X169543000Y-78828000D01*
X169503000Y-86254000D02*
X169503000Y-83590000D01*
X169503000Y-81510000D02*
X169503000Y-78846000D01*
X169463000Y-86236000D02*
X169463000Y-83590000D01*
X169463000Y-81510000D02*
X169463000Y-78864000D01*
X169423000Y-86216000D02*
X169423000Y-83590000D01*
X169423000Y-81510000D02*
X169423000Y-78884000D01*
X169383000Y-86197000D02*
X169383000Y-83590000D01*
X169383000Y-81510000D02*
X169383000Y-78903000D01*
X169343000Y-86177000D02*
X169343000Y-83590000D01*
X169343000Y-81510000D02*
X169343000Y-78923000D01*
X169303000Y-86156000D02*
X169303000Y-83590000D01*
X169303000Y-81510000D02*
X169303000Y-78944000D01*
X169263000Y-86134000D02*
X169263000Y-83590000D01*
X169263000Y-81510000D02*
X169263000Y-78966000D01*
X169223000Y-86112000D02*
X169223000Y-83590000D01*
X169223000Y-81510000D02*
X169223000Y-78988000D01*
X169183000Y-86090000D02*
X169183000Y-83590000D01*
X169183000Y-81510000D02*
X169183000Y-79010000D01*
X169143000Y-86067000D02*
X169143000Y-83590000D01*
X169143000Y-81510000D02*
X169143000Y-79033000D01*
X169103000Y-86043000D02*
X169103000Y-83590000D01*
X169103000Y-81510000D02*
X169103000Y-79057000D01*
X169063000Y-86019000D02*
X169063000Y-83590000D01*
X169063000Y-81510000D02*
X169063000Y-79081000D01*
X169023000Y-85994000D02*
X169023000Y-83590000D01*
X169023000Y-81510000D02*
X169023000Y-79106000D01*
X168983000Y-85968000D02*
X168983000Y-83590000D01*
X168983000Y-81510000D02*
X168983000Y-79132000D01*
X168943000Y-85942000D02*
X168943000Y-83590000D01*
X168943000Y-81510000D02*
X168943000Y-79158000D01*
X168903000Y-85915000D02*
X168903000Y-83590000D01*
X168903000Y-81510000D02*
X168903000Y-79185000D01*
X168863000Y-85888000D02*
X168863000Y-83590000D01*
X168863000Y-81510000D02*
X168863000Y-79212000D01*
X168823000Y-85859000D02*
X168823000Y-83590000D01*
X168823000Y-81510000D02*
X168823000Y-79241000D01*
X168783000Y-85830000D02*
X168783000Y-83590000D01*
X168783000Y-81510000D02*
X168783000Y-79270000D01*
X168743000Y-85800000D02*
X168743000Y-83590000D01*
X168743000Y-81510000D02*
X168743000Y-79300000D01*
X168703000Y-85770000D02*
X168703000Y-83590000D01*
X168703000Y-81510000D02*
X168703000Y-79330000D01*
X168663000Y-85739000D02*
X168663000Y-83590000D01*
X168663000Y-81510000D02*
X168663000Y-79361000D01*
X168623000Y-85706000D02*
X168623000Y-83590000D01*
X168623000Y-81510000D02*
X168623000Y-79394000D01*
X168583000Y-85674000D02*
X168583000Y-83590000D01*
X168583000Y-81510000D02*
X168583000Y-79426000D01*
X168543000Y-85640000D02*
X168543000Y-83590000D01*
X168543000Y-81510000D02*
X168543000Y-79460000D01*
X168503000Y-85605000D02*
X168503000Y-83590000D01*
X168503000Y-81510000D02*
X168503000Y-79495000D01*
X168463000Y-85569000D02*
X168463000Y-83590000D01*
X168463000Y-81510000D02*
X168463000Y-79531000D01*
X168423000Y-85533000D02*
X168423000Y-79567000D01*
X168383000Y-85495000D02*
X168383000Y-79605000D01*
X168343000Y-85457000D02*
X168343000Y-79643000D01*
X168303000Y-85417000D02*
X168303000Y-79683000D01*
X168263000Y-85376000D02*
X168263000Y-79724000D01*
X168223000Y-85334000D02*
X168223000Y-79766000D01*
X168183000Y-85291000D02*
X168183000Y-79809000D01*
X168143000Y-85247000D02*
X168143000Y-79853000D01*
X168103000Y-85201000D02*
X168103000Y-79899000D01*
X168063000Y-85154000D02*
X168063000Y-79946000D01*
X168023000Y-85106000D02*
X168023000Y-79994000D01*
X167983000Y-85055000D02*
X167983000Y-80045000D01*
X167943000Y-85004000D02*
X167943000Y-80096000D01*
X167903000Y-84950000D02*
X167903000Y-80150000D01*
X167863000Y-84895000D02*
X167863000Y-80205000D01*
X167823000Y-84837000D02*
X167823000Y-80263000D01*
X167783000Y-84778000D02*
X167783000Y-80322000D01*
X167743000Y-84716000D02*
X167743000Y-80384000D01*
X167703000Y-84652000D02*
X167703000Y-80448000D01*
X167663000Y-84584000D02*
X167663000Y-80516000D01*
X167623000Y-84514000D02*
X167623000Y-80586000D01*
X167583000Y-84440000D02*
X167583000Y-80660000D01*
X167543000Y-84363000D02*
X167543000Y-80737000D01*
X167503000Y-84281000D02*
X167503000Y-80819000D01*
X167463000Y-84195000D02*
X167463000Y-80905000D01*
X167423000Y-84102000D02*
X167423000Y-80998000D01*
X167383000Y-84003000D02*
X167383000Y-81097000D01*
X167343000Y-83896000D02*
X167343000Y-81204000D01*
X167303000Y-83779000D02*
X167303000Y-81321000D01*
X167263000Y-83648000D02*
X167263000Y-81452000D01*
X167223000Y-83498000D02*
X167223000Y-81602000D01*
X167183000Y-83318000D02*
X167183000Y-81782000D01*
X167143000Y-83083000D02*
X167143000Y-82017000D01*
X175633698Y-84865000D02*
X174833698Y-84865000D01*
X175233698Y-85265000D02*
X175233698Y-84465000D01*
G04 #@! TO.C,C4*
X153495000Y-77951698D02*
X154295000Y-77951698D01*
X153895000Y-78351698D02*
X153895000Y-77551698D01*
X155677000Y-69861000D02*
X156743000Y-69861000D01*
X155442000Y-69901000D02*
X156978000Y-69901000D01*
X155262000Y-69941000D02*
X157158000Y-69941000D01*
X155112000Y-69981000D02*
X157308000Y-69981000D01*
X154981000Y-70021000D02*
X157439000Y-70021000D01*
X154864000Y-70061000D02*
X157556000Y-70061000D01*
X154757000Y-70101000D02*
X157663000Y-70101000D01*
X154658000Y-70141000D02*
X157762000Y-70141000D01*
X154565000Y-70181000D02*
X157855000Y-70181000D01*
X154479000Y-70221000D02*
X157941000Y-70221000D01*
X154397000Y-70261000D02*
X158023000Y-70261000D01*
X154320000Y-70301000D02*
X158100000Y-70301000D01*
X154246000Y-70341000D02*
X158174000Y-70341000D01*
X154176000Y-70381000D02*
X158244000Y-70381000D01*
X154108000Y-70421000D02*
X158312000Y-70421000D01*
X154044000Y-70461000D02*
X158376000Y-70461000D01*
X153982000Y-70501000D02*
X158438000Y-70501000D01*
X153923000Y-70541000D02*
X158497000Y-70541000D01*
X153865000Y-70581000D02*
X158555000Y-70581000D01*
X153810000Y-70621000D02*
X158610000Y-70621000D01*
X153756000Y-70661000D02*
X158664000Y-70661000D01*
X153705000Y-70701000D02*
X158715000Y-70701000D01*
X153654000Y-70741000D02*
X158766000Y-70741000D01*
X153606000Y-70781000D02*
X158814000Y-70781000D01*
X153559000Y-70821000D02*
X158861000Y-70821000D01*
X153513000Y-70861000D02*
X158907000Y-70861000D01*
X153469000Y-70901000D02*
X158951000Y-70901000D01*
X153426000Y-70941000D02*
X158994000Y-70941000D01*
X153384000Y-70981000D02*
X159036000Y-70981000D01*
X153343000Y-71021000D02*
X159077000Y-71021000D01*
X153303000Y-71061000D02*
X159117000Y-71061000D01*
X153265000Y-71101000D02*
X159155000Y-71101000D01*
X153227000Y-71141000D02*
X159193000Y-71141000D01*
X157250000Y-71181000D02*
X159229000Y-71181000D01*
X153191000Y-71181000D02*
X155170000Y-71181000D01*
X157250000Y-71221000D02*
X159265000Y-71221000D01*
X153155000Y-71221000D02*
X155170000Y-71221000D01*
X157250000Y-71261000D02*
X159300000Y-71261000D01*
X153120000Y-71261000D02*
X155170000Y-71261000D01*
X157250000Y-71301000D02*
X159334000Y-71301000D01*
X153086000Y-71301000D02*
X155170000Y-71301000D01*
X157250000Y-71341000D02*
X159366000Y-71341000D01*
X153054000Y-71341000D02*
X155170000Y-71341000D01*
X157250000Y-71381000D02*
X159399000Y-71381000D01*
X153021000Y-71381000D02*
X155170000Y-71381000D01*
X157250000Y-71421000D02*
X159430000Y-71421000D01*
X152990000Y-71421000D02*
X155170000Y-71421000D01*
X157250000Y-71461000D02*
X159460000Y-71461000D01*
X152960000Y-71461000D02*
X155170000Y-71461000D01*
X157250000Y-71501000D02*
X159490000Y-71501000D01*
X152930000Y-71501000D02*
X155170000Y-71501000D01*
X157250000Y-71541000D02*
X159519000Y-71541000D01*
X152901000Y-71541000D02*
X155170000Y-71541000D01*
X157250000Y-71581000D02*
X159548000Y-71581000D01*
X152872000Y-71581000D02*
X155170000Y-71581000D01*
X157250000Y-71621000D02*
X159575000Y-71621000D01*
X152845000Y-71621000D02*
X155170000Y-71621000D01*
X157250000Y-71661000D02*
X159602000Y-71661000D01*
X152818000Y-71661000D02*
X155170000Y-71661000D01*
X157250000Y-71701000D02*
X159628000Y-71701000D01*
X152792000Y-71701000D02*
X155170000Y-71701000D01*
X157250000Y-71741000D02*
X159654000Y-71741000D01*
X152766000Y-71741000D02*
X155170000Y-71741000D01*
X157250000Y-71781000D02*
X159679000Y-71781000D01*
X152741000Y-71781000D02*
X155170000Y-71781000D01*
X157250000Y-71821000D02*
X159703000Y-71821000D01*
X152717000Y-71821000D02*
X155170000Y-71821000D01*
X157250000Y-71861000D02*
X159727000Y-71861000D01*
X152693000Y-71861000D02*
X155170000Y-71861000D01*
X157250000Y-71901000D02*
X159750000Y-71901000D01*
X152670000Y-71901000D02*
X155170000Y-71901000D01*
X157250000Y-71941000D02*
X159772000Y-71941000D01*
X152648000Y-71941000D02*
X155170000Y-71941000D01*
X157250000Y-71981000D02*
X159794000Y-71981000D01*
X152626000Y-71981000D02*
X155170000Y-71981000D01*
X157250000Y-72021000D02*
X159816000Y-72021000D01*
X152604000Y-72021000D02*
X155170000Y-72021000D01*
X157250000Y-72061000D02*
X159837000Y-72061000D01*
X152583000Y-72061000D02*
X155170000Y-72061000D01*
X157250000Y-72101000D02*
X159857000Y-72101000D01*
X152563000Y-72101000D02*
X155170000Y-72101000D01*
X157250000Y-72141000D02*
X159876000Y-72141000D01*
X152544000Y-72141000D02*
X155170000Y-72141000D01*
X157250000Y-72181000D02*
X159896000Y-72181000D01*
X152524000Y-72181000D02*
X155170000Y-72181000D01*
X157250000Y-72221000D02*
X159914000Y-72221000D01*
X152506000Y-72221000D02*
X155170000Y-72221000D01*
X157250000Y-72261000D02*
X159932000Y-72261000D01*
X152488000Y-72261000D02*
X155170000Y-72261000D01*
X157250000Y-72301000D02*
X159950000Y-72301000D01*
X152470000Y-72301000D02*
X155170000Y-72301000D01*
X157250000Y-72341000D02*
X159967000Y-72341000D01*
X152453000Y-72341000D02*
X155170000Y-72341000D01*
X157250000Y-72381000D02*
X159984000Y-72381000D01*
X152436000Y-72381000D02*
X155170000Y-72381000D01*
X157250000Y-72421000D02*
X160000000Y-72421000D01*
X152420000Y-72421000D02*
X155170000Y-72421000D01*
X157250000Y-72461000D02*
X160015000Y-72461000D01*
X152405000Y-72461000D02*
X155170000Y-72461000D01*
X157250000Y-72501000D02*
X160031000Y-72501000D01*
X152389000Y-72501000D02*
X155170000Y-72501000D01*
X157250000Y-72541000D02*
X160045000Y-72541000D01*
X152375000Y-72541000D02*
X155170000Y-72541000D01*
X157250000Y-72581000D02*
X160060000Y-72581000D01*
X152360000Y-72581000D02*
X155170000Y-72581000D01*
X157250000Y-72621000D02*
X160073000Y-72621000D01*
X152347000Y-72621000D02*
X155170000Y-72621000D01*
X157250000Y-72661000D02*
X160087000Y-72661000D01*
X152333000Y-72661000D02*
X155170000Y-72661000D01*
X157250000Y-72701000D02*
X160099000Y-72701000D01*
X152321000Y-72701000D02*
X155170000Y-72701000D01*
X157250000Y-72741000D02*
X160112000Y-72741000D01*
X152308000Y-72741000D02*
X155170000Y-72741000D01*
X157250000Y-72781000D02*
X160124000Y-72781000D01*
X152296000Y-72781000D02*
X155170000Y-72781000D01*
X157250000Y-72821000D02*
X160135000Y-72821000D01*
X152285000Y-72821000D02*
X155170000Y-72821000D01*
X157250000Y-72861000D02*
X160146000Y-72861000D01*
X152274000Y-72861000D02*
X155170000Y-72861000D01*
X157250000Y-72901000D02*
X160157000Y-72901000D01*
X152263000Y-72901000D02*
X155170000Y-72901000D01*
X157250000Y-72941000D02*
X160167000Y-72941000D01*
X152253000Y-72941000D02*
X155170000Y-72941000D01*
X157250000Y-72981000D02*
X160177000Y-72981000D01*
X152243000Y-72981000D02*
X155170000Y-72981000D01*
X157250000Y-73021000D02*
X160186000Y-73021000D01*
X152234000Y-73021000D02*
X155170000Y-73021000D01*
X157250000Y-73061000D02*
X160195000Y-73061000D01*
X152225000Y-73061000D02*
X155170000Y-73061000D01*
X157250000Y-73101000D02*
X160204000Y-73101000D01*
X152216000Y-73101000D02*
X155170000Y-73101000D01*
X157250000Y-73141000D02*
X160212000Y-73141000D01*
X152208000Y-73141000D02*
X155170000Y-73141000D01*
X157250000Y-73181000D02*
X160220000Y-73181000D01*
X152200000Y-73181000D02*
X155170000Y-73181000D01*
X157250000Y-73221000D02*
X160227000Y-73221000D01*
X152193000Y-73221000D02*
X155170000Y-73221000D01*
X152186000Y-73262000D02*
X160234000Y-73262000D01*
X152180000Y-73302000D02*
X160240000Y-73302000D01*
X152173000Y-73342000D02*
X160247000Y-73342000D01*
X152168000Y-73382000D02*
X160252000Y-73382000D01*
X152162000Y-73422000D02*
X160258000Y-73422000D01*
X152158000Y-73462000D02*
X160262000Y-73462000D01*
X152153000Y-73502000D02*
X160267000Y-73502000D01*
X152149000Y-73542000D02*
X160271000Y-73542000D01*
X152145000Y-73582000D02*
X160275000Y-73582000D01*
X152142000Y-73622000D02*
X160278000Y-73622000D01*
X152139000Y-73662000D02*
X160281000Y-73662000D01*
X152136000Y-73702000D02*
X160284000Y-73702000D01*
X152134000Y-73742000D02*
X160286000Y-73742000D01*
X152133000Y-73782000D02*
X160287000Y-73782000D01*
X152131000Y-73822000D02*
X160289000Y-73822000D01*
X152130000Y-73862000D02*
X160290000Y-73862000D01*
X152130000Y-73902000D02*
X160290000Y-73902000D01*
X152130000Y-73942000D02*
X160290000Y-73942000D01*
X160330000Y-73942000D02*
G75*
G03X160330000Y-73942000I-4120000J0D01*
G01*
G04 #@! TO.C,C1*
X152611000Y-53340000D02*
G75*
G03X152611000Y-53340000I-4120000J0D01*
G01*
X148491000Y-57420000D02*
X148491000Y-49260000D01*
X148451000Y-57420000D02*
X148451000Y-49260000D01*
X148411000Y-57420000D02*
X148411000Y-49260000D01*
X148371000Y-57419000D02*
X148371000Y-49261000D01*
X148331000Y-57417000D02*
X148331000Y-49263000D01*
X148291000Y-57416000D02*
X148291000Y-49264000D01*
X148251000Y-57414000D02*
X148251000Y-49266000D01*
X148211000Y-57411000D02*
X148211000Y-49269000D01*
X148171000Y-57408000D02*
X148171000Y-49272000D01*
X148131000Y-57405000D02*
X148131000Y-49275000D01*
X148091000Y-57401000D02*
X148091000Y-49279000D01*
X148051000Y-57397000D02*
X148051000Y-49283000D01*
X148011000Y-57392000D02*
X148011000Y-49288000D01*
X147971000Y-57388000D02*
X147971000Y-49292000D01*
X147931000Y-57382000D02*
X147931000Y-49298000D01*
X147891000Y-57377000D02*
X147891000Y-49303000D01*
X147851000Y-57370000D02*
X147851000Y-49310000D01*
X147811000Y-57364000D02*
X147811000Y-49316000D01*
X147770000Y-57357000D02*
X147770000Y-54380000D01*
X147770000Y-52300000D02*
X147770000Y-49323000D01*
X147730000Y-57350000D02*
X147730000Y-54380000D01*
X147730000Y-52300000D02*
X147730000Y-49330000D01*
X147690000Y-57342000D02*
X147690000Y-54380000D01*
X147690000Y-52300000D02*
X147690000Y-49338000D01*
X147650000Y-57334000D02*
X147650000Y-54380000D01*
X147650000Y-52300000D02*
X147650000Y-49346000D01*
X147610000Y-57325000D02*
X147610000Y-54380000D01*
X147610000Y-52300000D02*
X147610000Y-49355000D01*
X147570000Y-57316000D02*
X147570000Y-54380000D01*
X147570000Y-52300000D02*
X147570000Y-49364000D01*
X147530000Y-57307000D02*
X147530000Y-54380000D01*
X147530000Y-52300000D02*
X147530000Y-49373000D01*
X147490000Y-57297000D02*
X147490000Y-54380000D01*
X147490000Y-52300000D02*
X147490000Y-49383000D01*
X147450000Y-57287000D02*
X147450000Y-54380000D01*
X147450000Y-52300000D02*
X147450000Y-49393000D01*
X147410000Y-57276000D02*
X147410000Y-54380000D01*
X147410000Y-52300000D02*
X147410000Y-49404000D01*
X147370000Y-57265000D02*
X147370000Y-54380000D01*
X147370000Y-52300000D02*
X147370000Y-49415000D01*
X147330000Y-57254000D02*
X147330000Y-54380000D01*
X147330000Y-52300000D02*
X147330000Y-49426000D01*
X147290000Y-57242000D02*
X147290000Y-54380000D01*
X147290000Y-52300000D02*
X147290000Y-49438000D01*
X147250000Y-57229000D02*
X147250000Y-54380000D01*
X147250000Y-52300000D02*
X147250000Y-49451000D01*
X147210000Y-57217000D02*
X147210000Y-54380000D01*
X147210000Y-52300000D02*
X147210000Y-49463000D01*
X147170000Y-57203000D02*
X147170000Y-54380000D01*
X147170000Y-52300000D02*
X147170000Y-49477000D01*
X147130000Y-57190000D02*
X147130000Y-54380000D01*
X147130000Y-52300000D02*
X147130000Y-49490000D01*
X147090000Y-57175000D02*
X147090000Y-54380000D01*
X147090000Y-52300000D02*
X147090000Y-49505000D01*
X147050000Y-57161000D02*
X147050000Y-54380000D01*
X147050000Y-52300000D02*
X147050000Y-49519000D01*
X147010000Y-57145000D02*
X147010000Y-54380000D01*
X147010000Y-52300000D02*
X147010000Y-49535000D01*
X146970000Y-57130000D02*
X146970000Y-54380000D01*
X146970000Y-52300000D02*
X146970000Y-49550000D01*
X146930000Y-57114000D02*
X146930000Y-54380000D01*
X146930000Y-52300000D02*
X146930000Y-49566000D01*
X146890000Y-57097000D02*
X146890000Y-54380000D01*
X146890000Y-52300000D02*
X146890000Y-49583000D01*
X146850000Y-57080000D02*
X146850000Y-54380000D01*
X146850000Y-52300000D02*
X146850000Y-49600000D01*
X146810000Y-57062000D02*
X146810000Y-54380000D01*
X146810000Y-52300000D02*
X146810000Y-49618000D01*
X146770000Y-57044000D02*
X146770000Y-54380000D01*
X146770000Y-52300000D02*
X146770000Y-49636000D01*
X146730000Y-57026000D02*
X146730000Y-54380000D01*
X146730000Y-52300000D02*
X146730000Y-49654000D01*
X146690000Y-57006000D02*
X146690000Y-54380000D01*
X146690000Y-52300000D02*
X146690000Y-49674000D01*
X146650000Y-56987000D02*
X146650000Y-54380000D01*
X146650000Y-52300000D02*
X146650000Y-49693000D01*
X146610000Y-56967000D02*
X146610000Y-54380000D01*
X146610000Y-52300000D02*
X146610000Y-49713000D01*
X146570000Y-56946000D02*
X146570000Y-54380000D01*
X146570000Y-52300000D02*
X146570000Y-49734000D01*
X146530000Y-56924000D02*
X146530000Y-54380000D01*
X146530000Y-52300000D02*
X146530000Y-49756000D01*
X146490000Y-56902000D02*
X146490000Y-54380000D01*
X146490000Y-52300000D02*
X146490000Y-49778000D01*
X146450000Y-56880000D02*
X146450000Y-54380000D01*
X146450000Y-52300000D02*
X146450000Y-49800000D01*
X146410000Y-56857000D02*
X146410000Y-54380000D01*
X146410000Y-52300000D02*
X146410000Y-49823000D01*
X146370000Y-56833000D02*
X146370000Y-54380000D01*
X146370000Y-52300000D02*
X146370000Y-49847000D01*
X146330000Y-56809000D02*
X146330000Y-54380000D01*
X146330000Y-52300000D02*
X146330000Y-49871000D01*
X146290000Y-56784000D02*
X146290000Y-54380000D01*
X146290000Y-52300000D02*
X146290000Y-49896000D01*
X146250000Y-56758000D02*
X146250000Y-54380000D01*
X146250000Y-52300000D02*
X146250000Y-49922000D01*
X146210000Y-56732000D02*
X146210000Y-54380000D01*
X146210000Y-52300000D02*
X146210000Y-49948000D01*
X146170000Y-56705000D02*
X146170000Y-54380000D01*
X146170000Y-52300000D02*
X146170000Y-49975000D01*
X146130000Y-56678000D02*
X146130000Y-54380000D01*
X146130000Y-52300000D02*
X146130000Y-50002000D01*
X146090000Y-56649000D02*
X146090000Y-54380000D01*
X146090000Y-52300000D02*
X146090000Y-50031000D01*
X146050000Y-56620000D02*
X146050000Y-54380000D01*
X146050000Y-52300000D02*
X146050000Y-50060000D01*
X146010000Y-56590000D02*
X146010000Y-54380000D01*
X146010000Y-52300000D02*
X146010000Y-50090000D01*
X145970000Y-56560000D02*
X145970000Y-54380000D01*
X145970000Y-52300000D02*
X145970000Y-50120000D01*
X145930000Y-56529000D02*
X145930000Y-54380000D01*
X145930000Y-52300000D02*
X145930000Y-50151000D01*
X145890000Y-56496000D02*
X145890000Y-54380000D01*
X145890000Y-52300000D02*
X145890000Y-50184000D01*
X145850000Y-56464000D02*
X145850000Y-54380000D01*
X145850000Y-52300000D02*
X145850000Y-50216000D01*
X145810000Y-56430000D02*
X145810000Y-54380000D01*
X145810000Y-52300000D02*
X145810000Y-50250000D01*
X145770000Y-56395000D02*
X145770000Y-54380000D01*
X145770000Y-52300000D02*
X145770000Y-50285000D01*
X145730000Y-56359000D02*
X145730000Y-54380000D01*
X145730000Y-52300000D02*
X145730000Y-50321000D01*
X145690000Y-56323000D02*
X145690000Y-50357000D01*
X145650000Y-56285000D02*
X145650000Y-50395000D01*
X145610000Y-56247000D02*
X145610000Y-50433000D01*
X145570000Y-56207000D02*
X145570000Y-50473000D01*
X145530000Y-56166000D02*
X145530000Y-50514000D01*
X145490000Y-56124000D02*
X145490000Y-50556000D01*
X145450000Y-56081000D02*
X145450000Y-50599000D01*
X145410000Y-56037000D02*
X145410000Y-50643000D01*
X145370000Y-55991000D02*
X145370000Y-50689000D01*
X145330000Y-55944000D02*
X145330000Y-50736000D01*
X145290000Y-55896000D02*
X145290000Y-50784000D01*
X145250000Y-55845000D02*
X145250000Y-50835000D01*
X145210000Y-55794000D02*
X145210000Y-50886000D01*
X145170000Y-55740000D02*
X145170000Y-50940000D01*
X145130000Y-55685000D02*
X145130000Y-50995000D01*
X145090000Y-55627000D02*
X145090000Y-51053000D01*
X145050000Y-55568000D02*
X145050000Y-51112000D01*
X145010000Y-55506000D02*
X145010000Y-51174000D01*
X144970000Y-55442000D02*
X144970000Y-51238000D01*
X144930000Y-55374000D02*
X144930000Y-51306000D01*
X144890000Y-55304000D02*
X144890000Y-51376000D01*
X144850000Y-55230000D02*
X144850000Y-51450000D01*
X144810000Y-55153000D02*
X144810000Y-51527000D01*
X144770000Y-55071000D02*
X144770000Y-51609000D01*
X144730000Y-54985000D02*
X144730000Y-51695000D01*
X144690000Y-54892000D02*
X144690000Y-51788000D01*
X144650000Y-54793000D02*
X144650000Y-51887000D01*
X144610000Y-54686000D02*
X144610000Y-51994000D01*
X144570000Y-54569000D02*
X144570000Y-52111000D01*
X144530000Y-54438000D02*
X144530000Y-52242000D01*
X144490000Y-54288000D02*
X144490000Y-52392000D01*
X144450000Y-54108000D02*
X144450000Y-52572000D01*
X144410000Y-53873000D02*
X144410000Y-52807000D01*
X152900698Y-55655000D02*
X152100698Y-55655000D01*
X152500698Y-56055000D02*
X152500698Y-55255000D01*
G04 #@! TO.C,J1*
X156177000Y-44147000D02*
X156177000Y-31927000D01*
X156177000Y-31927000D02*
X143797000Y-31927000D01*
X143797000Y-31927000D02*
X143797000Y-44147000D01*
X143797000Y-44147000D02*
X156177000Y-44147000D01*
X156177000Y-33427000D02*
X156177000Y-35227000D01*
X156177000Y-35227000D02*
X143797000Y-35227000D01*
X143797000Y-35227000D02*
X143797000Y-33427000D01*
X143797000Y-33427000D02*
X156177000Y-33427000D01*
X153527000Y-31927000D02*
X151527000Y-31927000D01*
X151527000Y-31927000D02*
X151777000Y-33427000D01*
X151777000Y-33427000D02*
X153277000Y-33427000D01*
X153277000Y-33427000D02*
X153527000Y-31927000D01*
X148447000Y-31927000D02*
X146447000Y-31927000D01*
X146447000Y-31927000D02*
X146697000Y-33427000D01*
X146697000Y-33427000D02*
X148197000Y-33427000D01*
X148197000Y-33427000D02*
X148447000Y-31927000D01*
X152227000Y-44947000D02*
X152527000Y-44347000D01*
X152527000Y-44347000D02*
X152827000Y-44947000D01*
X152827000Y-44947000D02*
X152227000Y-44947000D01*
G04 #@! TO.C,J10*
X109982000Y-158944000D02*
X109982000Y-161604000D01*
X109982000Y-158944000D02*
X104842000Y-158944000D01*
X104842000Y-158944000D02*
X104842000Y-161604000D01*
X109982000Y-161604000D02*
X104842000Y-161604000D01*
X112582000Y-161604000D02*
X111252000Y-161604000D01*
X112582000Y-160274000D02*
X112582000Y-161604000D01*
G04 #@! TO.C,R4*
X120254000Y-96510000D02*
X124094000Y-96510000D01*
X124094000Y-96510000D02*
X124094000Y-86370000D01*
X124094000Y-86370000D02*
X120254000Y-86370000D01*
X120254000Y-86370000D02*
X120254000Y-96510000D01*
X122174000Y-97620000D02*
X122174000Y-96510000D01*
X122174000Y-85260000D02*
X122174000Y-86370000D01*
D14*
G04 #@! TO.C,TB1*
X73934000Y-155105000D02*
X139934000Y-155105000D01*
X73934000Y-58105000D02*
X139934000Y-58105000D01*
X139934000Y-155105000D02*
X139934000Y-58105000D01*
D15*
X72724000Y-91725000D02*
G75*
G03X72724000Y-91725000I-200000J0D01*
G01*
D14*
X73934000Y-155105000D02*
X73934000Y-58105000D01*
D13*
G04 #@! TO.C,J9*
X151197000Y-160588000D02*
X153857000Y-160588000D01*
X151197000Y-147828000D02*
X151197000Y-160588000D01*
X153857000Y-147828000D02*
X153857000Y-160588000D01*
X151197000Y-147828000D02*
X153857000Y-147828000D01*
X151197000Y-146558000D02*
X151197000Y-145228000D01*
X151197000Y-145228000D02*
X152527000Y-145228000D01*
G04 #@! TO.C,RV1*
X98579000Y-47460000D02*
X98579000Y-36720000D01*
X116719000Y-47460000D02*
X116719000Y-36720000D01*
X98579000Y-47460000D02*
X116719000Y-47460000D01*
X98579000Y-36720000D02*
X116719000Y-36720000D01*
X104029000Y-36720000D02*
X104029000Y-31720000D01*
X111269000Y-36720000D02*
X111269000Y-31720000D01*
X104029000Y-36720000D02*
X111269000Y-36720000D01*
X104029000Y-31720000D02*
X111269000Y-31720000D01*
X104529000Y-31720000D02*
X104529000Y-21720000D01*
X110770000Y-31720000D02*
X110770000Y-21720000D01*
X104529000Y-31720000D02*
X110770000Y-31720000D01*
X104529000Y-21720000D02*
X110770000Y-21720000D01*
G04 #@! TO.C,J7*
X113919000Y-54035000D02*
X113919000Y-51375000D01*
X113919000Y-54035000D02*
X124139000Y-54035000D01*
X124139000Y-54035000D02*
X124139000Y-51375000D01*
X113919000Y-51375000D02*
X124139000Y-51375000D01*
X111319000Y-51375000D02*
X112649000Y-51375000D01*
X111319000Y-52705000D02*
X111319000Y-51375000D01*
G04 #@! TO.C,J4*
X63059000Y-62230000D02*
X65719000Y-62230000D01*
X63059000Y-62230000D02*
X63059000Y-100390000D01*
X63059000Y-100390000D02*
X65719000Y-100390000D01*
X65719000Y-62230000D02*
X65719000Y-100390000D01*
X65719000Y-59630000D02*
X65719000Y-60960000D01*
X64389000Y-59630000D02*
X65719000Y-59630000D01*
G04 #@! TO.C,J2*
X174304000Y-111760000D02*
X171644000Y-111760000D01*
X174304000Y-111760000D02*
X174304000Y-106620000D01*
X174304000Y-106620000D02*
X171644000Y-106620000D01*
X171644000Y-111760000D02*
X171644000Y-106620000D01*
X171644000Y-114360000D02*
X171644000Y-113030000D01*
X172974000Y-114360000D02*
X171644000Y-114360000D01*
G04 #@! TO.C,J5*
X172974000Y-139760000D02*
X171644000Y-139760000D01*
X171644000Y-139760000D02*
X171644000Y-138430000D01*
X171644000Y-137160000D02*
X171644000Y-132020000D01*
X174304000Y-132020000D02*
X171644000Y-132020000D01*
X174304000Y-137160000D02*
X174304000Y-132020000D01*
X174304000Y-137160000D02*
X171644000Y-137160000D01*
G04 #@! TO.C,J3*
X98552000Y-158944000D02*
X98552000Y-161604000D01*
X98552000Y-158944000D02*
X93412000Y-158944000D01*
X93412000Y-158944000D02*
X93412000Y-161604000D01*
X98552000Y-161604000D02*
X93412000Y-161604000D01*
X101152000Y-161604000D02*
X99822000Y-161604000D01*
X101152000Y-160274000D02*
X101152000Y-161604000D01*
G04 #@! TO.C,D3*
X61113537Y-155685001D02*
G75*
G03X62658829Y-150135001I462J2990000D01*
G01*
X61114461Y-155685001D02*
G75*
G02X59569169Y-150135001I-462J2990000D01*
G01*
X63613999Y-152695001D02*
G75*
G03X63613999Y-152695001I-2500000J0D01*
G01*
X62658999Y-150135001D02*
X59568999Y-150135001D01*
G04 #@! TO.C,D2*
X62658999Y-143635001D02*
X59568999Y-143635001D01*
X63613999Y-146195001D02*
G75*
G03X63613999Y-146195001I-2500000J0D01*
G01*
X61114461Y-149185001D02*
G75*
G02X59569169Y-143635001I-462J2990000D01*
G01*
X61113537Y-149185001D02*
G75*
G03X62658829Y-143635001I462J2990000D01*
G01*
G04 #@! TO.C,D1*
X61113537Y-142685001D02*
G75*
G03X62658829Y-137135001I462J2990000D01*
G01*
X61114461Y-142685001D02*
G75*
G02X59569169Y-137135001I-462J2990000D01*
G01*
X63613999Y-139695001D02*
G75*
G03X63613999Y-139695001I-2500000J0D01*
G01*
X62658999Y-137135001D02*
X59568999Y-137135001D01*
G04 #@! TO.C,R2*
X40269000Y-142785000D02*
X40269000Y-146625000D01*
X40269000Y-146625000D02*
X50409000Y-146625000D01*
X50409000Y-146625000D02*
X50409000Y-142785000D01*
X50409000Y-142785000D02*
X40269000Y-142785000D01*
X39159000Y-144705000D02*
X40269000Y-144705000D01*
X51519000Y-144705000D02*
X50409000Y-144705000D01*
G04 #@! TO.C,R3*
X51519000Y-151055000D02*
X50409000Y-151055000D01*
X39159000Y-151055000D02*
X40269000Y-151055000D01*
X50409000Y-149135000D02*
X40269000Y-149135000D01*
X50409000Y-152975000D02*
X50409000Y-149135000D01*
X40269000Y-152975000D02*
X50409000Y-152975000D01*
X40269000Y-149135000D02*
X40269000Y-152975000D01*
G04 #@! TO.C,R1*
X40269000Y-136435000D02*
X40269000Y-140275000D01*
X40269000Y-140275000D02*
X50409000Y-140275000D01*
X50409000Y-140275000D02*
X50409000Y-136435000D01*
X50409000Y-136435000D02*
X40269000Y-136435000D01*
X39159000Y-138355000D02*
X40269000Y-138355000D01*
X51519000Y-138355000D02*
X50409000Y-138355000D01*
D16*
G04 #@! TO.C,U1*
X150418800Y-121464000D02*
X150418800Y-127306000D01*
X170129200Y-127306000D02*
X170129200Y-124689800D01*
X170129200Y-124689800D02*
X170129200Y-124080200D01*
X170129200Y-124080200D02*
X170129200Y-121895800D01*
D17*
X170129200Y-124689800D02*
G75*
G02X170129200Y-124080200I0J304800D01*
G01*
D13*
G04 #@! TO.C,U2*
X158964000Y-58250000D02*
X169204000Y-58250000D01*
X158964000Y-62891000D02*
X169204000Y-62891000D01*
X158964000Y-58250000D02*
X158964000Y-62891000D01*
X169204000Y-58250000D02*
X169204000Y-62891000D01*
X158964000Y-59760000D02*
X169204000Y-59760000D01*
X162234000Y-58250000D02*
X162234000Y-59760000D01*
X165935000Y-58250000D02*
X165935000Y-59760000D01*
G04 #@! TO.C,J11*
D18*
X128206380Y-161210523D02*
X128920666Y-161210523D01*
X129063523Y-161258142D01*
X129158761Y-161353380D01*
X129206380Y-161496238D01*
X129206380Y-161591476D01*
X129206380Y-160210523D02*
X129206380Y-160781952D01*
X129206380Y-160496238D02*
X128206380Y-160496238D01*
X128349238Y-160591476D01*
X128444476Y-160686714D01*
X128492095Y-160781952D01*
X129206380Y-159258142D02*
X129206380Y-159829571D01*
X129206380Y-159543857D02*
X128206380Y-159543857D01*
X128349238Y-159639095D01*
X128444476Y-159734333D01*
X128492095Y-159829571D01*
G04 #@! TO.C,J6*
X172894666Y-93202380D02*
X172894666Y-93916666D01*
X172847047Y-94059523D01*
X172751809Y-94154761D01*
X172608952Y-94202380D01*
X172513714Y-94202380D01*
X173799428Y-93202380D02*
X173608952Y-93202380D01*
X173513714Y-93250000D01*
X173466095Y-93297619D01*
X173370857Y-93440476D01*
X173323238Y-93630952D01*
X173323238Y-94011904D01*
X173370857Y-94107142D01*
X173418476Y-94154761D01*
X173513714Y-94202380D01*
X173704190Y-94202380D01*
X173799428Y-94154761D01*
X173847047Y-94107142D01*
X173894666Y-94011904D01*
X173894666Y-93773809D01*
X173847047Y-93678571D01*
X173799428Y-93630952D01*
X173704190Y-93583333D01*
X173513714Y-93583333D01*
X173418476Y-93630952D01*
X173370857Y-93678571D01*
X173323238Y-93773809D01*
G04 #@! TO.C,J8*
X92011380Y-160480333D02*
X92725666Y-160480333D01*
X92868523Y-160527952D01*
X92963761Y-160623190D01*
X93011380Y-160766047D01*
X93011380Y-160861285D01*
X92439952Y-159861285D02*
X92392333Y-159956523D01*
X92344714Y-160004142D01*
X92249476Y-160051761D01*
X92201857Y-160051761D01*
X92106619Y-160004142D01*
X92059000Y-159956523D01*
X92011380Y-159861285D01*
X92011380Y-159670809D01*
X92059000Y-159575571D01*
X92106619Y-159527952D01*
X92201857Y-159480333D01*
X92249476Y-159480333D01*
X92344714Y-159527952D01*
X92392333Y-159575571D01*
X92439952Y-159670809D01*
X92439952Y-159861285D01*
X92487571Y-159956523D01*
X92535190Y-160004142D01*
X92630428Y-160051761D01*
X92820904Y-160051761D01*
X92916142Y-160004142D01*
X92963761Y-159956523D01*
X93011380Y-159861285D01*
X93011380Y-159670809D01*
X92963761Y-159575571D01*
X92916142Y-159527952D01*
X92820904Y-159480333D01*
X92630428Y-159480333D01*
X92535190Y-159527952D01*
X92487571Y-159575571D01*
X92439952Y-159670809D01*
G04 #@! TO.C,U3*
X165372095Y-70747380D02*
X165372095Y-71556904D01*
X165419714Y-71652142D01*
X165467333Y-71699761D01*
X165562571Y-71747380D01*
X165753047Y-71747380D01*
X165848285Y-71699761D01*
X165895904Y-71652142D01*
X165943523Y-71556904D01*
X165943523Y-70747380D01*
X166324476Y-70747380D02*
X166943523Y-70747380D01*
X166610190Y-71128333D01*
X166753047Y-71128333D01*
X166848285Y-71175952D01*
X166895904Y-71223571D01*
X166943523Y-71318809D01*
X166943523Y-71556904D01*
X166895904Y-71652142D01*
X166848285Y-71699761D01*
X166753047Y-71747380D01*
X166467333Y-71747380D01*
X166372095Y-71699761D01*
X166324476Y-71652142D01*
G04 #@! TO.C,C2*
X170422333Y-73552142D02*
X170374714Y-73599761D01*
X170231857Y-73647380D01*
X170136619Y-73647380D01*
X169993761Y-73599761D01*
X169898523Y-73504523D01*
X169850904Y-73409285D01*
X169803285Y-73218809D01*
X169803285Y-73075952D01*
X169850904Y-72885476D01*
X169898523Y-72790238D01*
X169993761Y-72695000D01*
X170136619Y-72647380D01*
X170231857Y-72647380D01*
X170374714Y-72695000D01*
X170422333Y-72742619D01*
X170803285Y-72742619D02*
X170850904Y-72695000D01*
X170946142Y-72647380D01*
X171184238Y-72647380D01*
X171279476Y-72695000D01*
X171327095Y-72742619D01*
X171374714Y-72837857D01*
X171374714Y-72933095D01*
X171327095Y-73075952D01*
X170755666Y-73647380D01*
X171374714Y-73647380D01*
G04 #@! TO.C,C3*
X171057333Y-88157142D02*
X171009714Y-88204761D01*
X170866857Y-88252380D01*
X170771619Y-88252380D01*
X170628761Y-88204761D01*
X170533523Y-88109523D01*
X170485904Y-88014285D01*
X170438285Y-87823809D01*
X170438285Y-87680952D01*
X170485904Y-87490476D01*
X170533523Y-87395238D01*
X170628761Y-87300000D01*
X170771619Y-87252380D01*
X170866857Y-87252380D01*
X171009714Y-87300000D01*
X171057333Y-87347619D01*
X171390666Y-87252380D02*
X172009714Y-87252380D01*
X171676380Y-87633333D01*
X171819238Y-87633333D01*
X171914476Y-87680952D01*
X171962095Y-87728571D01*
X172009714Y-87823809D01*
X172009714Y-88061904D01*
X171962095Y-88157142D01*
X171914476Y-88204761D01*
X171819238Y-88252380D01*
X171533523Y-88252380D01*
X171438285Y-88204761D01*
X171390666Y-88157142D01*
G04 #@! TO.C,C4*
X151317142Y-74108666D02*
X151364761Y-74156285D01*
X151412380Y-74299142D01*
X151412380Y-74394380D01*
X151364761Y-74537238D01*
X151269523Y-74632476D01*
X151174285Y-74680095D01*
X150983809Y-74727714D01*
X150840952Y-74727714D01*
X150650476Y-74680095D01*
X150555238Y-74632476D01*
X150460000Y-74537238D01*
X150412380Y-74394380D01*
X150412380Y-74299142D01*
X150460000Y-74156285D01*
X150507619Y-74108666D01*
X150745714Y-73251523D02*
X151412380Y-73251523D01*
X150364761Y-73489619D02*
X151079047Y-73727714D01*
X151079047Y-73108666D01*
G04 #@! TO.C,C1*
X148324333Y-58947142D02*
X148276714Y-58994761D01*
X148133857Y-59042380D01*
X148038619Y-59042380D01*
X147895761Y-58994761D01*
X147800523Y-58899523D01*
X147752904Y-58804285D01*
X147705285Y-58613809D01*
X147705285Y-58470952D01*
X147752904Y-58280476D01*
X147800523Y-58185238D01*
X147895761Y-58090000D01*
X148038619Y-58042380D01*
X148133857Y-58042380D01*
X148276714Y-58090000D01*
X148324333Y-58137619D01*
X149276714Y-59042380D02*
X148705285Y-59042380D01*
X148991000Y-59042380D02*
X148991000Y-58042380D01*
X148895761Y-58185238D01*
X148800523Y-58280476D01*
X148705285Y-58328095D01*
G04 #@! TO.C,J1*
X149653666Y-44689380D02*
X149653666Y-45403666D01*
X149606047Y-45546523D01*
X149510809Y-45641761D01*
X149367952Y-45689380D01*
X149272714Y-45689380D01*
X150653666Y-45689380D02*
X150082238Y-45689380D01*
X150367952Y-45689380D02*
X150367952Y-44689380D01*
X150272714Y-44832238D01*
X150177476Y-44927476D01*
X150082238Y-44975095D01*
G04 #@! TO.C,J10*
X113474380Y-161083523D02*
X114188666Y-161083523D01*
X114331523Y-161131142D01*
X114426761Y-161226380D01*
X114474380Y-161369238D01*
X114474380Y-161464476D01*
X114474380Y-160083523D02*
X114474380Y-160654952D01*
X114474380Y-160369238D02*
X113474380Y-160369238D01*
X113617238Y-160464476D01*
X113712476Y-160559714D01*
X113760095Y-160654952D01*
X113474380Y-159464476D02*
X113474380Y-159369238D01*
X113522000Y-159274000D01*
X113569619Y-159226380D01*
X113664857Y-159178761D01*
X113855333Y-159131142D01*
X114093428Y-159131142D01*
X114283904Y-159178761D01*
X114379142Y-159226380D01*
X114426761Y-159274000D01*
X114474380Y-159369238D01*
X114474380Y-159464476D01*
X114426761Y-159559714D01*
X114379142Y-159607333D01*
X114283904Y-159654952D01*
X114093428Y-159702571D01*
X113855333Y-159702571D01*
X113664857Y-159654952D01*
X113569619Y-159607333D01*
X113522000Y-159559714D01*
X113474380Y-159464476D01*
G04 #@! TO.C,R4*
X119706380Y-91606666D02*
X119230190Y-91940000D01*
X119706380Y-92178095D02*
X118706380Y-92178095D01*
X118706380Y-91797142D01*
X118754000Y-91701904D01*
X118801619Y-91654285D01*
X118896857Y-91606666D01*
X119039714Y-91606666D01*
X119134952Y-91654285D01*
X119182571Y-91701904D01*
X119230190Y-91797142D01*
X119230190Y-92178095D01*
X119039714Y-90749523D02*
X119706380Y-90749523D01*
X118658761Y-90987619D02*
X119373047Y-91225714D01*
X119373047Y-90606666D01*
G04 #@! TO.C,TB1*
D19*
X75331075Y-55699225D02*
X75902875Y-55699225D01*
X75616975Y-56699875D02*
X75616975Y-55699225D01*
X76569975Y-56175725D02*
X76712925Y-56223375D01*
X76760575Y-56271025D01*
X76808225Y-56366325D01*
X76808225Y-56509275D01*
X76760575Y-56604575D01*
X76712925Y-56652225D01*
X76617625Y-56699875D01*
X76236425Y-56699875D01*
X76236425Y-55699225D01*
X76569975Y-55699225D01*
X76665275Y-55746875D01*
X76712925Y-55794525D01*
X76760575Y-55889825D01*
X76760575Y-55985125D01*
X76712925Y-56080425D01*
X76665275Y-56128075D01*
X76569975Y-56175725D01*
X76236425Y-56175725D01*
X77761225Y-56699875D02*
X77189425Y-56699875D01*
X77475325Y-56699875D02*
X77475325Y-55699225D01*
X77380025Y-55842175D01*
X77284725Y-55937475D01*
X77189425Y-55985125D01*
X69698657Y-156840674D02*
X69841660Y-156888342D01*
X70079998Y-156888342D01*
X70175333Y-156840674D01*
X70223000Y-156793007D01*
X70270668Y-156697671D01*
X70270668Y-156602336D01*
X70223000Y-156507001D01*
X70175333Y-156459333D01*
X70079998Y-156411666D01*
X69889327Y-156363998D01*
X69793992Y-156316330D01*
X69746324Y-156268663D01*
X69698657Y-156173328D01*
X69698657Y-156077992D01*
X69746324Y-155982657D01*
X69793992Y-155934990D01*
X69889327Y-155887322D01*
X70127665Y-155887322D01*
X70270668Y-155934990D01*
X70556674Y-155887322D02*
X71128685Y-155887322D01*
X70842680Y-156888342D02*
X70842680Y-155887322D01*
X71462359Y-156888342D02*
X71462359Y-155887322D01*
X71796032Y-156602336D01*
X72129705Y-155887322D01*
X72129705Y-156888342D01*
X72511046Y-155887322D02*
X73130725Y-155887322D01*
X72797052Y-156268663D01*
X72940055Y-156268663D01*
X73035390Y-156316330D01*
X73083058Y-156363998D01*
X73130725Y-156459333D01*
X73130725Y-156697671D01*
X73083058Y-156793007D01*
X73035390Y-156840674D01*
X72940055Y-156888342D01*
X72654049Y-156888342D01*
X72558714Y-156840674D01*
X72511046Y-156793007D01*
X73512066Y-155982657D02*
X73559734Y-155934990D01*
X73655069Y-155887322D01*
X73893407Y-155887322D01*
X73988742Y-155934990D01*
X74036410Y-155982657D01*
X74084078Y-156077992D01*
X74084078Y-156173328D01*
X74036410Y-156316330D01*
X73464399Y-156888342D01*
X74084078Y-156888342D01*
X74846760Y-156363998D02*
X74513086Y-156363998D01*
X74513086Y-156888342D02*
X74513086Y-155887322D01*
X74989762Y-155887322D01*
X75800112Y-156220995D02*
X75800112Y-156888342D01*
X75561774Y-155839654D02*
X75323436Y-156554669D01*
X75943115Y-156554669D01*
X76324456Y-156888342D02*
X76324456Y-155887322D01*
X76562794Y-155887322D01*
X76705797Y-155934990D01*
X76801132Y-156030325D01*
X76848800Y-156125660D01*
X76896467Y-156316330D01*
X76896467Y-156459333D01*
X76848800Y-156650004D01*
X76801132Y-156745339D01*
X76705797Y-156840674D01*
X76562794Y-156888342D01*
X76324456Y-156888342D01*
X77325476Y-156888342D02*
X77325476Y-155887322D01*
X77754484Y-156840674D02*
X77897487Y-156888342D01*
X78135825Y-156888342D01*
X78231160Y-156840674D01*
X78278828Y-156793007D01*
X78326496Y-156697671D01*
X78326496Y-156602336D01*
X78278828Y-156507001D01*
X78231160Y-156459333D01*
X78135825Y-156411666D01*
X77945155Y-156363998D01*
X77849820Y-156316330D01*
X77802152Y-156268663D01*
X77754484Y-156173328D01*
X77754484Y-156077992D01*
X77802152Y-155982657D01*
X77849820Y-155934990D01*
X77945155Y-155887322D01*
X78183493Y-155887322D01*
X78326496Y-155934990D01*
X79327516Y-156793007D02*
X79279848Y-156840674D01*
X79136845Y-156888342D01*
X79041510Y-156888342D01*
X78898507Y-156840674D01*
X78803172Y-156745339D01*
X78755504Y-156650004D01*
X78707837Y-156459333D01*
X78707837Y-156316330D01*
X78755504Y-156125660D01*
X78803172Y-156030325D01*
X78898507Y-155934990D01*
X79041510Y-155887322D01*
X79136845Y-155887322D01*
X79279848Y-155934990D01*
X79327516Y-155982657D01*
X79947195Y-155887322D02*
X80137865Y-155887322D01*
X80233200Y-155934990D01*
X80328536Y-156030325D01*
X80376203Y-156220995D01*
X80376203Y-156554669D01*
X80328536Y-156745339D01*
X80233200Y-156840674D01*
X80137865Y-156888342D01*
X79947195Y-156888342D01*
X79851860Y-156840674D01*
X79756524Y-156745339D01*
X79708857Y-156554669D01*
X79708857Y-156220995D01*
X79756524Y-156030325D01*
X79851860Y-155934990D01*
X79947195Y-155887322D01*
X80662209Y-155887322D02*
X80995882Y-156888342D01*
X81329556Y-155887322D01*
X81663229Y-156363998D02*
X81996902Y-156363998D01*
X82139905Y-156888342D02*
X81663229Y-156888342D01*
X81663229Y-155887322D01*
X82139905Y-155887322D01*
X83140925Y-156888342D02*
X82807252Y-156411666D01*
X82568914Y-156888342D02*
X82568914Y-155887322D01*
X82950255Y-155887322D01*
X83045590Y-155934990D01*
X83093258Y-155982657D01*
X83140925Y-156077992D01*
X83140925Y-156220995D01*
X83093258Y-156316330D01*
X83045590Y-156363998D01*
X82950255Y-156411666D01*
X82568914Y-156411666D01*
X83760604Y-156411666D02*
X83760604Y-156888342D01*
X83426931Y-155887322D02*
X83760604Y-156411666D01*
X84094278Y-155887322D01*
G04 #@! TO.C,J9*
D18*
X152193666Y-143680380D02*
X152193666Y-144394666D01*
X152146047Y-144537523D01*
X152050809Y-144632761D01*
X151907952Y-144680380D01*
X151812714Y-144680380D01*
X152717476Y-144680380D02*
X152907952Y-144680380D01*
X153003190Y-144632761D01*
X153050809Y-144585142D01*
X153146047Y-144442285D01*
X153193666Y-144251809D01*
X153193666Y-143870857D01*
X153146047Y-143775619D01*
X153098428Y-143728000D01*
X153003190Y-143680380D01*
X152812714Y-143680380D01*
X152717476Y-143728000D01*
X152669857Y-143775619D01*
X152622238Y-143870857D01*
X152622238Y-144108952D01*
X152669857Y-144204190D01*
X152717476Y-144251809D01*
X152812714Y-144299428D01*
X153003190Y-144299428D01*
X153098428Y-144251809D01*
X153146047Y-144204190D01*
X153193666Y-144108952D01*
G04 #@! TO.C,RV1*
X97901380Y-41235238D02*
X97425190Y-41568571D01*
X97901380Y-41806666D02*
X96901380Y-41806666D01*
X96901380Y-41425714D01*
X96949000Y-41330476D01*
X96996619Y-41282857D01*
X97091857Y-41235238D01*
X97234714Y-41235238D01*
X97329952Y-41282857D01*
X97377571Y-41330476D01*
X97425190Y-41425714D01*
X97425190Y-41806666D01*
X96901380Y-40949523D02*
X97901380Y-40616190D01*
X96901380Y-40282857D01*
X97901380Y-39425714D02*
X97901380Y-39997142D01*
X97901380Y-39711428D02*
X96901380Y-39711428D01*
X97044238Y-39806666D01*
X97139476Y-39901904D01*
X97187095Y-39997142D01*
G04 #@! TO.C,J7*
X109331380Y-53038333D02*
X110045666Y-53038333D01*
X110188523Y-53085952D01*
X110283761Y-53181190D01*
X110331380Y-53324047D01*
X110331380Y-53419285D01*
X109331380Y-52657380D02*
X109331380Y-51990714D01*
X110331380Y-52419285D01*
G04 #@! TO.C,J4*
X64055666Y-57642380D02*
X64055666Y-58356666D01*
X64008047Y-58499523D01*
X63912809Y-58594761D01*
X63769952Y-58642380D01*
X63674714Y-58642380D01*
X64960428Y-57975714D02*
X64960428Y-58642380D01*
X64722333Y-57594761D02*
X64484238Y-58309047D01*
X65103285Y-58309047D01*
G04 #@! TO.C,J2*
X172640666Y-115252380D02*
X172640666Y-115966666D01*
X172593047Y-116109523D01*
X172497809Y-116204761D01*
X172354952Y-116252380D01*
X172259714Y-116252380D01*
X173069238Y-115347619D02*
X173116857Y-115300000D01*
X173212095Y-115252380D01*
X173450190Y-115252380D01*
X173545428Y-115300000D01*
X173593047Y-115347619D01*
X173640666Y-115442857D01*
X173640666Y-115538095D01*
X173593047Y-115680952D01*
X173021619Y-116252380D01*
X173640666Y-116252380D01*
G04 #@! TO.C,J5*
X172640666Y-140652380D02*
X172640666Y-141366666D01*
X172593047Y-141509523D01*
X172497809Y-141604761D01*
X172354952Y-141652380D01*
X172259714Y-141652380D01*
X173593047Y-140652380D02*
X173116857Y-140652380D01*
X173069238Y-141128571D01*
X173116857Y-141080952D01*
X173212095Y-141033333D01*
X173450190Y-141033333D01*
X173545428Y-141080952D01*
X173593047Y-141128571D01*
X173640666Y-141223809D01*
X173640666Y-141461904D01*
X173593047Y-141557142D01*
X173545428Y-141604761D01*
X173450190Y-141652380D01*
X173212095Y-141652380D01*
X173116857Y-141604761D01*
X173069238Y-141557142D01*
G04 #@! TO.C,J3*
X102044380Y-160607333D02*
X102758666Y-160607333D01*
X102901523Y-160654952D01*
X102996761Y-160750190D01*
X103044380Y-160893047D01*
X103044380Y-160988285D01*
X102044380Y-160226380D02*
X102044380Y-159607333D01*
X102425333Y-159940666D01*
X102425333Y-159797809D01*
X102472952Y-159702571D01*
X102520571Y-159654952D01*
X102615809Y-159607333D01*
X102853904Y-159607333D01*
X102949142Y-159654952D01*
X102996761Y-159702571D01*
X103044380Y-159797809D01*
X103044380Y-160083523D01*
X102996761Y-160178761D01*
X102949142Y-160226380D01*
G04 #@! TO.C,D3*
X65526379Y-153433096D02*
X64526379Y-153433096D01*
X64526379Y-153195001D01*
X64573999Y-153052143D01*
X64669237Y-152956905D01*
X64764475Y-152909286D01*
X64954951Y-152861667D01*
X65097808Y-152861667D01*
X65288284Y-152909286D01*
X65383522Y-152956905D01*
X65478760Y-153052143D01*
X65526379Y-153195001D01*
X65526379Y-153433096D01*
X64526379Y-152528334D02*
X64526379Y-151909286D01*
X64907332Y-152242620D01*
X64907332Y-152099762D01*
X64954951Y-152004524D01*
X65002570Y-151956905D01*
X65097808Y-151909286D01*
X65335903Y-151909286D01*
X65431141Y-151956905D01*
X65478760Y-152004524D01*
X65526379Y-152099762D01*
X65526379Y-152385477D01*
X65478760Y-152480715D01*
X65431141Y-152528334D01*
G04 #@! TO.C,D2*
X65526379Y-146933096D02*
X64526379Y-146933096D01*
X64526379Y-146695001D01*
X64573999Y-146552143D01*
X64669237Y-146456905D01*
X64764475Y-146409286D01*
X64954951Y-146361667D01*
X65097808Y-146361667D01*
X65288284Y-146409286D01*
X65383522Y-146456905D01*
X65478760Y-146552143D01*
X65526379Y-146695001D01*
X65526379Y-146933096D01*
X64621618Y-145980715D02*
X64573999Y-145933096D01*
X64526379Y-145837858D01*
X64526379Y-145599762D01*
X64573999Y-145504524D01*
X64621618Y-145456905D01*
X64716856Y-145409286D01*
X64812094Y-145409286D01*
X64954951Y-145456905D01*
X65526379Y-146028334D01*
X65526379Y-145409286D01*
G04 #@! TO.C,D1*
X65526379Y-140433096D02*
X64526379Y-140433096D01*
X64526379Y-140195001D01*
X64573999Y-140052143D01*
X64669237Y-139956905D01*
X64764475Y-139909286D01*
X64954951Y-139861667D01*
X65097808Y-139861667D01*
X65288284Y-139909286D01*
X65383522Y-139956905D01*
X65478760Y-140052143D01*
X65526379Y-140195001D01*
X65526379Y-140433096D01*
X65526379Y-138909286D02*
X65526379Y-139480715D01*
X65526379Y-139195001D02*
X64526379Y-139195001D01*
X64669237Y-139290239D01*
X64764475Y-139385477D01*
X64812094Y-139480715D01*
G04 #@! TO.C,R2*
X45172333Y-142237380D02*
X44839000Y-141761190D01*
X44600904Y-142237380D02*
X44600904Y-141237380D01*
X44981857Y-141237380D01*
X45077095Y-141285000D01*
X45124714Y-141332619D01*
X45172333Y-141427857D01*
X45172333Y-141570714D01*
X45124714Y-141665952D01*
X45077095Y-141713571D01*
X44981857Y-141761190D01*
X44600904Y-141761190D01*
X45553285Y-141332619D02*
X45600904Y-141285000D01*
X45696142Y-141237380D01*
X45934238Y-141237380D01*
X46029476Y-141285000D01*
X46077095Y-141332619D01*
X46124714Y-141427857D01*
X46124714Y-141523095D01*
X46077095Y-141665952D01*
X45505666Y-142237380D01*
X46124714Y-142237380D01*
G04 #@! TO.C,R3*
X45172333Y-148587380D02*
X44839000Y-148111190D01*
X44600904Y-148587380D02*
X44600904Y-147587380D01*
X44981857Y-147587380D01*
X45077095Y-147635000D01*
X45124714Y-147682619D01*
X45172333Y-147777857D01*
X45172333Y-147920714D01*
X45124714Y-148015952D01*
X45077095Y-148063571D01*
X44981857Y-148111190D01*
X44600904Y-148111190D01*
X45505666Y-147587380D02*
X46124714Y-147587380D01*
X45791380Y-147968333D01*
X45934238Y-147968333D01*
X46029476Y-148015952D01*
X46077095Y-148063571D01*
X46124714Y-148158809D01*
X46124714Y-148396904D01*
X46077095Y-148492142D01*
X46029476Y-148539761D01*
X45934238Y-148587380D01*
X45648523Y-148587380D01*
X45553285Y-148539761D01*
X45505666Y-148492142D01*
G04 #@! TO.C,R1*
X45172333Y-135887380D02*
X44839000Y-135411190D01*
X44600904Y-135887380D02*
X44600904Y-134887380D01*
X44981857Y-134887380D01*
X45077095Y-134935000D01*
X45124714Y-134982619D01*
X45172333Y-135077857D01*
X45172333Y-135220714D01*
X45124714Y-135315952D01*
X45077095Y-135363571D01*
X44981857Y-135411190D01*
X44600904Y-135411190D01*
X46124714Y-135887380D02*
X45553285Y-135887380D01*
X45839000Y-135887380D02*
X45839000Y-134887380D01*
X45743761Y-135030238D01*
X45648523Y-135125476D01*
X45553285Y-135173095D01*
G04 #@! TO.C,U1*
D19*
X170265374Y-125628851D02*
X172404751Y-125628851D01*
X172656442Y-125503005D01*
X172782288Y-125377160D01*
X172908134Y-125125468D01*
X172908134Y-124622085D01*
X172782288Y-124370394D01*
X172656442Y-124244548D01*
X172404751Y-124118702D01*
X170265374Y-124118702D01*
X172908134Y-121475942D02*
X172908134Y-122986091D01*
X172908134Y-122231017D02*
X170265374Y-122231017D01*
X170642911Y-122482708D01*
X170894602Y-122734400D01*
X171020448Y-122986091D01*
X149604808Y-131924090D02*
X149730679Y-132049960D01*
X149856549Y-132427572D01*
X149856549Y-132679313D01*
X149730679Y-133056924D01*
X149478938Y-133308665D01*
X149227197Y-133434536D01*
X148723715Y-133560406D01*
X148346103Y-133560406D01*
X147842621Y-133434536D01*
X147590880Y-133308665D01*
X147339140Y-133056924D01*
X147213269Y-132679313D01*
X147213269Y-132427572D01*
X147339140Y-132049960D01*
X147465010Y-131924090D01*
X149856549Y-130791256D02*
X147213269Y-130791256D01*
X147213269Y-130161903D01*
X147339140Y-129784292D01*
X147590880Y-129532551D01*
X147842621Y-129406680D01*
X148346103Y-129280810D01*
X148723715Y-129280810D01*
X149227197Y-129406680D01*
X149478938Y-129532551D01*
X149730679Y-129784292D01*
X149856549Y-130161903D01*
X149856549Y-130791256D01*
X148094362Y-127015141D02*
X149856549Y-127015141D01*
X147087399Y-127644494D02*
X148975456Y-128273846D01*
X148975456Y-126637530D01*
X147213269Y-125127084D02*
X147213269Y-124875343D01*
X147339140Y-124623602D01*
X147465010Y-124497732D01*
X147716751Y-124371861D01*
X148220233Y-124245991D01*
X148849585Y-124245991D01*
X149353067Y-124371861D01*
X149604808Y-124497732D01*
X149730679Y-124623602D01*
X149856549Y-124875343D01*
X149856549Y-125127084D01*
X149730679Y-125378825D01*
X149604808Y-125504696D01*
X149353067Y-125630566D01*
X148849585Y-125756437D01*
X148220233Y-125756437D01*
X147716751Y-125630566D01*
X147465010Y-125504696D01*
X147339140Y-125378825D01*
X147213269Y-125127084D01*
X147213269Y-121854452D02*
X147213269Y-123113157D01*
X148471974Y-123239027D01*
X148346103Y-123113157D01*
X148220233Y-122861416D01*
X148220233Y-122232063D01*
X148346103Y-121980322D01*
X148471974Y-121854452D01*
X148723715Y-121728581D01*
X149353067Y-121728581D01*
X149604808Y-121854452D01*
X149730679Y-121980322D01*
X149856549Y-122232063D01*
X149856549Y-122861416D01*
X149730679Y-123113157D01*
X149604808Y-123239027D01*
X147213269Y-120092265D02*
X147213269Y-119840524D01*
X147339140Y-119588783D01*
X147465010Y-119462913D01*
X147716751Y-119337042D01*
X148220233Y-119211172D01*
X148849585Y-119211172D01*
X149353067Y-119337042D01*
X149604808Y-119462913D01*
X149730679Y-119588783D01*
X149856549Y-119840524D01*
X149856549Y-120092265D01*
X149730679Y-120344006D01*
X149604808Y-120469877D01*
X149353067Y-120595747D01*
X148849585Y-120721618D01*
X148220233Y-120721618D01*
X147716751Y-120595747D01*
X147465010Y-120469877D01*
X147339140Y-120344006D01*
X147213269Y-120092265D01*
X148471974Y-117197244D02*
X148597844Y-116819633D01*
X148723715Y-116693762D01*
X148975456Y-116567892D01*
X149353067Y-116567892D01*
X149604808Y-116693762D01*
X149730679Y-116819633D01*
X149856549Y-117071374D01*
X149856549Y-118078338D01*
X147213269Y-118078338D01*
X147213269Y-117197244D01*
X147339140Y-116945503D01*
X147465010Y-116819633D01*
X147716751Y-116693762D01*
X147968492Y-116693762D01*
X148220233Y-116819633D01*
X148346103Y-116945503D01*
X148471974Y-117197244D01*
X148471974Y-118078338D01*
X148471974Y-115435058D02*
X148471974Y-114553964D01*
X149856549Y-114176353D02*
X149856549Y-115435058D01*
X147213269Y-115435058D01*
X147213269Y-114176353D01*
G04 #@! TO.C,U2*
D18*
X163322095Y-56702380D02*
X163322095Y-57511904D01*
X163369714Y-57607142D01*
X163417333Y-57654761D01*
X163512571Y-57702380D01*
X163703047Y-57702380D01*
X163798285Y-57654761D01*
X163845904Y-57607142D01*
X163893523Y-57511904D01*
X163893523Y-56702380D01*
X164322095Y-56797619D02*
X164369714Y-56750000D01*
X164464952Y-56702380D01*
X164703047Y-56702380D01*
X164798285Y-56750000D01*
X164845904Y-56797619D01*
X164893523Y-56892857D01*
X164893523Y-56988095D01*
X164845904Y-57130952D01*
X164274476Y-57702380D01*
X164893523Y-57702380D01*
G04 #@! TO.C,REF\002A\002A*
X22034666Y-29653380D02*
X21701333Y-29177190D01*
X21463238Y-29653380D02*
X21463238Y-28653380D01*
X21844190Y-28653380D01*
X21939428Y-28701000D01*
X21987047Y-28748619D01*
X22034666Y-28843857D01*
X22034666Y-28986714D01*
X21987047Y-29081952D01*
X21939428Y-29129571D01*
X21844190Y-29177190D01*
X21463238Y-29177190D01*
X22463238Y-29129571D02*
X22796571Y-29129571D01*
X22939428Y-29653380D02*
X22463238Y-29653380D01*
X22463238Y-28653380D01*
X22939428Y-28653380D01*
X23701333Y-29129571D02*
X23368000Y-29129571D01*
X23368000Y-29653380D02*
X23368000Y-28653380D01*
X23844190Y-28653380D01*
X24368000Y-28653380D02*
X24368000Y-28891476D01*
X24129904Y-28796238D02*
X24368000Y-28891476D01*
X24606095Y-28796238D01*
X24225142Y-29081952D02*
X24368000Y-28891476D01*
X24510857Y-29081952D01*
X25129904Y-28653380D02*
X25129904Y-28891476D01*
X24891809Y-28796238D02*
X25129904Y-28891476D01*
X25368000Y-28796238D01*
X24987047Y-29081952D02*
X25129904Y-28891476D01*
X25272761Y-29081952D01*
X22796666Y-154875380D02*
X22463333Y-154399190D01*
X22225238Y-154875380D02*
X22225238Y-153875380D01*
X22606190Y-153875380D01*
X22701428Y-153923000D01*
X22749047Y-153970619D01*
X22796666Y-154065857D01*
X22796666Y-154208714D01*
X22749047Y-154303952D01*
X22701428Y-154351571D01*
X22606190Y-154399190D01*
X22225238Y-154399190D01*
X23225238Y-154351571D02*
X23558571Y-154351571D01*
X23701428Y-154875380D02*
X23225238Y-154875380D01*
X23225238Y-153875380D01*
X23701428Y-153875380D01*
X24463333Y-154351571D02*
X24130000Y-154351571D01*
X24130000Y-154875380D02*
X24130000Y-153875380D01*
X24606190Y-153875380D01*
X25130000Y-153875380D02*
X25130000Y-154113476D01*
X24891904Y-154018238D02*
X25130000Y-154113476D01*
X25368095Y-154018238D01*
X24987142Y-154303952D02*
X25130000Y-154113476D01*
X25272857Y-154303952D01*
X25891904Y-153875380D02*
X25891904Y-154113476D01*
X25653809Y-154018238D02*
X25891904Y-154113476D01*
X26130000Y-154018238D01*
X25749047Y-154303952D02*
X25891904Y-154113476D01*
X26034761Y-154303952D01*
X181292666Y-153859380D02*
X180959333Y-153383190D01*
X180721238Y-153859380D02*
X180721238Y-152859380D01*
X181102190Y-152859380D01*
X181197428Y-152907000D01*
X181245047Y-152954619D01*
X181292666Y-153049857D01*
X181292666Y-153192714D01*
X181245047Y-153287952D01*
X181197428Y-153335571D01*
X181102190Y-153383190D01*
X180721238Y-153383190D01*
X181721238Y-153335571D02*
X182054571Y-153335571D01*
X182197428Y-153859380D02*
X181721238Y-153859380D01*
X181721238Y-152859380D01*
X182197428Y-152859380D01*
X182959333Y-153335571D02*
X182626000Y-153335571D01*
X182626000Y-153859380D02*
X182626000Y-152859380D01*
X183102190Y-152859380D01*
X183626000Y-152859380D02*
X183626000Y-153097476D01*
X183387904Y-153002238D02*
X183626000Y-153097476D01*
X183864095Y-153002238D01*
X183483142Y-153287952D02*
X183626000Y-153097476D01*
X183768857Y-153287952D01*
X184387904Y-152859380D02*
X184387904Y-153097476D01*
X184149809Y-153002238D02*
X184387904Y-153097476D01*
X184626000Y-153002238D01*
X184245047Y-153287952D02*
X184387904Y-153097476D01*
X184530761Y-153287952D01*
X180911666Y-30415380D02*
X180578333Y-29939190D01*
X180340238Y-30415380D02*
X180340238Y-29415380D01*
X180721190Y-29415380D01*
X180816428Y-29463000D01*
X180864047Y-29510619D01*
X180911666Y-29605857D01*
X180911666Y-29748714D01*
X180864047Y-29843952D01*
X180816428Y-29891571D01*
X180721190Y-29939190D01*
X180340238Y-29939190D01*
X181340238Y-29891571D02*
X181673571Y-29891571D01*
X181816428Y-30415380D02*
X181340238Y-30415380D01*
X181340238Y-29415380D01*
X181816428Y-29415380D01*
X182578333Y-29891571D02*
X182245000Y-29891571D01*
X182245000Y-30415380D02*
X182245000Y-29415380D01*
X182721190Y-29415380D01*
X183245000Y-29415380D02*
X183245000Y-29653476D01*
X183006904Y-29558238D02*
X183245000Y-29653476D01*
X183483095Y-29558238D01*
X183102142Y-29843952D02*
X183245000Y-29653476D01*
X183387857Y-29843952D01*
X184006904Y-29415380D02*
X184006904Y-29653476D01*
X183768809Y-29558238D02*
X184006904Y-29653476D01*
X184245000Y-29558238D01*
X183864047Y-29843952D02*
X184006904Y-29653476D01*
X184149761Y-29843952D01*
G04 #@! TD*
M02*
